G04 Layer_Color=8388736*
%FSLAX25Y25*%
%MOIN*%
G70*
G01*
G75*
%ADD84R,0.07874X0.02362*%
%ADD85R,0.02362X0.07874*%
%ADD86R,0.04331X0.02756*%
%ADD87R,0.02756X0.04331*%
G04:AMPARAMS|DCode=88|XSize=43.31mil|YSize=27.56mil|CornerRadius=0mil|HoleSize=0mil|Usage=FLASHONLY|Rotation=315.000|XOffset=0mil|YOffset=0mil|HoleType=Round|Shape=Rectangle|*
%AMROTATEDRECTD88*
4,1,4,-0.02506,0.00557,-0.00557,0.02506,0.02506,-0.00557,0.00557,-0.02506,-0.02506,0.00557,0.0*
%
%ADD88ROTATEDRECTD88*%

%ADD89C,0.06299*%
%ADD90C,0.03450*%
%ADD91R,0.08174X0.06599*%
%ADD92R,0.08174X0.08174*%
%ADD93R,0.04434X0.02859*%
%ADD94R,0.03300X0.05300*%
%ADD95R,0.10812X0.10300*%
%ADD96R,0.03843X0.03056*%
%ADD97R,0.03056X0.03843*%
%ADD98R,0.04434X0.02662*%
%ADD99O,0.03450X0.01481*%
%ADD100O,0.06009X0.02662*%
%ADD101R,0.06402X0.05812*%
%ADD102R,0.06890X0.06299*%
%ADD103R,0.02662X0.02662*%
%ADD104O,0.06796X0.02859*%
%ADD105O,0.05615X0.01481*%
%ADD106O,0.07387X0.01481*%
%ADD107O,0.01481X0.07387*%
%ADD108R,0.03804X0.06599*%
%ADD109R,0.03450X0.01481*%
%ADD110O,0.06205X0.02662*%
%ADD111R,0.05812X0.06402*%
%ADD112R,0.06299X0.06890*%
%ADD113R,0.13883X0.12702*%
%ADD114R,0.02859X0.05221*%
%ADD115R,0.05221X0.02859*%
%ADD116R,0.03292X0.09749*%
%ADD117R,0.04316X0.03331*%
%ADD118R,0.03331X0.04316*%
%ADD119R,0.05024X0.05221*%
%ADD120R,0.05221X0.05024*%
%ADD121R,0.02662X0.02662*%
%ADD122R,0.05221X0.07583*%
%ADD123R,0.02662X0.04434*%
%ADD124R,0.04237X0.02662*%
%ADD125O,0.06402X0.03056*%
%ADD126R,0.02662X0.04040*%
%ADD127R,0.02859X0.05024*%
%ADD128R,0.03068X0.02269*%
%ADD129R,0.05024X0.02859*%
%ADD130R,0.02269X0.03068*%
%ADD131R,0.03450X0.03450*%
%ADD132R,0.03450X0.03450*%
%ADD133R,0.18804X0.18016*%
%ADD134R,0.18016X0.18804*%
%ADD135C,0.12300*%
%ADD136C,0.06993*%
%ADD137C,0.08174*%
%ADD138C,0.12505*%
%ADD139C,0.12111*%
%ADD140C,0.05700*%
%ADD141C,0.04237*%
%ADD142C,0.45276*%
D84*
X515256Y447146D02*
D03*
D85*
D03*
D86*
X320374Y449606D02*
D03*
Y432579D02*
D03*
Y415748D02*
D03*
X484719Y267323D02*
D03*
X408045D02*
D03*
X331372D02*
D03*
X254699D02*
D03*
D87*
X437205Y452952D02*
D03*
X442913D02*
D03*
X449213D02*
D03*
X522933Y260605D02*
D03*
X446260D02*
D03*
X369587D02*
D03*
X292913D02*
D03*
D88*
X348140Y334547D02*
D03*
D89*
X502268Y142520D02*
D03*
X297047D02*
D03*
X502268Y447342D02*
D03*
X354232Y389567D02*
D03*
X415256Y450591D02*
D03*
D90*
X434646Y368110D02*
D03*
X414963Y334941D02*
D03*
X442028Y368111D02*
D03*
X472442Y337008D02*
D03*
X437794Y362697D02*
D03*
X449803Y368111D02*
D03*
X355709Y337107D02*
D03*
Y331791D02*
D03*
X342976Y337500D02*
D03*
X390059Y346259D02*
D03*
X384743Y346259D02*
D03*
X307282Y328151D02*
D03*
X312598Y324551D02*
D03*
D91*
X407678Y355906D02*
D03*
Y365158D02*
D03*
D92*
X391929Y360532D02*
D03*
D93*
X439450Y472836D02*
D03*
Y468308D02*
D03*
X446340Y472836D02*
D03*
Y468308D02*
D03*
D94*
X356297Y489568D02*
D03*
X325001Y489567D02*
D03*
D95*
X347047Y489568D02*
D03*
X334251Y489567D02*
D03*
D96*
X409450Y337990D02*
D03*
Y332478D02*
D03*
X469784Y441729D02*
D03*
Y436218D02*
D03*
X488878Y350394D02*
D03*
Y344882D02*
D03*
X290616Y230020D02*
D03*
Y235531D02*
D03*
X367289Y230020D02*
D03*
Y235531D02*
D03*
X443963Y230020D02*
D03*
Y235531D02*
D03*
X520636Y230020D02*
D03*
Y235531D02*
D03*
X258169Y249726D02*
D03*
Y255238D02*
D03*
X334843Y249726D02*
D03*
Y255238D02*
D03*
X411516Y249726D02*
D03*
Y255238D02*
D03*
X488189Y249726D02*
D03*
Y255238D02*
D03*
X294488Y267520D02*
D03*
Y273031D02*
D03*
X371162Y267520D02*
D03*
Y273031D02*
D03*
X447835Y267520D02*
D03*
Y273031D02*
D03*
X524508Y267520D02*
D03*
Y273031D02*
D03*
X249311Y273031D02*
D03*
Y267520D02*
D03*
X325984Y273031D02*
D03*
Y267520D02*
D03*
X402658Y273031D02*
D03*
Y267520D02*
D03*
X479331Y273031D02*
D03*
Y267520D02*
D03*
X449214Y463091D02*
D03*
Y457579D02*
D03*
X442913Y463091D02*
D03*
Y457579D02*
D03*
X437204Y463091D02*
D03*
Y457579D02*
D03*
X414566Y460532D02*
D03*
Y466043D02*
D03*
X387049Y114370D02*
D03*
Y108858D02*
D03*
X387049Y121064D02*
D03*
Y126576D02*
D03*
X369884Y146555D02*
D03*
Y141043D02*
D03*
X377365Y146457D02*
D03*
Y140945D02*
D03*
X354921Y146573D02*
D03*
Y141061D02*
D03*
X295553Y356098D02*
D03*
Y361610D02*
D03*
Y366532D02*
D03*
Y372044D02*
D03*
X431501Y445766D02*
D03*
Y440254D02*
D03*
X346361Y396260D02*
D03*
Y401772D02*
D03*
X416580Y376670D02*
D03*
Y382182D02*
D03*
X335884Y467027D02*
D03*
Y472538D02*
D03*
X387049Y133270D02*
D03*
Y138781D02*
D03*
X362403Y146653D02*
D03*
Y141142D02*
D03*
X444291Y380906D02*
D03*
Y375394D02*
D03*
X438189Y380906D02*
D03*
Y375394D02*
D03*
X432087Y380906D02*
D03*
Y375394D02*
D03*
X425984Y380906D02*
D03*
Y375394D02*
D03*
D97*
X460039Y381595D02*
D03*
X454528D02*
D03*
X245374Y240059D02*
D03*
X250886D02*
D03*
X322047D02*
D03*
X327559D02*
D03*
X398721D02*
D03*
X404232D02*
D03*
X475394D02*
D03*
X480906D02*
D03*
X287205Y255217D02*
D03*
X292717D02*
D03*
X363878D02*
D03*
X369390D02*
D03*
X440551D02*
D03*
X446063D02*
D03*
X517224D02*
D03*
X522736D02*
D03*
X243110Y260237D02*
D03*
X248622D02*
D03*
X319783D02*
D03*
X325295D02*
D03*
X396457D02*
D03*
X401969D02*
D03*
X473130D02*
D03*
X478642D02*
D03*
X344649Y327617D02*
D03*
X339137D02*
D03*
X306972Y404722D02*
D03*
X312483D02*
D03*
X306972Y415748D02*
D03*
X312483D02*
D03*
X306972Y421652D02*
D03*
X312483D02*
D03*
X306988Y432677D02*
D03*
X312500D02*
D03*
X355020Y151870D02*
D03*
X349508D02*
D03*
X306972Y438581D02*
D03*
X312483D02*
D03*
X306972Y449606D02*
D03*
X312483D02*
D03*
X470138Y447045D02*
D03*
X464626D02*
D03*
X326575Y348964D02*
D03*
X332087D02*
D03*
X376976Y462508D02*
D03*
X371465D02*
D03*
X319291Y387403D02*
D03*
X313779D02*
D03*
X400197Y110925D02*
D03*
X394685D02*
D03*
X377852Y153660D02*
D03*
X383364D02*
D03*
X395669Y156102D02*
D03*
X390158D02*
D03*
X324098Y444095D02*
D03*
X318587D02*
D03*
X324098Y427165D02*
D03*
X318587D02*
D03*
X324098Y410236D02*
D03*
X318587D02*
D03*
X352658Y342620D02*
D03*
X358169D02*
D03*
D98*
X402461Y339270D02*
D03*
Y331789D02*
D03*
X391634D02*
D03*
Y335529D02*
D03*
Y339270D02*
D03*
D99*
X420660Y341846D02*
D03*
Y339877D02*
D03*
Y337909D02*
D03*
Y335940D02*
D03*
X433258Y341846D02*
D03*
Y339877D02*
D03*
Y337909D02*
D03*
Y335940D02*
D03*
X433268Y346768D02*
D03*
Y348737D02*
D03*
Y350705D02*
D03*
Y352674D02*
D03*
X420669Y346768D02*
D03*
Y348737D02*
D03*
Y350705D02*
D03*
Y352674D02*
D03*
D100*
X444390Y362047D02*
D03*
Y357047D02*
D03*
Y352047D02*
D03*
Y347047D02*
D03*
Y342047D02*
D03*
Y337047D02*
D03*
Y332047D02*
D03*
X465846Y362047D02*
D03*
Y357047D02*
D03*
Y352047D02*
D03*
Y347047D02*
D03*
Y342047D02*
D03*
Y337047D02*
D03*
Y332047D02*
D03*
D101*
X498524Y348819D02*
D03*
X529823D02*
D03*
Y366929D02*
D03*
X340748Y109744D02*
D03*
X309449D02*
D03*
Y91634D02*
D03*
D102*
X498524Y366929D02*
D03*
X340748Y91634D02*
D03*
D103*
X403929Y344979D02*
D03*
X407866D02*
D03*
X420768Y331412D02*
D03*
X424705D02*
D03*
X433563Y357202D02*
D03*
X429626D02*
D03*
X466142Y368840D02*
D03*
X462205D02*
D03*
X332087Y343845D02*
D03*
X328150D02*
D03*
X410772Y383265D02*
D03*
X406835D02*
D03*
X344488Y389021D02*
D03*
X340551D02*
D03*
X359350Y459646D02*
D03*
X363287D02*
D03*
X403291Y456889D02*
D03*
X407228D02*
D03*
X429134Y427752D02*
D03*
X425197D02*
D03*
X313622Y382284D02*
D03*
X317559D02*
D03*
X302362D02*
D03*
X306299D02*
D03*
X395276Y116930D02*
D03*
X399213D02*
D03*
D104*
X355552Y130552D02*
D03*
Y125552D02*
D03*
Y120552D02*
D03*
Y115552D02*
D03*
X377796Y130552D02*
D03*
Y125552D02*
D03*
Y120552D02*
D03*
Y115552D02*
D03*
D105*
X331852Y330458D02*
D03*
Y332426D02*
D03*
Y334395D02*
D03*
Y336363D02*
D03*
Y338332D02*
D03*
X314333Y330458D02*
D03*
Y332426D02*
D03*
Y334395D02*
D03*
Y336363D02*
D03*
Y338332D02*
D03*
D106*
X414468Y396455D02*
D03*
Y398423D02*
D03*
Y400392D02*
D03*
Y402360D02*
D03*
Y404329D02*
D03*
Y406297D02*
D03*
Y408266D02*
D03*
Y410234D02*
D03*
Y412203D02*
D03*
Y414171D02*
D03*
Y416140D02*
D03*
Y418108D02*
D03*
Y420077D02*
D03*
Y422045D02*
D03*
Y424014D02*
D03*
Y425982D02*
D03*
Y427951D02*
D03*
Y429919D02*
D03*
Y431888D02*
D03*
Y433856D02*
D03*
Y435825D02*
D03*
Y437793D02*
D03*
Y439762D02*
D03*
Y441730D02*
D03*
Y443699D02*
D03*
X355020D02*
D03*
Y441730D02*
D03*
Y439762D02*
D03*
Y437793D02*
D03*
Y435825D02*
D03*
Y433856D02*
D03*
Y431888D02*
D03*
Y429919D02*
D03*
Y427951D02*
D03*
Y425982D02*
D03*
Y424014D02*
D03*
Y422045D02*
D03*
Y420077D02*
D03*
Y418108D02*
D03*
Y416140D02*
D03*
Y414171D02*
D03*
Y412203D02*
D03*
Y410234D02*
D03*
Y408266D02*
D03*
Y406297D02*
D03*
Y404329D02*
D03*
Y402360D02*
D03*
Y400392D02*
D03*
Y398423D02*
D03*
Y396455D02*
D03*
D107*
X408366Y449801D02*
D03*
X406398D02*
D03*
X404429D02*
D03*
X402461D02*
D03*
X400492D02*
D03*
X398524D02*
D03*
X396555D02*
D03*
X394587D02*
D03*
X392618D02*
D03*
X390650D02*
D03*
X388681D02*
D03*
X386713D02*
D03*
X384744D02*
D03*
X382776D02*
D03*
X380807D02*
D03*
X378839D02*
D03*
X376870D02*
D03*
X374902D02*
D03*
X372933D02*
D03*
X370965D02*
D03*
X368996D02*
D03*
X367028D02*
D03*
X365059D02*
D03*
X363090D02*
D03*
X361122D02*
D03*
Y390352D02*
D03*
X363090D02*
D03*
X365059D02*
D03*
X367028D02*
D03*
X368996D02*
D03*
X370965D02*
D03*
X372933D02*
D03*
X374902D02*
D03*
X376870D02*
D03*
X378839D02*
D03*
X380807D02*
D03*
X382776D02*
D03*
X384744D02*
D03*
X386713D02*
D03*
X388681D02*
D03*
X390650D02*
D03*
X392618D02*
D03*
X394587D02*
D03*
X396555D02*
D03*
X398524D02*
D03*
X400492D02*
D03*
X402461D02*
D03*
X404429D02*
D03*
X406398D02*
D03*
X408366D02*
D03*
D108*
X351063Y475787D02*
D03*
D109*
X346949Y478346D02*
D03*
Y475787D02*
D03*
Y473228D02*
D03*
X355177Y478346D02*
D03*
Y475787D02*
D03*
Y473228D02*
D03*
D110*
X302362Y376791D02*
D03*
Y371791D02*
D03*
Y366791D02*
D03*
Y361791D02*
D03*
X323622Y376791D02*
D03*
Y371791D02*
D03*
Y366791D02*
D03*
Y361791D02*
D03*
X440945Y117244D02*
D03*
Y122244D02*
D03*
Y127244D02*
D03*
Y132244D02*
D03*
Y137244D02*
D03*
Y142244D02*
D03*
Y147244D02*
D03*
Y152244D02*
D03*
X419685Y117244D02*
D03*
Y122244D02*
D03*
Y127244D02*
D03*
Y132244D02*
D03*
Y137244D02*
D03*
Y142244D02*
D03*
Y147244D02*
D03*
Y152244D02*
D03*
D111*
X470276Y485827D02*
D03*
Y454528D02*
D03*
X488386D02*
D03*
D112*
Y485827D02*
D03*
D113*
X299666Y318209D02*
D03*
Y301083D02*
D03*
D114*
X287008Y248030D02*
D03*
X290748Y242716D02*
D03*
X283268D02*
D03*
X363681Y248030D02*
D03*
X367421Y242716D02*
D03*
X359941D02*
D03*
X440354Y248030D02*
D03*
X444095Y242716D02*
D03*
X436614D02*
D03*
X517028Y248030D02*
D03*
X520768Y242716D02*
D03*
X513287D02*
D03*
X245965Y247736D02*
D03*
X242224Y253051D02*
D03*
X249705D02*
D03*
X322638Y247736D02*
D03*
X318898Y253051D02*
D03*
X326378D02*
D03*
X399311Y247736D02*
D03*
X395571Y253051D02*
D03*
X403051D02*
D03*
X475984Y247736D02*
D03*
X472244Y253051D02*
D03*
X479724D02*
D03*
D115*
X301262Y413091D02*
D03*
X295947Y409350D02*
D03*
Y416831D02*
D03*
X301262Y427068D02*
D03*
X295947Y423328D02*
D03*
Y430808D02*
D03*
X301262Y441045D02*
D03*
X295947Y437305D02*
D03*
Y444785D02*
D03*
D116*
X367933Y378937D02*
D03*
Y363583D02*
D03*
X362933Y378937D02*
D03*
Y363583D02*
D03*
X357933Y378937D02*
D03*
Y363583D02*
D03*
X352933Y378937D02*
D03*
Y363583D02*
D03*
X347933Y378937D02*
D03*
Y363583D02*
D03*
D117*
X283430Y235728D02*
D03*
Y230098D02*
D03*
X360103Y235728D02*
D03*
Y230098D02*
D03*
X436777Y235728D02*
D03*
Y230098D02*
D03*
X513450Y235728D02*
D03*
Y230098D02*
D03*
X440551Y437146D02*
D03*
Y442776D02*
D03*
D118*
X426024Y433462D02*
D03*
X431653D02*
D03*
D119*
X240944Y174213D02*
D03*
Y186221D02*
D03*
X317617Y174213D02*
D03*
Y186221D02*
D03*
X394290Y174213D02*
D03*
Y186221D02*
D03*
X470964Y174213D02*
D03*
Y186221D02*
D03*
X490945Y91339D02*
D03*
Y103347D02*
D03*
X296064Y133366D02*
D03*
Y121358D02*
D03*
X296063Y91043D02*
D03*
Y103051D02*
D03*
X296123Y341044D02*
D03*
Y329036D02*
D03*
D120*
X293603Y221674D02*
D03*
X281595D02*
D03*
X370340D02*
D03*
X358332D02*
D03*
X447013D02*
D03*
X435005D02*
D03*
X523686D02*
D03*
X511678D02*
D03*
X306851Y349018D02*
D03*
X294844D02*
D03*
D121*
X441777Y424802D02*
D03*
Y420865D02*
D03*
X441777Y412793D02*
D03*
Y416730D02*
D03*
X425496Y440118D02*
D03*
Y444055D02*
D03*
X421457Y415453D02*
D03*
Y411516D02*
D03*
X425990Y408642D02*
D03*
Y412579D02*
D03*
X341003Y472736D02*
D03*
Y468799D02*
D03*
X474904Y440059D02*
D03*
Y436122D02*
D03*
X338054Y337362D02*
D03*
Y333425D02*
D03*
X361123Y476083D02*
D03*
Y480020D02*
D03*
X447343Y117815D02*
D03*
Y121752D02*
D03*
X413286Y117913D02*
D03*
Y121850D02*
D03*
X390355Y149902D02*
D03*
Y145965D02*
D03*
D122*
X368211Y481004D02*
D03*
Y470965D02*
D03*
D123*
X395669Y133760D02*
D03*
X403150D02*
D03*
Y123327D02*
D03*
X399410D02*
D03*
X395669D02*
D03*
D124*
X395573Y149802D02*
D03*
Y146062D02*
D03*
Y142322D02*
D03*
X406400D02*
D03*
Y146062D02*
D03*
Y149802D02*
D03*
D125*
X472048Y428225D02*
D03*
Y418224D02*
D03*
X494883Y428225D02*
D03*
Y418224D02*
D03*
D126*
X520374Y384548D02*
D03*
X524114Y373722D02*
D03*
X516634D02*
D03*
D127*
X258642Y242836D02*
D03*
X263642D02*
D03*
X268642D02*
D03*
X273642D02*
D03*
X350315D02*
D03*
X345315D02*
D03*
X340315D02*
D03*
X335315D02*
D03*
X412051D02*
D03*
X417051D02*
D03*
X422051D02*
D03*
X427051D02*
D03*
X503563D02*
D03*
X498563D02*
D03*
X493563D02*
D03*
X488563D02*
D03*
D128*
X258272Y219214D02*
D03*
X263520D02*
D03*
X268764D02*
D03*
X274012D02*
D03*
X350685D02*
D03*
X345437D02*
D03*
X340193D02*
D03*
X334945D02*
D03*
X411681D02*
D03*
X416929D02*
D03*
X422173D02*
D03*
X427421D02*
D03*
X503933D02*
D03*
X498685D02*
D03*
X493441D02*
D03*
X488193D02*
D03*
D129*
X355118Y91319D02*
D03*
Y96319D02*
D03*
Y101319D02*
D03*
Y106319D02*
D03*
D130*
X378740Y90949D02*
D03*
Y96197D02*
D03*
Y101441D02*
D03*
Y106689D02*
D03*
D131*
X454331Y376083D02*
D03*
X460630D02*
D03*
X313468Y410235D02*
D03*
X307168D02*
D03*
Y427164D02*
D03*
X313468D02*
D03*
Y444095D02*
D03*
X307168D02*
D03*
X475000Y493643D02*
D03*
X483661D02*
D03*
D132*
X287204Y267126D02*
D03*
Y273425D02*
D03*
X363877D02*
D03*
Y267126D02*
D03*
X440550D02*
D03*
Y273425D02*
D03*
X517223D02*
D03*
Y267126D02*
D03*
X242016D02*
D03*
Y273425D02*
D03*
X318689D02*
D03*
Y267126D02*
D03*
X395362D02*
D03*
Y273425D02*
D03*
X472035D02*
D03*
Y267126D02*
D03*
X420079Y459941D02*
D03*
Y466240D02*
D03*
X537639Y353937D02*
D03*
Y362598D02*
D03*
X289017Y436715D02*
D03*
Y445376D02*
D03*
Y431399D02*
D03*
Y422737D02*
D03*
Y357874D02*
D03*
Y366535D02*
D03*
Y417421D02*
D03*
Y408760D02*
D03*
Y380709D02*
D03*
Y372047D02*
D03*
D133*
X266136Y229056D02*
D03*
X342815D02*
D03*
X419545D02*
D03*
X496057D02*
D03*
D134*
X368898Y98819D02*
D03*
D135*
X377658Y179823D02*
D03*
X330413D02*
D03*
X300984D02*
D03*
X253740D02*
D03*
X454331D02*
D03*
X407087D02*
D03*
X531004D02*
D03*
X483760D02*
D03*
X534547Y425197D02*
D03*
D136*
X367815Y174232D02*
D03*
X354035D02*
D03*
X340256D02*
D03*
X367815Y192342D02*
D03*
X354035D02*
D03*
X340256D02*
D03*
X291142Y174232D02*
D03*
X277362D02*
D03*
X263583D02*
D03*
X291142Y192342D02*
D03*
X277362D02*
D03*
X263583D02*
D03*
X444488Y174232D02*
D03*
X430709D02*
D03*
X416929D02*
D03*
X444488Y192342D02*
D03*
X430709D02*
D03*
X416929D02*
D03*
X521162Y174232D02*
D03*
X507382D02*
D03*
X493603D02*
D03*
X521162Y192342D02*
D03*
X507382D02*
D03*
X493603D02*
D03*
X502224Y125591D02*
D03*
Y111811D02*
D03*
Y98032D02*
D03*
X284882Y98031D02*
D03*
Y111811D02*
D03*
Y125591D02*
D03*
X268602Y374705D02*
D03*
Y362894D02*
D03*
Y386516D02*
D03*
X280413D02*
D03*
Y374705D02*
D03*
Y362894D02*
D03*
X284941Y304430D02*
D03*
Y318210D02*
D03*
Y331989D02*
D03*
X268642Y428642D02*
D03*
Y416831D02*
D03*
Y440453D02*
D03*
X280453D02*
D03*
Y428642D02*
D03*
Y416831D02*
D03*
D137*
X291634Y466476D02*
D03*
Y476476D02*
D03*
Y486476D02*
D03*
X505747Y425197D02*
D03*
X517547D02*
D03*
D138*
X533366Y111811D02*
D03*
X253740Y111811D02*
D03*
X253799Y318210D02*
D03*
D139*
X251594Y374705D02*
D03*
X251634Y428642D02*
D03*
D140*
X414980Y494783D02*
D03*
X404980D02*
D03*
X384980D02*
D03*
X394980D02*
D03*
D141*
X456693Y408799D02*
D03*
Y428012D02*
D03*
D142*
X257874Y479335D02*
D03*
X529232D02*
D03*
X327105Y136319D02*
D03*
X473327D02*
D03*
M02*
