G04 Layer_Color=16711935*
%FSLAX25Y25*%
%MOIN*%
G70*
G01*
G75*
%ADD76C,0.00787*%
%ADD90C,0.03450*%
%ADD135C,0.12300*%
%ADD136C,0.06993*%
%ADD137C,0.08174*%
%ADD138C,0.12505*%
%ADD139C,0.12111*%
%ADD140C,0.05700*%
%ADD141C,0.04237*%
%ADD142C,0.45276*%
D76*
X480807Y261239D02*
Y263862D01*
X479495Y265174D01*
X478183Y263862D01*
Y261239D01*
Y263207D01*
X480807D01*
X476871Y265174D02*
Y261895D01*
X476215Y261239D01*
X474903D01*
X474248Y261895D01*
Y265174D01*
X472936D02*
X470312Y261239D01*
Y265174D02*
X472936Y261239D01*
X469000Y265174D02*
X467688D01*
X468344D01*
Y261239D01*
X469000D01*
X467688D01*
X465720Y265174D02*
Y261239D01*
X463096D01*
X461784Y265174D02*
X460472D01*
X461128D01*
Y261239D01*
X461784D01*
X460472D01*
X458505D02*
Y263862D01*
X457193Y265174D01*
X455881Y263862D01*
Y261239D01*
Y263207D01*
X458505D01*
X454569Y261239D02*
Y265174D01*
X452601D01*
X451945Y264518D01*
Y263207D01*
X452601Y262550D01*
X454569D01*
X453257D02*
X451945Y261239D01*
X450633Y265174D02*
Y264518D01*
X449321Y263207D01*
X448009Y264518D01*
Y265174D01*
X449321Y263207D02*
Y261239D01*
X442762Y265174D02*
Y261239D01*
X440794D01*
X440138Y261895D01*
Y262550D01*
X440794Y263207D01*
X442762D01*
X440794D01*
X440138Y263862D01*
Y264518D01*
X440794Y265174D01*
X442762D01*
X438826Y261239D02*
Y263862D01*
X437514Y265174D01*
X436202Y263862D01*
Y261239D01*
Y263207D01*
X438826D01*
X434890Y265174D02*
X432266D01*
X433578D01*
Y261239D01*
X430954Y265174D02*
X428331D01*
X429642D01*
Y261239D01*
X424395Y265174D02*
X427019D01*
Y261239D01*
X424395D01*
X427019Y263207D02*
X425707D01*
X423083Y261239D02*
Y265174D01*
X421115D01*
X420459Y264518D01*
Y263207D01*
X421115Y262550D01*
X423083D01*
X421771D02*
X420459Y261239D01*
X419147Y265174D02*
Y264518D01*
X417835Y263207D01*
X416523Y264518D01*
Y265174D01*
X417835Y263207D02*
Y261239D01*
X411276D02*
Y265174D01*
X409964Y263862D01*
X408652Y265174D01*
Y261239D01*
X407340D02*
Y263862D01*
X406028Y265174D01*
X404716Y263862D01*
Y261239D01*
Y263207D01*
X407340D01*
X403404Y261239D02*
Y265174D01*
X400780Y261239D01*
Y265174D01*
X399468Y261239D02*
Y263862D01*
X398157Y265174D01*
X396845Y263862D01*
Y261239D01*
Y263207D01*
X399468D01*
X392909Y264518D02*
X393565Y265174D01*
X394877D01*
X395533Y264518D01*
Y261895D01*
X394877Y261239D01*
X393565D01*
X392909Y261895D01*
Y263207D01*
X394221D01*
X388973Y265174D02*
X391597D01*
Y261239D01*
X388973D01*
X391597Y263207D02*
X390285D01*
X387661Y261239D02*
Y265174D01*
X386349Y263862D01*
X385037Y265174D01*
Y261239D01*
X381102Y265174D02*
X383726D01*
Y261239D01*
X381102D01*
X383726Y263207D02*
X382414D01*
X379790Y261239D02*
Y265174D01*
X377166Y261239D01*
Y265174D01*
X375854D02*
X373230D01*
X374542D01*
Y261239D01*
X365359Y264518D02*
X366015Y265174D01*
X367327D01*
X367983Y264518D01*
Y263862D01*
X367327Y263207D01*
X366015D01*
X365359Y262550D01*
Y261895D01*
X366015Y261239D01*
X367327D01*
X367983Y261895D01*
X364047Y265174D02*
Y264518D01*
X362735Y263207D01*
X361423Y264518D01*
Y265174D01*
X362735Y263207D02*
Y261239D01*
X357487Y264518D02*
X358143Y265174D01*
X359455D01*
X360111Y264518D01*
Y263862D01*
X359455Y263207D01*
X358143D01*
X357487Y262550D01*
Y261895D01*
X358143Y261239D01*
X359455D01*
X360111Y261895D01*
X356175Y265174D02*
X353552D01*
X354863D01*
Y261239D01*
X349616Y265174D02*
X352240D01*
Y261239D01*
X349616D01*
X352240Y263207D02*
X350928D01*
X348304Y261239D02*
Y265174D01*
X346992Y263862D01*
X345680Y265174D01*
Y261239D01*
X470312Y258562D02*
Y254626D01*
X468344D01*
X467688Y255282D01*
Y257906D01*
X468344Y258562D01*
X470312D01*
X463752D02*
X466376D01*
Y254626D01*
X463752D01*
X466376Y256594D02*
X465064D01*
X459817Y257906D02*
X460472Y258562D01*
X461784D01*
X462440Y257906D01*
Y257250D01*
X461784Y256594D01*
X460472D01*
X459817Y255938D01*
Y255282D01*
X460472Y254626D01*
X461784D01*
X462440Y255282D01*
X458505Y258562D02*
X457193D01*
X457849D01*
Y254626D01*
X458505D01*
X457193D01*
X452601Y257906D02*
X453257Y258562D01*
X454569D01*
X455225Y257906D01*
Y255282D01*
X454569Y254626D01*
X453257D01*
X452601Y255282D01*
Y256594D01*
X453913D01*
X451289Y254626D02*
Y258562D01*
X448665Y254626D01*
Y258562D01*
X444730D02*
X447353D01*
Y254626D01*
X444730D01*
X447353Y256594D02*
X446041D01*
X443418Y258562D02*
Y254626D01*
X441450D01*
X440794Y255282D01*
Y257906D01*
X441450Y258562D01*
X443418D01*
X435546D02*
Y254626D01*
X433578D01*
X432922Y255282D01*
Y255938D01*
X433578Y256594D01*
X435546D01*
X433578D01*
X432922Y257250D01*
Y257906D01*
X433578Y258562D01*
X435546D01*
X431610D02*
Y257906D01*
X430298Y256594D01*
X428987Y257906D01*
Y258562D01*
X430298Y256594D02*
Y254626D01*
X427675Y257250D02*
X427019D01*
Y256594D01*
X427675D01*
Y257250D01*
Y255282D02*
X427019D01*
Y254626D01*
X427675D01*
Y255282D01*
X420459Y258562D02*
Y254626D01*
X418491D01*
X417835Y255282D01*
Y257906D01*
X418491Y258562D01*
X420459D01*
X416523Y254626D02*
Y257250D01*
X415211Y258562D01*
X413900Y257250D01*
Y254626D01*
Y256594D01*
X416523D01*
X412588Y254626D02*
Y258562D01*
X409964Y254626D01*
Y258562D01*
X408652D02*
X407340D01*
X407996D01*
Y254626D01*
X408652D01*
X407340D01*
X402748Y258562D02*
X405372D01*
Y254626D01*
X402748D01*
X405372Y256594D02*
X404060D01*
X401436Y258562D02*
Y254626D01*
X398813D01*
X390941Y257906D02*
X391597Y258562D01*
X392909D01*
X393565Y257906D01*
Y255282D01*
X392909Y254626D01*
X391597D01*
X390941Y255282D01*
Y256594D01*
X392253D01*
X389629Y258562D02*
X388317D01*
X388973D01*
Y254626D01*
X389629D01*
X388317D01*
X383726Y258562D02*
X386349D01*
Y254626D01*
X383726D01*
X386349Y256594D02*
X385037D01*
X379790Y257906D02*
X380446Y258562D01*
X381758D01*
X382414Y257906D01*
Y257250D01*
X381758Y256594D01*
X380446D01*
X379790Y255938D01*
Y255282D01*
X380446Y254626D01*
X381758D01*
X382414Y255282D01*
X378478Y258562D02*
Y254626D01*
X376510D01*
X375854Y255282D01*
Y255938D01*
X376510Y256594D01*
X378478D01*
X376510D01*
X375854Y257250D01*
Y257906D01*
X376510Y258562D01*
X378478D01*
X374542Y254626D02*
Y258562D01*
X372574D01*
X371918Y257906D01*
Y256594D01*
X372574Y255938D01*
X374542D01*
X373230D02*
X371918Y254626D01*
X367983Y258562D02*
X370606D01*
Y254626D01*
X367983D01*
X370606Y256594D02*
X369295D01*
X364047Y257906D02*
X364703Y258562D01*
X366015D01*
X366671Y257906D01*
Y255282D01*
X366015Y254626D01*
X364703D01*
X364047Y255282D01*
X362735Y258562D02*
Y254626D01*
Y256594D01*
X360111D01*
Y258562D01*
Y254626D01*
X358799Y258562D02*
X356175D01*
X357487D01*
Y254626D01*
X431201Y247638D02*
Y250262D01*
X429889Y251573D01*
X428577Y250262D01*
Y247638D01*
Y249606D01*
X431201D01*
X427265Y250262D02*
Y248294D01*
X426609Y247638D01*
X424641D01*
Y250262D01*
X423329D02*
X420706Y247638D01*
X422017Y248950D01*
X420706Y250262D01*
X423329Y247638D01*
X419394Y249606D02*
X416770D01*
X415458Y251573D02*
Y247638D01*
X413490D01*
X412834Y248294D01*
Y248950D01*
X413490Y249606D01*
X415458D01*
X413490D01*
X412834Y250262D01*
Y250918D01*
X413490Y251573D01*
X415458D01*
X411522Y247638D02*
Y251573D01*
X410210Y250262D01*
X408898Y251573D01*
Y247638D01*
X404962Y250918D02*
X405618Y251573D01*
X406930D01*
X407586Y250918D01*
Y250262D01*
X406930Y249606D01*
X405618D01*
X404962Y248950D01*
Y248294D01*
X405618Y247638D01*
X406930D01*
X407586Y248294D01*
X399715Y251573D02*
Y248950D01*
X398403Y247638D01*
X397091Y248950D01*
Y251573D01*
X395779Y250918D02*
X395123Y251573D01*
X393811D01*
X393155Y250918D01*
Y248294D01*
X393811Y247638D01*
X395123D01*
X395779Y248294D01*
Y250918D01*
X391843Y247638D02*
X390531D01*
X391187D01*
Y251573D01*
X391843Y250918D01*
D90*
X432579Y348130D02*
D03*
X455413Y344980D02*
D03*
X416535Y393898D02*
D03*
X413583Y405315D02*
D03*
X418899Y402658D02*
D03*
X413583Y399803D02*
D03*
X441929Y345571D02*
D03*
D135*
X377658Y179823D02*
D03*
X330413D02*
D03*
X300984D02*
D03*
X253740D02*
D03*
X454331D02*
D03*
X407087D02*
D03*
X531004D02*
D03*
X483760D02*
D03*
X534547Y425197D02*
D03*
D136*
X367815Y174232D02*
D03*
X354035D02*
D03*
X340256D02*
D03*
X367815Y192342D02*
D03*
X354035D02*
D03*
X340256D02*
D03*
X291142Y174232D02*
D03*
X277362D02*
D03*
X263583D02*
D03*
X291142Y192342D02*
D03*
X277362D02*
D03*
X263583D02*
D03*
X444488Y174232D02*
D03*
X430709D02*
D03*
X416929D02*
D03*
X444488Y192342D02*
D03*
X430709D02*
D03*
X416929D02*
D03*
X521162Y174232D02*
D03*
X507382D02*
D03*
X493603D02*
D03*
X521162Y192342D02*
D03*
X507382D02*
D03*
X493603D02*
D03*
X502224Y125591D02*
D03*
Y111811D02*
D03*
Y98032D02*
D03*
X284882Y98031D02*
D03*
Y111811D02*
D03*
Y125591D02*
D03*
X268602Y374705D02*
D03*
Y362894D02*
D03*
Y386516D02*
D03*
X280413D02*
D03*
Y374705D02*
D03*
Y362894D02*
D03*
X284941Y304430D02*
D03*
Y318210D02*
D03*
Y331989D02*
D03*
X268642Y428642D02*
D03*
Y416831D02*
D03*
Y440453D02*
D03*
X280453D02*
D03*
Y428642D02*
D03*
Y416831D02*
D03*
D137*
X291634Y466476D02*
D03*
Y476476D02*
D03*
Y486476D02*
D03*
X505747Y425197D02*
D03*
X517547D02*
D03*
D138*
X533366Y111811D02*
D03*
X253740Y111811D02*
D03*
X253799Y318210D02*
D03*
D139*
X251594Y374705D02*
D03*
X251634Y428642D02*
D03*
D140*
X414980Y494783D02*
D03*
X404980D02*
D03*
X384980D02*
D03*
X394980D02*
D03*
D141*
X456693Y408799D02*
D03*
Y428012D02*
D03*
D142*
X257874Y479335D02*
D03*
X529232D02*
D03*
X327105Y136319D02*
D03*
X473327D02*
D03*
M02*
