G04 Layer_Color=2752767*
%FSLAX25Y25*%
%MOIN*%
G70*
G01*
G75*
%ADD58C,0.01500*%
%ADD77C,0.00800*%
%ADD146C,0.00500*%
%ADD147C,0.00200*%
D58*
X107629Y650379D02*
X676781D01*
X107629Y555282D02*
X676781D01*
X107629Y547357D02*
X676781D01*
Y658303D01*
X107629D02*
X676781D01*
X107629Y547357D02*
Y658303D01*
X604038Y547357D02*
Y658303D01*
X533673Y547357D02*
Y658303D01*
X488658Y547357D02*
Y658303D01*
X442764Y547357D02*
Y658303D01*
X403453Y547357D02*
Y658303D01*
X372381Y547357D02*
Y658303D01*
X293214Y547357D02*
Y658303D01*
X254537Y547357D02*
Y658303D01*
X227901Y547357D02*
Y658303D01*
X167219Y547357D02*
Y658303D01*
X136642Y547357D02*
Y658303D01*
D77*
X606416Y656559D02*
Y652756D01*
Y654657D01*
X608951D01*
Y656559D01*
Y652756D01*
X610852D02*
X612120D01*
X612753Y653390D01*
Y654657D01*
X612120Y655291D01*
X610852D01*
X610218Y654657D01*
Y653390D01*
X610852Y652756D01*
X614021D02*
X615288D01*
X614655D01*
Y656559D01*
X614021D01*
X619091Y652756D02*
X617824D01*
X617190Y653390D01*
Y654657D01*
X617824Y655291D01*
X619091D01*
X619725Y654657D01*
Y654023D01*
X617190D01*
X624795Y656559D02*
X627330D01*
X626063D01*
Y652756D01*
X629231D02*
X630499D01*
X631133Y653390D01*
Y654657D01*
X630499Y655291D01*
X629231D01*
X628598Y654657D01*
Y653390D01*
X629231Y652756D01*
X632400D02*
X633668D01*
X633034D01*
Y656559D01*
X632400D01*
X637470Y652756D02*
X636203D01*
X635569Y653390D01*
Y654657D01*
X636203Y655291D01*
X637470D01*
X638104Y654657D01*
Y654023D01*
X635569D01*
X639372Y655291D02*
Y652756D01*
Y654023D01*
X640006Y654657D01*
X640639Y655291D01*
X641273D01*
X643808D02*
X645076D01*
X645710Y654657D01*
Y652756D01*
X643808D01*
X643174Y653390D01*
X643808Y654023D01*
X645710D01*
X646977Y652756D02*
Y655291D01*
X648878D01*
X649512Y654657D01*
Y652756D01*
X653315Y655291D02*
X651413D01*
X650780Y654657D01*
Y653390D01*
X651413Y652756D01*
X653315D01*
X656484D02*
X655216D01*
X654582Y653390D01*
Y654657D01*
X655216Y655291D01*
X656484D01*
X657117Y654657D01*
Y654023D01*
X654582D01*
X663455Y652756D02*
X662188Y654023D01*
Y655291D01*
X663455Y656559D01*
X665356Y654657D02*
X667892D01*
X669159Y652756D02*
X670427Y654023D01*
Y655291D01*
X669159Y656559D01*
X536050D02*
Y652756D01*
Y654657D01*
X538585D01*
Y656559D01*
Y652756D01*
X540486D02*
X541754D01*
X542388Y653390D01*
Y654657D01*
X541754Y655291D01*
X540486D01*
X539853Y654657D01*
Y653390D01*
X540486Y652756D01*
X543655D02*
X544923D01*
X544289D01*
Y656559D01*
X543655D01*
X548725Y652756D02*
X547458D01*
X546824Y653390D01*
Y654657D01*
X547458Y655291D01*
X548725D01*
X549359Y654657D01*
Y654023D01*
X546824D01*
X554429Y656559D02*
X556964D01*
X555697D01*
Y652756D01*
X558866D02*
X560133D01*
X560767Y653390D01*
Y654657D01*
X560133Y655291D01*
X558866D01*
X558232Y654657D01*
Y653390D01*
X558866Y652756D01*
X562035D02*
X563302D01*
X562668D01*
Y656559D01*
X562035D01*
X567105Y652756D02*
X565837D01*
X565203Y653390D01*
Y654657D01*
X565837Y655291D01*
X567105D01*
X567738Y654657D01*
Y654023D01*
X565203D01*
X569006Y655291D02*
Y652756D01*
Y654023D01*
X569640Y654657D01*
X570274Y655291D01*
X570907D01*
X573442D02*
X574710D01*
X575344Y654657D01*
Y652756D01*
X573442D01*
X572809Y653390D01*
X573442Y654023D01*
X575344D01*
X576611Y652756D02*
Y655291D01*
X578513D01*
X579146Y654657D01*
Y652756D01*
X582949Y655291D02*
X581048D01*
X580414Y654657D01*
Y653390D01*
X581048Y652756D01*
X582949D01*
X586118D02*
X584850D01*
X584216Y653390D01*
Y654657D01*
X584850Y655291D01*
X586118D01*
X586752Y654657D01*
Y654023D01*
X584216D01*
X593089Y652756D02*
X591822Y654023D01*
Y655291D01*
X593089Y656559D01*
X594991Y654657D02*
X597526D01*
X596258Y655925D02*
Y653390D01*
X598793Y652756D02*
X600061Y654023D01*
Y655291D01*
X598793Y656559D01*
X491035D02*
Y652756D01*
X492936D01*
X493570Y653390D01*
Y655925D01*
X492936Y656559D01*
X491035D01*
X496739Y652756D02*
X495471D01*
X494838Y653390D01*
Y654657D01*
X495471Y655291D01*
X496739D01*
X497373Y654657D01*
Y654023D01*
X494838D01*
X498640Y652756D02*
X500542D01*
X501175Y653390D01*
X500542Y654023D01*
X499274D01*
X498640Y654657D01*
X499274Y655291D01*
X501175D01*
X504978D02*
X503077D01*
X502443Y654657D01*
Y653390D01*
X503077Y652756D01*
X504978D01*
X506246Y655291D02*
Y652756D01*
Y654023D01*
X506879Y654657D01*
X507513Y655291D01*
X508147D01*
X510048Y652756D02*
X511316D01*
X510682D01*
Y655291D01*
X510048D01*
X513217Y651488D02*
Y655291D01*
X515118D01*
X515752Y654657D01*
Y653390D01*
X515118Y652756D01*
X513217D01*
X517653Y655925D02*
Y655291D01*
X517020D01*
X518287D01*
X517653D01*
Y653390D01*
X518287Y652756D01*
X520189D02*
X521456D01*
X520822D01*
Y655291D01*
X520189D01*
X523991Y652756D02*
X525259D01*
X525892Y653390D01*
Y654657D01*
X525259Y655291D01*
X523991D01*
X523357Y654657D01*
Y653390D01*
X523991Y652756D01*
X527160D02*
Y655291D01*
X529061D01*
X529695Y654657D01*
Y652756D01*
X445141Y656559D02*
X447676D01*
X446409D01*
Y652756D01*
X450845D02*
X449578D01*
X448944Y653390D01*
Y654657D01*
X449578Y655291D01*
X450845D01*
X451479Y654657D01*
Y654023D01*
X448944D01*
X452746Y652756D02*
Y655291D01*
X453380D01*
X454014Y654657D01*
Y652756D01*
Y654657D01*
X454648Y655291D01*
X455281Y654657D01*
Y652756D01*
X456549Y651488D02*
Y655291D01*
X458450D01*
X459084Y654657D01*
Y653390D01*
X458450Y652756D01*
X456549D01*
X460352D02*
X461619D01*
X460985D01*
Y656559D01*
X460352D01*
X464154Y655291D02*
X465422D01*
X466056Y654657D01*
Y652756D01*
X464154D01*
X463520Y653390D01*
X464154Y654023D01*
X466056D01*
X467957Y655925D02*
Y655291D01*
X467323D01*
X468591D01*
X467957D01*
Y653390D01*
X468591Y652756D01*
X472393D02*
X471126D01*
X470492Y653390D01*
Y654657D01*
X471126Y655291D01*
X472393D01*
X473027Y654657D01*
Y654023D01*
X470492D01*
X405830Y652756D02*
Y656559D01*
X407731D01*
X408365Y655925D01*
Y654657D01*
X407731Y654023D01*
X405830D01*
X410267Y655291D02*
X411534D01*
X412168Y654657D01*
Y652756D01*
X410267D01*
X409633Y653390D01*
X410267Y654023D01*
X412168D01*
X415971Y656559D02*
Y652756D01*
X414069D01*
X413436Y653390D01*
Y654657D01*
X414069Y655291D01*
X415971D01*
X423576Y655925D02*
X422942Y656559D01*
X421674D01*
X421041Y655925D01*
Y655291D01*
X421674Y654657D01*
X422942D01*
X423576Y654023D01*
Y653390D01*
X422942Y652756D01*
X421674D01*
X421041Y653390D01*
X424843Y656559D02*
Y652756D01*
Y654657D01*
X425477Y655291D01*
X426745D01*
X427378Y654657D01*
Y652756D01*
X429280Y655291D02*
X430547D01*
X431181Y654657D01*
Y652756D01*
X429280D01*
X428646Y653390D01*
X429280Y654023D01*
X431181D01*
X432449Y651488D02*
Y655291D01*
X434350D01*
X434984Y654657D01*
Y653390D01*
X434350Y652756D01*
X432449D01*
X438153D02*
X436885D01*
X436251Y653390D01*
Y654657D01*
X436885Y655291D01*
X438153D01*
X438786Y654657D01*
Y654023D01*
X436251D01*
X374758Y656559D02*
Y654023D01*
X376026Y652756D01*
X377293Y654023D01*
Y656559D01*
X378561Y652756D02*
X379829D01*
X379195D01*
Y655291D01*
X378561D01*
X382364D02*
X383631D01*
X384265Y654657D01*
Y652756D01*
X382364D01*
X381730Y653390D01*
X382364Y654023D01*
X384265D01*
X385532Y652756D02*
X388068Y655291D01*
X389335Y652756D02*
Y656559D01*
X391236D01*
X391870Y655925D01*
Y654657D01*
X391236Y654023D01*
X389335D01*
X393771Y655291D02*
X395039D01*
X395673Y654657D01*
Y652756D01*
X393771D01*
X393138Y653390D01*
X393771Y654023D01*
X395673D01*
X399475Y656559D02*
Y652756D01*
X397574D01*
X396940Y653390D01*
Y654657D01*
X397574Y655291D01*
X399475D01*
X295591Y656559D02*
Y652756D01*
X297493D01*
X298126Y653390D01*
Y655925D01*
X297493Y656559D01*
X295591D01*
X299394Y655291D02*
Y652756D01*
Y654023D01*
X300028Y654657D01*
X300661Y655291D01*
X301295D01*
X303197Y652756D02*
X304464D01*
X303830D01*
Y655291D01*
X303197D01*
X306365Y652756D02*
X307633D01*
X306999D01*
Y656559D01*
X306365D01*
X309534Y652756D02*
X310802D01*
X310168D01*
Y656559D01*
X309534D01*
X316506D02*
Y652756D01*
X319041D01*
X320942Y655291D02*
X322210D01*
X322844Y654657D01*
Y652756D01*
X320942D01*
X320308Y653390D01*
X320942Y654023D01*
X322844D01*
X324111Y655291D02*
Y653390D01*
X324745Y652756D01*
X326646D01*
Y652122D01*
X326012Y651488D01*
X325379D01*
X326646Y652756D02*
Y655291D01*
X329815Y652756D02*
X328547D01*
X327914Y653390D01*
Y654657D01*
X328547Y655291D01*
X329815D01*
X330449Y654657D01*
Y654023D01*
X327914D01*
X331716Y655291D02*
Y652756D01*
Y654023D01*
X332350Y654657D01*
X332984Y655291D01*
X333618D01*
X339322Y652756D02*
Y656559D01*
X341223D01*
X341857Y655925D01*
Y654657D01*
X341223Y654023D01*
X339322D01*
X343758Y655291D02*
X345025D01*
X345659Y654657D01*
Y652756D01*
X343758D01*
X343124Y653390D01*
X343758Y654023D01*
X345659D01*
X346927Y652756D02*
X348194D01*
X347561D01*
Y655291D01*
X346927D01*
X350096D02*
Y652756D01*
Y654023D01*
X350729Y654657D01*
X351363Y655291D01*
X351997D01*
X256914Y656559D02*
Y652756D01*
Y654657D01*
X259449D01*
Y656559D01*
Y652756D01*
X261350D02*
X262618D01*
X263252Y653390D01*
Y654657D01*
X262618Y655291D01*
X261350D01*
X260717Y654657D01*
Y653390D01*
X261350Y652756D01*
X264519D02*
X265787D01*
X265153D01*
Y656559D01*
X264519D01*
X269590Y652756D02*
X268322D01*
X267688Y653390D01*
Y654657D01*
X268322Y655291D01*
X269590D01*
X270223Y654657D01*
Y654023D01*
X267688D01*
X275293Y656559D02*
X277829D01*
X276561D01*
Y652756D01*
X279096Y655291D02*
Y653390D01*
X279730Y652756D01*
X281631D01*
Y652122D01*
X280997Y651488D01*
X280364D01*
X281631Y652756D02*
Y655291D01*
X282899Y651488D02*
Y655291D01*
X284800D01*
X285434Y654657D01*
Y653390D01*
X284800Y652756D01*
X282899D01*
X288603D02*
X287335D01*
X286701Y653390D01*
Y654657D01*
X287335Y655291D01*
X288603D01*
X289236Y654657D01*
Y654023D01*
X286701D01*
X230279Y652756D02*
Y656559D01*
X232180D01*
X232814Y655925D01*
Y654657D01*
X232180Y654023D01*
X230279D01*
X234081Y652756D02*
X235349D01*
X234715D01*
Y656559D01*
X234081D01*
X237884Y655291D02*
X239151D01*
X239785Y654657D01*
Y652756D01*
X237884D01*
X237250Y653390D01*
X237884Y654023D01*
X239785D01*
X241687Y655925D02*
Y655291D01*
X241053D01*
X242320D01*
X241687D01*
Y653390D01*
X242320Y652756D01*
X246123D02*
X244855D01*
X244222Y653390D01*
Y654657D01*
X244855Y655291D01*
X246123D01*
X246757Y654657D01*
Y654023D01*
X244222D01*
X250559Y656559D02*
Y652756D01*
X248658D01*
X248024Y653390D01*
Y654657D01*
X248658Y655291D01*
X250559D01*
X169597Y656559D02*
Y652756D01*
Y654657D01*
X172132D01*
Y656559D01*
Y652756D01*
X174033D02*
X175301D01*
X175935Y653390D01*
Y654657D01*
X175301Y655291D01*
X174033D01*
X173399Y654657D01*
Y653390D01*
X174033Y652756D01*
X177202D02*
X178470D01*
X177836D01*
Y656559D01*
X177202D01*
X182272Y652756D02*
X181005D01*
X180371Y653390D01*
Y654657D01*
X181005Y655291D01*
X182272D01*
X182906Y654657D01*
Y654023D01*
X180371D01*
X190511Y655925D02*
X189877Y656559D01*
X188610D01*
X187976Y655925D01*
Y655291D01*
X188610Y654657D01*
X189877D01*
X190511Y654023D01*
Y653390D01*
X189877Y652756D01*
X188610D01*
X187976Y653390D01*
X191779Y652756D02*
X193046D01*
X192412D01*
Y655291D01*
X191779D01*
X194948D02*
X197483D01*
X194948Y652756D01*
X197483D01*
X200652D02*
X199384D01*
X198750Y653390D01*
Y654657D01*
X199384Y655291D01*
X200652D01*
X201285Y654657D01*
Y654023D01*
X198750D01*
X141554Y655925D02*
X140920Y656559D01*
X139653D01*
X139019Y655925D01*
Y653390D01*
X139653Y652756D01*
X140920D01*
X141554Y653390D01*
X143456Y652756D02*
X144723D01*
X145357Y653390D01*
Y654657D01*
X144723Y655291D01*
X143456D01*
X142822Y654657D01*
Y653390D01*
X143456Y652756D01*
X146624Y655291D02*
Y653390D01*
X147258Y652756D01*
X149160D01*
Y655291D01*
X150427Y652756D02*
Y655291D01*
X152328D01*
X152962Y654657D01*
Y652756D01*
X154863Y655925D02*
Y655291D01*
X154230D01*
X155497D01*
X154863D01*
Y653390D01*
X155497Y652756D01*
X114919Y655925D02*
X114285Y656559D01*
X113017D01*
X112384Y655925D01*
Y655291D01*
X113017Y654657D01*
X114285D01*
X114919Y654023D01*
Y653390D01*
X114285Y652756D01*
X113017D01*
X112384Y653390D01*
X116186Y655291D02*
Y653390D01*
X116820Y652756D01*
X118721D01*
Y652122D01*
X118088Y651488D01*
X117454D01*
X118721Y652756D02*
Y655291D01*
X119989Y652756D02*
Y655291D01*
X120623D01*
X121256Y654657D01*
Y652756D01*
Y654657D01*
X121890Y655291D01*
X122524Y654657D01*
Y652756D01*
X123792Y656559D02*
Y652756D01*
X125693D01*
X126327Y653390D01*
Y654023D01*
Y654657D01*
X125693Y655291D01*
X123792D01*
X128228Y652756D02*
X129496D01*
X130129Y653390D01*
Y654657D01*
X129496Y655291D01*
X128228D01*
X127594Y654657D01*
Y653390D01*
X128228Y652756D01*
X131397D02*
X132664D01*
X132030D01*
Y656559D01*
X131397D01*
D146*
X113596Y630743D02*
G03*
X113596Y630743I-1057J0D01*
G01*
X114301D02*
G03*
X114301Y630743I-1761J0D01*
G01*
Y614893D02*
G03*
X114301Y614893I-1761J0D01*
G01*
X112540Y645536D02*
X113596Y647649D01*
X111483D02*
X113596D01*
X111483D02*
X112540Y645536D01*
Y644831D02*
X114301Y648353D01*
X110779D02*
X114301D01*
X110779D02*
X112540Y644831D01*
X110779Y636906D02*
X114301D01*
Y640429D01*
X110779D02*
X114301D01*
X110779Y636906D02*
Y640429D01*
Y621057D02*
Y621938D01*
X111659Y622818D01*
X110779Y623699D02*
X111659Y622818D01*
X110779Y623699D02*
Y624579D01*
X111659D01*
X112540Y623699D01*
X113420Y624579D01*
X114301D01*
Y623699D02*
Y624579D01*
X113420Y622818D02*
X114301Y623699D01*
X113420Y622818D02*
X114301Y621938D01*
Y621057D02*
Y621938D01*
X113420Y621057D02*
X114301D01*
X112540Y621938D02*
X113420Y621057D01*
X111659D02*
X112540Y621938D01*
X110779Y621057D02*
X111659D01*
X110779Y605208D02*
X112540Y606088D01*
X114301Y605208D01*
X113420Y606969D02*
X114301Y605208D01*
X113420Y606969D02*
X114301Y608730D01*
X112540Y607849D02*
X114301Y608730D01*
X110779D02*
X112540Y607849D01*
X110779Y608730D02*
X111659Y606969D01*
X110779Y605208D02*
X111659Y606969D01*
X110779Y599044D02*
X112540Y597283D01*
X114301Y599044D01*
X112540Y600805D02*
X114301Y599044D01*
X110779D02*
X112540Y600805D01*
X111659Y582314D02*
X112540Y581433D01*
X110779Y582314D02*
X111659D01*
X110779D02*
X111659Y583195D01*
X110779Y584075D02*
X111659Y583195D01*
X110779Y584075D02*
X111659D01*
X112540Y584956D01*
X113420Y584075D01*
X114301D01*
X113420Y583195D02*
X114301Y584075D01*
X113420Y583195D02*
X114301Y582314D01*
X113420D02*
X114301D01*
X112540Y581433D02*
X113420Y582314D01*
X110779Y574389D02*
X111659D01*
X110779D02*
Y576150D01*
X111659D01*
Y577031D01*
X113420D01*
Y576150D02*
Y577031D01*
Y576150D02*
X114301D01*
Y574389D02*
Y576150D01*
X113420Y574389D02*
X114301D01*
X113420Y573509D02*
Y574389D01*
X111659Y573509D02*
X113420D01*
X111659D02*
Y574389D01*
X112540Y565584D02*
X114301Y569106D01*
X110779D02*
X114301D01*
X110779D02*
X112540Y565584D01*
X111483Y558364D02*
X113596D01*
Y560477D01*
X111483D02*
X113596D01*
X111483Y558364D02*
Y560477D01*
X110779Y557659D02*
X114301D01*
Y561181D01*
X110779D02*
X114301D01*
X110779Y557659D02*
Y561181D01*
X447254Y646944D02*
X445669D01*
X445141Y646416D01*
Y645359D01*
X445669Y644831D01*
X447254D01*
X448310Y647472D02*
X448838Y648000D01*
X449894D01*
X450423Y647472D01*
Y646944D01*
X449894Y646416D01*
X449366D01*
X449894D01*
X450423Y645888D01*
Y645359D01*
X449894Y644831D01*
X448838D01*
X448310Y645359D01*
X451479Y647472D02*
X452007Y648000D01*
X453063D01*
X453591Y647472D01*
Y645359D01*
X453063Y644831D01*
X452007D01*
X451479Y645359D01*
Y647472D01*
X456760Y648000D02*
X454648D01*
Y646416D01*
X455704Y646944D01*
X456232D01*
X456760Y646416D01*
Y645359D01*
X456232Y644831D01*
X455176D01*
X454648Y645359D01*
X457817Y648000D02*
Y644831D01*
Y646416D01*
X458345Y646944D01*
X459401D01*
X459929Y646416D01*
Y644831D01*
X460986D02*
Y646944D01*
X462570D01*
X463098Y646416D01*
Y644831D01*
X464154Y647472D02*
X464682Y648000D01*
X465739D01*
X466267Y647472D01*
Y646944D01*
X465739Y646416D01*
X465211D01*
X465739D01*
X466267Y645888D01*
Y645359D01*
X465739Y644831D01*
X464682D01*
X464154Y645359D01*
X467323Y647472D02*
X467851Y648000D01*
X468908D01*
X469436Y647472D01*
Y645359D01*
X468908Y644831D01*
X467851D01*
X467323Y645359D01*
Y647472D01*
X472605Y648000D02*
X470492D01*
Y646416D01*
X471548Y646944D01*
X472077D01*
X472605Y646416D01*
Y645359D01*
X472077Y644831D01*
X471020D01*
X470492Y645359D01*
X447254Y639019D02*
X445669D01*
X445141Y638491D01*
Y637435D01*
X445669Y636906D01*
X447254D01*
X448310D02*
X449366D01*
X448838D01*
Y640075D01*
X448310Y639547D01*
X450951D02*
X451479Y640075D01*
X452535D01*
X453063Y639547D01*
Y637435D01*
X452535Y636906D01*
X451479D01*
X450951Y637435D01*
Y639547D01*
X454120D02*
X454648Y640075D01*
X455704D01*
X456232Y639547D01*
Y637435D01*
X455704Y636906D01*
X454648D01*
X454120Y637435D01*
Y639547D01*
X457289Y640075D02*
Y636906D01*
Y638491D01*
X457817Y639019D01*
X458873D01*
X459401Y638491D01*
Y636906D01*
X462570Y640075D02*
X460457D01*
Y638491D01*
X461514Y639019D01*
X462042D01*
X462570Y638491D01*
Y637435D01*
X462042Y636906D01*
X460986D01*
X460457Y637435D01*
X463626Y639547D02*
X464154Y640075D01*
X465211D01*
X465739Y639547D01*
Y637435D01*
X465211Y636906D01*
X464154D01*
X463626Y637435D01*
Y639547D01*
X447254Y631094D02*
X445669D01*
X445141Y630566D01*
Y629510D01*
X445669Y628982D01*
X447254D01*
X450423D02*
X448310D01*
X450423Y631094D01*
Y631623D01*
X449894Y632151D01*
X448838D01*
X448310Y631623D01*
X451479D02*
X452007Y632151D01*
X453063D01*
X453591Y631623D01*
Y629510D01*
X453063Y628982D01*
X452007D01*
X451479Y629510D01*
Y631623D01*
X454648D02*
X455176Y632151D01*
X456232D01*
X456760Y631623D01*
Y629510D01*
X456232Y628982D01*
X455176D01*
X454648Y629510D01*
Y631623D01*
X457817Y632151D02*
Y628982D01*
Y630566D01*
X458345Y631094D01*
X459401D01*
X459929Y630566D01*
Y628982D01*
X460986D02*
X462042D01*
X461514D01*
Y632151D01*
X460986Y631623D01*
X465739Y628982D02*
X463626D01*
X465739Y631094D01*
Y631623D01*
X465211Y632151D01*
X464154D01*
X463626Y631623D01*
X466795Y632151D02*
X468908D01*
Y631623D01*
X466795Y629510D01*
Y628982D01*
X447254Y623170D02*
X445669D01*
X445141Y622642D01*
Y621585D01*
X445669Y621057D01*
X447254D01*
X448310Y623698D02*
X448838Y624226D01*
X449894D01*
X450423Y623698D01*
Y623170D01*
X449894Y622642D01*
X449366D01*
X449894D01*
X450423Y622113D01*
Y621585D01*
X449894Y621057D01*
X448838D01*
X448310Y621585D01*
X451479Y623698D02*
X452007Y624226D01*
X453063D01*
X453591Y623698D01*
Y621585D01*
X453063Y621057D01*
X452007D01*
X451479Y621585D01*
Y623698D01*
X454648D02*
X455176Y624226D01*
X456232D01*
X456760Y623698D01*
Y621585D01*
X456232Y621057D01*
X455176D01*
X454648Y621585D01*
Y623698D01*
X457817Y624226D02*
Y621057D01*
Y622642D01*
X458345Y623170D01*
X459401D01*
X459929Y622642D01*
Y621057D01*
X460986D02*
Y623170D01*
X462570D01*
X463098Y622642D01*
Y621057D01*
X464154Y623698D02*
X464682Y624226D01*
X465739D01*
X466267Y623698D01*
Y623170D01*
X465739Y622642D01*
X465211D01*
X465739D01*
X466267Y622113D01*
Y621585D01*
X465739Y621057D01*
X464682D01*
X464154Y621585D01*
X467323Y623698D02*
X467851Y624226D01*
X468908D01*
X469436Y623698D01*
Y621585D01*
X468908Y621057D01*
X467851D01*
X467323Y621585D01*
Y623698D01*
X470492D02*
X471020Y624226D01*
X472077D01*
X472605Y623698D01*
Y621585D01*
X472077Y621057D01*
X471020D01*
X470492Y621585D01*
Y623698D01*
X447254Y615245D02*
X445669D01*
X445141Y614717D01*
Y613660D01*
X445669Y613132D01*
X447254D01*
X450423D02*
X448310D01*
X450423Y615245D01*
Y615773D01*
X449894Y616301D01*
X448838D01*
X448310Y615773D01*
X451479D02*
X452007Y616301D01*
X453063D01*
X453591Y615773D01*
Y613660D01*
X453063Y613132D01*
X452007D01*
X451479Y613660D01*
Y615773D01*
X454648D02*
X455176Y616301D01*
X456232D01*
X456760Y615773D01*
Y613660D01*
X456232Y613132D01*
X455176D01*
X454648Y613660D01*
Y615773D01*
X457817Y616301D02*
Y613132D01*
Y614717D01*
X458345Y615245D01*
X459401D01*
X459929Y614717D01*
Y613132D01*
X460986D02*
X462042D01*
X461514D01*
Y616301D01*
X460986Y615773D01*
X463626Y613132D02*
X464682D01*
X464154D01*
Y616301D01*
X463626Y615773D01*
X468379Y616301D02*
X466267D01*
Y614717D01*
X467323Y615245D01*
X467851D01*
X468379Y614717D01*
Y613660D01*
X467851Y613132D01*
X466795D01*
X466267Y613660D01*
X447254Y607320D02*
X445669D01*
X445141Y606792D01*
Y605736D01*
X445669Y605208D01*
X447254D01*
X448310Y607848D02*
X448838Y608377D01*
X449894D01*
X450423Y607848D01*
Y607320D01*
X449894Y606792D01*
X449366D01*
X449894D01*
X450423Y606264D01*
Y605736D01*
X449894Y605208D01*
X448838D01*
X448310Y605736D01*
X451479Y605208D02*
X452535D01*
X452007D01*
Y608377D01*
X451479Y607848D01*
X454120D02*
X454648Y608377D01*
X455704D01*
X456232Y607848D01*
Y605736D01*
X455704Y605208D01*
X454648D01*
X454120Y605736D01*
Y607848D01*
X457289Y608377D02*
Y605208D01*
Y606792D01*
X457817Y607320D01*
X458873D01*
X459401Y606792D01*
Y605208D01*
X460457D02*
Y607320D01*
X462042D01*
X462570Y606792D01*
Y605208D01*
X463626Y607848D02*
X464154Y608377D01*
X465211D01*
X465739Y607848D01*
Y607320D01*
X465211Y606792D01*
X464682D01*
X465211D01*
X465739Y606264D01*
Y605736D01*
X465211Y605208D01*
X464154D01*
X463626Y605736D01*
X466795Y605208D02*
X467851D01*
X467323D01*
Y608377D01*
X466795Y607848D01*
X469436D02*
X469964Y608377D01*
X471020D01*
X471548Y607848D01*
Y605736D01*
X471020Y605208D01*
X469964D01*
X469436Y605736D01*
Y607848D01*
X447254Y599396D02*
X445669D01*
X445141Y598867D01*
Y597811D01*
X445669Y597283D01*
X447254D01*
X448310D02*
X449366D01*
X448838D01*
Y600452D01*
X448310Y599924D01*
X450951D02*
X451479Y600452D01*
X452535D01*
X453063Y599924D01*
Y599396D01*
X452535Y598867D01*
X452007D01*
X452535D01*
X453063Y598339D01*
Y597811D01*
X452535Y597283D01*
X451479D01*
X450951Y597811D01*
X454120Y600452D02*
X456232D01*
Y599924D01*
X454120Y597811D01*
Y597283D01*
X457289Y600452D02*
Y597283D01*
Y598867D01*
X457817Y599396D01*
X458873D01*
X459401Y598867D01*
Y597283D01*
X460457D02*
X461514D01*
X460986D01*
Y600452D01*
X460457Y599924D01*
X463098D02*
X463626Y600452D01*
X464682D01*
X465211Y599924D01*
Y597811D01*
X464682Y597283D01*
X463626D01*
X463098Y597811D01*
Y599924D01*
X468379Y597283D02*
X466267D01*
X468379Y599396D01*
Y599924D01*
X467851Y600452D01*
X466795D01*
X466267Y599924D01*
X447254Y591471D02*
X445669D01*
X445141Y590943D01*
Y589886D01*
X445669Y589358D01*
X447254D01*
X448310Y591999D02*
X448838Y592527D01*
X449894D01*
X450423Y591999D01*
Y589886D01*
X449894Y589358D01*
X448838D01*
X448310Y589886D01*
Y591999D01*
X451479Y592527D02*
Y589358D01*
Y590943D01*
X452007Y591471D01*
X453063D01*
X453591Y590943D01*
Y589358D01*
X454648D02*
Y591471D01*
X456232D01*
X456760Y590943D01*
Y589358D01*
X459929Y592527D02*
X457817D01*
Y590943D01*
X458873Y591471D01*
X459401D01*
X459929Y590943D01*
Y589886D01*
X459401Y589358D01*
X458345D01*
X457817Y589886D01*
X463098Y592527D02*
X460986D01*
Y590943D01*
X462042Y591471D01*
X462570D01*
X463098Y590943D01*
Y589886D01*
X462570Y589358D01*
X461514D01*
X460986Y589886D01*
X464154Y591999D02*
X464682Y592527D01*
X465739D01*
X466267Y591999D01*
Y589886D01*
X465739Y589358D01*
X464682D01*
X464154Y589886D01*
Y591999D01*
X467323Y589358D02*
Y591471D01*
X467851D01*
X468379Y590943D01*
Y589358D01*
Y590943D01*
X468908Y591471D01*
X469436Y590943D01*
Y589358D01*
X470492Y591999D02*
X471020Y592527D01*
X472077D01*
X472605Y591999D01*
Y591471D01*
X472077Y590943D01*
X472605Y590414D01*
Y589886D01*
X472077Y589358D01*
X471020D01*
X470492Y589886D01*
Y590414D01*
X471020Y590943D01*
X470492Y591471D01*
Y591999D01*
X471020Y590943D02*
X472077D01*
X475774Y592527D02*
X473661D01*
Y590943D01*
X474717Y591471D01*
X475245D01*
X475774Y590943D01*
Y589886D01*
X475245Y589358D01*
X474189D01*
X473661Y589886D01*
X476830Y591999D02*
X477358Y592527D01*
X478414D01*
X478942Y591999D01*
Y589886D01*
X478414Y589358D01*
X477358D01*
X476830Y589886D01*
Y591999D01*
X479999Y588302D02*
Y591471D01*
X481583D01*
X482111Y590943D01*
Y589886D01*
X481583Y589358D01*
X479999D01*
X483168Y591999D02*
X483696Y592527D01*
X484752D01*
X485280Y591999D01*
Y591471D01*
X484752Y590943D01*
X484224D01*
X484752D01*
X485280Y590414D01*
Y589886D01*
X484752Y589358D01*
X483696D01*
X483168Y589886D01*
X447254Y583546D02*
X445669D01*
X445141Y583018D01*
Y581962D01*
X445669Y581433D01*
X447254D01*
X448310Y584074D02*
X448838Y584602D01*
X449894D01*
X450423Y584074D01*
Y583546D01*
X449894Y583018D01*
X449366D01*
X449894D01*
X450423Y582490D01*
Y581962D01*
X449894Y581433D01*
X448838D01*
X448310Y581962D01*
X451479Y584074D02*
X452007Y584602D01*
X453063D01*
X453591Y584074D01*
Y581962D01*
X453063Y581433D01*
X452007D01*
X451479Y581962D01*
Y584074D01*
X456760Y584602D02*
X454648D01*
Y583018D01*
X455704Y583546D01*
X456232D01*
X456760Y583018D01*
Y581962D01*
X456232Y581433D01*
X455176D01*
X454648Y581962D01*
X457817Y584602D02*
Y581433D01*
Y583018D01*
X458345Y583546D01*
X459401D01*
X459929Y583018D01*
Y581433D01*
X463098D02*
X460986D01*
X463098Y583546D01*
Y584074D01*
X462570Y584602D01*
X461514D01*
X460986Y584074D01*
X464154D02*
X464682Y584602D01*
X465739D01*
X466267Y584074D01*
Y583546D01*
X465739Y583018D01*
X465211D01*
X465739D01*
X466267Y582490D01*
Y581962D01*
X465739Y581433D01*
X464682D01*
X464154Y581962D01*
X467323Y584074D02*
X467851Y584602D01*
X468908D01*
X469436Y584074D01*
Y581962D01*
X468908Y581433D01*
X467851D01*
X467323Y581962D01*
Y584074D01*
X447254Y575621D02*
X445669D01*
X445141Y575093D01*
Y574037D01*
X445669Y573509D01*
X447254D01*
X448310D02*
X449366D01*
X448838D01*
Y576678D01*
X448310Y576150D01*
X450951Y576678D02*
X453063D01*
Y576150D01*
X450951Y574037D01*
Y573509D01*
X454120Y576150D02*
X454648Y576678D01*
X455704D01*
X456232Y576150D01*
Y574037D01*
X455704Y573509D01*
X454648D01*
X454120Y574037D01*
Y576150D01*
X457289Y576678D02*
Y573509D01*
Y575093D01*
X457817Y575621D01*
X458873D01*
X459401Y575093D01*
Y573509D01*
X460457D02*
X461514D01*
X460986D01*
Y576678D01*
X460457Y576150D01*
X463098D02*
X463626Y576678D01*
X464682D01*
X465211Y576150D01*
Y574037D01*
X464682Y573509D01*
X463626D01*
X463098Y574037D01*
Y576150D01*
X468379Y573509D02*
X466267D01*
X468379Y575621D01*
Y576150D01*
X467851Y576678D01*
X466795D01*
X466267Y576150D01*
X447254Y567697D02*
X445669D01*
X445141Y567169D01*
Y566112D01*
X445669Y565584D01*
X447254D01*
X448310D02*
X449366D01*
X448838D01*
Y568753D01*
X448310Y568225D01*
X450951Y568753D02*
X453063D01*
Y568225D01*
X450951Y566112D01*
Y565584D01*
X454120Y568225D02*
X454648Y568753D01*
X455704D01*
X456232Y568225D01*
Y566112D01*
X455704Y565584D01*
X454648D01*
X454120Y566112D01*
Y568225D01*
X457289Y568753D02*
Y565584D01*
Y567169D01*
X457817Y567697D01*
X458873D01*
X459401Y567169D01*
Y565584D01*
X460457D02*
X461514D01*
X460986D01*
Y568753D01*
X460457Y568225D01*
X463098D02*
X463626Y568753D01*
X464682D01*
X465211Y568225D01*
Y566112D01*
X464682Y565584D01*
X463626D01*
X463098Y566112D01*
Y568225D01*
X468379Y568753D02*
X467323Y568225D01*
X466267Y567169D01*
Y566112D01*
X466795Y565584D01*
X467851D01*
X468379Y566112D01*
Y566640D01*
X467851Y567169D01*
X466267D01*
X446197Y557659D02*
X445141Y558716D01*
Y559772D01*
X446197Y560828D01*
X447782Y557659D02*
Y560828D01*
X448838Y559772D01*
X449894Y560828D01*
Y557659D01*
X450951D02*
X452007D01*
X451479D01*
Y559772D01*
X450951D01*
X453591D02*
X455704Y557659D01*
X454648Y558716D01*
X455704Y559772D01*
X453591Y557659D01*
X458345D02*
X457289D01*
X456760Y558187D01*
Y559244D01*
X457289Y559772D01*
X458345D01*
X458873Y559244D01*
Y558716D01*
X456760D01*
X462042Y560828D02*
Y557659D01*
X460457D01*
X459929Y558187D01*
Y559244D01*
X460457Y559772D01*
X462042D01*
X463098Y557659D02*
X464154Y558716D01*
Y559772D01*
X463098Y560828D01*
X405830Y644831D02*
Y648000D01*
X407415D01*
X407943Y647472D01*
Y646416D01*
X407415Y645888D01*
X405830D01*
X406886D02*
X407943Y644831D01*
X409527D02*
X410583D01*
X411112Y645359D01*
Y646416D01*
X410583Y646944D01*
X409527D01*
X408999Y646416D01*
Y645359D01*
X409527Y644831D01*
X412168Y646944D02*
Y645359D01*
X412696Y644831D01*
X414281D01*
Y646944D01*
X415337Y644831D02*
Y646944D01*
X416921D01*
X417449Y646416D01*
Y644831D01*
X420618Y648000D02*
Y644831D01*
X419034D01*
X418506Y645359D01*
Y646416D01*
X419034Y646944D01*
X420618D01*
X423259Y644831D02*
X422203D01*
X421674Y645359D01*
Y646416D01*
X422203Y646944D01*
X423259D01*
X423787Y646416D01*
Y645888D01*
X421674D01*
X426956Y648000D02*
Y644831D01*
X425372D01*
X424843Y645359D01*
Y646416D01*
X425372Y646944D01*
X426956D01*
X405830Y636906D02*
Y640075D01*
X407415D01*
X407943Y639547D01*
Y638491D01*
X407415Y637963D01*
X405830D01*
X406886D02*
X407943Y636906D01*
X409527D02*
X410583D01*
X411112Y637435D01*
Y638491D01*
X410583Y639019D01*
X409527D01*
X408999Y638491D01*
Y637435D01*
X409527Y636906D01*
X412168Y639019D02*
Y637435D01*
X412696Y636906D01*
X414281D01*
Y639019D01*
X415337Y636906D02*
Y639019D01*
X416921D01*
X417449Y638491D01*
Y636906D01*
X420618Y640075D02*
Y636906D01*
X419034D01*
X418506Y637435D01*
Y638491D01*
X419034Y639019D01*
X420618D01*
X423259Y636906D02*
X422203D01*
X421674Y637435D01*
Y638491D01*
X422203Y639019D01*
X423259D01*
X423787Y638491D01*
Y637963D01*
X421674D01*
X426956Y640075D02*
Y636906D01*
X425372D01*
X424843Y637435D01*
Y638491D01*
X425372Y639019D01*
X426956D01*
X405830Y628982D02*
Y632151D01*
X407415D01*
X407943Y631623D01*
Y630566D01*
X407415Y630038D01*
X405830D01*
X406886D02*
X407943Y628982D01*
X409527D02*
X410583D01*
X411112Y629510D01*
Y630566D01*
X410583Y631094D01*
X409527D01*
X408999Y630566D01*
Y629510D01*
X409527Y628982D01*
X412168Y631094D02*
Y629510D01*
X412696Y628982D01*
X414281D01*
Y631094D01*
X415337Y628982D02*
Y631094D01*
X416921D01*
X417449Y630566D01*
Y628982D01*
X420618Y632151D02*
Y628982D01*
X419034D01*
X418506Y629510D01*
Y630566D01*
X419034Y631094D01*
X420618D01*
X423259Y628982D02*
X422203D01*
X421674Y629510D01*
Y630566D01*
X422203Y631094D01*
X423259D01*
X423787Y630566D01*
Y630038D01*
X421674D01*
X426956Y632151D02*
Y628982D01*
X425372D01*
X424843Y629510D01*
Y630566D01*
X425372Y631094D01*
X426956D01*
X405830Y621057D02*
Y624226D01*
X407415D01*
X407943Y623698D01*
Y622642D01*
X407415Y622113D01*
X405830D01*
X406886D02*
X407943Y621057D01*
X409527D02*
X410583D01*
X411112Y621585D01*
Y622642D01*
X410583Y623170D01*
X409527D01*
X408999Y622642D01*
Y621585D01*
X409527Y621057D01*
X412168Y623170D02*
Y621585D01*
X412696Y621057D01*
X414281D01*
Y623170D01*
X415337Y621057D02*
Y623170D01*
X416921D01*
X417449Y622642D01*
Y621057D01*
X420618Y624226D02*
Y621057D01*
X419034D01*
X418506Y621585D01*
Y622642D01*
X419034Y623170D01*
X420618D01*
X423259Y621057D02*
X422203D01*
X421674Y621585D01*
Y622642D01*
X422203Y623170D01*
X423259D01*
X423787Y622642D01*
Y622113D01*
X421674D01*
X426956Y624226D02*
Y621057D01*
X425372D01*
X424843Y621585D01*
Y622642D01*
X425372Y623170D01*
X426956D01*
X405830Y613132D02*
Y616301D01*
X407415D01*
X407943Y615773D01*
Y614717D01*
X407415Y614189D01*
X405830D01*
X406886D02*
X407943Y613132D01*
X409527D02*
X410583D01*
X411112Y613660D01*
Y614717D01*
X410583Y615245D01*
X409527D01*
X408999Y614717D01*
Y613660D01*
X409527Y613132D01*
X412168Y615245D02*
Y613660D01*
X412696Y613132D01*
X414281D01*
Y615245D01*
X415337Y613132D02*
Y615245D01*
X416921D01*
X417449Y614717D01*
Y613132D01*
X420618Y616301D02*
Y613132D01*
X419034D01*
X418506Y613660D01*
Y614717D01*
X419034Y615245D01*
X420618D01*
X423259Y613132D02*
X422203D01*
X421674Y613660D01*
Y614717D01*
X422203Y615245D01*
X423259D01*
X423787Y614717D01*
Y614189D01*
X421674D01*
X426956Y616301D02*
Y613132D01*
X425372D01*
X424843Y613660D01*
Y614717D01*
X425372Y615245D01*
X426956D01*
X405830Y605208D02*
Y608377D01*
X407415D01*
X407943Y607848D01*
Y606792D01*
X407415Y606264D01*
X405830D01*
X406886D02*
X407943Y605208D01*
X409527D02*
X410583D01*
X411112Y605736D01*
Y606792D01*
X410583Y607320D01*
X409527D01*
X408999Y606792D01*
Y605736D01*
X409527Y605208D01*
X412168Y607320D02*
Y605736D01*
X412696Y605208D01*
X414281D01*
Y607320D01*
X415337Y605208D02*
Y607320D01*
X416921D01*
X417449Y606792D01*
Y605208D01*
X420618Y608377D02*
Y605208D01*
X419034D01*
X418506Y605736D01*
Y606792D01*
X419034Y607320D01*
X420618D01*
X423259Y605208D02*
X422203D01*
X421674Y605736D01*
Y606792D01*
X422203Y607320D01*
X423259D01*
X423787Y606792D01*
Y606264D01*
X421674D01*
X426956Y608377D02*
Y605208D01*
X425372D01*
X424843Y605736D01*
Y606792D01*
X425372Y607320D01*
X426956D01*
X405830Y597283D02*
Y600452D01*
X407415D01*
X407943Y599924D01*
Y598867D01*
X407415Y598339D01*
X405830D01*
X406886D02*
X407943Y597283D01*
X409527D02*
X410583D01*
X411112Y597811D01*
Y598867D01*
X410583Y599396D01*
X409527D01*
X408999Y598867D01*
Y597811D01*
X409527Y597283D01*
X412168Y599396D02*
Y597811D01*
X412696Y597283D01*
X414281D01*
Y599396D01*
X415337Y597283D02*
Y599396D01*
X416921D01*
X417449Y598867D01*
Y597283D01*
X420618Y600452D02*
Y597283D01*
X419034D01*
X418506Y597811D01*
Y598867D01*
X419034Y599396D01*
X420618D01*
X423259Y597283D02*
X422203D01*
X421674Y597811D01*
Y598867D01*
X422203Y599396D01*
X423259D01*
X423787Y598867D01*
Y598339D01*
X421674D01*
X426956Y600452D02*
Y597283D01*
X425372D01*
X424843Y597811D01*
Y598867D01*
X425372Y599396D01*
X426956D01*
X405830Y589358D02*
Y592527D01*
X407415D01*
X407943Y591999D01*
Y590943D01*
X407415Y590414D01*
X405830D01*
X406886D02*
X407943Y589358D01*
X409527D02*
X410583D01*
X411112Y589886D01*
Y590943D01*
X410583Y591471D01*
X409527D01*
X408999Y590943D01*
Y589886D01*
X409527Y589358D01*
X412168Y591471D02*
Y589886D01*
X412696Y589358D01*
X414281D01*
Y591471D01*
X415337Y589358D02*
Y591471D01*
X416921D01*
X417449Y590943D01*
Y589358D01*
X420618Y592527D02*
Y589358D01*
X419034D01*
X418506Y589886D01*
Y590943D01*
X419034Y591471D01*
X420618D01*
X423259Y589358D02*
X422203D01*
X421674Y589886D01*
Y590943D01*
X422203Y591471D01*
X423259D01*
X423787Y590943D01*
Y590414D01*
X421674D01*
X426956Y592527D02*
Y589358D01*
X425372D01*
X424843Y589886D01*
Y590943D01*
X425372Y591471D01*
X426956D01*
X405830Y581433D02*
Y584602D01*
X407415D01*
X407943Y584074D01*
Y583018D01*
X407415Y582490D01*
X405830D01*
X406886D02*
X407943Y581433D01*
X409527D02*
X410583D01*
X411112Y581962D01*
Y583018D01*
X410583Y583546D01*
X409527D01*
X408999Y583018D01*
Y581962D01*
X409527Y581433D01*
X412168Y583546D02*
Y581962D01*
X412696Y581433D01*
X414281D01*
Y583546D01*
X415337Y581433D02*
Y583546D01*
X416921D01*
X417449Y583018D01*
Y581433D01*
X420618Y584602D02*
Y581433D01*
X419034D01*
X418506Y581962D01*
Y583018D01*
X419034Y583546D01*
X420618D01*
X423259Y581433D02*
X422203D01*
X421674Y581962D01*
Y583018D01*
X422203Y583546D01*
X423259D01*
X423787Y583018D01*
Y582490D01*
X421674D01*
X426956Y584602D02*
Y581433D01*
X425372D01*
X424843Y581962D01*
Y583018D01*
X425372Y583546D01*
X426956D01*
X405830Y573509D02*
Y576678D01*
X407415D01*
X407943Y576150D01*
Y575093D01*
X407415Y574565D01*
X405830D01*
X406886D02*
X407943Y573509D01*
X409527D02*
X410583D01*
X411112Y574037D01*
Y575093D01*
X410583Y575621D01*
X409527D01*
X408999Y575093D01*
Y574037D01*
X409527Y573509D01*
X412168Y575621D02*
Y574037D01*
X412696Y573509D01*
X414281D01*
Y575621D01*
X415337Y573509D02*
Y575621D01*
X416921D01*
X417449Y575093D01*
Y573509D01*
X420618Y576678D02*
Y573509D01*
X419034D01*
X418506Y574037D01*
Y575093D01*
X419034Y575621D01*
X420618D01*
X423259Y573509D02*
X422203D01*
X421674Y574037D01*
Y575093D01*
X422203Y575621D01*
X423259D01*
X423787Y575093D01*
Y574565D01*
X421674D01*
X426956Y576678D02*
Y573509D01*
X425372D01*
X424843Y574037D01*
Y575093D01*
X425372Y575621D01*
X426956D01*
X405830Y565584D02*
Y568753D01*
X407415D01*
X407943Y568225D01*
Y567169D01*
X407415Y566640D01*
X405830D01*
X406886D02*
X407943Y565584D01*
X409527D02*
X410583D01*
X411112Y566112D01*
Y567169D01*
X410583Y567697D01*
X409527D01*
X408999Y567169D01*
Y566112D01*
X409527Y565584D01*
X412168Y567697D02*
Y566112D01*
X412696Y565584D01*
X414281D01*
Y567697D01*
X415337Y565584D02*
Y567697D01*
X416921D01*
X417449Y567169D01*
Y565584D01*
X420618Y568753D02*
Y565584D01*
X419034D01*
X418506Y566112D01*
Y567169D01*
X419034Y567697D01*
X420618D01*
X423259Y565584D02*
X422203D01*
X421674Y566112D01*
Y567169D01*
X422203Y567697D01*
X423259D01*
X423787Y567169D01*
Y566640D01*
X421674D01*
X426956Y568753D02*
Y565584D01*
X425372D01*
X424843Y566112D01*
Y567169D01*
X425372Y567697D01*
X426956D01*
X405830Y557659D02*
Y560828D01*
X407415D01*
X407943Y560300D01*
Y559244D01*
X407415Y558716D01*
X405830D01*
X406886D02*
X407943Y557659D01*
X409527D02*
X410583D01*
X411112Y558187D01*
Y559244D01*
X410583Y559772D01*
X409527D01*
X408999Y559244D01*
Y558187D01*
X409527Y557659D01*
X412168Y559772D02*
Y558187D01*
X412696Y557659D01*
X414281D01*
Y559772D01*
X415337Y557659D02*
Y559772D01*
X416921D01*
X417449Y559244D01*
Y557659D01*
X420618Y560828D02*
Y557659D01*
X419034D01*
X418506Y558187D01*
Y559244D01*
X419034Y559772D01*
X420618D01*
X423259Y557659D02*
X422203D01*
X421674Y558187D01*
Y559244D01*
X422203Y559772D01*
X423259D01*
X423787Y559244D01*
Y558716D01*
X421674D01*
X426956Y560828D02*
Y557659D01*
X425372D01*
X424843Y558187D01*
Y559244D01*
X425372Y559772D01*
X426956D01*
X374758Y644831D02*
Y648000D01*
X376343D01*
X376871Y647472D01*
Y646416D01*
X376343Y645888D01*
X374758D01*
X378455Y646944D02*
X379512D01*
X380040Y646416D01*
Y644831D01*
X378455D01*
X377927Y645359D01*
X378455Y645888D01*
X380040D01*
X383209Y648000D02*
Y644831D01*
X381624D01*
X381096Y645359D01*
Y646416D01*
X381624Y646944D01*
X383209D01*
X374758Y636906D02*
Y640075D01*
X376343D01*
X376871Y639547D01*
Y638491D01*
X376343Y637963D01*
X374758D01*
X378455Y639019D02*
X379512D01*
X380040Y638491D01*
Y636906D01*
X378455D01*
X377927Y637435D01*
X378455Y637963D01*
X380040D01*
X383209Y640075D02*
Y636906D01*
X381624D01*
X381096Y637435D01*
Y638491D01*
X381624Y639019D01*
X383209D01*
X374758Y628982D02*
Y632151D01*
X376343D01*
X376871Y631623D01*
Y630566D01*
X376343Y630038D01*
X374758D01*
X378455Y631094D02*
X379512D01*
X380040Y630566D01*
Y628982D01*
X378455D01*
X377927Y629510D01*
X378455Y630038D01*
X380040D01*
X383209Y632151D02*
Y628982D01*
X381624D01*
X381096Y629510D01*
Y630566D01*
X381624Y631094D01*
X383209D01*
X374758Y621057D02*
Y624226D01*
X376343D01*
X376871Y623698D01*
Y622642D01*
X376343Y622113D01*
X374758D01*
X378455Y623170D02*
X379512D01*
X380040Y622642D01*
Y621057D01*
X378455D01*
X377927Y621585D01*
X378455Y622113D01*
X380040D01*
X383209Y624226D02*
Y621057D01*
X381624D01*
X381096Y621585D01*
Y622642D01*
X381624Y623170D01*
X383209D01*
X374758Y613132D02*
Y616301D01*
X376343D01*
X376871Y615773D01*
Y614717D01*
X376343Y614189D01*
X374758D01*
X378455Y615245D02*
X379512D01*
X380040Y614717D01*
Y613132D01*
X378455D01*
X377927Y613660D01*
X378455Y614189D01*
X380040D01*
X383209Y616301D02*
Y613132D01*
X381624D01*
X381096Y613660D01*
Y614717D01*
X381624Y615245D01*
X383209D01*
X374758Y605208D02*
Y608377D01*
X376343D01*
X376871Y607848D01*
Y606792D01*
X376343Y606264D01*
X374758D01*
X378455Y607320D02*
X379512D01*
X380040Y606792D01*
Y605208D01*
X378455D01*
X377927Y605736D01*
X378455Y606264D01*
X380040D01*
X383209Y608377D02*
Y605208D01*
X381624D01*
X381096Y605736D01*
Y606792D01*
X381624Y607320D01*
X383209D01*
X374758Y597283D02*
Y600452D01*
X376343D01*
X376871Y599924D01*
Y598867D01*
X376343Y598339D01*
X374758D01*
X378455Y599396D02*
X379512D01*
X380040Y598867D01*
Y597283D01*
X378455D01*
X377927Y597811D01*
X378455Y598339D01*
X380040D01*
X383209Y600452D02*
Y597283D01*
X381624D01*
X381096Y597811D01*
Y598867D01*
X381624Y599396D01*
X383209D01*
X374758Y589358D02*
Y592527D01*
X376343D01*
X376871Y591999D01*
Y590943D01*
X376343Y590414D01*
X374758D01*
X378455Y591471D02*
X379512D01*
X380040Y590943D01*
Y589358D01*
X378455D01*
X377927Y589886D01*
X378455Y590414D01*
X380040D01*
X383209Y592527D02*
Y589358D01*
X381624D01*
X381096Y589886D01*
Y590943D01*
X381624Y591471D01*
X383209D01*
X374758Y581433D02*
Y584602D01*
X376343D01*
X376871Y584074D01*
Y583018D01*
X376343Y582490D01*
X374758D01*
X378455Y583546D02*
X379512D01*
X380040Y583018D01*
Y581433D01*
X378455D01*
X377927Y581962D01*
X378455Y582490D01*
X380040D01*
X383209Y584602D02*
Y581433D01*
X381624D01*
X381096Y581962D01*
Y583018D01*
X381624Y583546D01*
X383209D01*
X374758Y573509D02*
Y576678D01*
X376343D01*
X376871Y576150D01*
Y575093D01*
X376343Y574565D01*
X374758D01*
X378455Y575621D02*
X379512D01*
X380040Y575093D01*
Y573509D01*
X378455D01*
X377927Y574037D01*
X378455Y574565D01*
X380040D01*
X383209Y576678D02*
Y573509D01*
X381624D01*
X381096Y574037D01*
Y575093D01*
X381624Y575621D01*
X383209D01*
X374758Y565584D02*
Y568753D01*
X376343D01*
X376871Y568225D01*
Y567169D01*
X376343Y566640D01*
X374758D01*
X378455Y567697D02*
X379512D01*
X380040Y567169D01*
Y565584D01*
X378455D01*
X377927Y566112D01*
X378455Y566640D01*
X380040D01*
X383209Y568753D02*
Y565584D01*
X381624D01*
X381096Y566112D01*
Y567169D01*
X381624Y567697D01*
X383209D01*
X374758Y560828D02*
Y558716D01*
X375815Y557659D01*
X376871Y558716D01*
Y560828D01*
X377927Y557659D02*
X378983D01*
X378455D01*
Y559772D01*
X377927D01*
X381096D02*
X382152D01*
X382681Y559244D01*
Y557659D01*
X381096D01*
X380568Y558187D01*
X381096Y558716D01*
X382681D01*
X295591Y648000D02*
X297704D01*
X296648D01*
Y644831D01*
X299288D02*
X300345D01*
X300873Y645359D01*
Y646416D01*
X300345Y646944D01*
X299288D01*
X298760Y646416D01*
Y645359D01*
X299288Y644831D01*
X301929Y643775D02*
Y646944D01*
X303514D01*
X304042Y646416D01*
Y645359D01*
X303514Y644831D01*
X301929D01*
X308267Y648000D02*
Y644831D01*
X310379D01*
X311964Y646944D02*
X313020D01*
X313548Y646416D01*
Y644831D01*
X311964D01*
X311436Y645359D01*
X311964Y645888D01*
X313548D01*
X314604Y646944D02*
Y645359D01*
X315133Y644831D01*
X316717D01*
Y644303D01*
X316189Y643775D01*
X315661D01*
X316717Y644831D02*
Y646944D01*
X319358Y644831D02*
X318302D01*
X317773Y645359D01*
Y646416D01*
X318302Y646944D01*
X319358D01*
X319886Y646416D01*
Y645888D01*
X317773D01*
X320942Y646944D02*
Y644831D01*
Y645888D01*
X321470Y646416D01*
X321999Y646944D01*
X322527D01*
X327280Y646416D02*
X329393D01*
X333618Y648000D02*
Y644831D01*
X335202D01*
X335730Y645359D01*
Y645888D01*
X335202Y646416D01*
X333618D01*
X335202D01*
X335730Y646944D01*
Y647472D01*
X335202Y648000D01*
X333618D01*
X337315Y644831D02*
X338371D01*
X338899Y645359D01*
Y646416D01*
X338371Y646944D01*
X337315D01*
X336787Y646416D01*
Y645359D01*
X337315Y644831D01*
X340484Y647472D02*
Y646944D01*
X339955D01*
X341012D01*
X340484D01*
Y645359D01*
X341012Y644831D01*
X343124Y647472D02*
Y646944D01*
X342596D01*
X343653D01*
X343124D01*
Y645359D01*
X343653Y644831D01*
X345765D02*
X346821D01*
X347350Y645359D01*
Y646416D01*
X346821Y646944D01*
X345765D01*
X345237Y646416D01*
Y645359D01*
X345765Y644831D01*
X348406D02*
Y646944D01*
X348934D01*
X349462Y646416D01*
Y644831D01*
Y646416D01*
X349990Y646944D01*
X350518Y646416D01*
Y644831D01*
X354744Y648000D02*
Y644831D01*
X356856D01*
X358441Y646944D02*
X359497D01*
X360025Y646416D01*
Y644831D01*
X358441D01*
X357912Y645359D01*
X358441Y645888D01*
X360025D01*
X361081Y646944D02*
Y645359D01*
X361609Y644831D01*
X363194D01*
Y644303D01*
X362666Y643775D01*
X362138D01*
X363194Y644831D02*
Y646944D01*
X365835Y644831D02*
X364778D01*
X364250Y645359D01*
Y646416D01*
X364778Y646944D01*
X365835D01*
X366363Y646416D01*
Y645888D01*
X364250D01*
X367419Y646944D02*
Y644831D01*
Y645888D01*
X367947Y646416D01*
X368475Y646944D01*
X369004D01*
X295591Y640075D02*
X297704D01*
X296648D01*
Y636906D01*
X299288D02*
X300345D01*
X300873Y637435D01*
Y638491D01*
X300345Y639019D01*
X299288D01*
X298760Y638491D01*
Y637435D01*
X299288Y636906D01*
X301929Y635850D02*
Y639019D01*
X303514D01*
X304042Y638491D01*
Y637435D01*
X303514Y636906D01*
X301929D01*
X308267Y640075D02*
Y636906D01*
X310379D01*
X311964Y639019D02*
X313020D01*
X313548Y638491D01*
Y636906D01*
X311964D01*
X311436Y637435D01*
X311964Y637963D01*
X313548D01*
X314604Y639019D02*
Y637435D01*
X315133Y636906D01*
X316717D01*
Y636378D01*
X316189Y635850D01*
X315661D01*
X316717Y636906D02*
Y639019D01*
X319358Y636906D02*
X318302D01*
X317773Y637435D01*
Y638491D01*
X318302Y639019D01*
X319358D01*
X319886Y638491D01*
Y637963D01*
X317773D01*
X320942Y639019D02*
Y636906D01*
Y637963D01*
X321470Y638491D01*
X321999Y639019D01*
X322527D01*
X327280Y638491D02*
X329393D01*
X333618Y640075D02*
Y636906D01*
X335202D01*
X335730Y637435D01*
Y637963D01*
X335202Y638491D01*
X333618D01*
X335202D01*
X335730Y639019D01*
Y639547D01*
X335202Y640075D01*
X333618D01*
X337315Y636906D02*
X338371D01*
X338899Y637435D01*
Y638491D01*
X338371Y639019D01*
X337315D01*
X336787Y638491D01*
Y637435D01*
X337315Y636906D01*
X340484Y639547D02*
Y639019D01*
X339955D01*
X341012D01*
X340484D01*
Y637435D01*
X341012Y636906D01*
X343124Y639547D02*
Y639019D01*
X342596D01*
X343653D01*
X343124D01*
Y637435D01*
X343653Y636906D01*
X345765D02*
X346821D01*
X347350Y637435D01*
Y638491D01*
X346821Y639019D01*
X345765D01*
X345237Y638491D01*
Y637435D01*
X345765Y636906D01*
X348406D02*
Y639019D01*
X348934D01*
X349462Y638491D01*
Y636906D01*
Y638491D01*
X349990Y639019D01*
X350518Y638491D01*
Y636906D01*
X354744Y640075D02*
Y636906D01*
X356856D01*
X358441Y639019D02*
X359497D01*
X360025Y638491D01*
Y636906D01*
X358441D01*
X357912Y637435D01*
X358441Y637963D01*
X360025D01*
X361081Y639019D02*
Y637435D01*
X361609Y636906D01*
X363194D01*
Y636378D01*
X362666Y635850D01*
X362138D01*
X363194Y636906D02*
Y639019D01*
X365835Y636906D02*
X364778D01*
X364250Y637435D01*
Y638491D01*
X364778Y639019D01*
X365835D01*
X366363Y638491D01*
Y637963D01*
X364250D01*
X367419Y639019D02*
Y636906D01*
Y637963D01*
X367947Y638491D01*
X368475Y639019D01*
X369004D01*
X295591Y632151D02*
X297704D01*
X296648D01*
Y628982D01*
X299288D02*
X300345D01*
X300873Y629510D01*
Y630566D01*
X300345Y631094D01*
X299288D01*
X298760Y630566D01*
Y629510D01*
X299288Y628982D01*
X301929Y627925D02*
Y631094D01*
X303514D01*
X304042Y630566D01*
Y629510D01*
X303514Y628982D01*
X301929D01*
X308267Y632151D02*
Y628982D01*
X310379D01*
X311964Y631094D02*
X313020D01*
X313548Y630566D01*
Y628982D01*
X311964D01*
X311436Y629510D01*
X311964Y630038D01*
X313548D01*
X314604Y631094D02*
Y629510D01*
X315133Y628982D01*
X316717D01*
Y628454D01*
X316189Y627925D01*
X315661D01*
X316717Y628982D02*
Y631094D01*
X319358Y628982D02*
X318302D01*
X317773Y629510D01*
Y630566D01*
X318302Y631094D01*
X319358D01*
X319886Y630566D01*
Y630038D01*
X317773D01*
X320942Y631094D02*
Y628982D01*
Y630038D01*
X321470Y630566D01*
X321999Y631094D01*
X322527D01*
X327280Y630566D02*
X329393D01*
X333618Y632151D02*
Y628982D01*
X335202D01*
X335730Y629510D01*
Y630038D01*
X335202Y630566D01*
X333618D01*
X335202D01*
X335730Y631094D01*
Y631623D01*
X335202Y632151D01*
X333618D01*
X337315Y628982D02*
X338371D01*
X338899Y629510D01*
Y630566D01*
X338371Y631094D01*
X337315D01*
X336787Y630566D01*
Y629510D01*
X337315Y628982D01*
X340484Y631623D02*
Y631094D01*
X339955D01*
X341012D01*
X340484D01*
Y629510D01*
X341012Y628982D01*
X343124Y631623D02*
Y631094D01*
X342596D01*
X343653D01*
X343124D01*
Y629510D01*
X343653Y628982D01*
X345765D02*
X346821D01*
X347350Y629510D01*
Y630566D01*
X346821Y631094D01*
X345765D01*
X345237Y630566D01*
Y629510D01*
X345765Y628982D01*
X348406D02*
Y631094D01*
X348934D01*
X349462Y630566D01*
Y628982D01*
Y630566D01*
X349990Y631094D01*
X350518Y630566D01*
Y628982D01*
X354744Y632151D02*
Y628982D01*
X356856D01*
X358441Y631094D02*
X359497D01*
X360025Y630566D01*
Y628982D01*
X358441D01*
X357912Y629510D01*
X358441Y630038D01*
X360025D01*
X361081Y631094D02*
Y629510D01*
X361609Y628982D01*
X363194D01*
Y628454D01*
X362666Y627925D01*
X362138D01*
X363194Y628982D02*
Y631094D01*
X365835Y628982D02*
X364778D01*
X364250Y629510D01*
Y630566D01*
X364778Y631094D01*
X365835D01*
X366363Y630566D01*
Y630038D01*
X364250D01*
X367419Y631094D02*
Y628982D01*
Y630038D01*
X367947Y630566D01*
X368475Y631094D01*
X369004D01*
X295591Y624226D02*
X297704D01*
X296648D01*
Y621057D01*
X299288D02*
X300345D01*
X300873Y621585D01*
Y622642D01*
X300345Y623170D01*
X299288D01*
X298760Y622642D01*
Y621585D01*
X299288Y621057D01*
X301929Y620001D02*
Y623170D01*
X303514D01*
X304042Y622642D01*
Y621585D01*
X303514Y621057D01*
X301929D01*
X308267Y624226D02*
Y621057D01*
X310379D01*
X311964Y623170D02*
X313020D01*
X313548Y622642D01*
Y621057D01*
X311964D01*
X311436Y621585D01*
X311964Y622113D01*
X313548D01*
X314604Y623170D02*
Y621585D01*
X315133Y621057D01*
X316717D01*
Y620529D01*
X316189Y620001D01*
X315661D01*
X316717Y621057D02*
Y623170D01*
X319358Y621057D02*
X318302D01*
X317773Y621585D01*
Y622642D01*
X318302Y623170D01*
X319358D01*
X319886Y622642D01*
Y622113D01*
X317773D01*
X320942Y623170D02*
Y621057D01*
Y622113D01*
X321470Y622642D01*
X321999Y623170D01*
X322527D01*
X327280Y622642D02*
X329393D01*
X333618Y624226D02*
Y621057D01*
X335202D01*
X335730Y621585D01*
Y622113D01*
X335202Y622642D01*
X333618D01*
X335202D01*
X335730Y623170D01*
Y623698D01*
X335202Y624226D01*
X333618D01*
X337315Y621057D02*
X338371D01*
X338899Y621585D01*
Y622642D01*
X338371Y623170D01*
X337315D01*
X336787Y622642D01*
Y621585D01*
X337315Y621057D01*
X340484Y623698D02*
Y623170D01*
X339955D01*
X341012D01*
X340484D01*
Y621585D01*
X341012Y621057D01*
X343124Y623698D02*
Y623170D01*
X342596D01*
X343653D01*
X343124D01*
Y621585D01*
X343653Y621057D01*
X345765D02*
X346821D01*
X347350Y621585D01*
Y622642D01*
X346821Y623170D01*
X345765D01*
X345237Y622642D01*
Y621585D01*
X345765Y621057D01*
X348406D02*
Y623170D01*
X348934D01*
X349462Y622642D01*
Y621057D01*
Y622642D01*
X349990Y623170D01*
X350518Y622642D01*
Y621057D01*
X354744Y624226D02*
Y621057D01*
X356856D01*
X358441Y623170D02*
X359497D01*
X360025Y622642D01*
Y621057D01*
X358441D01*
X357912Y621585D01*
X358441Y622113D01*
X360025D01*
X361081Y623170D02*
Y621585D01*
X361609Y621057D01*
X363194D01*
Y620529D01*
X362666Y620001D01*
X362138D01*
X363194Y621057D02*
Y623170D01*
X365835Y621057D02*
X364778D01*
X364250Y621585D01*
Y622642D01*
X364778Y623170D01*
X365835D01*
X366363Y622642D01*
Y622113D01*
X364250D01*
X367419Y623170D02*
Y621057D01*
Y622113D01*
X367947Y622642D01*
X368475Y623170D01*
X369004D01*
X295591Y616301D02*
X297704D01*
X296648D01*
Y613132D01*
X299288D02*
X300345D01*
X300873Y613660D01*
Y614717D01*
X300345Y615245D01*
X299288D01*
X298760Y614717D01*
Y613660D01*
X299288Y613132D01*
X301929Y612076D02*
Y615245D01*
X303514D01*
X304042Y614717D01*
Y613660D01*
X303514Y613132D01*
X301929D01*
X308267Y616301D02*
Y613132D01*
X310379D01*
X311964Y615245D02*
X313020D01*
X313548Y614717D01*
Y613132D01*
X311964D01*
X311436Y613660D01*
X311964Y614189D01*
X313548D01*
X314604Y615245D02*
Y613660D01*
X315133Y613132D01*
X316717D01*
Y612604D01*
X316189Y612076D01*
X315661D01*
X316717Y613132D02*
Y615245D01*
X319358Y613132D02*
X318302D01*
X317773Y613660D01*
Y614717D01*
X318302Y615245D01*
X319358D01*
X319886Y614717D01*
Y614189D01*
X317773D01*
X320942Y615245D02*
Y613132D01*
Y614189D01*
X321470Y614717D01*
X321999Y615245D01*
X322527D01*
X327280Y614717D02*
X329393D01*
X333618Y616301D02*
Y613132D01*
X335202D01*
X335730Y613660D01*
Y614189D01*
X335202Y614717D01*
X333618D01*
X335202D01*
X335730Y615245D01*
Y615773D01*
X335202Y616301D01*
X333618D01*
X337315Y613132D02*
X338371D01*
X338899Y613660D01*
Y614717D01*
X338371Y615245D01*
X337315D01*
X336787Y614717D01*
Y613660D01*
X337315Y613132D01*
X340484Y615773D02*
Y615245D01*
X339955D01*
X341012D01*
X340484D01*
Y613660D01*
X341012Y613132D01*
X343124Y615773D02*
Y615245D01*
X342596D01*
X343653D01*
X343124D01*
Y613660D01*
X343653Y613132D01*
X345765D02*
X346821D01*
X347350Y613660D01*
Y614717D01*
X346821Y615245D01*
X345765D01*
X345237Y614717D01*
Y613660D01*
X345765Y613132D01*
X348406D02*
Y615245D01*
X348934D01*
X349462Y614717D01*
Y613132D01*
Y614717D01*
X349990Y615245D01*
X350518Y614717D01*
Y613132D01*
X354744Y616301D02*
Y613132D01*
X356856D01*
X358441Y615245D02*
X359497D01*
X360025Y614717D01*
Y613132D01*
X358441D01*
X357912Y613660D01*
X358441Y614189D01*
X360025D01*
X361081Y615245D02*
Y613660D01*
X361609Y613132D01*
X363194D01*
Y612604D01*
X362666Y612076D01*
X362138D01*
X363194Y613132D02*
Y615245D01*
X365835Y613132D02*
X364778D01*
X364250Y613660D01*
Y614717D01*
X364778Y615245D01*
X365835D01*
X366363Y614717D01*
Y614189D01*
X364250D01*
X367419Y615245D02*
Y613132D01*
Y614189D01*
X367947Y614717D01*
X368475Y615245D01*
X369004D01*
X295591Y608377D02*
X297704D01*
X296648D01*
Y605208D01*
X299288D02*
X300345D01*
X300873Y605736D01*
Y606792D01*
X300345Y607320D01*
X299288D01*
X298760Y606792D01*
Y605736D01*
X299288Y605208D01*
X301929Y604151D02*
Y607320D01*
X303514D01*
X304042Y606792D01*
Y605736D01*
X303514Y605208D01*
X301929D01*
X308267Y608377D02*
Y605208D01*
X310379D01*
X311964Y607320D02*
X313020D01*
X313548Y606792D01*
Y605208D01*
X311964D01*
X311436Y605736D01*
X311964Y606264D01*
X313548D01*
X314604Y607320D02*
Y605736D01*
X315133Y605208D01*
X316717D01*
Y604679D01*
X316189Y604151D01*
X315661D01*
X316717Y605208D02*
Y607320D01*
X319358Y605208D02*
X318302D01*
X317773Y605736D01*
Y606792D01*
X318302Y607320D01*
X319358D01*
X319886Y606792D01*
Y606264D01*
X317773D01*
X320942Y607320D02*
Y605208D01*
Y606264D01*
X321470Y606792D01*
X321999Y607320D01*
X322527D01*
X327280Y606792D02*
X329393D01*
X333618Y608377D02*
Y605208D01*
X335202D01*
X335730Y605736D01*
Y606264D01*
X335202Y606792D01*
X333618D01*
X335202D01*
X335730Y607320D01*
Y607848D01*
X335202Y608377D01*
X333618D01*
X337315Y605208D02*
X338371D01*
X338899Y605736D01*
Y606792D01*
X338371Y607320D01*
X337315D01*
X336787Y606792D01*
Y605736D01*
X337315Y605208D01*
X340484Y607848D02*
Y607320D01*
X339955D01*
X341012D01*
X340484D01*
Y605736D01*
X341012Y605208D01*
X343124Y607848D02*
Y607320D01*
X342596D01*
X343653D01*
X343124D01*
Y605736D01*
X343653Y605208D01*
X345765D02*
X346821D01*
X347350Y605736D01*
Y606792D01*
X346821Y607320D01*
X345765D01*
X345237Y606792D01*
Y605736D01*
X345765Y605208D01*
X348406D02*
Y607320D01*
X348934D01*
X349462Y606792D01*
Y605208D01*
Y606792D01*
X349990Y607320D01*
X350518Y606792D01*
Y605208D01*
X354744Y608377D02*
Y605208D01*
X356856D01*
X358441Y607320D02*
X359497D01*
X360025Y606792D01*
Y605208D01*
X358441D01*
X357912Y605736D01*
X358441Y606264D01*
X360025D01*
X361081Y607320D02*
Y605736D01*
X361609Y605208D01*
X363194D01*
Y604679D01*
X362666Y604151D01*
X362138D01*
X363194Y605208D02*
Y607320D01*
X365835Y605208D02*
X364778D01*
X364250Y605736D01*
Y606792D01*
X364778Y607320D01*
X365835D01*
X366363Y606792D01*
Y606264D01*
X364250D01*
X367419Y607320D02*
Y605208D01*
Y606264D01*
X367947Y606792D01*
X368475Y607320D01*
X369004D01*
X295591Y600452D02*
X297704D01*
X296648D01*
Y597283D01*
X299288D02*
X300345D01*
X300873Y597811D01*
Y598867D01*
X300345Y599396D01*
X299288D01*
X298760Y598867D01*
Y597811D01*
X299288Y597283D01*
X301929Y596227D02*
Y599396D01*
X303514D01*
X304042Y598867D01*
Y597811D01*
X303514Y597283D01*
X301929D01*
X308267Y600452D02*
Y597283D01*
X310379D01*
X311964Y599396D02*
X313020D01*
X313548Y598867D01*
Y597283D01*
X311964D01*
X311436Y597811D01*
X311964Y598339D01*
X313548D01*
X314604Y599396D02*
Y597811D01*
X315133Y597283D01*
X316717D01*
Y596755D01*
X316189Y596227D01*
X315661D01*
X316717Y597283D02*
Y599396D01*
X319358Y597283D02*
X318302D01*
X317773Y597811D01*
Y598867D01*
X318302Y599396D01*
X319358D01*
X319886Y598867D01*
Y598339D01*
X317773D01*
X320942Y599396D02*
Y597283D01*
Y598339D01*
X321470Y598867D01*
X321999Y599396D01*
X322527D01*
X327280Y598867D02*
X329393D01*
X333618Y600452D02*
Y597283D01*
X335202D01*
X335730Y597811D01*
Y598339D01*
X335202Y598867D01*
X333618D01*
X335202D01*
X335730Y599396D01*
Y599924D01*
X335202Y600452D01*
X333618D01*
X337315Y597283D02*
X338371D01*
X338899Y597811D01*
Y598867D01*
X338371Y599396D01*
X337315D01*
X336787Y598867D01*
Y597811D01*
X337315Y597283D01*
X340484Y599924D02*
Y599396D01*
X339955D01*
X341012D01*
X340484D01*
Y597811D01*
X341012Y597283D01*
X343124Y599924D02*
Y599396D01*
X342596D01*
X343653D01*
X343124D01*
Y597811D01*
X343653Y597283D01*
X345765D02*
X346821D01*
X347350Y597811D01*
Y598867D01*
X346821Y599396D01*
X345765D01*
X345237Y598867D01*
Y597811D01*
X345765Y597283D01*
X348406D02*
Y599396D01*
X348934D01*
X349462Y598867D01*
Y597283D01*
Y598867D01*
X349990Y599396D01*
X350518Y598867D01*
Y597283D01*
X354744Y600452D02*
Y597283D01*
X356856D01*
X358441Y599396D02*
X359497D01*
X360025Y598867D01*
Y597283D01*
X358441D01*
X357912Y597811D01*
X358441Y598339D01*
X360025D01*
X361081Y599396D02*
Y597811D01*
X361609Y597283D01*
X363194D01*
Y596755D01*
X362666Y596227D01*
X362138D01*
X363194Y597283D02*
Y599396D01*
X365835Y597283D02*
X364778D01*
X364250Y597811D01*
Y598867D01*
X364778Y599396D01*
X365835D01*
X366363Y598867D01*
Y598339D01*
X364250D01*
X367419Y599396D02*
Y597283D01*
Y598339D01*
X367947Y598867D01*
X368475Y599396D01*
X369004D01*
X295591Y592527D02*
X297704D01*
X296648D01*
Y589358D01*
X299288D02*
X300345D01*
X300873Y589886D01*
Y590943D01*
X300345Y591471D01*
X299288D01*
X298760Y590943D01*
Y589886D01*
X299288Y589358D01*
X301929Y588302D02*
Y591471D01*
X303514D01*
X304042Y590943D01*
Y589886D01*
X303514Y589358D01*
X301929D01*
X308267Y592527D02*
Y589358D01*
X310379D01*
X311964Y591471D02*
X313020D01*
X313548Y590943D01*
Y589358D01*
X311964D01*
X311436Y589886D01*
X311964Y590414D01*
X313548D01*
X314604Y591471D02*
Y589886D01*
X315133Y589358D01*
X316717D01*
Y588830D01*
X316189Y588302D01*
X315661D01*
X316717Y589358D02*
Y591471D01*
X319358Y589358D02*
X318302D01*
X317773Y589886D01*
Y590943D01*
X318302Y591471D01*
X319358D01*
X319886Y590943D01*
Y590414D01*
X317773D01*
X320942Y591471D02*
Y589358D01*
Y590414D01*
X321470Y590943D01*
X321999Y591471D01*
X322527D01*
X327280Y590943D02*
X329393D01*
X333618Y592527D02*
Y589358D01*
X335202D01*
X335730Y589886D01*
Y590414D01*
X335202Y590943D01*
X333618D01*
X335202D01*
X335730Y591471D01*
Y591999D01*
X335202Y592527D01*
X333618D01*
X337315Y589358D02*
X338371D01*
X338899Y589886D01*
Y590943D01*
X338371Y591471D01*
X337315D01*
X336787Y590943D01*
Y589886D01*
X337315Y589358D01*
X340484Y591999D02*
Y591471D01*
X339955D01*
X341012D01*
X340484D01*
Y589886D01*
X341012Y589358D01*
X343124Y591999D02*
Y591471D01*
X342596D01*
X343653D01*
X343124D01*
Y589886D01*
X343653Y589358D01*
X345765D02*
X346821D01*
X347350Y589886D01*
Y590943D01*
X346821Y591471D01*
X345765D01*
X345237Y590943D01*
Y589886D01*
X345765Y589358D01*
X348406D02*
Y591471D01*
X348934D01*
X349462Y590943D01*
Y589358D01*
Y590943D01*
X349990Y591471D01*
X350518Y590943D01*
Y589358D01*
X354744Y592527D02*
Y589358D01*
X356856D01*
X358441Y591471D02*
X359497D01*
X360025Y590943D01*
Y589358D01*
X358441D01*
X357912Y589886D01*
X358441Y590414D01*
X360025D01*
X361081Y591471D02*
Y589886D01*
X361609Y589358D01*
X363194D01*
Y588830D01*
X362666Y588302D01*
X362138D01*
X363194Y589358D02*
Y591471D01*
X365835Y589358D02*
X364778D01*
X364250Y589886D01*
Y590943D01*
X364778Y591471D01*
X365835D01*
X366363Y590943D01*
Y590414D01*
X364250D01*
X367419Y591471D02*
Y589358D01*
Y590414D01*
X367947Y590943D01*
X368475Y591471D01*
X369004D01*
X295591Y584602D02*
X297704D01*
X296648D01*
Y581433D01*
X299288D02*
X300345D01*
X300873Y581962D01*
Y583018D01*
X300345Y583546D01*
X299288D01*
X298760Y583018D01*
Y581962D01*
X299288Y581433D01*
X301929Y580377D02*
Y583546D01*
X303514D01*
X304042Y583018D01*
Y581962D01*
X303514Y581433D01*
X301929D01*
X308267Y584602D02*
Y581433D01*
X310379D01*
X311964Y583546D02*
X313020D01*
X313548Y583018D01*
Y581433D01*
X311964D01*
X311436Y581962D01*
X311964Y582490D01*
X313548D01*
X314604Y583546D02*
Y581962D01*
X315133Y581433D01*
X316717D01*
Y580905D01*
X316189Y580377D01*
X315661D01*
X316717Y581433D02*
Y583546D01*
X319358Y581433D02*
X318302D01*
X317773Y581962D01*
Y583018D01*
X318302Y583546D01*
X319358D01*
X319886Y583018D01*
Y582490D01*
X317773D01*
X320942Y583546D02*
Y581433D01*
Y582490D01*
X321470Y583018D01*
X321999Y583546D01*
X322527D01*
X327280Y583018D02*
X329393D01*
X333618Y584602D02*
Y581433D01*
X335202D01*
X335730Y581962D01*
Y582490D01*
X335202Y583018D01*
X333618D01*
X335202D01*
X335730Y583546D01*
Y584074D01*
X335202Y584602D01*
X333618D01*
X337315Y581433D02*
X338371D01*
X338899Y581962D01*
Y583018D01*
X338371Y583546D01*
X337315D01*
X336787Y583018D01*
Y581962D01*
X337315Y581433D01*
X340484Y584074D02*
Y583546D01*
X339955D01*
X341012D01*
X340484D01*
Y581962D01*
X341012Y581433D01*
X343124Y584074D02*
Y583546D01*
X342596D01*
X343653D01*
X343124D01*
Y581962D01*
X343653Y581433D01*
X345765D02*
X346821D01*
X347350Y581962D01*
Y583018D01*
X346821Y583546D01*
X345765D01*
X345237Y583018D01*
Y581962D01*
X345765Y581433D01*
X348406D02*
Y583546D01*
X348934D01*
X349462Y583018D01*
Y581433D01*
Y583018D01*
X349990Y583546D01*
X350518Y583018D01*
Y581433D01*
X354744Y584602D02*
Y581433D01*
X356856D01*
X358441Y583546D02*
X359497D01*
X360025Y583018D01*
Y581433D01*
X358441D01*
X357912Y581962D01*
X358441Y582490D01*
X360025D01*
X361081Y583546D02*
Y581962D01*
X361609Y581433D01*
X363194D01*
Y580905D01*
X362666Y580377D01*
X362138D01*
X363194Y581433D02*
Y583546D01*
X365835Y581433D02*
X364778D01*
X364250Y581962D01*
Y583018D01*
X364778Y583546D01*
X365835D01*
X366363Y583018D01*
Y582490D01*
X364250D01*
X367419Y583546D02*
Y581433D01*
Y582490D01*
X367947Y583018D01*
X368475Y583546D01*
X369004D01*
X295591Y576678D02*
X297704D01*
X296648D01*
Y573509D01*
X299288D02*
X300345D01*
X300873Y574037D01*
Y575093D01*
X300345Y575621D01*
X299288D01*
X298760Y575093D01*
Y574037D01*
X299288Y573509D01*
X301929Y572452D02*
Y575621D01*
X303514D01*
X304042Y575093D01*
Y574037D01*
X303514Y573509D01*
X301929D01*
X308267Y576678D02*
Y573509D01*
X310379D01*
X311964Y575621D02*
X313020D01*
X313548Y575093D01*
Y573509D01*
X311964D01*
X311436Y574037D01*
X311964Y574565D01*
X313548D01*
X314604Y575621D02*
Y574037D01*
X315133Y573509D01*
X316717D01*
Y572981D01*
X316189Y572452D01*
X315661D01*
X316717Y573509D02*
Y575621D01*
X319358Y573509D02*
X318302D01*
X317773Y574037D01*
Y575093D01*
X318302Y575621D01*
X319358D01*
X319886Y575093D01*
Y574565D01*
X317773D01*
X320942Y575621D02*
Y573509D01*
Y574565D01*
X321470Y575093D01*
X321999Y575621D01*
X322527D01*
X327280Y575093D02*
X329393D01*
X333618Y576678D02*
Y573509D01*
X335202D01*
X335730Y574037D01*
Y574565D01*
X335202Y575093D01*
X333618D01*
X335202D01*
X335730Y575621D01*
Y576150D01*
X335202Y576678D01*
X333618D01*
X337315Y573509D02*
X338371D01*
X338899Y574037D01*
Y575093D01*
X338371Y575621D01*
X337315D01*
X336787Y575093D01*
Y574037D01*
X337315Y573509D01*
X340484Y576150D02*
Y575621D01*
X339955D01*
X341012D01*
X340484D01*
Y574037D01*
X341012Y573509D01*
X343124Y576150D02*
Y575621D01*
X342596D01*
X343653D01*
X343124D01*
Y574037D01*
X343653Y573509D01*
X345765D02*
X346821D01*
X347350Y574037D01*
Y575093D01*
X346821Y575621D01*
X345765D01*
X345237Y575093D01*
Y574037D01*
X345765Y573509D01*
X348406D02*
Y575621D01*
X348934D01*
X349462Y575093D01*
Y573509D01*
Y575093D01*
X349990Y575621D01*
X350518Y575093D01*
Y573509D01*
X354744Y576678D02*
Y573509D01*
X356856D01*
X358441Y575621D02*
X359497D01*
X360025Y575093D01*
Y573509D01*
X358441D01*
X357912Y574037D01*
X358441Y574565D01*
X360025D01*
X361081Y575621D02*
Y574037D01*
X361609Y573509D01*
X363194D01*
Y572981D01*
X362666Y572452D01*
X362138D01*
X363194Y573509D02*
Y575621D01*
X365835Y573509D02*
X364778D01*
X364250Y574037D01*
Y575093D01*
X364778Y575621D01*
X365835D01*
X366363Y575093D01*
Y574565D01*
X364250D01*
X367419Y575621D02*
Y573509D01*
Y574565D01*
X367947Y575093D01*
X368475Y575621D01*
X369004D01*
X295591Y568753D02*
X297704D01*
X296648D01*
Y565584D01*
X299288D02*
X300345D01*
X300873Y566112D01*
Y567169D01*
X300345Y567697D01*
X299288D01*
X298760Y567169D01*
Y566112D01*
X299288Y565584D01*
X301929Y564528D02*
Y567697D01*
X303514D01*
X304042Y567169D01*
Y566112D01*
X303514Y565584D01*
X301929D01*
X308267Y568753D02*
Y565584D01*
X310379D01*
X311964Y567697D02*
X313020D01*
X313548Y567169D01*
Y565584D01*
X311964D01*
X311436Y566112D01*
X311964Y566640D01*
X313548D01*
X314604Y567697D02*
Y566112D01*
X315133Y565584D01*
X316717D01*
Y565056D01*
X316189Y564528D01*
X315661D01*
X316717Y565584D02*
Y567697D01*
X319358Y565584D02*
X318302D01*
X317773Y566112D01*
Y567169D01*
X318302Y567697D01*
X319358D01*
X319886Y567169D01*
Y566640D01*
X317773D01*
X320942Y567697D02*
Y565584D01*
Y566640D01*
X321470Y567169D01*
X321999Y567697D01*
X322527D01*
X327280Y567169D02*
X329393D01*
X333618Y568753D02*
Y565584D01*
X335202D01*
X335730Y566112D01*
Y566640D01*
X335202Y567169D01*
X333618D01*
X335202D01*
X335730Y567697D01*
Y568225D01*
X335202Y568753D01*
X333618D01*
X337315Y565584D02*
X338371D01*
X338899Y566112D01*
Y567169D01*
X338371Y567697D01*
X337315D01*
X336787Y567169D01*
Y566112D01*
X337315Y565584D01*
X340484Y568225D02*
Y567697D01*
X339955D01*
X341012D01*
X340484D01*
Y566112D01*
X341012Y565584D01*
X343124Y568225D02*
Y567697D01*
X342596D01*
X343653D01*
X343124D01*
Y566112D01*
X343653Y565584D01*
X345765D02*
X346821D01*
X347350Y566112D01*
Y567169D01*
X346821Y567697D01*
X345765D01*
X345237Y567169D01*
Y566112D01*
X345765Y565584D01*
X348406D02*
Y567697D01*
X348934D01*
X349462Y567169D01*
Y565584D01*
Y567169D01*
X349990Y567697D01*
X350518Y567169D01*
Y565584D01*
X354744Y568753D02*
Y565584D01*
X356856D01*
X358441Y567697D02*
X359497D01*
X360025Y567169D01*
Y565584D01*
X358441D01*
X357912Y566112D01*
X358441Y566640D01*
X360025D01*
X361081Y567697D02*
Y566112D01*
X361609Y565584D01*
X363194D01*
Y565056D01*
X362666Y564528D01*
X362138D01*
X363194Y565584D02*
Y567697D01*
X365835Y565584D02*
X364778D01*
X364250Y566112D01*
Y567169D01*
X364778Y567697D01*
X365835D01*
X366363Y567169D01*
Y566640D01*
X364250D01*
X367419Y567697D02*
Y565584D01*
Y566640D01*
X367947Y567169D01*
X368475Y567697D01*
X369004D01*
X295591Y560828D02*
X297704D01*
X296648D01*
Y557659D01*
X299288D02*
X300345D01*
X300873Y558187D01*
Y559244D01*
X300345Y559772D01*
X299288D01*
X298760Y559244D01*
Y558187D01*
X299288Y557659D01*
X301929Y556603D02*
Y559772D01*
X303514D01*
X304042Y559244D01*
Y558187D01*
X303514Y557659D01*
X301929D01*
X308267Y560828D02*
Y557659D01*
X310379D01*
X311964Y559772D02*
X313020D01*
X313548Y559244D01*
Y557659D01*
X311964D01*
X311436Y558187D01*
X311964Y558716D01*
X313548D01*
X314604Y559772D02*
Y558187D01*
X315133Y557659D01*
X316717D01*
Y557131D01*
X316189Y556603D01*
X315661D01*
X316717Y557659D02*
Y559772D01*
X319358Y557659D02*
X318302D01*
X317773Y558187D01*
Y559244D01*
X318302Y559772D01*
X319358D01*
X319886Y559244D01*
Y558716D01*
X317773D01*
X320942Y559772D02*
Y557659D01*
Y558716D01*
X321470Y559244D01*
X321999Y559772D01*
X322527D01*
X327280Y559244D02*
X329393D01*
X333618Y560828D02*
Y557659D01*
X335202D01*
X335730Y558187D01*
Y558716D01*
X335202Y559244D01*
X333618D01*
X335202D01*
X335730Y559772D01*
Y560300D01*
X335202Y560828D01*
X333618D01*
X337315Y557659D02*
X338371D01*
X338899Y558187D01*
Y559244D01*
X338371Y559772D01*
X337315D01*
X336787Y559244D01*
Y558187D01*
X337315Y557659D01*
X340484Y560300D02*
Y559772D01*
X339955D01*
X341012D01*
X340484D01*
Y558187D01*
X341012Y557659D01*
X343124Y560300D02*
Y559772D01*
X342596D01*
X343653D01*
X343124D01*
Y558187D01*
X343653Y557659D01*
X345765D02*
X346821D01*
X347350Y558187D01*
Y559244D01*
X346821Y559772D01*
X345765D01*
X345237Y559244D01*
Y558187D01*
X345765Y557659D01*
X348406D02*
Y559772D01*
X348934D01*
X349462Y559244D01*
Y557659D01*
Y559244D01*
X349990Y559772D01*
X350518Y559244D01*
Y557659D01*
X354744Y560828D02*
Y557659D01*
X356856D01*
X358441Y559772D02*
X359497D01*
X360025Y559244D01*
Y557659D01*
X358441D01*
X357912Y558187D01*
X358441Y558716D01*
X360025D01*
X361081Y559772D02*
Y558187D01*
X361609Y557659D01*
X363194D01*
Y557131D01*
X362666Y556603D01*
X362138D01*
X363194Y557659D02*
Y559772D01*
X365835Y557659D02*
X364778D01*
X364250Y558187D01*
Y559244D01*
X364778Y559772D01*
X365835D01*
X366363Y559244D01*
Y558716D01*
X364250D01*
X367419Y559772D02*
Y557659D01*
Y558716D01*
X367947Y559244D01*
X368475Y559772D01*
X369004D01*
X256914Y644831D02*
Y648000D01*
X258499D01*
X259027Y647472D01*
Y646416D01*
X258499Y645888D01*
X256914D01*
X257970D02*
X259027Y644831D01*
X260611D02*
X261667D01*
X262196Y645359D01*
Y646416D01*
X261667Y646944D01*
X260611D01*
X260083Y646416D01*
Y645359D01*
X260611Y644831D01*
X263252Y646944D02*
Y645359D01*
X263780Y644831D01*
X265365D01*
Y646944D01*
X266421Y644831D02*
Y646944D01*
X268005D01*
X268533Y646416D01*
Y644831D01*
X271702Y648000D02*
Y644831D01*
X270118D01*
X269590Y645359D01*
Y646416D01*
X270118Y646944D01*
X271702D01*
X256914Y636906D02*
Y640075D01*
X258499D01*
X259027Y639547D01*
Y638491D01*
X258499Y637963D01*
X256914D01*
X257970D02*
X259027Y636906D01*
X260611D02*
X261667D01*
X262196Y637435D01*
Y638491D01*
X261667Y639019D01*
X260611D01*
X260083Y638491D01*
Y637435D01*
X260611Y636906D01*
X263252Y639019D02*
Y637435D01*
X263780Y636906D01*
X265365D01*
Y639019D01*
X266421Y636906D02*
Y639019D01*
X268005D01*
X268533Y638491D01*
Y636906D01*
X271702Y640075D02*
Y636906D01*
X270118D01*
X269590Y637435D01*
Y638491D01*
X270118Y639019D01*
X271702D01*
X256914Y628982D02*
Y632151D01*
X258499D01*
X259027Y631623D01*
Y630566D01*
X258499Y630038D01*
X256914D01*
X257970D02*
X259027Y628982D01*
X260611D02*
X261667D01*
X262196Y629510D01*
Y630566D01*
X261667Y631094D01*
X260611D01*
X260083Y630566D01*
Y629510D01*
X260611Y628982D01*
X263252Y631094D02*
Y629510D01*
X263780Y628982D01*
X265365D01*
Y631094D01*
X266421Y628982D02*
Y631094D01*
X268005D01*
X268533Y630566D01*
Y628982D01*
X271702Y632151D02*
Y628982D01*
X270118D01*
X269590Y629510D01*
Y630566D01*
X270118Y631094D01*
X271702D01*
X256914Y621057D02*
Y624226D01*
X258499D01*
X259027Y623698D01*
Y622642D01*
X258499Y622113D01*
X256914D01*
X257970D02*
X259027Y621057D01*
X260611D02*
X261667D01*
X262196Y621585D01*
Y622642D01*
X261667Y623170D01*
X260611D01*
X260083Y622642D01*
Y621585D01*
X260611Y621057D01*
X263252Y623170D02*
Y621585D01*
X263780Y621057D01*
X265365D01*
Y623170D01*
X266421Y621057D02*
Y623170D01*
X268005D01*
X268533Y622642D01*
Y621057D01*
X271702Y624226D02*
Y621057D01*
X270118D01*
X269590Y621585D01*
Y622642D01*
X270118Y623170D01*
X271702D01*
X256914Y613132D02*
Y616301D01*
X258499D01*
X259027Y615773D01*
Y614717D01*
X258499Y614189D01*
X256914D01*
X257970D02*
X259027Y613132D01*
X260611D02*
X261667D01*
X262196Y613660D01*
Y614717D01*
X261667Y615245D01*
X260611D01*
X260083Y614717D01*
Y613660D01*
X260611Y613132D01*
X263252Y615245D02*
Y613660D01*
X263780Y613132D01*
X265365D01*
Y615245D01*
X266421Y613132D02*
Y615245D01*
X268005D01*
X268533Y614717D01*
Y613132D01*
X271702Y616301D02*
Y613132D01*
X270118D01*
X269590Y613660D01*
Y614717D01*
X270118Y615245D01*
X271702D01*
X256914Y605208D02*
Y608377D01*
X258499D01*
X259027Y607848D01*
Y606792D01*
X258499Y606264D01*
X256914D01*
X257970D02*
X259027Y605208D01*
X260611D02*
X261667D01*
X262196Y605736D01*
Y606792D01*
X261667Y607320D01*
X260611D01*
X260083Y606792D01*
Y605736D01*
X260611Y605208D01*
X263252Y607320D02*
Y605736D01*
X263780Y605208D01*
X265365D01*
Y607320D01*
X266421Y605208D02*
Y607320D01*
X268005D01*
X268533Y606792D01*
Y605208D01*
X271702Y608377D02*
Y605208D01*
X270118D01*
X269590Y605736D01*
Y606792D01*
X270118Y607320D01*
X271702D01*
X256914Y597283D02*
Y600452D01*
X258499D01*
X259027Y599924D01*
Y598867D01*
X258499Y598339D01*
X256914D01*
X257970D02*
X259027Y597283D01*
X260611D02*
X261667D01*
X262196Y597811D01*
Y598867D01*
X261667Y599396D01*
X260611D01*
X260083Y598867D01*
Y597811D01*
X260611Y597283D01*
X263252Y599396D02*
Y597811D01*
X263780Y597283D01*
X265365D01*
Y599396D01*
X266421Y597283D02*
Y599396D01*
X268005D01*
X268533Y598867D01*
Y597283D01*
X271702Y600452D02*
Y597283D01*
X270118D01*
X269590Y597811D01*
Y598867D01*
X270118Y599396D01*
X271702D01*
X256914Y589358D02*
Y592527D01*
X258499D01*
X259027Y591999D01*
Y590943D01*
X258499Y590414D01*
X256914D01*
X257970D02*
X259027Y589358D01*
X260611D02*
X261667D01*
X262196Y589886D01*
Y590943D01*
X261667Y591471D01*
X260611D01*
X260083Y590943D01*
Y589886D01*
X260611Y589358D01*
X263252Y591471D02*
Y589886D01*
X263780Y589358D01*
X265365D01*
Y591471D01*
X266421Y589358D02*
Y591471D01*
X268005D01*
X268533Y590943D01*
Y589358D01*
X271702Y592527D02*
Y589358D01*
X270118D01*
X269590Y589886D01*
Y590943D01*
X270118Y591471D01*
X271702D01*
X256914Y581433D02*
Y584602D01*
X258499D01*
X259027Y584074D01*
Y583018D01*
X258499Y582490D01*
X256914D01*
X257970D02*
X259027Y581433D01*
X260611D02*
X261667D01*
X262196Y581962D01*
Y583018D01*
X261667Y583546D01*
X260611D01*
X260083Y583018D01*
Y581962D01*
X260611Y581433D01*
X263252Y583546D02*
Y581962D01*
X263780Y581433D01*
X265365D01*
Y583546D01*
X266421Y581433D02*
Y583546D01*
X268005D01*
X268533Y583018D01*
Y581433D01*
X271702Y584602D02*
Y581433D01*
X270118D01*
X269590Y581962D01*
Y583018D01*
X270118Y583546D01*
X271702D01*
X256914Y573509D02*
Y576678D01*
X258499D01*
X259027Y576150D01*
Y575093D01*
X258499Y574565D01*
X256914D01*
X257970D02*
X259027Y573509D01*
X260611D02*
X261667D01*
X262196Y574037D01*
Y575093D01*
X261667Y575621D01*
X260611D01*
X260083Y575093D01*
Y574037D01*
X260611Y573509D01*
X263252Y575621D02*
Y574037D01*
X263780Y573509D01*
X265365D01*
Y575621D01*
X266421Y573509D02*
Y575621D01*
X268005D01*
X268533Y575093D01*
Y573509D01*
X271702Y576678D02*
Y573509D01*
X270118D01*
X269590Y574037D01*
Y575093D01*
X270118Y575621D01*
X271702D01*
X256914Y565584D02*
Y568753D01*
X258499D01*
X259027Y568225D01*
Y567169D01*
X258499Y566640D01*
X256914D01*
X257970D02*
X259027Y565584D01*
X260611D02*
X261667D01*
X262196Y566112D01*
Y567169D01*
X261667Y567697D01*
X260611D01*
X260083Y567169D01*
Y566112D01*
X260611Y565584D01*
X263252Y567697D02*
Y566112D01*
X263780Y565584D01*
X265365D01*
Y567697D01*
X266421Y565584D02*
Y567697D01*
X268005D01*
X268533Y567169D01*
Y565584D01*
X271702Y568753D02*
Y565584D01*
X270118D01*
X269590Y566112D01*
Y567169D01*
X270118Y567697D01*
X271702D01*
X256914Y557659D02*
Y560828D01*
X258499D01*
X259027Y560300D01*
Y559244D01*
X258499Y558716D01*
X256914D01*
X257970D02*
X259027Y557659D01*
X260611D02*
X261667D01*
X262196Y558187D01*
Y559244D01*
X261667Y559772D01*
X260611D01*
X260083Y559244D01*
Y558187D01*
X260611Y557659D01*
X263252Y559772D02*
Y558187D01*
X263780Y557659D01*
X265365D01*
Y559772D01*
X266421Y557659D02*
Y559772D01*
X268005D01*
X268533Y559244D01*
Y557659D01*
X271702Y560828D02*
Y557659D01*
X270118D01*
X269590Y558187D01*
Y559244D01*
X270118Y559772D01*
X271702D01*
X230279Y644831D02*
Y648000D01*
X232391Y644831D01*
Y648000D01*
X233448Y644831D02*
Y648000D01*
X235032D01*
X235560Y647472D01*
Y646416D01*
X235032Y645888D01*
X233448D01*
X236616Y648000D02*
X238729D01*
X237673D01*
Y644831D01*
X239785Y648000D02*
Y644831D01*
Y646416D01*
X241898D01*
Y648000D01*
Y644831D01*
X230279Y636906D02*
Y640075D01*
X231863D01*
X232391Y639547D01*
Y638491D01*
X231863Y637963D01*
X230279D01*
X233448Y640075D02*
X235560D01*
X234504D01*
Y636906D01*
X236616Y640075D02*
Y636906D01*
Y638491D01*
X238729D01*
Y640075D01*
Y636906D01*
X230279Y628982D02*
Y632151D01*
X231863D01*
X232391Y631623D01*
Y630566D01*
X231863Y630038D01*
X230279D01*
X233448Y632151D02*
X235560D01*
X234504D01*
Y628982D01*
X236616Y632151D02*
Y628982D01*
Y630566D01*
X238729D01*
Y632151D01*
Y628982D01*
X230279Y621057D02*
Y624226D01*
X232391Y621057D01*
Y624226D01*
X233448Y621057D02*
Y624226D01*
X235032D01*
X235560Y623698D01*
Y622642D01*
X235032Y622113D01*
X233448D01*
X236616Y624226D02*
X238729D01*
X237673D01*
Y621057D01*
X239785Y624226D02*
Y621057D01*
Y622642D01*
X241898D01*
Y624226D01*
Y621057D01*
X230279Y613132D02*
Y616301D01*
X231863D01*
X232391Y615773D01*
Y614717D01*
X231863Y614189D01*
X230279D01*
X233448Y616301D02*
X235560D01*
X234504D01*
Y613132D01*
X236616Y616301D02*
Y613132D01*
Y614717D01*
X238729D01*
Y616301D01*
Y613132D01*
X230279Y605208D02*
Y608377D01*
X232391Y605208D01*
Y608377D01*
X233448Y605208D02*
Y608377D01*
X235032D01*
X235560Y607848D01*
Y606792D01*
X235032Y606264D01*
X233448D01*
X236616Y608377D02*
X238729D01*
X237673D01*
Y605208D01*
X239785Y608377D02*
Y605208D01*
Y606792D01*
X241898D01*
Y608377D01*
Y605208D01*
X230279Y597283D02*
Y600452D01*
X231863D01*
X232391Y599924D01*
Y598867D01*
X231863Y598339D01*
X230279D01*
X233448Y600452D02*
X235560D01*
X234504D01*
Y597283D01*
X236616Y600452D02*
Y597283D01*
Y598867D01*
X238729D01*
Y600452D01*
Y597283D01*
X230279Y589358D02*
Y592527D01*
X232391Y589358D01*
Y592527D01*
X233448Y589358D02*
Y592527D01*
X235032D01*
X235560Y591999D01*
Y590943D01*
X235032Y590414D01*
X233448D01*
X236616Y592527D02*
X238729D01*
X237673D01*
Y589358D01*
X239785Y592527D02*
Y589358D01*
Y590943D01*
X241898D01*
Y592527D01*
Y589358D01*
X230279Y581433D02*
Y584602D01*
X231863D01*
X232391Y584074D01*
Y583018D01*
X231863Y582490D01*
X230279D01*
X233448Y584602D02*
X235560D01*
X234504D01*
Y581433D01*
X236616Y584602D02*
Y581433D01*
Y583018D01*
X238729D01*
Y584602D01*
Y581433D01*
X230279Y573509D02*
Y576678D01*
X231863D01*
X232391Y576150D01*
Y575093D01*
X231863Y574565D01*
X230279D01*
X233448Y576678D02*
X235560D01*
X234504D01*
Y573509D01*
X236616Y576678D02*
Y573509D01*
Y575093D01*
X238729D01*
Y576678D01*
Y573509D01*
X230279Y565584D02*
Y568753D01*
X231863D01*
X232391Y568225D01*
Y567169D01*
X231863Y566640D01*
X230279D01*
X233448Y568753D02*
X235560D01*
X234504D01*
Y565584D01*
X236616Y568753D02*
Y565584D01*
Y567169D01*
X238729D01*
Y568753D01*
Y565584D01*
X230279Y557659D02*
Y560828D01*
X231863D01*
X232391Y560300D01*
Y559244D01*
X231863Y558716D01*
X230279D01*
X233448Y560828D02*
X235560D01*
X234504D01*
Y557659D01*
X236616Y560828D02*
Y557659D01*
Y559244D01*
X238729D01*
Y560828D01*
Y557659D01*
X169597Y647472D02*
X170125Y648000D01*
X171181D01*
X171709Y647472D01*
Y646944D01*
X171181Y646416D01*
X170653D01*
X171181D01*
X171709Y645888D01*
Y645359D01*
X171181Y644831D01*
X170125D01*
X169597Y645359D01*
X172766Y644831D02*
Y645359D01*
X173294D01*
Y644831D01*
X172766D01*
X175406Y647472D02*
X175935Y648000D01*
X176991D01*
X177519Y647472D01*
Y645359D01*
X176991Y644831D01*
X175935D01*
X175406Y645359D01*
Y647472D01*
X180160Y644831D02*
Y648000D01*
X178575Y646416D01*
X180688D01*
X181744Y647472D02*
X182272Y648000D01*
X183328D01*
X183857Y647472D01*
Y646944D01*
X183328Y646416D01*
X183857Y645888D01*
Y645359D01*
X183328Y644831D01*
X182272D01*
X181744Y645359D01*
Y645888D01*
X182272Y646416D01*
X181744Y646944D01*
Y647472D01*
X182272Y646416D02*
X183328D01*
X184913Y644831D02*
Y646944D01*
X185441D01*
X185969Y646416D01*
Y644831D01*
Y646416D01*
X186497Y646944D01*
X187025Y646416D01*
Y644831D01*
X188082D02*
Y646944D01*
X188610D01*
X189138Y646416D01*
Y644831D01*
Y646416D01*
X189666Y646944D01*
X190194Y646416D01*
Y644831D01*
X195476D02*
X194420Y645888D01*
Y646944D01*
X195476Y648000D01*
X197060Y644831D02*
X198117D01*
X197588D01*
Y648000D01*
X197060Y647472D01*
X201814Y644831D02*
X199701D01*
X201814Y646944D01*
Y647472D01*
X201285Y648000D01*
X200229D01*
X199701Y647472D01*
X202870D02*
X203398Y648000D01*
X204454D01*
X204982Y647472D01*
Y645359D01*
X204454Y644831D01*
X203398D01*
X202870Y645359D01*
Y647472D01*
X206039Y644831D02*
Y645359D01*
X206567D01*
Y644831D01*
X206039D01*
X208680Y647472D02*
X209208Y648000D01*
X210264D01*
X210792Y647472D01*
Y645359D01*
X210264Y644831D01*
X209208D01*
X208680Y645359D01*
Y647472D01*
X211848D02*
X212376Y648000D01*
X213433D01*
X213961Y647472D01*
Y645359D01*
X213433Y644831D01*
X212376D01*
X211848Y645359D01*
Y647472D01*
X215017Y644831D02*
Y646944D01*
X215545D01*
X216073Y646416D01*
Y644831D01*
Y646416D01*
X216602Y646944D01*
X217130Y646416D01*
Y644831D01*
X218186D02*
X219242D01*
X218714D01*
Y646944D01*
X218186D01*
X220827Y644831D02*
X221883D01*
X221355D01*
Y648000D01*
X220827D01*
X223467Y644831D02*
X224524Y645888D01*
Y646944D01*
X223467Y648000D01*
X169597Y639547D02*
X170125Y640075D01*
X171181D01*
X171709Y639547D01*
Y637435D01*
X171181Y636906D01*
X170125D01*
X169597Y637435D01*
Y639547D01*
X172766Y636906D02*
Y637435D01*
X173294D01*
Y636906D01*
X172766D01*
X177519Y640075D02*
X175406D01*
Y638491D01*
X176463Y639019D01*
X176991D01*
X177519Y638491D01*
Y637435D01*
X176991Y636906D01*
X175935D01*
X175406Y637435D01*
X178575Y639547D02*
X179103Y640075D01*
X180160D01*
X180688Y639547D01*
Y637435D01*
X180160Y636906D01*
X179103D01*
X178575Y637435D01*
Y639547D01*
X181744D02*
X182272Y640075D01*
X183328D01*
X183857Y639547D01*
Y637435D01*
X183328Y636906D01*
X182272D01*
X181744Y637435D01*
Y639547D01*
X184913Y636906D02*
Y639019D01*
X185441D01*
X185969Y638491D01*
Y636906D01*
Y638491D01*
X186497Y639019D01*
X187025Y638491D01*
Y636906D01*
X188082D02*
Y639019D01*
X188610D01*
X189138Y638491D01*
Y636906D01*
Y638491D01*
X189666Y639019D01*
X190194Y638491D01*
Y636906D01*
X195476D02*
X194420Y637963D01*
Y639019D01*
X195476Y640075D01*
X197060Y636906D02*
X198117D01*
X197588D01*
Y640075D01*
X197060Y639547D01*
X199701Y637435D02*
X200229Y636906D01*
X201285D01*
X201814Y637435D01*
Y639547D01*
X201285Y640075D01*
X200229D01*
X199701Y639547D01*
Y639019D01*
X200229Y638491D01*
X201814D01*
X202870Y636906D02*
Y637435D01*
X203398D01*
Y636906D01*
X202870D01*
X207623Y640075D02*
X206567Y639547D01*
X205511Y638491D01*
Y637435D01*
X206039Y636906D01*
X207095D01*
X207623Y637435D01*
Y637963D01*
X207095Y638491D01*
X205511D01*
X208680Y637435D02*
X209208Y636906D01*
X210264D01*
X210792Y637435D01*
Y639547D01*
X210264Y640075D01*
X209208D01*
X208680Y639547D01*
Y639019D01*
X209208Y638491D01*
X210792D01*
X211848Y636906D02*
Y639019D01*
X212376D01*
X212905Y638491D01*
Y636906D01*
Y638491D01*
X213433Y639019D01*
X213961Y638491D01*
Y636906D01*
X215017D02*
X216073D01*
X215545D01*
Y639019D01*
X215017D01*
X217658Y636906D02*
X218714D01*
X218186D01*
Y640075D01*
X217658D01*
X220299Y636906D02*
X221355Y637963D01*
Y639019D01*
X220299Y640075D01*
X169597Y628982D02*
X170653D01*
X170125D01*
Y632151D01*
X169597Y631623D01*
X172238Y628982D02*
Y629510D01*
X172766D01*
Y628982D01*
X172238D01*
X176991D02*
X174878D01*
X176991Y631094D01*
Y631623D01*
X176463Y632151D01*
X175406D01*
X174878Y631623D01*
X178047Y632151D02*
X180160D01*
Y631623D01*
X178047Y629510D01*
Y628982D01*
X181216Y631623D02*
X181744Y632151D01*
X182800D01*
X183328Y631623D01*
Y629510D01*
X182800Y628982D01*
X181744D01*
X181216Y629510D01*
Y631623D01*
X184385Y628982D02*
Y631094D01*
X184913D01*
X185441Y630566D01*
Y628982D01*
Y630566D01*
X185969Y631094D01*
X186497Y630566D01*
Y628982D01*
X187554D02*
Y631094D01*
X188082D01*
X188610Y630566D01*
Y628982D01*
Y630566D01*
X189138Y631094D01*
X189666Y630566D01*
Y628982D01*
X194948D02*
X193891Y630038D01*
Y631094D01*
X194948Y632151D01*
X198645D02*
X196532D01*
Y630566D01*
X197588Y631094D01*
X198117D01*
X198645Y630566D01*
Y629510D01*
X198117Y628982D01*
X197060D01*
X196532Y629510D01*
X199701Y631623D02*
X200229Y632151D01*
X201285D01*
X201814Y631623D01*
Y629510D01*
X201285Y628982D01*
X200229D01*
X199701Y629510D01*
Y631623D01*
X202870Y628982D02*
Y629510D01*
X203398D01*
Y628982D01*
X202870D01*
X205511Y631623D02*
X206039Y632151D01*
X207095D01*
X207623Y631623D01*
Y629510D01*
X207095Y628982D01*
X206039D01*
X205511Y629510D01*
Y631623D01*
X208680D02*
X209208Y632151D01*
X210264D01*
X210792Y631623D01*
Y629510D01*
X210264Y628982D01*
X209208D01*
X208680Y629510D01*
Y631623D01*
X211848Y628982D02*
Y631094D01*
X212376D01*
X212905Y630566D01*
Y628982D01*
Y630566D01*
X213433Y631094D01*
X213961Y630566D01*
Y628982D01*
X215017D02*
X216073D01*
X215545D01*
Y631094D01*
X215017D01*
X217658Y628982D02*
X218714D01*
X218186D01*
Y632151D01*
X217658D01*
X220299Y628982D02*
X221355Y630038D01*
Y631094D01*
X220299Y632151D01*
X169597Y623698D02*
X170125Y624226D01*
X171181D01*
X171709Y623698D01*
Y623170D01*
X171181Y622642D01*
X170653D01*
X171181D01*
X171709Y622113D01*
Y621585D01*
X171181Y621057D01*
X170125D01*
X169597Y621585D01*
X172766Y621057D02*
Y621585D01*
X173294D01*
Y621057D01*
X172766D01*
X175406Y623698D02*
X175935Y624226D01*
X176991D01*
X177519Y623698D01*
Y621585D01*
X176991Y621057D01*
X175935D01*
X175406Y621585D01*
Y623698D01*
X178575D02*
X179103Y624226D01*
X180160D01*
X180688Y623698D01*
Y621585D01*
X180160Y621057D01*
X179103D01*
X178575Y621585D01*
Y623698D01*
X181744D02*
X182272Y624226D01*
X183328D01*
X183857Y623698D01*
Y621585D01*
X183328Y621057D01*
X182272D01*
X181744Y621585D01*
Y623698D01*
X184913Y621057D02*
Y623170D01*
X185441D01*
X185969Y622642D01*
Y621057D01*
Y622642D01*
X186497Y623170D01*
X187025Y622642D01*
Y621057D01*
X188082D02*
Y623170D01*
X188610D01*
X189138Y622642D01*
Y621057D01*
Y622642D01*
X189666Y623170D01*
X190194Y622642D01*
Y621057D01*
X195476D02*
X194420Y622113D01*
Y623170D01*
X195476Y624226D01*
X197060Y621057D02*
X198117D01*
X197588D01*
Y624226D01*
X197060Y623698D01*
X199701Y621057D02*
X200757D01*
X200229D01*
Y624226D01*
X199701Y623698D01*
X202342D02*
X202870Y624226D01*
X203926D01*
X204454Y623698D01*
Y623170D01*
X203926Y622642D01*
X204454Y622113D01*
Y621585D01*
X203926Y621057D01*
X202870D01*
X202342Y621585D01*
Y622113D01*
X202870Y622642D01*
X202342Y623170D01*
Y623698D01*
X202870Y622642D02*
X203926D01*
X205511Y621057D02*
Y621585D01*
X206039D01*
Y621057D01*
X205511D01*
X208151D02*
X209208D01*
X208679D01*
Y624226D01*
X208151Y623698D01*
X210792Y621057D02*
X211848D01*
X211320D01*
Y624226D01*
X210792Y623698D01*
X213433Y621057D02*
Y623170D01*
X213961D01*
X214489Y622642D01*
Y621057D01*
Y622642D01*
X215017Y623170D01*
X215545Y622642D01*
Y621057D01*
X216602D02*
X217658D01*
X217130D01*
Y623170D01*
X216602D01*
X219242Y621057D02*
X220299D01*
X219771D01*
Y624226D01*
X219242D01*
X221883Y621057D02*
X222939Y622113D01*
Y623170D01*
X221883Y624226D01*
X169597Y613132D02*
X170653D01*
X170125D01*
Y616301D01*
X169597Y615773D01*
X172238Y613132D02*
Y613660D01*
X172766D01*
Y613132D01*
X172238D01*
X174878D02*
X175935D01*
X175406D01*
Y616301D01*
X174878Y615773D01*
X179631Y616301D02*
X177519D01*
Y614717D01*
X178575Y615245D01*
X179103D01*
X179631Y614717D01*
Y613660D01*
X179103Y613132D01*
X178047D01*
X177519Y613660D01*
X180688Y615773D02*
X181216Y616301D01*
X182272D01*
X182800Y615773D01*
Y613660D01*
X182272Y613132D01*
X181216D01*
X180688Y613660D01*
Y615773D01*
X183857Y613132D02*
Y615245D01*
X184385D01*
X184913Y614717D01*
Y613132D01*
Y614717D01*
X185441Y615245D01*
X185969Y614717D01*
Y613132D01*
X187025D02*
Y615245D01*
X187554D01*
X188082Y614717D01*
Y613132D01*
Y614717D01*
X188610Y615245D01*
X189138Y614717D01*
Y613132D01*
X194420D02*
X193363Y614189D01*
Y615245D01*
X194420Y616301D01*
X197588Y613132D02*
Y616301D01*
X196004Y614717D01*
X198117D01*
X201285Y616301D02*
X199173D01*
Y614717D01*
X200229Y615245D01*
X200757D01*
X201285Y614717D01*
Y613660D01*
X200757Y613132D01*
X199701D01*
X199173Y613660D01*
X202342Y613132D02*
Y613660D01*
X202870D01*
Y613132D01*
X202342D01*
X207095D02*
X204982D01*
X207095Y615245D01*
Y615773D01*
X206567Y616301D01*
X205511D01*
X204982Y615773D01*
X208151D02*
X208679Y616301D01*
X209736D01*
X210264Y615773D01*
Y615245D01*
X209736Y614717D01*
X210264Y614189D01*
Y613660D01*
X209736Y613132D01*
X208679D01*
X208151Y613660D01*
Y614189D01*
X208679Y614717D01*
X208151Y615245D01*
Y615773D01*
X208679Y614717D02*
X209736D01*
X211320Y613132D02*
Y615245D01*
X211848D01*
X212376Y614717D01*
Y613132D01*
Y614717D01*
X212905Y615245D01*
X213433Y614717D01*
Y613132D01*
X214489D02*
X215545D01*
X215017D01*
Y615245D01*
X214489D01*
X217130Y613132D02*
X218186D01*
X217658D01*
Y616301D01*
X217130D01*
X219771Y613132D02*
X220827Y614189D01*
Y615245D01*
X219771Y616301D01*
X169597Y607848D02*
X170125Y608377D01*
X171181D01*
X171709Y607848D01*
Y607320D01*
X171181Y606792D01*
X170653D01*
X171181D01*
X171709Y606264D01*
Y605736D01*
X171181Y605208D01*
X170125D01*
X169597Y605736D01*
X172766Y605208D02*
Y605736D01*
X173294D01*
Y605208D01*
X172766D01*
X175406D02*
X176463D01*
X175935D01*
Y608377D01*
X175406Y607848D01*
X178047D02*
X178575Y608377D01*
X179631D01*
X180160Y607848D01*
Y605736D01*
X179631Y605208D01*
X178575D01*
X178047Y605736D01*
Y607848D01*
X181216D02*
X181744Y608377D01*
X182800D01*
X183328Y607848D01*
Y605736D01*
X182800Y605208D01*
X181744D01*
X181216Y605736D01*
Y607848D01*
X184385Y605208D02*
Y607320D01*
X184913D01*
X185441Y606792D01*
Y605208D01*
Y606792D01*
X185969Y607320D01*
X186497Y606792D01*
Y605208D01*
X187554D02*
Y607320D01*
X188082D01*
X188610Y606792D01*
Y605208D01*
Y606792D01*
X189138Y607320D01*
X189666Y606792D01*
Y605208D01*
X194948D02*
X193891Y606264D01*
Y607320D01*
X194948Y608377D01*
X196532Y605208D02*
X197588D01*
X197060D01*
Y608377D01*
X196532Y607848D01*
X201285Y605208D02*
X199173D01*
X201285Y607320D01*
Y607848D01*
X200757Y608377D01*
X199701D01*
X199173Y607848D01*
X204454Y605208D02*
X202342D01*
X204454Y607320D01*
Y607848D01*
X203926Y608377D01*
X202870D01*
X202342Y607848D01*
X205511Y605208D02*
Y605736D01*
X206039D01*
Y605208D01*
X205511D01*
X208151Y607848D02*
X208679Y608377D01*
X209736D01*
X210264Y607848D01*
Y605736D01*
X209736Y605208D01*
X208679D01*
X208151Y605736D01*
Y607848D01*
X213433Y608377D02*
X211320D01*
Y606792D01*
X212376Y607320D01*
X212905D01*
X213433Y606792D01*
Y605736D01*
X212905Y605208D01*
X211848D01*
X211320Y605736D01*
X214489Y605208D02*
Y607320D01*
X215017D01*
X215545Y606792D01*
Y605208D01*
Y606792D01*
X216073Y607320D01*
X216602Y606792D01*
Y605208D01*
X217658D02*
X218714D01*
X218186D01*
Y607320D01*
X217658D01*
X220299Y605208D02*
X221355D01*
X220827D01*
Y608377D01*
X220299D01*
X222939Y605208D02*
X223996Y606264D01*
Y607320D01*
X222939Y608377D01*
X169597Y597283D02*
X170653D01*
X170125D01*
Y600452D01*
X169597Y599924D01*
X172238Y597283D02*
Y597811D01*
X172766D01*
Y597283D01*
X172238D01*
X174878Y599924D02*
X175406Y600452D01*
X176463D01*
X176991Y599924D01*
Y597811D01*
X176463Y597283D01*
X175406D01*
X174878Y597811D01*
Y599924D01*
X178047Y597283D02*
X179103D01*
X178575D01*
Y600452D01*
X178047Y599924D01*
X182800Y600452D02*
X181744Y599924D01*
X180688Y598867D01*
Y597811D01*
X181216Y597283D01*
X182272D01*
X182800Y597811D01*
Y598339D01*
X182272Y598867D01*
X180688D01*
X183857Y597283D02*
Y599396D01*
X184385D01*
X184913Y598867D01*
Y597283D01*
Y598867D01*
X185441Y599396D01*
X185969Y598867D01*
Y597283D01*
X187025D02*
Y599396D01*
X187554D01*
X188082Y598867D01*
Y597283D01*
Y598867D01*
X188610Y599396D01*
X189138Y598867D01*
Y597283D01*
X194420D02*
X193363Y598339D01*
Y599396D01*
X194420Y600452D01*
X197588Y597283D02*
Y600452D01*
X196004Y598867D01*
X198117D01*
X199173Y599924D02*
X199701Y600452D01*
X200757D01*
X201285Y599924D01*
Y597811D01*
X200757Y597283D01*
X199701D01*
X199173Y597811D01*
Y599924D01*
X202342Y597283D02*
Y597811D01*
X202870D01*
Y597283D01*
X202342D01*
X204982Y599924D02*
X205511Y600452D01*
X206567D01*
X207095Y599924D01*
Y597811D01*
X206567Y597283D01*
X205511D01*
X204982Y597811D01*
Y599924D01*
X208151D02*
X208679Y600452D01*
X209736D01*
X210264Y599924D01*
Y597811D01*
X209736Y597283D01*
X208679D01*
X208151Y597811D01*
Y599924D01*
X211320Y597283D02*
Y599396D01*
X211848D01*
X212376Y598867D01*
Y597283D01*
Y598867D01*
X212905Y599396D01*
X213433Y598867D01*
Y597283D01*
X214489D02*
X215545D01*
X215017D01*
Y599396D01*
X214489D01*
X217130Y597283D02*
X218186D01*
X217658D01*
Y600452D01*
X217130D01*
X219771Y597283D02*
X220827Y598339D01*
Y599396D01*
X219771Y600452D01*
X171709Y592527D02*
X169597D01*
Y590943D01*
X170653Y591471D01*
X171181D01*
X171709Y590943D01*
Y589886D01*
X171181Y589358D01*
X170125D01*
X169597Y589886D01*
X172766Y589358D02*
Y589886D01*
X173294D01*
Y589358D01*
X172766D01*
X177519Y592527D02*
X175406D01*
Y590943D01*
X176463Y591471D01*
X176991D01*
X177519Y590943D01*
Y589886D01*
X176991Y589358D01*
X175935D01*
X175406Y589886D01*
X178575Y591999D02*
X179103Y592527D01*
X180160D01*
X180688Y591999D01*
Y589886D01*
X180160Y589358D01*
X179103D01*
X178575Y589886D01*
Y591999D01*
X181744D02*
X182272Y592527D01*
X183328D01*
X183857Y591999D01*
Y589886D01*
X183328Y589358D01*
X182272D01*
X181744Y589886D01*
Y591999D01*
X184913Y589358D02*
Y591471D01*
X185441D01*
X185969Y590943D01*
Y589358D01*
Y590943D01*
X186497Y591471D01*
X187025Y590943D01*
Y589358D01*
X188082D02*
Y591471D01*
X188610D01*
X189138Y590943D01*
Y589358D01*
Y590943D01*
X189666Y591471D01*
X190194Y590943D01*
Y589358D01*
X195476D02*
X194420Y590414D01*
Y591471D01*
X195476Y592527D01*
X199173Y589358D02*
X197060D01*
X199173Y591471D01*
Y591999D01*
X198645Y592527D01*
X197588D01*
X197060Y591999D01*
X200229Y589358D02*
X201285D01*
X200757D01*
Y592527D01*
X200229Y591999D01*
X204982Y592527D02*
X203926Y591999D01*
X202870Y590943D01*
Y589886D01*
X203398Y589358D01*
X204454D01*
X204982Y589886D01*
Y590414D01*
X204454Y590943D01*
X202870D01*
X206039Y589358D02*
Y589886D01*
X206567D01*
Y589358D01*
X206039D01*
X210792Y592527D02*
X208680D01*
Y590943D01*
X209736Y591471D01*
X210264D01*
X210792Y590943D01*
Y589886D01*
X210264Y589358D01*
X209208D01*
X208680Y589886D01*
X213433Y589358D02*
Y592527D01*
X211848Y590943D01*
X213961D01*
X215017Y589358D02*
Y591471D01*
X215545D01*
X216073Y590943D01*
Y589358D01*
Y590943D01*
X216602Y591471D01*
X217130Y590943D01*
Y589358D01*
X218186D02*
X219242D01*
X218714D01*
Y591471D01*
X218186D01*
X220827Y589358D02*
X221883D01*
X221355D01*
Y592527D01*
X220827D01*
X223467Y589358D02*
X224524Y590414D01*
Y591471D01*
X223467Y592527D01*
X171709Y581433D02*
X169597D01*
X171709Y583546D01*
Y584074D01*
X171181Y584602D01*
X170125D01*
X169597Y584074D01*
X172766Y581433D02*
Y581962D01*
X173294D01*
Y581433D01*
X172766D01*
X175406Y584074D02*
X175935Y584602D01*
X176991D01*
X177519Y584074D01*
Y583546D01*
X176991Y583018D01*
X176463D01*
X176991D01*
X177519Y582490D01*
Y581962D01*
X176991Y581433D01*
X175935D01*
X175406Y581962D01*
X178575Y584074D02*
X179103Y584602D01*
X180160D01*
X180688Y584074D01*
Y581962D01*
X180160Y581433D01*
X179103D01*
X178575Y581962D01*
Y584074D01*
X181744D02*
X182272Y584602D01*
X183328D01*
X183857Y584074D01*
Y581962D01*
X183328Y581433D01*
X182272D01*
X181744Y581962D01*
Y584074D01*
X184913Y581433D02*
Y583546D01*
X185441D01*
X185969Y583018D01*
Y581433D01*
Y583018D01*
X186497Y583546D01*
X187025Y583018D01*
Y581433D01*
X188082D02*
Y583546D01*
X188610D01*
X189138Y583018D01*
Y581433D01*
Y583018D01*
X189666Y583546D01*
X190194Y583018D01*
Y581433D01*
X195476D02*
X194420Y582490D01*
Y583546D01*
X195476Y584602D01*
X197060Y581962D02*
X197588Y581433D01*
X198645D01*
X199173Y581962D01*
Y584074D01*
X198645Y584602D01*
X197588D01*
X197060Y584074D01*
Y583546D01*
X197588Y583018D01*
X199173D01*
X200229Y584074D02*
X200757Y584602D01*
X201814D01*
X202342Y584074D01*
Y581962D01*
X201814Y581433D01*
X200757D01*
X200229Y581962D01*
Y584074D01*
X203398Y581433D02*
Y581962D01*
X203926D01*
Y581433D01*
X203398D01*
X208151Y584602D02*
X206039D01*
Y583018D01*
X207095Y583546D01*
X207623D01*
X208151Y583018D01*
Y581962D01*
X207623Y581433D01*
X206567D01*
X206039Y581962D01*
X211320Y584602D02*
X209208D01*
Y583018D01*
X210264Y583546D01*
X210792D01*
X211320Y583018D01*
Y581962D01*
X210792Y581433D01*
X209736D01*
X209208Y581962D01*
X212376Y581433D02*
Y583546D01*
X212905D01*
X213433Y583018D01*
Y581433D01*
Y583018D01*
X213961Y583546D01*
X214489Y583018D01*
Y581433D01*
X215545D02*
X216602D01*
X216073D01*
Y583546D01*
X215545D01*
X218186Y581433D02*
X219242D01*
X218714D01*
Y584602D01*
X218186D01*
X220827Y581433D02*
X221883Y582490D01*
Y583546D01*
X220827Y584602D01*
X169597Y573509D02*
X170653D01*
X170125D01*
Y576678D01*
X169597Y576150D01*
X172238Y573509D02*
Y574037D01*
X172766D01*
Y573509D01*
X172238D01*
X174878Y576150D02*
X175406Y576678D01*
X176463D01*
X176991Y576150D01*
Y574037D01*
X176463Y573509D01*
X175406D01*
X174878Y574037D01*
Y576150D01*
X180160Y573509D02*
X178047D01*
X180160Y575621D01*
Y576150D01*
X179631Y576678D01*
X178575D01*
X178047Y576150D01*
X181216D02*
X181744Y576678D01*
X182800D01*
X183328Y576150D01*
Y574037D01*
X182800Y573509D01*
X181744D01*
X181216Y574037D01*
Y576150D01*
X184385Y573509D02*
Y575621D01*
X184913D01*
X185441Y575093D01*
Y573509D01*
Y575093D01*
X185969Y575621D01*
X186497Y575093D01*
Y573509D01*
X187554D02*
Y575621D01*
X188082D01*
X188610Y575093D01*
Y573509D01*
Y575093D01*
X189138Y575621D01*
X189666Y575093D01*
Y573509D01*
X194948D02*
X193891Y574565D01*
Y575621D01*
X194948Y576678D01*
X198117Y573509D02*
Y576678D01*
X196532Y575093D01*
X198645D01*
X199701Y576150D02*
X200229Y576678D01*
X201285D01*
X201814Y576150D01*
Y574037D01*
X201285Y573509D01*
X200229D01*
X199701Y574037D01*
Y576150D01*
X202870Y573509D02*
Y574037D01*
X203398D01*
Y573509D01*
X202870D01*
X205511D02*
X206567D01*
X206039D01*
Y576678D01*
X205511Y576150D01*
X210264Y576678D02*
X209208Y576150D01*
X208151Y575093D01*
Y574037D01*
X208679Y573509D01*
X209736D01*
X210264Y574037D01*
Y574565D01*
X209736Y575093D01*
X208151D01*
X211320Y573509D02*
Y575621D01*
X211848D01*
X212376Y575093D01*
Y573509D01*
Y575093D01*
X212905Y575621D01*
X213433Y575093D01*
Y573509D01*
X214489D02*
X215545D01*
X215017D01*
Y575621D01*
X214489D01*
X217130Y573509D02*
X218186D01*
X217658D01*
Y576678D01*
X217130D01*
X219771Y573509D02*
X220827Y574565D01*
Y575621D01*
X219771Y576678D01*
X169597Y565584D02*
X170653D01*
X170125D01*
Y568753D01*
X169597Y568225D01*
X172238Y565584D02*
Y566112D01*
X172766D01*
Y565584D01*
X172238D01*
X174878Y568225D02*
X175406Y568753D01*
X176463D01*
X176991Y568225D01*
Y566112D01*
X176463Y565584D01*
X175406D01*
X174878Y566112D01*
Y568225D01*
X180160Y568753D02*
X179103Y568225D01*
X178047Y567169D01*
Y566112D01*
X178575Y565584D01*
X179631D01*
X180160Y566112D01*
Y566640D01*
X179631Y567169D01*
X178047D01*
X181216Y568225D02*
X181744Y568753D01*
X182800D01*
X183328Y568225D01*
Y566112D01*
X182800Y565584D01*
X181744D01*
X181216Y566112D01*
Y568225D01*
X184385Y565584D02*
Y567697D01*
X184913D01*
X185441Y567169D01*
Y565584D01*
Y567169D01*
X185969Y567697D01*
X186497Y567169D01*
Y565584D01*
X187554D02*
Y567697D01*
X188082D01*
X188610Y567169D01*
Y565584D01*
Y567169D01*
X189138Y567697D01*
X189666Y567169D01*
Y565584D01*
X194948D02*
X193891Y566640D01*
Y567697D01*
X194948Y568753D01*
X198117Y565584D02*
Y568753D01*
X196532Y567169D01*
X198645D01*
X199701Y565584D02*
X200757D01*
X200229D01*
Y568753D01*
X199701Y568225D01*
X202342Y565584D02*
Y566112D01*
X202870D01*
Y565584D01*
X202342D01*
X204982Y568753D02*
X207095D01*
Y568225D01*
X204982Y566112D01*
Y565584D01*
X208151Y568225D02*
X208679Y568753D01*
X209736D01*
X210264Y568225D01*
Y567697D01*
X209736Y567169D01*
X209208D01*
X209736D01*
X210264Y566640D01*
Y566112D01*
X209736Y565584D01*
X208679D01*
X208151Y566112D01*
X211320Y565584D02*
Y567697D01*
X211848D01*
X212376Y567169D01*
Y565584D01*
Y567169D01*
X212905Y567697D01*
X213433Y567169D01*
Y565584D01*
X214489D02*
X215545D01*
X215017D01*
Y567697D01*
X214489D01*
X217130Y565584D02*
X218186D01*
X217658D01*
Y568753D01*
X217130D01*
X219771Y565584D02*
X220827Y566640D01*
Y567697D01*
X219771Y568753D01*
X169597Y560300D02*
X170125Y560828D01*
X171181D01*
X171709Y560300D01*
Y558187D01*
X171181Y557659D01*
X170125D01*
X169597Y558187D01*
Y560300D01*
X172766Y557659D02*
Y558187D01*
X173294D01*
Y557659D01*
X172766D01*
X175406Y560300D02*
X175935Y560828D01*
X176991D01*
X177519Y560300D01*
Y559772D01*
X176991Y559244D01*
X176463D01*
X176991D01*
X177519Y558716D01*
Y558187D01*
X176991Y557659D01*
X175935D01*
X175406Y558187D01*
X178575Y560300D02*
X179103Y560828D01*
X180160D01*
X180688Y560300D01*
Y558187D01*
X180160Y557659D01*
X179103D01*
X178575Y558187D01*
Y560300D01*
X181744D02*
X182272Y560828D01*
X183328D01*
X183857Y560300D01*
Y558187D01*
X183328Y557659D01*
X182272D01*
X181744Y558187D01*
Y560300D01*
X184913Y557659D02*
Y559772D01*
X185441D01*
X185969Y559244D01*
Y557659D01*
Y559244D01*
X186497Y559772D01*
X187025Y559244D01*
Y557659D01*
X188082D02*
Y559772D01*
X188610D01*
X189138Y559244D01*
Y557659D01*
Y559244D01*
X189666Y559772D01*
X190194Y559244D01*
Y557659D01*
X195476D02*
X194420Y558716D01*
Y559772D01*
X195476Y560828D01*
X197060Y557659D02*
X198117D01*
X197588D01*
Y560828D01*
X197060Y560300D01*
X199701Y557659D02*
X200757D01*
X200229D01*
Y560828D01*
X199701Y560300D01*
X202342Y557659D02*
Y558187D01*
X202870D01*
Y557659D01*
X202342D01*
X204982Y560300D02*
X205511Y560828D01*
X206567D01*
X207095Y560300D01*
Y559772D01*
X206567Y559244D01*
X207095Y558716D01*
Y558187D01*
X206567Y557659D01*
X205511D01*
X204982Y558187D01*
Y558716D01*
X205511Y559244D01*
X204982Y559772D01*
Y560300D01*
X205511Y559244D02*
X206567D01*
X208151Y557659D02*
X209208D01*
X208679D01*
Y560828D01*
X208151Y560300D01*
X210792Y557659D02*
Y559772D01*
X211320D01*
X211848Y559244D01*
Y557659D01*
Y559244D01*
X212376Y559772D01*
X212905Y559244D01*
Y557659D01*
X213961D02*
X215017D01*
X214489D01*
Y559772D01*
X213961D01*
X216602Y557659D02*
X217658D01*
X217130D01*
Y560828D01*
X216602D01*
X219242Y557659D02*
X220299Y558716D01*
Y559772D01*
X219242Y560828D01*
X141132Y552904D02*
X139019D01*
Y551319D01*
X140075Y551847D01*
X140604D01*
X141132Y551319D01*
Y550263D01*
X140604Y549735D01*
X139547D01*
X139019Y550263D01*
X142188Y549735D02*
X143244D01*
X142716D01*
Y552904D01*
X142188Y552375D01*
X144829Y549735D02*
X145885D01*
X145357D01*
Y552904D01*
X144829Y552375D01*
X150638Y552904D02*
X152751D01*
X151695D01*
Y549735D01*
X154335D02*
X155392D01*
X155920Y550263D01*
Y551319D01*
X155392Y551847D01*
X154335D01*
X153807Y551319D01*
Y550263D01*
X154335Y549735D01*
X157504Y552375D02*
Y551847D01*
X156976D01*
X158032D01*
X157504D01*
Y550263D01*
X158032Y549735D01*
X160145Y551847D02*
X161201D01*
X161729Y551319D01*
Y549735D01*
X160145D01*
X159617Y550263D01*
X160145Y550791D01*
X161729D01*
X162786Y549735D02*
X163842D01*
X163314D01*
Y552904D01*
X162786D01*
X139019Y644831D02*
X140075D01*
X139547D01*
Y648000D01*
X139019Y647472D01*
X141132Y636906D02*
X139019D01*
X141132Y639019D01*
Y639547D01*
X140604Y640075D01*
X139547D01*
X139019Y639547D01*
X141132Y628982D02*
X139019D01*
X141132Y631094D01*
Y631623D01*
X140604Y632151D01*
X139547D01*
X139019Y631623D01*
X141132Y621057D02*
X139019D01*
X141132Y623170D01*
Y623698D01*
X140604Y624226D01*
X139547D01*
X139019Y623698D01*
Y615773D02*
X139547Y616301D01*
X140604D01*
X141132Y615773D01*
Y615245D01*
X140604Y614717D01*
X140075D01*
X140604D01*
X141132Y614189D01*
Y613660D01*
X140604Y613132D01*
X139547D01*
X139019Y613660D01*
Y607848D02*
X139547Y608377D01*
X140604D01*
X141132Y607848D01*
Y607320D01*
X140604Y606792D01*
X140075D01*
X140604D01*
X141132Y606264D01*
Y605736D01*
X140604Y605208D01*
X139547D01*
X139019Y605736D01*
X140604Y597283D02*
Y600452D01*
X139019Y598867D01*
X141132D01*
X140604Y589358D02*
Y592527D01*
X139019Y590943D01*
X141132D01*
X139019Y584074D02*
X139547Y584602D01*
X140604D01*
X141132Y584074D01*
Y583546D01*
X140604Y583018D01*
X141132Y582490D01*
Y581962D01*
X140604Y581433D01*
X139547D01*
X139019Y581962D01*
Y582490D01*
X139547Y583018D01*
X139019Y583546D01*
Y584074D01*
X139547Y583018D02*
X140604D01*
X139019Y573509D02*
X140075D01*
X139547D01*
Y576678D01*
X139019Y576150D01*
X143772Y573509D02*
X141660D01*
X143772Y575621D01*
Y576150D01*
X143244Y576678D01*
X142188D01*
X141660Y576150D01*
X139019Y568225D02*
X139547Y568753D01*
X140604D01*
X141132Y568225D01*
Y567697D01*
X140604Y567169D01*
X140075D01*
X140604D01*
X141132Y566640D01*
Y566112D01*
X140604Y565584D01*
X139547D01*
X139019Y566112D01*
X142188Y568225D02*
X142716Y568753D01*
X143772D01*
X144301Y568225D01*
Y567697D01*
X143772Y567169D01*
X143244D01*
X143772D01*
X144301Y566640D01*
Y566112D01*
X143772Y565584D01*
X142716D01*
X142188Y566112D01*
X140604Y557659D02*
Y560828D01*
X139019Y559244D01*
X141132D01*
X142188Y560300D02*
X142716Y560828D01*
X143772D01*
X144301Y560300D01*
Y559772D01*
X143772Y559244D01*
X143244D01*
X143772D01*
X144301Y558716D01*
Y558187D01*
X143772Y557659D01*
X142716D01*
X142188Y558187D01*
X145357Y560828D02*
X147469D01*
Y560300D01*
X145357Y558187D01*
Y557659D01*
X110866Y592380D02*
Y588859D01*
X112627D01*
X113214Y589446D01*
Y591793D01*
X112627Y592380D01*
X110866D01*
D147*
X518147Y425197D02*
G03*
X518147Y425197I-600J0D01*
G01*
X518547D02*
G03*
X518547Y425197I-1000J0D01*
G01*
X506347D02*
G03*
X506347Y425197I-600J0D01*
G01*
X506747D02*
G03*
X506747Y425197I-1000J0D01*
G01*
X292634Y486476D02*
G03*
X292634Y486476I-1000J0D01*
G01*
Y476476D02*
G03*
X292634Y476476I-1000J0D01*
G01*
Y466476D02*
G03*
X292634Y466476I-1000J0D01*
G01*
X371054Y349892D02*
X372253D01*
Y351092D01*
X371054D02*
X372253D01*
X371054Y349892D02*
Y351092D01*
X370654Y349492D02*
X372654D01*
Y351492D01*
X370654D02*
X372654D01*
X370654Y349492D02*
Y351492D01*
X360620Y352451D02*
X361821D01*
Y353651D01*
X360620D02*
X361821D01*
X360620Y352451D02*
Y353651D01*
X360221Y352051D02*
X362221D01*
Y354051D01*
X360221D02*
X362221D01*
X360221Y352051D02*
Y354051D01*
X351270Y352648D02*
X352470D01*
Y353848D01*
X351270D02*
X352470D01*
X351270Y352648D02*
Y353848D01*
X350870Y352248D02*
X352870D01*
Y354248D01*
X350870D02*
X352870D01*
X350870Y352248D02*
Y354248D01*
X488967Y354616D02*
X490167D01*
Y355817D01*
X488967D02*
X490167D01*
X488967Y354616D02*
Y355817D01*
X488567Y354217D02*
X490567D01*
Y356217D01*
X488567D02*
X490567D01*
X488567Y354217D02*
Y356217D01*
X324597Y481979D02*
X325797D01*
Y483179D01*
X324597D02*
X325797D01*
X324597Y481979D02*
Y483179D01*
X324197Y481579D02*
X326197D01*
Y483579D01*
X324197D02*
X326197D01*
X324197Y481579D02*
Y483579D01*
X310916Y461506D02*
X312116D01*
Y462706D01*
X310916D02*
X312116D01*
X310916Y461506D02*
Y462706D01*
X310516Y461106D02*
X312516D01*
Y463106D01*
X310516D02*
X312516D01*
X310516Y461106D02*
Y463106D01*
X348613Y441428D02*
X349813D01*
Y442627D01*
X348613D02*
X349813D01*
X348613Y441428D02*
Y442627D01*
X348213Y441027D02*
X350213D01*
Y443027D01*
X348213D02*
X350213D01*
X348213Y441027D02*
Y443027D01*
X348514Y422333D02*
X349714D01*
Y423533D01*
X348514D02*
X349714D01*
X348514Y422333D02*
Y423533D01*
X348114Y421933D02*
X350114D01*
Y423933D01*
X348114D02*
X350114D01*
X348114Y421933D02*
Y423933D01*
X348416Y408652D02*
X349616D01*
Y409852D01*
X348416D02*
X349616D01*
X348416Y408652D02*
Y409852D01*
X348016Y408252D02*
X350016D01*
Y410252D01*
X348016D02*
X350016D01*
X348016Y408252D02*
Y410252D01*
X342707Y425286D02*
X343907D01*
Y426486D01*
X342707D02*
X343907D01*
X342707Y425286D02*
Y426486D01*
X342307Y424886D02*
X344307D01*
Y426886D01*
X342307D02*
X344307D01*
X342307Y424886D02*
Y426886D01*
X343593Y385424D02*
X344793D01*
Y386624D01*
X343593D02*
X344793D01*
X343593Y385424D02*
Y386624D01*
X343193Y385024D02*
X345193D01*
Y387024D01*
X343193D02*
X345193D01*
X343193Y385024D02*
Y387024D01*
X479912Y388179D02*
X481112D01*
Y389380D01*
X479912D02*
X481112D01*
X479912Y388179D02*
Y389380D01*
X479512Y387779D02*
X481512D01*
Y389779D01*
X479512D02*
X481512D01*
X479512Y387779D02*
Y389779D01*
X503731Y379321D02*
X504931D01*
Y380521D01*
X503731D02*
X504931D01*
X503731Y379321D02*
Y380521D01*
X503331Y378921D02*
X505331D01*
Y380921D01*
X503331D02*
X505331D01*
X503331Y378921D02*
Y380921D01*
X503632Y387491D02*
X504832D01*
Y388690D01*
X503632D02*
X504832D01*
X503632Y387491D02*
Y388690D01*
X503232Y387090D02*
X505232D01*
Y389090D01*
X503232D02*
X505232D01*
X503232Y387090D02*
Y389090D01*
X488179Y431585D02*
X489380D01*
Y432785D01*
X488179D02*
X489380D01*
X488179Y431585D02*
Y432785D01*
X487780Y431185D02*
X489780D01*
Y433185D01*
X487780D02*
X489780D01*
X487780Y431185D02*
Y433185D01*
X474498Y431388D02*
X475698D01*
Y432588D01*
X474498D02*
X475698D01*
X474498Y431388D02*
Y432588D01*
X474098Y430988D02*
X476098D01*
Y432988D01*
X474098D02*
X476098D01*
X474098Y430988D02*
Y432988D01*
X394479Y457766D02*
X395679D01*
Y458966D01*
X394479D02*
X395679D01*
X394479Y457766D02*
Y458966D01*
X394079Y457366D02*
X396079D01*
Y459366D01*
X394079D02*
X396079D01*
X394079Y457366D02*
Y459366D01*
X395365Y476762D02*
X396565D01*
Y477962D01*
X395365D02*
X396565D01*
X395365Y476762D02*
Y477962D01*
X394965Y476362D02*
X396965D01*
Y478362D01*
X394965D02*
X396965D01*
X394965Y476362D02*
Y478362D01*
X431191Y472628D02*
X432391D01*
Y473828D01*
X431191D02*
X432391D01*
X431191Y472628D02*
Y473828D01*
X430791Y472228D02*
X432791D01*
Y474228D01*
X430791D02*
X432791D01*
X430791Y472228D02*
Y474228D01*
X430601Y485817D02*
X431801D01*
Y487017D01*
X430601D02*
X431801D01*
X430601Y485817D02*
Y487017D01*
X430201Y485417D02*
X432201D01*
Y487417D01*
X430201D02*
X432201D01*
X430201Y485417D02*
Y487417D01*
X463967Y485227D02*
X465167D01*
Y486427D01*
X463967D02*
X465167D01*
X463967Y485227D02*
Y486427D01*
X463567Y484827D02*
X465567D01*
Y486827D01*
X463567D02*
X465567D01*
X463567Y484827D02*
Y486827D01*
X465050Y464754D02*
X466250D01*
Y465954D01*
X465050D02*
X466250D01*
X465050Y464754D02*
Y465954D01*
X464650Y464354D02*
X466650D01*
Y466354D01*
X464650D02*
X466650D01*
X464650Y464354D02*
Y466354D01*
X467904Y411113D02*
X469104D01*
Y412313D01*
X467904D02*
X469104D01*
X467904Y411113D02*
Y412313D01*
X467504Y410713D02*
X469504D01*
Y412713D01*
X467504D02*
X469504D01*
X467504Y410713D02*
Y412713D01*
X480502Y469183D02*
X481702D01*
Y470384D01*
X480502D02*
X481702D01*
X480502Y469183D02*
Y470384D01*
X480102Y468784D02*
X482102D01*
Y470784D01*
X480102D02*
X482102D01*
X480102Y468784D02*
Y470784D01*
X471447Y459341D02*
X472647D01*
Y460541D01*
X471447D02*
X472647D01*
X471447Y459341D02*
Y460541D01*
X471047Y458941D02*
X473047D01*
Y460941D01*
X471047D02*
X473047D01*
X471047Y458941D02*
Y460941D01*
X468101Y460018D02*
X469301D01*
Y461218D01*
X468101D02*
X469301D01*
X468101Y460018D02*
Y461218D01*
X467701Y459618D02*
X469701D01*
Y461618D01*
X467701D02*
X469701D01*
X467701Y459618D02*
Y461618D01*
X469577Y479026D02*
X470777D01*
Y480226D01*
X469577D02*
X470777D01*
X469577Y479026D02*
Y480226D01*
X469177Y478626D02*
X471177D01*
Y480626D01*
X469177D02*
X471177D01*
X469177Y478626D02*
Y480626D01*
X316132Y449006D02*
X317332D01*
Y450206D01*
X316132D02*
X317332D01*
X316132Y449006D02*
Y450206D01*
X315732Y448606D02*
X317732D01*
Y450606D01*
X315732D02*
X317732D01*
X315732Y448606D02*
Y450606D01*
X465306Y372884D02*
X466505D01*
Y374084D01*
X465306D02*
X466505D01*
X465306Y372884D02*
Y374084D01*
X464906Y372484D02*
X466905D01*
Y374484D01*
X464906D02*
X466905D01*
X464906Y372484D02*
Y374484D01*
X470561Y393199D02*
X471761D01*
Y394399D01*
X470561D02*
X471761D01*
X470561Y393199D02*
Y394399D01*
X470161Y392799D02*
X472161D01*
Y394799D01*
X470161D02*
X472161D01*
X470161Y392799D02*
Y394799D01*
X470561Y388573D02*
X471761D01*
Y389773D01*
X470561D02*
X471761D01*
X470561Y388573D02*
Y389773D01*
X470161Y388173D02*
X472161D01*
Y390173D01*
X470161D02*
X472161D01*
X470161Y388173D02*
Y390173D01*
X339262Y457963D02*
X340462D01*
Y459163D01*
X339262D02*
X340462D01*
X339262Y457963D02*
Y459163D01*
X338862Y457563D02*
X340862D01*
Y459563D01*
X338862D02*
X340862D01*
X338862Y457563D02*
Y459563D01*
X436056Y432077D02*
X437255D01*
Y433277D01*
X436056D02*
X437255D01*
X436056Y432077D02*
Y433277D01*
X435655Y431677D02*
X437655D01*
Y433677D01*
X435655D02*
X437655D01*
X435655Y431677D02*
Y433677D01*
X345857Y465542D02*
X347057D01*
Y466742D01*
X345857D02*
X347057D01*
X345857Y465542D02*
Y466742D01*
X345457Y465142D02*
X347457D01*
Y467142D01*
X345457D02*
X347457D01*
X345457Y465142D02*
Y467142D01*
X342707Y429124D02*
X343907D01*
Y430324D01*
X342707D02*
X343907D01*
X342707Y429124D02*
Y430324D01*
X342307Y428724D02*
X344307D01*
Y430724D01*
X342307D02*
X344307D01*
X342307Y428724D02*
Y430724D01*
X316034Y415148D02*
X317234D01*
Y416348D01*
X316034D02*
X317234D01*
X316034Y415148D02*
Y416348D01*
X315634Y414748D02*
X317634D01*
Y416748D01*
X315634D02*
X317634D01*
X315634Y414748D02*
Y416748D01*
X315837Y431979D02*
X317037D01*
Y433179D01*
X315837D02*
X317037D01*
X315837Y431979D02*
Y433179D01*
X315437Y431579D02*
X317437D01*
Y433579D01*
X315437D02*
X317437D01*
X315437Y431579D02*
Y433579D01*
X371939Y361703D02*
X373139D01*
Y362903D01*
X371939D02*
X373139D01*
X371939Y361703D02*
Y362903D01*
X371539Y361303D02*
X373539D01*
Y363303D01*
X371539D02*
X373539D01*
X371539Y361303D02*
Y363303D01*
X314164Y347235D02*
X315364D01*
Y348435D01*
X314164D02*
X315364D01*
X314164Y347235D02*
Y348435D01*
X313764Y346835D02*
X315764D01*
Y348835D01*
X313764D02*
X315764D01*
X313764Y346835D02*
Y348835D01*
X480601Y405305D02*
X481801D01*
Y406505D01*
X480601D02*
X481801D01*
X480601Y405305D02*
Y406505D01*
X480201Y404906D02*
X482201D01*
Y406906D01*
X480201D02*
X482201D01*
X480201Y404906D02*
Y406906D01*
X436605Y384931D02*
X437805D01*
Y386132D01*
X436605D02*
X437805D01*
X436605Y384931D02*
Y386132D01*
X436205Y384531D02*
X438205D01*
Y386531D01*
X436205D02*
X438205D01*
X436205Y384531D02*
Y386531D01*
X454223Y334538D02*
X455423D01*
Y335738D01*
X454223D02*
X455423D01*
X454223Y334538D02*
Y335738D01*
X453823Y334138D02*
X455823D01*
Y336138D01*
X453823D02*
X455823D01*
X453823Y334138D02*
Y336138D01*
X451762Y356388D02*
X452962D01*
Y357588D01*
X451762D02*
X452962D01*
X451762Y356388D02*
Y357588D01*
X451362Y355988D02*
X453362D01*
Y357988D01*
X451362D02*
X453362D01*
X451362Y355988D02*
Y357988D01*
X437589Y367707D02*
X438789D01*
Y368907D01*
X437589D02*
X438789D01*
X437589Y367707D02*
Y368907D01*
X437189Y367307D02*
X439189D01*
Y369307D01*
X437189D02*
X439189D01*
X437189Y367307D02*
Y369307D01*
X426861Y387589D02*
X428061D01*
Y388789D01*
X426861D02*
X428061D01*
X426861Y387589D02*
Y388789D01*
X426461Y387189D02*
X428461D01*
Y389189D01*
X426461D02*
X428461D01*
X426461Y387189D02*
Y389189D01*
X422333Y385620D02*
X423533D01*
Y386821D01*
X422333D02*
X423533D01*
X422333Y385620D02*
Y386821D01*
X421933Y385221D02*
X423933D01*
Y387221D01*
X421933D02*
X423933D01*
X421933Y385221D02*
Y387221D01*
X419676Y381782D02*
X420876D01*
Y382982D01*
X419676D02*
X420876D01*
X419676Y381782D02*
Y382982D01*
X419276Y381382D02*
X421276D01*
Y383382D01*
X419276D02*
X421276D01*
X419276Y381382D02*
Y383382D01*
X431880Y343691D02*
X433080D01*
Y344891D01*
X431880D02*
X433080D01*
X431880Y343691D02*
Y344891D01*
X431480Y343291D02*
X433480D01*
Y345291D01*
X431480D02*
X433480D01*
X431480Y343291D02*
Y345291D01*
X422038Y403042D02*
X423238D01*
Y404242D01*
X422038D02*
X423238D01*
X422038Y403042D02*
Y404242D01*
X421638Y402642D02*
X423638D01*
Y404642D01*
X421638D02*
X423638D01*
X421638Y402642D02*
Y404642D01*
X300679Y404715D02*
X301880D01*
Y405915D01*
X300679D02*
X301880D01*
X300679Y404715D02*
Y405915D01*
X300279Y404315D02*
X302279D01*
Y406315D01*
X300279D02*
X302279D01*
X300279Y404315D02*
Y406315D01*
X294971Y375876D02*
X296171D01*
Y377076D01*
X294971D02*
X296171D01*
X294971Y375876D02*
Y377076D01*
X294571Y375476D02*
X296571D01*
Y377476D01*
X294571D02*
X296571D01*
X294571Y375476D02*
Y377476D01*
X302254Y355601D02*
X303454D01*
Y356801D01*
X302254D02*
X303454D01*
X302254Y355601D02*
Y356801D01*
X301854Y355201D02*
X303854D01*
Y357201D01*
X301854D02*
X303854D01*
X301854Y355201D02*
Y357201D01*
X461802Y364754D02*
X463002D01*
Y365954D01*
X461802D02*
X463002D01*
X461802Y364754D02*
Y365954D01*
X461402Y364354D02*
X463402D01*
Y366354D01*
X461402D02*
X463402D01*
X461402Y364354D02*
Y366354D01*
X409755Y328255D02*
X410955D01*
Y329455D01*
X409755D02*
X410955D01*
X409755Y328255D02*
Y329455D01*
X409355Y327855D02*
X411355D01*
Y329855D01*
X409355D02*
X411355D01*
X409355Y327855D02*
Y329855D01*
X416624Y330699D02*
X417824D01*
Y331899D01*
X416624D02*
X417824D01*
X416624Y330699D02*
Y331899D01*
X416224Y330299D02*
X418224D01*
Y332299D01*
X416224D02*
X418224D01*
X416224Y330299D02*
Y332299D01*
X438475Y331487D02*
X439675D01*
Y332687D01*
X438475D02*
X439675D01*
X438475Y331487D02*
Y332687D01*
X438075Y331087D02*
X440075D01*
Y333087D01*
X438075D02*
X440075D01*
X438075Y331087D02*
Y333087D01*
X476467Y333947D02*
X477667D01*
Y335147D01*
X476467D02*
X477667D01*
X476467Y333947D02*
Y335147D01*
X476067Y333547D02*
X478067D01*
Y335547D01*
X476067D02*
X478067D01*
X476067Y333547D02*
Y335547D01*
X343987Y331290D02*
X345187D01*
Y332490D01*
X343987D02*
X345187D01*
X343987Y331290D02*
Y332490D01*
X343587Y330890D02*
X345587D01*
Y332890D01*
X343587D02*
X345587D01*
X343587Y330890D02*
Y332890D01*
X501368Y233652D02*
X502568D01*
Y234852D01*
X501368D02*
X502568D01*
X501368Y233652D02*
Y234852D01*
X500968Y233252D02*
X502968D01*
Y235252D01*
X500968D02*
X502968D01*
X500968Y233252D02*
Y235252D01*
X501368Y226959D02*
X502568D01*
Y228159D01*
X501368D02*
X502568D01*
X501368Y226959D02*
Y228159D01*
X500968Y226559D02*
X502968D01*
Y228559D01*
X500968D02*
X502968D01*
X500968Y226559D02*
Y228559D01*
X501368Y213573D02*
X502568D01*
Y214773D01*
X501368D02*
X502568D01*
X501368Y213573D02*
Y214773D01*
X500968Y213173D02*
X502968D01*
Y215173D01*
X500968D02*
X502968D01*
X500968Y213173D02*
Y215173D01*
X501368Y206880D02*
X502568D01*
Y208080D01*
X501368D02*
X502568D01*
X501368Y206880D02*
Y208080D01*
X500968Y206480D02*
X502968D01*
Y208480D01*
X500968D02*
X502968D01*
X500968Y206480D02*
Y208480D01*
X494675Y233652D02*
X495875D01*
Y234852D01*
X494675D02*
X495875D01*
X494675Y233652D02*
Y234852D01*
X494275Y233252D02*
X496275D01*
Y235252D01*
X494275D02*
X496275D01*
X494275Y233252D02*
Y235252D01*
X494675Y226959D02*
X495875D01*
Y228159D01*
X494675D02*
X495875D01*
X494675Y226959D02*
Y228159D01*
X494275Y226559D02*
X496275D01*
Y228559D01*
X494275D02*
X496275D01*
X494275Y226559D02*
Y228559D01*
X494675Y213573D02*
X495875D01*
Y214773D01*
X494675D02*
X495875D01*
X494675Y213573D02*
Y214773D01*
X494275Y213173D02*
X496275D01*
Y215173D01*
X494275D02*
X496275D01*
X494275Y213173D02*
Y215173D01*
X494675Y206880D02*
X495875D01*
Y208080D01*
X494675D02*
X495875D01*
X494675Y206880D02*
Y208080D01*
X494275Y206480D02*
X496275D01*
Y208480D01*
X494275D02*
X496275D01*
X494275Y206480D02*
Y208480D01*
X487982Y233652D02*
X489182D01*
Y234852D01*
X487982D02*
X489182D01*
X487982Y233652D02*
Y234852D01*
X487582Y233252D02*
X489582D01*
Y235252D01*
X487582D02*
X489582D01*
X487582Y233252D02*
Y235252D01*
X487982Y226959D02*
X489182D01*
Y228159D01*
X487982D02*
X489182D01*
X487982Y226959D02*
Y228159D01*
X487582Y226559D02*
X489582D01*
Y228559D01*
X487582D02*
X489582D01*
X487582Y226559D02*
Y228559D01*
X487982Y213573D02*
X489182D01*
Y214773D01*
X487982D02*
X489182D01*
X487982Y213573D02*
Y214773D01*
X487582Y213173D02*
X489582D01*
Y215173D01*
X487582D02*
X489582D01*
X487582Y213173D02*
Y215173D01*
X487982Y206880D02*
X489182D01*
Y208080D01*
X487982D02*
X489182D01*
X487982Y206880D02*
Y208080D01*
X487582Y206480D02*
X489582D01*
Y208480D01*
X487582D02*
X489582D01*
X487582Y206480D02*
Y208480D01*
X481289Y233652D02*
X482489D01*
Y234852D01*
X481289D02*
X482489D01*
X481289Y233652D02*
Y234852D01*
X480890Y233252D02*
X482890D01*
Y235252D01*
X480890D02*
X482890D01*
X480890Y233252D02*
Y235252D01*
X481289Y226959D02*
X482489D01*
Y228159D01*
X481289D02*
X482489D01*
X481289Y226959D02*
Y228159D01*
X480890Y226559D02*
X482890D01*
Y228559D01*
X480890D02*
X482890D01*
X480890Y226559D02*
Y228559D01*
X481289Y220266D02*
X482489D01*
Y221466D01*
X481289D02*
X482489D01*
X481289Y220266D02*
Y221466D01*
X480890Y219866D02*
X482890D01*
Y221866D01*
X480890D02*
X482890D01*
X480890Y219866D02*
Y221866D01*
X481289Y213573D02*
X482489D01*
Y214773D01*
X481289D02*
X482489D01*
X481289Y213573D02*
Y214773D01*
X480890Y213173D02*
X482890D01*
Y215173D01*
X480890D02*
X482890D01*
X480890Y213173D02*
Y215173D01*
X481289Y206880D02*
X482489D01*
Y208080D01*
X481289D02*
X482489D01*
X481289Y206880D02*
Y208080D01*
X480890Y206480D02*
X482890D01*
Y208480D01*
X480890D02*
X482890D01*
X480890Y206480D02*
Y208480D01*
X474597Y233652D02*
X475797D01*
Y234852D01*
X474597D02*
X475797D01*
X474597Y233652D02*
Y234852D01*
X474197Y233252D02*
X476197D01*
Y235252D01*
X474197D02*
X476197D01*
X474197Y233252D02*
Y235252D01*
X474597Y226959D02*
X475797D01*
Y228159D01*
X474597D02*
X475797D01*
X474597Y226959D02*
Y228159D01*
X474197Y226559D02*
X476197D01*
Y228559D01*
X474197D02*
X476197D01*
X474197Y226559D02*
Y228559D01*
X474597Y220266D02*
X475797D01*
Y221466D01*
X474597D02*
X475797D01*
X474597Y220266D02*
Y221466D01*
X474197Y219866D02*
X476197D01*
Y221866D01*
X474197D02*
X476197D01*
X474197Y219866D02*
Y221866D01*
X474597Y213573D02*
X475797D01*
Y214773D01*
X474597D02*
X475797D01*
X474597Y213573D02*
Y214773D01*
X474197Y213173D02*
X476197D01*
Y215173D01*
X474197D02*
X476197D01*
X474197Y213173D02*
Y215173D01*
X474597Y206880D02*
X475797D01*
Y208080D01*
X474597D02*
X475797D01*
X474597Y206880D02*
Y208080D01*
X474197Y206480D02*
X476197D01*
Y208480D01*
X474197D02*
X476197D01*
X474197Y206480D02*
Y208480D01*
X410522Y392707D02*
X411722D01*
Y393907D01*
X410522D02*
X411722D01*
X410522Y392707D02*
Y393907D01*
X410122Y392307D02*
X412122D01*
Y394307D01*
X410122D02*
X412122D01*
X410122Y392307D02*
Y394307D01*
X393396Y349991D02*
X394596D01*
Y351190D01*
X393396D02*
X394596D01*
X393396Y349991D02*
Y351190D01*
X392996Y349590D02*
X394996D01*
Y351590D01*
X392996D02*
X394996D01*
X392996Y349590D02*
Y351590D01*
X400286Y334538D02*
X401486D01*
Y335738D01*
X400286D02*
X401486D01*
X400286Y334538D02*
Y335738D01*
X399886Y334138D02*
X401886D01*
Y336138D01*
X399886D02*
X401886D01*
X399886Y334138D02*
Y336138D01*
X399695Y341723D02*
X400895D01*
Y342923D01*
X399695D02*
X400895D01*
X399695Y341723D02*
Y342923D01*
X399295Y341323D02*
X401295D01*
Y343323D01*
X399295D02*
X401295D01*
X399295Y341323D02*
Y343323D01*
X392116Y342116D02*
X393317D01*
Y343317D01*
X392116D02*
X393317D01*
X392116Y342116D02*
Y343317D01*
X391717Y341717D02*
X393717D01*
Y343717D01*
X391717D02*
X393717D01*
X391717Y341717D02*
Y343717D01*
X363442Y333750D02*
X364642D01*
Y334950D01*
X363442D02*
X364642D01*
X363442Y333750D02*
Y334950D01*
X363042Y333350D02*
X365042D01*
Y335350D01*
X363042D02*
X365042D01*
X363042Y333350D02*
Y335350D01*
X374630Y333750D02*
X375830D01*
Y334950D01*
X374630D02*
X375830D01*
X374630Y333750D02*
Y334950D01*
X374230Y333350D02*
X376230D01*
Y335350D01*
X374230D02*
X376230D01*
X374230Y333350D02*
Y335350D01*
X385817Y333750D02*
X387017D01*
Y334950D01*
X385817D02*
X387017D01*
X385817Y333750D02*
Y334950D01*
X385417Y333350D02*
X387417D01*
Y335350D01*
X385417D02*
X387417D01*
X385417Y333350D02*
Y335350D01*
X385817Y328632D02*
X387017D01*
Y329832D01*
X385817D02*
X387017D01*
X385817Y328632D02*
Y329832D01*
X385417Y328232D02*
X387417D01*
Y330232D01*
X385417D02*
X387417D01*
X385417Y328232D02*
Y330232D01*
X352254Y328632D02*
X353454D01*
Y329832D01*
X352254D02*
X353454D01*
X352254Y328632D02*
Y329832D01*
X351854Y328232D02*
X353854D01*
Y330232D01*
X351854D02*
X353854D01*
X351854Y328232D02*
Y330232D01*
X363442Y328632D02*
X364642D01*
Y329832D01*
X363442D02*
X364642D01*
X363442Y328632D02*
Y329832D01*
X363042Y328232D02*
X365042D01*
Y330232D01*
X363042D02*
X365042D01*
X363042Y328232D02*
Y330232D01*
X374630Y328632D02*
X375830D01*
Y329832D01*
X374630D02*
X375830D01*
X374630Y328632D02*
Y329832D01*
X374230Y328232D02*
X376230D01*
Y330232D01*
X374230D02*
X376230D01*
X374230Y328232D02*
Y330232D01*
X348022Y341723D02*
X349222D01*
Y342923D01*
X348022D02*
X349222D01*
X348022Y341723D02*
Y342923D01*
X347622Y341323D02*
X349622D01*
Y343323D01*
X347622D02*
X349622D01*
X347622Y341323D02*
Y343323D01*
X448219Y338672D02*
X449419D01*
Y339872D01*
X448219D02*
X449419D01*
X448219Y338672D02*
Y339872D01*
X447819Y338272D02*
X449819D01*
Y340272D01*
X447819D02*
X449819D01*
X447819Y338272D02*
Y340272D01*
X413790Y343216D02*
X414990D01*
Y344416D01*
X413790D02*
X414990D01*
X413790Y343216D02*
Y344416D01*
X413390Y342816D02*
X415390D01*
Y344816D01*
X413390D02*
X415390D01*
X413390Y342816D02*
Y344816D01*
X356290Y454912D02*
X357490D01*
Y456112D01*
X356290D02*
X357490D01*
X356290Y454912D02*
Y456112D01*
X355890Y454512D02*
X357890D01*
Y456512D01*
X355890D02*
X357890D01*
X355890Y454512D02*
Y456512D01*
X522924Y366821D02*
X524124D01*
Y368021D01*
X522924D02*
X524124D01*
X522924Y366821D02*
Y368021D01*
X522524Y366421D02*
X524524D01*
Y368421D01*
X522524D02*
X524524D01*
X522524Y366421D02*
Y368421D01*
X503534Y366231D02*
X504734D01*
Y367431D01*
X503534D02*
X504734D01*
X503534Y366231D02*
Y367431D01*
X503134Y365831D02*
X505134D01*
Y367831D01*
X503134D02*
X505134D01*
X503134Y365831D02*
Y367831D01*
X491723Y347530D02*
X492923D01*
Y348730D01*
X491723D02*
X492923D01*
X491723Y347530D02*
Y348730D01*
X491323Y347130D02*
X493323D01*
Y349130D01*
X491323D02*
X493323D01*
X491323Y347130D02*
Y349130D01*
X476664Y360620D02*
X477864D01*
Y361821D01*
X476664D02*
X477864D01*
X476664Y360620D02*
Y361821D01*
X476264Y360221D02*
X478264D01*
Y362221D01*
X476264D02*
X478264D01*
X476264Y360221D02*
Y362221D01*
X309046Y386703D02*
X310246D01*
Y387903D01*
X309046D02*
X310246D01*
X309046Y386703D02*
Y387903D01*
X308646Y386303D02*
X310646D01*
Y388303D01*
X308646D02*
X310646D01*
X308646Y386303D02*
Y388303D01*
X297628Y395561D02*
X298828D01*
Y396761D01*
X297628D02*
X298828D01*
X297628Y395561D02*
Y396761D01*
X297228Y395161D02*
X299228D01*
Y397161D01*
X297228D02*
X299228D01*
X297228Y395161D02*
Y397161D01*
X279518Y353534D02*
X280718D01*
Y354734D01*
X279518D02*
X280718D01*
X279518Y353534D02*
Y354734D01*
X279118Y353134D02*
X281118D01*
Y355134D01*
X279118D02*
X281118D01*
X279118Y353134D02*
Y355134D01*
X313179Y358652D02*
X314380D01*
Y359852D01*
X313179D02*
X314380D01*
X313179Y358652D02*
Y359852D01*
X312779Y358252D02*
X314779D01*
Y360252D01*
X312779D02*
X314779D01*
X312779Y358252D02*
Y360252D01*
X313081Y363770D02*
X314281D01*
Y364970D01*
X313081D02*
X314281D01*
X313081Y363770D02*
Y364970D01*
X312681Y363370D02*
X314681D01*
Y365370D01*
X312681D02*
X314681D01*
X312681Y363370D02*
Y365370D01*
X320365Y381585D02*
X321565D01*
Y382785D01*
X320365D02*
X321565D01*
X320365Y381585D02*
Y382785D01*
X319965Y381185D02*
X321965D01*
Y383185D01*
X319965D02*
X321965D01*
X319965Y381185D02*
Y383185D01*
X333258Y388081D02*
X334458D01*
Y389281D01*
X333258D02*
X334458D01*
X333258Y388081D02*
Y389281D01*
X332858Y387681D02*
X334858D01*
Y389681D01*
X332858D02*
X334858D01*
X332858Y387681D02*
Y389681D01*
X301959Y386998D02*
X303159D01*
Y388198D01*
X301959D02*
X303159D01*
X301959Y386998D02*
Y388198D01*
X301559Y386598D02*
X303559D01*
Y388598D01*
X301559D02*
X303559D01*
X301559Y386598D02*
Y388598D01*
X313376Y374203D02*
X314576D01*
Y375403D01*
X313376D02*
X314576D01*
X313376Y374203D02*
Y375403D01*
X312976Y373803D02*
X314976D01*
Y375803D01*
X312976D02*
X314976D01*
X312976Y373803D02*
Y375803D01*
X398416Y378829D02*
X399616D01*
Y380029D01*
X398416D02*
X399616D01*
X398416Y378829D02*
Y380029D01*
X398016Y378429D02*
X400016D01*
Y380429D01*
X398016D02*
X400016D01*
X398016Y378429D02*
Y380429D01*
X379124Y476467D02*
X380324D01*
Y477667D01*
X379124D02*
X380324D01*
X379124Y476467D02*
Y477667D01*
X378724Y476067D02*
X380724D01*
Y478067D01*
X378724D02*
X380724D01*
X378724Y476067D02*
Y478067D01*
X243199Y419971D02*
X244399D01*
Y421171D01*
X243199D02*
X244399D01*
X243199Y419971D02*
Y421171D01*
X242799Y419571D02*
X244799D01*
Y421571D01*
X242799D02*
X244799D01*
X242799Y419571D02*
Y421571D01*
X243199Y405109D02*
X244399D01*
Y406309D01*
X243199D02*
X244399D01*
X243199Y405109D02*
Y406309D01*
X242799Y404709D02*
X244799D01*
Y406709D01*
X242799D02*
X244799D01*
X242799Y404709D02*
Y406709D01*
X243199Y390247D02*
X244399D01*
Y391446D01*
X243199D02*
X244399D01*
X243199Y390247D02*
Y391446D01*
X242799Y389846D02*
X244799D01*
Y391846D01*
X242799D02*
X244799D01*
X242799Y389846D02*
Y391846D01*
X411014Y276565D02*
X412214D01*
Y277765D01*
X411014D02*
X412214D01*
X411014Y276565D02*
Y277765D01*
X410614Y276165D02*
X412614D01*
Y278165D01*
X410614D02*
X412614D01*
X410614Y276165D02*
Y278165D01*
X432077Y274794D02*
X433277D01*
Y275994D01*
X432077D02*
X433277D01*
X432077Y274794D02*
Y275994D01*
X431677Y274394D02*
X433677D01*
Y276394D01*
X431677D02*
X433677D01*
X431677Y274394D02*
Y276394D01*
X437090Y279512D02*
X438290D01*
Y280712D01*
X437090D02*
X438290D01*
X437090Y279512D02*
Y280712D01*
X436690Y279112D02*
X438690D01*
Y281112D01*
X436690D02*
X438690D01*
X436690Y279112D02*
Y281112D01*
X364558Y462097D02*
X365757D01*
Y463297D01*
X364558D02*
X365757D01*
X364558Y462097D02*
Y463297D01*
X364158Y461697D02*
X366158D01*
Y463697D01*
X364158D02*
X366158D01*
X364158Y461697D02*
Y463697D01*
X480109Y379813D02*
X481309D01*
Y381013D01*
X480109D02*
X481309D01*
X480109Y379813D02*
Y381013D01*
X479709Y379413D02*
X481709D01*
Y381413D01*
X479709D02*
X481709D01*
X479709Y379413D02*
Y381413D01*
X303534Y341920D02*
X304734D01*
Y343120D01*
X303534D02*
X304734D01*
X303534Y341920D02*
Y343120D01*
X303134Y341520D02*
X305134D01*
Y343520D01*
X303134D02*
X305134D01*
X303134Y341520D02*
Y343520D01*
X407569Y442805D02*
X408769D01*
Y444005D01*
X407569D02*
X408769D01*
X407569Y442805D02*
Y444005D01*
X407169Y442406D02*
X409169D01*
Y444406D01*
X407169D02*
X409169D01*
X407169Y442406D02*
Y444406D01*
X362491Y395955D02*
X363690D01*
Y397155D01*
X362491D02*
X363690D01*
X362491Y395955D02*
Y397155D01*
X362090Y395555D02*
X364090D01*
Y397555D01*
X362090D02*
X364090D01*
X362090Y395555D02*
Y397555D01*
X360620Y421546D02*
X361821D01*
Y422746D01*
X360620D02*
X361821D01*
X360620Y421546D02*
Y422746D01*
X360221Y421146D02*
X362221D01*
Y423146D01*
X360221D02*
X362221D01*
X360221Y421146D02*
Y423146D01*
X384636Y442805D02*
X385836D01*
Y444005D01*
X384636D02*
X385836D01*
X384636Y442805D02*
Y444005D01*
X384236Y442406D02*
X386236D01*
Y444406D01*
X384236D02*
X386236D01*
X384236Y442406D02*
Y444406D01*
X361113Y442805D02*
X362313D01*
Y444005D01*
X361113D02*
X362313D01*
X361113Y442805D02*
Y444005D01*
X360713Y442406D02*
X362713D01*
Y444406D01*
X360713D02*
X362713D01*
X360713Y442406D02*
Y444406D01*
X380502Y461802D02*
X381702D01*
Y463002D01*
X380502D02*
X381702D01*
X380502Y461802D02*
Y463002D01*
X380102Y461402D02*
X382102D01*
Y463402D01*
X380102D02*
X382102D01*
X380102Y461402D02*
Y463402D01*
X277943Y433652D02*
X279143D01*
Y434852D01*
X277943D02*
X279143D01*
X277943Y433652D02*
Y434852D01*
X277543Y433252D02*
X279543D01*
Y435252D01*
X277543D02*
X279543D01*
X277543Y433252D02*
Y435252D01*
X257077Y277943D02*
X258277D01*
Y279143D01*
X257077D02*
X258277D01*
X257077Y277943D02*
Y279143D01*
X256677Y277543D02*
X258677D01*
Y279543D01*
X256677D02*
X258677D01*
X256677Y277543D02*
Y279543D01*
X416821Y372235D02*
X418021D01*
Y373435D01*
X416821D02*
X418021D01*
X416821Y372235D02*
Y373435D01*
X416421Y371835D02*
X418421D01*
Y373835D01*
X416421D02*
X418421D01*
X416421Y371835D02*
Y373835D01*
X290247Y333750D02*
X291446D01*
Y334950D01*
X290247D02*
X291446D01*
X290247Y333750D02*
Y334950D01*
X289846Y333350D02*
X291846D01*
Y335350D01*
X289846D02*
X291846D01*
X289846Y333350D02*
Y335350D01*
X282372Y325581D02*
X283572D01*
Y326781D01*
X282372D02*
X283572D01*
X282372Y325581D02*
Y326781D01*
X281972Y325181D02*
X283972D01*
Y327181D01*
X281972D02*
X283972D01*
X281972Y325181D02*
Y327181D01*
X272628Y315542D02*
X273828D01*
Y316742D01*
X272628D02*
X273828D01*
X272628Y315542D02*
Y316742D01*
X272228Y315142D02*
X274228D01*
Y317142D01*
X272228D02*
X274228D01*
X272228Y315142D02*
Y317142D01*
X262294Y305798D02*
X263494D01*
Y306998D01*
X262294D02*
X263494D01*
X262294Y305798D02*
Y306998D01*
X261894Y305398D02*
X263894D01*
Y307398D01*
X261894D02*
X263894D01*
X261894Y305398D02*
Y307398D01*
X258061Y292412D02*
X259261D01*
Y293612D01*
X258061D02*
X259261D01*
X258061Y292412D02*
Y293612D01*
X257661Y292012D02*
X259661D01*
Y294012D01*
X257661D02*
X259661D01*
X257661Y292012D02*
Y294012D01*
X427746Y213573D02*
X428946D01*
Y214773D01*
X427746D02*
X428946D01*
X427746Y213573D02*
Y214773D01*
X427346Y213173D02*
X429346D01*
Y215173D01*
X427346D02*
X429346D01*
X427346Y213173D02*
Y215173D01*
X427746Y206880D02*
X428946D01*
Y208080D01*
X427746D02*
X428946D01*
X427746Y206880D02*
Y208080D01*
X427346Y206480D02*
X429346D01*
Y208480D01*
X427346D02*
X429346D01*
X427346Y206480D02*
Y208480D01*
X421053Y213573D02*
X422253D01*
Y214773D01*
X421053D02*
X422253D01*
X421053Y213573D02*
Y214773D01*
X420653Y213173D02*
X422653D01*
Y215173D01*
X420653D02*
X422653D01*
X420653Y213173D02*
Y215173D01*
X421053Y206880D02*
X422253D01*
Y208080D01*
X421053D02*
X422253D01*
X421053Y206880D02*
Y208080D01*
X420653Y206480D02*
X422653D01*
Y208480D01*
X420653D02*
X422653D01*
X420653Y206480D02*
Y208480D01*
X414360Y213573D02*
X415560D01*
Y214773D01*
X414360D02*
X415560D01*
X414360Y213573D02*
Y214773D01*
X413960Y213173D02*
X415960D01*
Y215173D01*
X413960D02*
X415960D01*
X413960Y213173D02*
Y215173D01*
X414360Y206880D02*
X415560D01*
Y208080D01*
X414360D02*
X415560D01*
X414360Y206880D02*
Y208080D01*
X413960Y206480D02*
X415960D01*
Y208480D01*
X413960D02*
X415960D01*
X413960Y206480D02*
Y208480D01*
X407667Y233652D02*
X408868D01*
Y234852D01*
X407667D02*
X408868D01*
X407667Y233652D02*
Y234852D01*
X407268Y233252D02*
X409268D01*
Y235252D01*
X407268D02*
X409268D01*
X407268Y233252D02*
Y235252D01*
X407667Y226959D02*
X408868D01*
Y228159D01*
X407667D02*
X408868D01*
X407667Y226959D02*
Y228159D01*
X407268Y226559D02*
X409268D01*
Y228559D01*
X407268D02*
X409268D01*
X407268Y226559D02*
Y228559D01*
X407667Y220266D02*
X408868D01*
Y221466D01*
X407667D02*
X408868D01*
X407667Y220266D02*
Y221466D01*
X407268Y219866D02*
X409268D01*
Y221866D01*
X407268D02*
X409268D01*
X407268Y219866D02*
Y221866D01*
X407667Y213573D02*
X408868D01*
Y214773D01*
X407667D02*
X408868D01*
X407667Y213573D02*
Y214773D01*
X407268Y213173D02*
X409268D01*
Y215173D01*
X407268D02*
X409268D01*
X407268Y213173D02*
Y215173D01*
X407667Y206880D02*
X408868D01*
Y208080D01*
X407667D02*
X408868D01*
X407667Y206880D02*
Y208080D01*
X407268Y206480D02*
X409268D01*
Y208480D01*
X407268D02*
X409268D01*
X407268Y206480D02*
Y208480D01*
X400975Y233652D02*
X402175D01*
Y234852D01*
X400975D02*
X402175D01*
X400975Y233652D02*
Y234852D01*
X400575Y233252D02*
X402575D01*
Y235252D01*
X400575D02*
X402575D01*
X400575Y233252D02*
Y235252D01*
X400975Y226959D02*
X402175D01*
Y228159D01*
X400975D02*
X402175D01*
X400975Y226959D02*
Y228159D01*
X400575Y226559D02*
X402575D01*
Y228559D01*
X400575D02*
X402575D01*
X400575Y226559D02*
Y228559D01*
X400975Y220266D02*
X402175D01*
Y221466D01*
X400975D02*
X402175D01*
X400975Y220266D02*
Y221466D01*
X400575Y219866D02*
X402575D01*
Y221866D01*
X400575D02*
X402575D01*
X400575Y219866D02*
Y221866D01*
X400975Y213573D02*
X402175D01*
Y214773D01*
X400975D02*
X402175D01*
X400975Y213573D02*
Y214773D01*
X400575Y213173D02*
X402575D01*
Y215173D01*
X400575D02*
X402575D01*
X400575Y213173D02*
Y215173D01*
X400975Y206880D02*
X402175D01*
Y208080D01*
X400975D02*
X402175D01*
X400975Y206880D02*
Y208080D01*
X400575Y206480D02*
X402575D01*
Y208480D01*
X400575D02*
X402575D01*
X400575Y206480D02*
Y208480D01*
X394282Y233652D02*
X395482D01*
Y234852D01*
X394282D02*
X395482D01*
X394282Y233652D02*
Y234852D01*
X393882Y233252D02*
X395882D01*
Y235252D01*
X393882D02*
X395882D01*
X393882Y233252D02*
Y235252D01*
X394282Y226959D02*
X395482D01*
Y228159D01*
X394282D02*
X395482D01*
X394282Y226959D02*
Y228159D01*
X393882Y226559D02*
X395882D01*
Y228559D01*
X393882D02*
X395882D01*
X393882Y226559D02*
Y228559D01*
X394282Y220266D02*
X395482D01*
Y221466D01*
X394282D02*
X395482D01*
X394282Y220266D02*
Y221466D01*
X393882Y219866D02*
X395882D01*
Y221866D01*
X393882D02*
X395882D01*
X393882Y219866D02*
Y221866D01*
X394282Y213573D02*
X395482D01*
Y214773D01*
X394282D02*
X395482D01*
X394282Y213573D02*
Y214773D01*
X393882Y213173D02*
X395882D01*
Y215173D01*
X393882D02*
X395882D01*
X393882Y213173D02*
Y215173D01*
X394282Y206880D02*
X395482D01*
Y208080D01*
X394282D02*
X395482D01*
X394282Y206880D02*
Y208080D01*
X393882Y206480D02*
X395882D01*
Y208480D01*
X393882D02*
X395882D01*
X393882Y206480D02*
Y208480D01*
X347431Y213573D02*
X348631D01*
Y214773D01*
X347431D02*
X348631D01*
X347431Y213573D02*
Y214773D01*
X347031Y213173D02*
X349031D01*
Y215173D01*
X347031D02*
X349031D01*
X347031Y213173D02*
Y215173D01*
X347431Y206880D02*
X348631D01*
Y208080D01*
X347431D02*
X348631D01*
X347431Y206880D02*
Y208080D01*
X347031Y206480D02*
X349031D01*
Y208480D01*
X347031D02*
X349031D01*
X347031Y206480D02*
Y208480D01*
X340738Y213573D02*
X341938D01*
Y214773D01*
X340738D02*
X341938D01*
X340738Y213573D02*
Y214773D01*
X340338Y213173D02*
X342338D01*
Y215173D01*
X340338D02*
X342338D01*
X340338Y213173D02*
Y215173D01*
X340738Y206880D02*
X341938D01*
Y208080D01*
X340738D02*
X341938D01*
X340738Y206880D02*
Y208080D01*
X340338Y206480D02*
X342338D01*
Y208480D01*
X340338D02*
X342338D01*
X340338Y206480D02*
Y208480D01*
X334046Y213573D02*
X335245D01*
Y214773D01*
X334046D02*
X335245D01*
X334046Y213573D02*
Y214773D01*
X333646Y213173D02*
X335646D01*
Y215173D01*
X333646D02*
X335646D01*
X333646Y213173D02*
Y215173D01*
X334046Y206880D02*
X335245D01*
Y208080D01*
X334046D02*
X335245D01*
X334046Y206880D02*
Y208080D01*
X333646Y206480D02*
X335646D01*
Y208480D01*
X333646D02*
X335646D01*
X333646Y206480D02*
Y208480D01*
X327353Y233652D02*
X328553D01*
Y234852D01*
X327353D02*
X328553D01*
X327353Y233652D02*
Y234852D01*
X326953Y233252D02*
X328953D01*
Y235252D01*
X326953D02*
X328953D01*
X326953Y233252D02*
Y235252D01*
X327353Y226959D02*
X328553D01*
Y228159D01*
X327353D02*
X328553D01*
X327353Y226959D02*
Y228159D01*
X326953Y226559D02*
X328953D01*
Y228559D01*
X326953D02*
X328953D01*
X326953Y226559D02*
Y228559D01*
X327353Y220266D02*
X328553D01*
Y221466D01*
X327353D02*
X328553D01*
X327353Y220266D02*
Y221466D01*
X326953Y219866D02*
X328953D01*
Y221866D01*
X326953D02*
X328953D01*
X326953Y219866D02*
Y221866D01*
X327353Y213573D02*
X328553D01*
Y214773D01*
X327353D02*
X328553D01*
X327353Y213573D02*
Y214773D01*
X326953Y213173D02*
X328953D01*
Y215173D01*
X326953D02*
X328953D01*
X326953Y213173D02*
Y215173D01*
X327353Y206880D02*
X328553D01*
Y208080D01*
X327353D02*
X328553D01*
X327353Y206880D02*
Y208080D01*
X326953Y206480D02*
X328953D01*
Y208480D01*
X326953D02*
X328953D01*
X326953Y206480D02*
Y208480D01*
X320660Y233652D02*
X321860D01*
Y234852D01*
X320660D02*
X321860D01*
X320660Y233652D02*
Y234852D01*
X320260Y233252D02*
X322260D01*
Y235252D01*
X320260D02*
X322260D01*
X320260Y233252D02*
Y235252D01*
X320660Y226959D02*
X321860D01*
Y228159D01*
X320660D02*
X321860D01*
X320660Y226959D02*
Y228159D01*
X320260Y226559D02*
X322260D01*
Y228559D01*
X320260D02*
X322260D01*
X320260Y226559D02*
Y228559D01*
X320660Y220266D02*
X321860D01*
Y221466D01*
X320660D02*
X321860D01*
X320660Y220266D02*
Y221466D01*
X320260Y219866D02*
X322260D01*
Y221866D01*
X320260D02*
X322260D01*
X320260Y219866D02*
Y221866D01*
X320660Y213573D02*
X321860D01*
Y214773D01*
X320660D02*
X321860D01*
X320660Y213573D02*
Y214773D01*
X320260Y213173D02*
X322260D01*
Y215173D01*
X320260D02*
X322260D01*
X320260Y213173D02*
Y215173D01*
X320660Y206880D02*
X321860D01*
Y208080D01*
X320660D02*
X321860D01*
X320660Y206880D02*
Y208080D01*
X320260Y206480D02*
X322260D01*
Y208480D01*
X320260D02*
X322260D01*
X320260Y206480D02*
Y208480D01*
X273809Y213573D02*
X275009D01*
Y214773D01*
X273809D02*
X275009D01*
X273809Y213573D02*
Y214773D01*
X273409Y213173D02*
X275409D01*
Y215173D01*
X273409D02*
X275409D01*
X273409Y213173D02*
Y215173D01*
X273809Y206880D02*
X275009D01*
Y208080D01*
X273809D02*
X275009D01*
X273809Y206880D02*
Y208080D01*
X273409Y206480D02*
X275409D01*
Y208480D01*
X273409D02*
X275409D01*
X273409Y206480D02*
Y208480D01*
X267116Y213573D02*
X268316D01*
Y214773D01*
X267116D02*
X268316D01*
X267116Y213573D02*
Y214773D01*
X266716Y213173D02*
X268716D01*
Y215173D01*
X266716D02*
X268716D01*
X266716Y213173D02*
Y215173D01*
X267116Y206880D02*
X268316D01*
Y208080D01*
X267116D02*
X268316D01*
X267116Y206880D02*
Y208080D01*
X266716Y206480D02*
X268716D01*
Y208480D01*
X266716D02*
X268716D01*
X266716Y206480D02*
Y208480D01*
X260423Y213573D02*
X261624D01*
Y214773D01*
X260423D02*
X261624D01*
X260423Y213573D02*
Y214773D01*
X260023Y213173D02*
X262023D01*
Y215173D01*
X260023D02*
X262023D01*
X260023Y213173D02*
Y215173D01*
X260423Y206880D02*
X261624D01*
Y208080D01*
X260423D02*
X261624D01*
X260423Y206880D02*
Y208080D01*
X260023Y206480D02*
X262023D01*
Y208480D01*
X260023D02*
X262023D01*
X260023Y206480D02*
Y208480D01*
X253731Y233652D02*
X254931D01*
Y234852D01*
X253731D02*
X254931D01*
X253731Y233652D02*
Y234852D01*
X253331Y233252D02*
X255331D01*
Y235252D01*
X253331D02*
X255331D01*
X253331Y233252D02*
Y235252D01*
X253731Y226959D02*
X254931D01*
Y228159D01*
X253731D02*
X254931D01*
X253731Y226959D02*
Y228159D01*
X253331Y226559D02*
X255331D01*
Y228559D01*
X253331D02*
X255331D01*
X253331Y226559D02*
Y228559D01*
X253731Y220266D02*
X254931D01*
Y221466D01*
X253731D02*
X254931D01*
X253731Y220266D02*
Y221466D01*
X253331Y219866D02*
X255331D01*
Y221866D01*
X253331D02*
X255331D01*
X253331Y219866D02*
Y221866D01*
X253731Y213573D02*
X254931D01*
Y214773D01*
X253731D02*
X254931D01*
X253731Y213573D02*
Y214773D01*
X253331Y213173D02*
X255331D01*
Y215173D01*
X253331D02*
X255331D01*
X253331Y213173D02*
Y215173D01*
X253731Y206880D02*
X254931D01*
Y208080D01*
X253731D02*
X254931D01*
X253731Y206880D02*
Y208080D01*
X253331Y206480D02*
X255331D01*
Y208480D01*
X253331D02*
X255331D01*
X253331Y206480D02*
Y208480D01*
X247038Y233652D02*
X248238D01*
Y234852D01*
X247038D02*
X248238D01*
X247038Y233652D02*
Y234852D01*
X246638Y233252D02*
X248638D01*
Y235252D01*
X246638D02*
X248638D01*
X246638Y233252D02*
Y235252D01*
X247038Y226959D02*
X248238D01*
Y228159D01*
X247038D02*
X248238D01*
X247038Y226959D02*
Y228159D01*
X246638Y226559D02*
X248638D01*
Y228559D01*
X246638D02*
X248638D01*
X246638Y226559D02*
Y228559D01*
X247038Y220266D02*
X248238D01*
Y221466D01*
X247038D02*
X248238D01*
X247038Y220266D02*
Y221466D01*
X246638Y219866D02*
X248638D01*
Y221866D01*
X246638D02*
X248638D01*
X246638Y219866D02*
Y221866D01*
X247038Y213573D02*
X248238D01*
Y214773D01*
X247038D02*
X248238D01*
X247038Y213573D02*
Y214773D01*
X246638Y213173D02*
X248638D01*
Y215173D01*
X246638D02*
X248638D01*
X246638Y213173D02*
Y215173D01*
X247038Y206880D02*
X248238D01*
Y208080D01*
X247038D02*
X248238D01*
X247038Y206880D02*
Y208080D01*
X246638Y206480D02*
X248638D01*
Y208480D01*
X246638D02*
X248638D01*
X246638Y206480D02*
Y208480D01*
X491428Y340443D02*
X492628D01*
Y341643D01*
X491428D02*
X492628D01*
X491428Y340443D02*
Y341643D01*
X491028Y340043D02*
X493028D01*
Y342043D01*
X491028D02*
X493028D01*
X491028Y340043D02*
Y342043D01*
X503632Y327648D02*
X504832D01*
Y328848D01*
X503632D02*
X504832D01*
X503632Y327648D02*
Y328848D01*
X503232Y327248D02*
X505232D01*
Y329248D01*
X503232D02*
X505232D01*
X503232Y327248D02*
Y329248D01*
X517904Y313672D02*
X519104D01*
Y314872D01*
X517904D02*
X519104D01*
X517904Y313672D02*
Y314872D01*
X517504Y313272D02*
X519504D01*
Y315272D01*
X517504D02*
X519504D01*
X517504Y313272D02*
Y315272D01*
X235030Y252845D02*
X236230D01*
Y254045D01*
X235030D02*
X236230D01*
X235030Y252845D02*
Y254045D01*
X234630Y252445D02*
X236630D01*
Y254445D01*
X234630D02*
X236630D01*
X234630Y252445D02*
Y254445D01*
X235030Y265607D02*
X236230D01*
Y266807D01*
X235030D02*
X236230D01*
X235030Y265607D02*
Y266807D01*
X234630Y265207D02*
X236630D01*
Y267207D01*
X234630D02*
X236630D01*
X234630Y265207D02*
Y267207D01*
X235030Y291132D02*
X236230D01*
Y292332D01*
X235030D02*
X236230D01*
X235030Y291132D02*
Y292332D01*
X234630Y290732D02*
X236630D01*
Y292732D01*
X234630D02*
X236630D01*
X234630Y290732D02*
Y292732D01*
X235030Y310276D02*
X236230D01*
Y311476D01*
X235030D02*
X236230D01*
X235030Y310276D02*
Y311476D01*
X234630Y309876D02*
X236630D01*
Y311876D01*
X234630D02*
X236630D01*
X234630Y309876D02*
Y311876D01*
X235030Y329420D02*
X236230D01*
Y330620D01*
X235030D02*
X236230D01*
X235030Y329420D02*
Y330620D01*
X234630Y329020D02*
X236630D01*
Y331020D01*
X234630D02*
X236630D01*
X234630Y329020D02*
Y331020D01*
X235030Y348563D02*
X236230D01*
Y349763D01*
X235030D02*
X236230D01*
X235030Y348563D02*
Y349763D01*
X234630Y348163D02*
X236630D01*
Y350163D01*
X234630D02*
X236630D01*
X234630Y348163D02*
Y350163D01*
X310653Y497825D02*
X311853D01*
Y499025D01*
X310653D02*
X311853D01*
X310653Y497825D02*
Y499025D01*
X310253Y497425D02*
X312253D01*
Y499425D01*
X310253D02*
X312253D01*
X310253Y497425D02*
Y499425D01*
X331142Y497825D02*
X332342D01*
Y499025D01*
X331142D02*
X332342D01*
X331142Y497825D02*
Y499025D01*
X330742Y497425D02*
X332742D01*
Y499425D01*
X330742D02*
X332742D01*
X330742Y497425D02*
Y499425D01*
X351959Y497727D02*
X353159D01*
Y498927D01*
X351959D02*
X353159D01*
X351959Y497727D02*
Y498927D01*
X351559Y497327D02*
X353559D01*
Y499327D01*
X351559D02*
X353559D01*
X351559Y497327D02*
Y499327D01*
X372120Y497825D02*
X373320D01*
Y499025D01*
X372120D02*
X373320D01*
X372120Y497825D02*
Y499025D01*
X371720Y497425D02*
X373720D01*
Y499425D01*
X371720D02*
X373720D01*
X371720Y497425D02*
Y499425D01*
X433586Y497825D02*
X434786D01*
Y499025D01*
X433586D02*
X434786D01*
X433586Y497825D02*
Y499025D01*
X433186Y497425D02*
X435186D01*
Y499425D01*
X433186D02*
X435186D01*
X433186Y497425D02*
Y499425D01*
X454075Y497825D02*
X455275D01*
Y499025D01*
X454075D02*
X455275D01*
X454075Y497825D02*
Y499025D01*
X453675Y497425D02*
X455675D01*
Y499425D01*
X453675D02*
X455675D01*
X453675Y497425D02*
Y499425D01*
X474564Y497825D02*
X475764D01*
Y499025D01*
X474564D02*
X475764D01*
X474564Y497825D02*
Y499025D01*
X474164Y497425D02*
X476164D01*
Y499425D01*
X474164D02*
X476164D01*
X474164Y497425D02*
Y499425D01*
X493987Y487195D02*
X495187D01*
Y488395D01*
X493987D02*
X495187D01*
X493987Y487195D02*
Y488395D01*
X493587Y486795D02*
X495587D01*
Y488795D01*
X493587D02*
X495587D01*
X493587Y486795D02*
Y488795D01*
X538573Y442904D02*
X539773D01*
Y444104D01*
X538573D02*
X539773D01*
X538573Y442904D02*
Y444104D01*
X538173Y442504D02*
X540173D01*
Y444504D01*
X538173D02*
X540173D01*
X538173Y442504D02*
Y444504D01*
X550384Y423175D02*
X551584D01*
Y424375D01*
X550384D02*
X551584D01*
X550384Y423175D02*
Y424375D01*
X549984Y422775D02*
X551984D01*
Y424775D01*
X549984D02*
X551984D01*
X549984Y422775D02*
Y424775D01*
X550384Y403468D02*
X551584D01*
Y404668D01*
X550384D02*
X551584D01*
X550384Y403468D02*
Y404668D01*
X549984Y403068D02*
X551984D01*
Y405068D01*
X549984D02*
X551984D01*
X549984Y403068D02*
Y405068D01*
X550384Y383761D02*
X551584D01*
Y384961D01*
X550384D02*
X551584D01*
X550384Y383761D02*
Y384961D01*
X549984Y383361D02*
X551984D01*
Y385361D01*
X549984D02*
X551984D01*
X549984Y383361D02*
Y385361D01*
X550384Y364054D02*
X551584D01*
Y365254D01*
X550384D02*
X551584D01*
X550384Y364054D02*
Y365254D01*
X549984Y363654D02*
X551984D01*
Y365654D01*
X549984D02*
X551984D01*
X549984Y363654D02*
Y365654D01*
X550384Y344348D02*
X551584D01*
Y345548D01*
X550384D02*
X551584D01*
X550384Y344348D02*
Y345548D01*
X549984Y343948D02*
X551984D01*
Y345948D01*
X549984D02*
X551984D01*
X549984Y343948D02*
Y345948D01*
X550384Y324641D02*
X551584D01*
Y325841D01*
X550384D02*
X551584D01*
X550384Y324641D02*
Y325841D01*
X549984Y324241D02*
X551984D01*
Y326241D01*
X549984D02*
X551984D01*
X549984Y324241D02*
Y326241D01*
X550384Y304934D02*
X551584D01*
Y306134D01*
X550384D02*
X551584D01*
X550384Y304934D02*
Y306134D01*
X549984Y304534D02*
X551984D01*
Y306534D01*
X549984D02*
X551984D01*
X549984Y304534D02*
Y306534D01*
X549498Y285227D02*
X550698D01*
Y286427D01*
X549498D02*
X550698D01*
X549498Y285227D02*
Y286427D01*
X549098Y284827D02*
X551098D01*
Y286827D01*
X549098D02*
X551098D01*
X549098Y284827D02*
Y286827D01*
X336310Y441526D02*
X337509D01*
Y442726D01*
X336310D02*
X337509D01*
X336310Y441526D02*
Y442726D01*
X335910Y441126D02*
X337910D01*
Y443126D01*
X335910D02*
X337910D01*
X335910Y441126D02*
Y443126D01*
X380109Y398317D02*
X381309D01*
Y399517D01*
X380109D02*
X381309D01*
X380109Y398317D02*
Y399517D01*
X379709Y397917D02*
X381709D01*
Y399917D01*
X379709D02*
X381709D01*
X379709Y397917D02*
Y399917D01*
X416428Y355798D02*
X417628D01*
Y356998D01*
X416428D02*
X417628D01*
X416428Y355798D02*
Y356998D01*
X416028Y355398D02*
X418028D01*
Y357398D01*
X416028D02*
X418028D01*
X416028Y355398D02*
Y357398D01*
X424302Y338278D02*
X425502D01*
Y339478D01*
X424302D02*
X425502D01*
X424302Y338278D02*
Y339478D01*
X423902Y337878D02*
X425902D01*
Y339878D01*
X423902D02*
X425902D01*
X423902Y337878D02*
Y339878D01*
X532077Y299498D02*
X533277D01*
Y300698D01*
X532077D02*
X533277D01*
X532077Y299498D02*
Y300698D01*
X531677Y299098D02*
X533677D01*
Y301098D01*
X531677D02*
X533677D01*
X531677Y299098D02*
Y301098D01*
X504321Y352254D02*
X505521D01*
Y353454D01*
X504321D02*
X505521D01*
X504321Y352254D02*
Y353454D01*
X503921Y351854D02*
X505921D01*
Y353854D01*
X503921D02*
X505921D01*
X503921Y351854D02*
Y353854D01*
X504912Y344872D02*
X506112D01*
Y346072D01*
X504912D02*
X506112D01*
X504912Y344872D02*
Y346072D01*
X504512Y344472D02*
X506512D01*
Y346472D01*
X504512D02*
X506512D01*
X504512Y344472D02*
Y346472D01*
X284636Y396939D02*
X285836D01*
Y398139D01*
X284636D02*
X285836D01*
X284636Y396939D02*
Y398139D01*
X284236Y396539D02*
X286236D01*
Y398539D01*
X284236D02*
X286236D01*
X284236Y396539D02*
Y398539D01*
X295365Y412589D02*
X296565D01*
Y413789D01*
X295365D02*
X296565D01*
X295365Y412589D02*
Y413789D01*
X294965Y412189D02*
X296965D01*
Y414189D01*
X294965D02*
X296965D01*
X294965Y412189D02*
Y414189D01*
X278042Y421939D02*
X279242D01*
Y423139D01*
X278042D02*
X279242D01*
X278042Y421939D02*
Y423139D01*
X277642Y421539D02*
X279642D01*
Y423539D01*
X277642D02*
X279642D01*
X277642Y421539D02*
Y423539D01*
X288967Y343888D02*
X290167D01*
Y345088D01*
X288967D02*
X290167D01*
X288967Y343888D02*
Y345088D01*
X288567Y343488D02*
X290567D01*
Y345488D01*
X288567D02*
X290567D01*
X288567Y343488D02*
Y345488D01*
X288179Y449203D02*
X289380D01*
Y450403D01*
X288179D02*
X289380D01*
X288179Y449203D02*
Y450403D01*
X287779Y448803D02*
X289779D01*
Y450803D01*
X287779D02*
X289779D01*
X287779Y448803D02*
Y450803D01*
X409735Y378239D02*
X410935D01*
Y379439D01*
X409735D02*
X410935D01*
X409735Y378239D02*
Y379439D01*
X409335Y377839D02*
X411335D01*
Y379839D01*
X409335D02*
X411335D01*
X409335Y377839D02*
Y379839D01*
X394872Y328632D02*
X396072D01*
Y329832D01*
X394872D02*
X396072D01*
X394872Y328632D02*
Y329832D01*
X394472Y328232D02*
X396472D01*
Y330232D01*
X394472D02*
X396472D01*
X394472Y328232D02*
Y330232D01*
X398711Y418691D02*
X399911D01*
Y419891D01*
X398711D02*
X399911D01*
X398711Y418691D02*
Y419891D01*
X398311Y418291D02*
X400311D01*
Y420291D01*
X398311D02*
X400311D01*
X398311Y418291D02*
Y420291D01*
X407569Y428140D02*
X408769D01*
Y429340D01*
X407569D02*
X408769D01*
X407569Y428140D02*
Y429340D01*
X407169Y427740D02*
X409169D01*
Y429740D01*
X407169D02*
X409169D01*
X407169Y427740D02*
Y429740D01*
X407372Y417805D02*
X408572D01*
Y419005D01*
X407372D02*
X408572D01*
X407372Y417805D02*
Y419005D01*
X406972Y417406D02*
X408972D01*
Y419406D01*
X406972D02*
X408972D01*
X406972Y417406D02*
Y419406D01*
X235030Y367707D02*
X236230D01*
Y368907D01*
X235030D02*
X236230D01*
X235030Y367707D02*
Y368907D01*
X234630Y367307D02*
X236630D01*
Y369307D01*
X234630D02*
X236630D01*
X234630Y367307D02*
Y369307D01*
X242904Y376565D02*
X244104D01*
Y377765D01*
X242904D02*
X244104D01*
X242904Y376565D02*
Y377765D01*
X242504Y376165D02*
X244504D01*
Y378165D01*
X242504D02*
X244504D01*
X242504Y376165D02*
Y378165D01*
X255798Y357077D02*
X256998D01*
Y358277D01*
X255798D02*
X256998D01*
X255798Y357077D02*
Y358277D01*
X255398Y356677D02*
X257398D01*
Y358677D01*
X255398D02*
X257398D01*
X255398Y356677D02*
Y358677D01*
X257471Y368199D02*
X258671D01*
Y369399D01*
X257471D02*
X258671D01*
X257471Y368199D02*
Y369399D01*
X257071Y367799D02*
X259071D01*
Y369799D01*
X257071D02*
X259071D01*
X257071Y367799D02*
Y369799D01*
X269085Y349991D02*
X270285D01*
Y351190D01*
X269085D02*
X270285D01*
X269085Y349991D02*
Y351190D01*
X268685Y349590D02*
X270685D01*
Y351590D01*
X268685D02*
X270685D01*
X268685Y349590D02*
Y351590D01*
X288376Y361605D02*
X289576D01*
Y362805D01*
X288376D02*
X289576D01*
X288376Y361605D02*
Y362805D01*
X287976Y361205D02*
X289976D01*
Y363205D01*
X287976D02*
X289976D01*
X287976Y361205D02*
Y363205D01*
X379912Y370561D02*
X381112D01*
Y371761D01*
X379912D02*
X381112D01*
X379912Y370561D02*
Y371761D01*
X379512Y370161D02*
X381512D01*
Y372161D01*
X379512D02*
X381512D01*
X379512Y370161D02*
Y372161D01*
X330207Y399302D02*
X331407D01*
Y400502D01*
X330207D02*
X331407D01*
X330207Y399302D02*
Y400502D01*
X329807Y398902D02*
X331807D01*
Y400902D01*
X329807D02*
X331807D01*
X329807Y398902D02*
Y400902D01*
X334046Y367707D02*
X335246D01*
Y368907D01*
X334046D02*
X335246D01*
X334046Y367707D02*
Y368907D01*
X333646Y367307D02*
X335646D01*
Y369307D01*
X333646D02*
X335646D01*
X333646Y367307D02*
Y369307D01*
X310128Y344577D02*
X311328D01*
Y345777D01*
X310128D02*
X311328D01*
X310128Y344577D02*
Y345777D01*
X309728Y344177D02*
X311728D01*
Y346177D01*
X309728D02*
X311728D01*
X309728Y344177D02*
Y346177D01*
X334931Y342609D02*
X336132D01*
Y343809D01*
X334931D02*
X336132D01*
X334931Y342609D02*
Y343809D01*
X334531Y342209D02*
X336531D01*
Y344209D01*
X334531D02*
X336531D01*
X334531Y342209D02*
Y344209D01*
X326172Y337786D02*
X327372D01*
Y338986D01*
X326172D02*
X327372D01*
X326172Y337786D02*
Y338986D01*
X325772Y337386D02*
X327772D01*
Y339386D01*
X325772D02*
X327772D01*
X325772Y337386D02*
Y339386D01*
X343888Y362687D02*
X345088D01*
Y363887D01*
X343888D02*
X345088D01*
X343888Y362687D02*
Y363887D01*
X343488Y362287D02*
X345488D01*
Y364287D01*
X343488D02*
X345488D01*
X343488Y362287D02*
Y364287D01*
X334341Y352353D02*
X335541D01*
Y353553D01*
X334341D02*
X335541D01*
X334341Y352353D02*
Y353553D01*
X333941Y351953D02*
X335941D01*
Y353953D01*
X333941D02*
X335941D01*
X333941Y351953D02*
Y353953D01*
X381191Y361802D02*
X382391D01*
Y363002D01*
X381191D02*
X382391D01*
X381191Y361802D02*
Y363002D01*
X380791Y361402D02*
X382791D01*
Y363402D01*
X380791D02*
X382791D01*
X380791Y361402D02*
Y363402D01*
X448174Y343987D02*
X449374D01*
Y345187D01*
X448174D02*
X449374D01*
X448174Y343987D02*
Y345187D01*
X447774Y343587D02*
X449774D01*
Y345587D01*
X447774D02*
X449774D01*
X447774Y343587D02*
Y345587D01*
X455896Y364558D02*
X457096D01*
Y365757D01*
X455896D02*
X457096D01*
X455896Y364558D02*
Y365757D01*
X455496Y364158D02*
X457496D01*
Y366158D01*
X455496D02*
X457496D01*
X455496Y364158D02*
Y366158D01*
X406113Y396467D02*
X407313D01*
Y397667D01*
X406113D02*
X407313D01*
X406113Y396467D02*
Y397667D01*
X405713Y396067D02*
X407713D01*
Y398067D01*
X405713D02*
X407713D01*
X405713Y396067D02*
Y398067D01*
X395660Y404321D02*
X396860D01*
Y405521D01*
X395660D02*
X396860D01*
X395660Y404321D02*
Y405521D01*
X395260Y403921D02*
X397260D01*
Y405921D01*
X395260D02*
X397260D01*
X395260Y403921D02*
Y405921D01*
X395955Y395660D02*
X397155D01*
Y396860D01*
X395955D02*
X397155D01*
X395955Y395660D02*
Y396860D01*
X395555Y395260D02*
X397555D01*
Y397260D01*
X395555D02*
X397555D01*
X395555Y395260D02*
Y397260D01*
X420463Y452058D02*
X421663D01*
Y453258D01*
X420463D02*
X421663D01*
X420463Y452058D02*
Y453258D01*
X420063Y451657D02*
X422063D01*
Y453657D01*
X420063D02*
X422063D01*
X420063Y451657D02*
Y453657D01*
X384655Y461529D02*
X385855D01*
Y462729D01*
X384655D02*
X385855D01*
X384655Y461529D02*
Y462729D01*
X384255Y461129D02*
X386255D01*
Y463129D01*
X384255D02*
X386255D01*
X384255Y461129D02*
Y463129D01*
X387687Y461506D02*
X388887D01*
Y462706D01*
X387687D02*
X388887D01*
X387687Y461506D02*
Y462706D01*
X387287Y461106D02*
X389287D01*
Y463106D01*
X387287D02*
X389287D01*
X387287Y461106D02*
Y463106D01*
X371447Y375089D02*
X372647D01*
Y376289D01*
X371447D02*
X372647D01*
X371447Y375089D02*
Y376289D01*
X371047Y374689D02*
X373047D01*
Y376689D01*
X371047D02*
X373047D01*
X371047Y374689D02*
Y376689D01*
X371349Y368002D02*
X372549D01*
Y369202D01*
X371349D02*
X372549D01*
X371349Y368002D02*
Y369202D01*
X370949Y367602D02*
X372949D01*
Y369602D01*
X370949D02*
X372949D01*
X370949Y367602D02*
Y369602D01*
X390045Y404819D02*
X391245D01*
Y406019D01*
X390045D02*
X391245D01*
X390045Y404819D02*
Y406019D01*
X389645Y404419D02*
X391645D01*
Y406419D01*
X389645D02*
X391645D01*
X389645Y404419D02*
Y406419D01*
X395660Y409538D02*
X396860D01*
Y410738D01*
X395660D02*
X396860D01*
X395660Y409538D02*
Y410738D01*
X395260Y409138D02*
X397260D01*
Y411138D01*
X395260D02*
X397260D01*
X395260Y409138D02*
Y411138D01*
X367233Y384360D02*
X368433D01*
Y385560D01*
X367233D02*
X368433D01*
X367233Y384360D02*
Y385560D01*
X366833Y383960D02*
X368833D01*
Y385960D01*
X366833D02*
X368833D01*
X366833Y383960D02*
Y385960D01*
X405601Y325876D02*
X406801D01*
Y327076D01*
X405601D02*
X406801D01*
X405601Y325876D02*
Y327076D01*
X405201Y325476D02*
X407201D01*
Y327476D01*
X405201D02*
X407201D01*
X405201Y325476D02*
Y327476D01*
X419971Y428239D02*
X421171D01*
Y429439D01*
X419971D02*
X421171D01*
X419971Y428239D02*
Y429439D01*
X419571Y427839D02*
X421571D01*
Y429839D01*
X419571D02*
X421571D01*
X419571Y427839D02*
Y429839D01*
X429321Y400679D02*
X430521D01*
Y401880D01*
X429321D02*
X430521D01*
X429321Y400679D02*
Y401880D01*
X428921Y400280D02*
X430921D01*
Y402280D01*
X428921D02*
X430921D01*
X428921Y400280D02*
Y402280D01*
X406487Y403042D02*
X407687D01*
Y404242D01*
X406487D02*
X407687D01*
X406487Y403042D02*
Y404242D01*
X406087Y402642D02*
X408087D01*
Y404642D01*
X406087D02*
X408087D01*
X406087Y402642D02*
Y404642D01*
X407372Y406388D02*
X408572D01*
Y407588D01*
X407372D02*
X408572D01*
X407372Y406388D02*
Y407588D01*
X406972Y405988D02*
X408972D01*
Y407988D01*
X406972D02*
X408972D01*
X406972Y405988D02*
Y407988D01*
X450581Y381388D02*
X451781D01*
Y382588D01*
X450581D02*
X451781D01*
X450581Y381388D02*
Y382588D01*
X450181Y380988D02*
X452181D01*
Y382988D01*
X450181D02*
X452181D01*
X450181Y380988D02*
Y382988D01*
X435817Y442510D02*
X437017D01*
Y443710D01*
X435817D02*
X437017D01*
X435817Y442510D02*
Y443710D01*
X435417Y442110D02*
X437417D01*
Y444110D01*
X435417D02*
X437417D01*
X435417Y442110D02*
Y444110D01*
X290443Y279715D02*
X291643D01*
Y280915D01*
X290443D02*
X291643D01*
X290443Y279715D02*
Y280915D01*
X290043Y279315D02*
X292043D01*
Y281315D01*
X290043D02*
X292043D01*
X290043Y279315D02*
Y281315D01*
X367117Y279715D02*
X368317D01*
Y280915D01*
X367117D02*
X368317D01*
X367117Y279715D02*
Y280915D01*
X366717Y279315D02*
X368717D01*
Y281315D01*
X366717D02*
X368717D01*
X366717Y279315D02*
Y281315D01*
X443790Y279715D02*
X444990D01*
Y280915D01*
X443790D02*
X444990D01*
X443790Y279715D02*
Y280915D01*
X443390Y279315D02*
X445390D01*
Y281315D01*
X443390D02*
X445390D01*
X443390Y279315D02*
Y281315D01*
X520463Y279715D02*
X521663D01*
Y280915D01*
X520463D02*
X521663D01*
X520463Y279715D02*
Y280915D01*
X520063Y279315D02*
X522063D01*
Y281315D01*
X520063D02*
X522063D01*
X520063Y279315D02*
Y281315D01*
X315246Y280010D02*
X316446D01*
Y281210D01*
X315246D02*
X316446D01*
X315246Y280010D02*
Y281210D01*
X314846Y279610D02*
X316846D01*
Y281610D01*
X314846D02*
X316846D01*
X314846Y279610D02*
Y281610D01*
X322727Y280010D02*
X323927D01*
Y281210D01*
X322727D02*
X323927D01*
X322727Y280010D02*
Y281210D01*
X322327Y279610D02*
X324327D01*
Y281610D01*
X322327D02*
X324327D01*
X322327Y279610D02*
Y281610D01*
X283744Y279512D02*
X284944D01*
Y280712D01*
X283744D02*
X284944D01*
X283744Y279512D02*
Y280712D01*
X283344Y279112D02*
X285344D01*
Y281112D01*
X283344D02*
X285344D01*
X283344Y279112D02*
Y281112D01*
X306979Y280010D02*
X308179D01*
Y281210D01*
X306979D02*
X308179D01*
X306979Y280010D02*
Y281210D01*
X306579Y279610D02*
X308579D01*
Y281610D01*
X306579D02*
X308579D01*
X306579Y279610D02*
Y281610D01*
X391920Y280010D02*
X393120D01*
Y281210D01*
X391920D02*
X393120D01*
X391920Y280010D02*
Y281210D01*
X391520Y279610D02*
X393520D01*
Y281610D01*
X391520D02*
X393520D01*
X391520Y279610D02*
Y281610D01*
X460325Y280010D02*
X461525D01*
Y281210D01*
X460325D02*
X461525D01*
X460325Y280010D02*
Y281210D01*
X459925Y279610D02*
X461925D01*
Y281610D01*
X459925D02*
X461925D01*
X459925Y279610D02*
Y281610D01*
X468593Y280010D02*
X469793D01*
Y281210D01*
X468593D02*
X469793D01*
X468593Y280010D02*
Y281210D01*
X468193Y279610D02*
X470193D01*
Y281610D01*
X468193D02*
X470193D01*
X468193Y279610D02*
Y281610D01*
X476073Y280010D02*
X477273D01*
Y281210D01*
X476073D02*
X477273D01*
X476073Y280010D02*
Y281210D01*
X475673Y279610D02*
X477673D01*
Y281610D01*
X475673D02*
X477673D01*
X475673Y279610D02*
Y281610D01*
X536998Y280010D02*
X538198D01*
Y281210D01*
X536998D02*
X538198D01*
X536998Y280010D02*
Y281210D01*
X536598Y279610D02*
X538598D01*
Y281610D01*
X536598D02*
X538598D01*
X536598Y279610D02*
Y281610D01*
X333061Y268888D02*
X334261D01*
Y270088D01*
X333061D02*
X334261D01*
X333061Y268888D02*
Y270088D01*
X332661Y268488D02*
X334661D01*
Y270488D01*
X332661D02*
X334661D01*
X332661Y268488D02*
Y270488D01*
X360417Y279512D02*
X361617D01*
Y280712D01*
X360417D02*
X361617D01*
X360417Y279512D02*
Y280712D01*
X360017Y279112D02*
X362017D01*
Y281112D01*
X360017D02*
X362017D01*
X360017Y279112D02*
Y281112D01*
X486408Y268888D02*
X487608D01*
Y270088D01*
X486408D02*
X487608D01*
X486408Y268888D02*
Y270088D01*
X486008Y268488D02*
X488008D01*
Y270488D01*
X486008D02*
X488008D01*
X486008Y268488D02*
Y270488D01*
X436014Y436408D02*
X437214D01*
Y437608D01*
X436014D02*
X437214D01*
X436014Y436408D02*
Y437608D01*
X435614Y436008D02*
X437614D01*
Y438008D01*
X435614D02*
X437614D01*
X435614Y436008D02*
Y438008D01*
X383652Y280010D02*
X384852D01*
Y281210D01*
X383652D02*
X384852D01*
X383652Y280010D02*
Y281210D01*
X383252Y279610D02*
X385252D01*
Y281610D01*
X383252D02*
X385252D01*
X383252Y279610D02*
Y281610D01*
X399400Y280010D02*
X400600D01*
Y281210D01*
X399400D02*
X400600D01*
X399400Y280010D02*
Y281210D01*
X399000Y279610D02*
X401000D01*
Y281610D01*
X399000D02*
X401000D01*
X399000Y279610D02*
Y281610D01*
X409735Y268888D02*
X410935D01*
Y270088D01*
X409735D02*
X410935D01*
X409735Y268888D02*
Y270088D01*
X409335Y268488D02*
X411335D01*
Y270488D01*
X409335D02*
X411335D01*
X409335Y268488D02*
Y270488D01*
X507372Y273711D02*
X508572D01*
Y274911D01*
X507372D02*
X508572D01*
X507372Y273711D02*
Y274911D01*
X506972Y273311D02*
X508972D01*
Y275311D01*
X506972D02*
X508972D01*
X506972Y273311D02*
Y275311D01*
X369933Y124952D02*
X371132D01*
Y126152D01*
X369933D02*
X371132D01*
X369933Y124952D02*
Y126152D01*
X369532Y124552D02*
X371533D01*
Y126552D01*
X369532D02*
X371533D01*
X369532Y124552D02*
Y126552D01*
X361030Y124892D02*
X362230D01*
Y126092D01*
X361030D02*
X362230D01*
X361030Y124892D02*
Y126092D01*
X360630Y124492D02*
X362630D01*
Y126492D01*
X360630D02*
X362630D01*
X360630Y124492D02*
Y126492D01*
X402845Y113868D02*
X404045D01*
Y115068D01*
X402845D02*
X404045D01*
X402845Y113868D02*
Y115068D01*
X402445Y113469D02*
X404445D01*
Y115469D01*
X402445D02*
X404445D01*
X402445Y113469D02*
Y115469D01*
X386408Y129337D02*
X387608D01*
Y130537D01*
X386408D02*
X387608D01*
X386408Y129337D02*
Y130537D01*
X386008Y128937D02*
X388008D01*
Y130937D01*
X386008D02*
X388008D01*
X386008Y128937D02*
Y130937D01*
X412687Y124498D02*
X413887D01*
Y125698D01*
X412687D02*
X413887D01*
X412687Y124498D02*
Y125698D01*
X412287Y124098D02*
X414287D01*
Y126098D01*
X412287D02*
X414287D01*
X412287Y124098D02*
Y126098D01*
X412884Y151664D02*
X414084D01*
Y152864D01*
X412884D02*
X414084D01*
X412884Y151664D02*
Y152864D01*
X412484Y151264D02*
X414484D01*
Y153264D01*
X412484D02*
X414484D01*
X412484Y151264D02*
Y153264D01*
X370660Y151467D02*
X371860D01*
Y152667D01*
X370660D02*
X371860D01*
X370660Y151467D02*
Y152667D01*
X370260Y151067D02*
X372260D01*
Y153067D01*
X370260D02*
X372260D01*
X370260Y151067D02*
Y153067D01*
X353239Y133258D02*
X354439D01*
Y134458D01*
X353239D02*
X354439D01*
X353239Y133258D02*
Y134458D01*
X352839Y132858D02*
X354839D01*
Y134858D01*
X352839D02*
X354839D01*
X352839Y132858D02*
Y134858D01*
X434636Y141821D02*
X435836D01*
Y143021D01*
X434636D02*
X435836D01*
X434636Y141821D02*
Y143021D01*
X434236Y141421D02*
X436236D01*
Y143421D01*
X434236D02*
X436236D01*
X434236Y141421D02*
Y143421D01*
X440345Y155601D02*
X441545D01*
Y156801D01*
X440345D02*
X441545D01*
X440345Y155601D02*
Y156801D01*
X439945Y155201D02*
X441945D01*
Y157201D01*
X439945D02*
X441945D01*
X439945Y155201D02*
Y157201D01*
X403731Y400679D02*
X404931D01*
Y401880D01*
X403731D02*
X404931D01*
X403731Y400679D02*
Y401880D01*
X403331Y400280D02*
X405331D01*
Y402280D01*
X403331D02*
X405331D01*
X403331Y400280D02*
Y402280D01*
X399991Y400286D02*
X401191D01*
Y401486D01*
X399991D02*
X401191D01*
X399991Y400286D02*
Y401486D01*
X399590Y399886D02*
X401590D01*
Y401886D01*
X399590D02*
X401590D01*
X399590Y399886D02*
Y401886D01*
X406388Y463672D02*
X407588D01*
Y464872D01*
X406388D02*
X407588D01*
X406388Y463672D02*
Y464872D01*
X405988Y463272D02*
X407988D01*
Y465272D01*
X405988D02*
X407988D01*
X405988Y463272D02*
Y465272D01*
X235620Y166624D02*
X236821D01*
Y167824D01*
X235620D02*
X236821D01*
X235620Y166624D02*
Y167824D01*
X235221Y166224D02*
X237221D01*
Y168224D01*
X235221D02*
X237221D01*
X235221Y166224D02*
Y168224D01*
X235424Y179026D02*
X236624D01*
Y180226D01*
X235424D02*
X236624D01*
X235424Y179026D02*
Y180226D01*
X235024Y178626D02*
X237024D01*
Y180626D01*
X235024D02*
X237024D01*
X235024Y178626D02*
Y180626D01*
X235325Y204223D02*
X236525D01*
Y205423D01*
X235325D02*
X236525D01*
X235325Y204223D02*
Y205423D01*
X234925Y203823D02*
X236925D01*
Y205823D01*
X234925D02*
X236925D01*
X234925Y203823D02*
Y205823D01*
X235128Y216920D02*
X236328D01*
Y218120D01*
X235128D02*
X236328D01*
X235128Y216920D02*
Y218120D01*
X234728Y216520D02*
X236728D01*
Y218520D01*
X234728D02*
X236728D01*
X234728Y216520D02*
Y218520D01*
X333061Y397235D02*
X334261D01*
Y398435D01*
X333061D02*
X334261D01*
X333061Y397235D02*
Y398435D01*
X332661Y396835D02*
X334661D01*
Y398835D01*
X332661D02*
X334661D01*
X332661Y396835D02*
Y398835D01*
X336113Y390739D02*
X337313D01*
Y391939D01*
X336113D02*
X337313D01*
X336113Y390739D02*
Y391939D01*
X335713Y390339D02*
X337713D01*
Y392339D01*
X335713D02*
X337713D01*
X335713Y390339D02*
Y392339D01*
X512392Y301073D02*
X513592D01*
Y302273D01*
X512392D02*
X513592D01*
X512392Y301073D02*
Y302273D01*
X511992Y300673D02*
X513992D01*
Y302673D01*
X511992D02*
X513992D01*
X511992Y300673D02*
Y302673D01*
X521742Y291624D02*
X522942D01*
Y292824D01*
X521742D02*
X522942D01*
X521742Y291624D02*
Y292824D01*
X521343Y291224D02*
X523343D01*
Y293224D01*
X521343D02*
X523343D01*
X521343Y291224D02*
Y293224D01*
X411408Y345168D02*
X412608D01*
Y346368D01*
X411408D02*
X412608D01*
X411408Y345168D02*
Y346368D01*
X411008Y344768D02*
X413008D01*
Y346768D01*
X411008D02*
X413008D01*
X411008Y344768D02*
Y346768D01*
X428534Y410916D02*
X429734D01*
Y412116D01*
X428534D02*
X429734D01*
X428534Y410916D02*
Y412116D01*
X428134Y410516D02*
X430134D01*
Y412516D01*
X428134D02*
X430134D01*
X428134Y410516D02*
Y412516D01*
X436408Y418199D02*
X437608D01*
Y419399D01*
X436408D02*
X437608D01*
X436408Y418199D02*
Y419399D01*
X436008Y417799D02*
X438008D01*
Y419799D01*
X436008D02*
X438008D01*
X436008Y417799D02*
Y419799D01*
X426762Y398120D02*
X427962D01*
Y399321D01*
X426762D02*
X427962D01*
X426762Y398120D02*
Y399321D01*
X426362Y397721D02*
X428362D01*
Y399721D01*
X426362D02*
X428362D01*
X426362Y397721D02*
Y399721D01*
X429715Y395365D02*
X430915D01*
Y396565D01*
X429715D02*
X430915D01*
X429715Y395365D02*
Y396565D01*
X429315Y394965D02*
X431315D01*
Y396965D01*
X429315D02*
X431315D01*
X429315Y394965D02*
Y396965D01*
X432077Y393002D02*
X433277D01*
Y394202D01*
X432077D02*
X433277D01*
X432077Y393002D02*
Y394202D01*
X431677Y392602D02*
X433677D01*
Y394602D01*
X431677D02*
X433677D01*
X431677Y392602D02*
Y394602D01*
X452746Y326073D02*
X453946D01*
Y327273D01*
X452746D02*
X453946D01*
X452746Y326073D02*
Y327273D01*
X452347Y325673D02*
X454347D01*
Y327673D01*
X452347D02*
X454347D01*
X452347Y325673D02*
Y327673D01*
X482372Y326467D02*
X483572D01*
Y327667D01*
X482372D02*
X483572D01*
X482372Y326467D02*
Y327667D01*
X481972Y326067D02*
X483972D01*
Y328067D01*
X481972D02*
X483972D01*
X481972Y326067D02*
Y328067D01*
X381683Y407274D02*
X382884D01*
Y408474D01*
X381683D02*
X382884D01*
X381683Y407274D02*
Y408474D01*
X381283Y406874D02*
X383283D01*
Y408874D01*
X381283D02*
X383283D01*
X381283Y406874D02*
Y408874D01*
X394479Y384243D02*
X395679D01*
Y385442D01*
X394479D02*
X395679D01*
X394479Y384243D02*
Y385442D01*
X394079Y383842D02*
X396079D01*
Y385842D01*
X394079D02*
X396079D01*
X394079Y383842D02*
Y385842D01*
X427254Y446250D02*
X428454D01*
Y447450D01*
X427254D02*
X428454D01*
X427254Y446250D02*
Y447450D01*
X426854Y445850D02*
X428854D01*
Y447850D01*
X426854D02*
X428854D01*
X426854Y445850D02*
Y447850D01*
X423830Y346464D02*
X425030D01*
Y347664D01*
X423830D02*
X425030D01*
X423830Y346464D02*
Y347664D01*
X423430Y346064D02*
X425430D01*
Y348064D01*
X423430D02*
X425430D01*
X423430Y346064D02*
Y348064D01*
X470069Y341231D02*
X471269D01*
Y342431D01*
X470069D02*
X471269D01*
X470069Y341231D02*
Y342431D01*
X469669Y340831D02*
X471669D01*
Y342831D01*
X469669D02*
X471669D01*
X469669Y340831D02*
Y342831D01*
X460522Y344479D02*
X461722D01*
Y345679D01*
X460522D02*
X461722D01*
X460522Y344479D02*
Y345679D01*
X460122Y344079D02*
X462122D01*
Y346079D01*
X460122D02*
X462122D01*
X460122Y344079D02*
Y346079D01*
X429026Y414656D02*
X430226D01*
Y415856D01*
X429026D02*
X430226D01*
X429026Y414656D02*
Y415856D01*
X428626Y414256D02*
X430626D01*
Y416256D01*
X428626D02*
X430626D01*
X428626Y414256D02*
Y416256D01*
X527156Y279518D02*
X528356D01*
Y280718D01*
X527156D02*
X528356D01*
X527156Y279518D02*
Y280718D01*
X526756Y279118D02*
X528756D01*
Y281118D01*
X526756D02*
X528756D01*
X526756Y279118D02*
Y281118D01*
X450483Y279518D02*
X451683D01*
Y280718D01*
X450483D02*
X451683D01*
X450483Y279518D02*
Y280718D01*
X450083Y279118D02*
X452083D01*
Y281118D01*
X450083D02*
X452083D01*
X450083Y279118D02*
Y281118D01*
X373809Y279518D02*
X375009D01*
Y280718D01*
X373809D02*
X375009D01*
X373809Y279518D02*
Y280718D01*
X373409Y279118D02*
X375409D01*
Y281118D01*
X373409D02*
X375409D01*
X373409Y279118D02*
Y281118D01*
X297136Y279518D02*
X298336D01*
Y280718D01*
X297136D02*
X298336D01*
X297136Y279518D02*
Y280718D01*
X296736Y279118D02*
X298736D01*
Y281118D01*
X296736D02*
X298736D01*
X296736Y279118D02*
Y281118D01*
X301172Y420955D02*
X302372D01*
Y422155D01*
X301172D02*
X302372D01*
X301172Y420955D02*
Y422155D01*
X300772Y420555D02*
X302772D01*
Y422555D01*
X300772D02*
X302772D01*
X300772Y420555D02*
Y422555D01*
X279813Y406191D02*
X281013D01*
Y407391D01*
X279813D02*
X281013D01*
X279813Y406191D02*
Y407391D01*
X279413Y405791D02*
X281413D01*
Y407791D01*
X279413D02*
X281413D01*
X279413Y405791D02*
Y407791D01*
X301172Y435325D02*
X302372D01*
Y436525D01*
X301172D02*
X302372D01*
X301172Y435325D02*
Y436525D01*
X300772Y434925D02*
X302772D01*
Y436925D01*
X300772D02*
X302772D01*
X300772Y434925D02*
Y436925D01*
X301467Y447530D02*
X302667D01*
Y448730D01*
X301467D02*
X302667D01*
X301467Y447530D02*
Y448730D01*
X301067Y447130D02*
X303067D01*
Y449130D01*
X301067D02*
X303067D01*
X301067Y447130D02*
Y449130D01*
X310817Y398514D02*
X312017D01*
Y399714D01*
X310817D02*
X312017D01*
X310817Y398514D02*
Y399714D01*
X310417Y398114D02*
X312417D01*
Y400114D01*
X310417D02*
X312417D01*
X310417Y398114D02*
Y400114D01*
X316526Y326762D02*
X317726D01*
Y327962D01*
X316526D02*
X317726D01*
X316526Y326762D02*
Y327962D01*
X316126Y326362D02*
X318126D01*
Y328362D01*
X316126D02*
X318126D01*
X316126Y326362D02*
Y328362D01*
X336506Y424006D02*
X337706D01*
Y425206D01*
X336506D02*
X337706D01*
X336506Y424006D02*
Y425206D01*
X336106Y423606D02*
X338106D01*
Y425606D01*
X336106D02*
X338106D01*
X336106Y423606D02*
Y425606D01*
X335719Y401270D02*
X336919D01*
Y402470D01*
X335719D02*
X336919D01*
X335719Y401270D02*
Y402470D01*
X335319Y400870D02*
X337319D01*
Y402870D01*
X335319D02*
X337319D01*
X335319Y400870D02*
Y402870D01*
X319676Y438672D02*
X320876D01*
Y439872D01*
X319676D02*
X320876D01*
X319676Y438672D02*
Y439872D01*
X319276Y438272D02*
X321276D01*
Y440272D01*
X319276D02*
X321276D01*
X319276Y438272D02*
Y440272D01*
X385325Y145463D02*
X386525D01*
Y146663D01*
X385325D02*
X386525D01*
X385325Y145463D02*
Y146663D01*
X384925Y145063D02*
X386925D01*
Y147063D01*
X384925D02*
X386925D01*
X384925Y145063D02*
Y147063D01*
X345857Y468692D02*
X347057D01*
Y469892D01*
X345857D02*
X347057D01*
X345857Y468692D02*
Y469892D01*
X345457Y468292D02*
X347457D01*
Y470292D01*
X345457D02*
X347457D01*
X345457Y468292D02*
Y470292D01*
X345857Y481290D02*
X347057D01*
Y482490D01*
X345857D02*
X347057D01*
X345857Y481290D02*
Y482490D01*
X345457Y480890D02*
X347457D01*
Y482890D01*
X345457D02*
X347457D01*
X345457Y480890D02*
Y482890D01*
X349007Y468692D02*
X350207D01*
Y469892D01*
X349007D02*
X350207D01*
X349007Y468692D02*
Y469892D01*
X348607Y468292D02*
X350607D01*
Y470292D01*
X348607D02*
X350607D01*
X348607Y468292D02*
Y470292D01*
X349007Y481290D02*
X350207D01*
Y482490D01*
X349007D02*
X350207D01*
X349007Y481290D02*
Y482490D01*
X348607Y480890D02*
X350607D01*
Y482890D01*
X348607D02*
X350607D01*
X348607Y480890D02*
Y482890D01*
X352156Y481290D02*
X353356D01*
Y482490D01*
X352156D02*
X353356D01*
X352156Y481290D02*
Y482490D01*
X351756Y480890D02*
X353756D01*
Y482890D01*
X351756D02*
X353756D01*
X351756Y480890D02*
Y482890D01*
X355306Y481290D02*
X356506D01*
Y482490D01*
X355306D02*
X356506D01*
X355306Y481290D02*
Y482490D01*
X354906Y480890D02*
X356906D01*
Y482890D01*
X354906D02*
X356906D01*
X354906Y480890D02*
Y482890D01*
X355306Y484440D02*
X356506D01*
Y485640D01*
X355306D02*
X356506D01*
X355306Y484440D02*
Y485640D01*
X354906Y484040D02*
X356906D01*
Y486040D01*
X354906D02*
X356906D01*
X354906Y484040D02*
Y486040D01*
X361605Y484440D02*
X362805D01*
Y485640D01*
X361605D02*
X362805D01*
X361605Y484440D02*
Y485640D01*
X361205Y484040D02*
X363205D01*
Y486040D01*
X361205D02*
X363205D01*
X361205Y484040D02*
Y486040D01*
X329026Y471250D02*
X330226D01*
Y472450D01*
X329026D02*
X330226D01*
X329026Y471250D02*
Y472450D01*
X328626Y470850D02*
X330626D01*
Y472850D01*
X328626D02*
X330626D01*
X328626Y470850D02*
Y472850D01*
X309439Y483258D02*
X310639D01*
Y484458D01*
X309439D02*
X310639D01*
X309439Y483258D02*
Y484458D01*
X309039Y482858D02*
X311039D01*
Y484858D01*
X309039D02*
X311039D01*
X309039Y482858D02*
Y484858D01*
X296447Y489361D02*
X297647D01*
Y490561D01*
X296447D02*
X297647D01*
X296447Y489361D02*
Y490561D01*
X296047Y488961D02*
X298047D01*
Y490961D01*
X296047D02*
X298047D01*
X296047Y488961D02*
Y490961D01*
X424794Y367707D02*
X425994D01*
Y368907D01*
X424794D02*
X425994D01*
X424794Y367707D02*
Y368907D01*
X424394Y367307D02*
X426394D01*
Y369307D01*
X424394D02*
X426394D01*
X424394Y367307D02*
Y369307D01*
X425089Y355601D02*
X426289D01*
Y356801D01*
X425089D02*
X426289D01*
X425089Y355601D02*
Y356801D01*
X424689Y355201D02*
X426689D01*
Y357201D01*
X424689D02*
X426689D01*
X424689Y355201D02*
Y357201D01*
X437884Y355896D02*
X439084D01*
Y357096D01*
X437884D02*
X439084D01*
X437884Y355896D02*
Y357096D01*
X437484Y355496D02*
X439484D01*
Y357496D01*
X437484D02*
X439484D01*
X437484Y355496D02*
Y357496D01*
X487294Y448022D02*
X488494D01*
Y449222D01*
X487294D02*
X488494D01*
X487294Y448022D02*
Y449222D01*
X486894Y447622D02*
X488894D01*
Y449622D01*
X486894D02*
X488894D01*
X486894Y447622D02*
Y449622D01*
X529420Y342018D02*
X530620D01*
Y343218D01*
X529420D02*
X530620D01*
X529420Y342018D02*
Y343218D01*
X529020Y341618D02*
X531020D01*
Y343618D01*
X529020D02*
X531020D01*
X529020Y341618D02*
Y343618D01*
X392609Y371152D02*
X393809D01*
Y372352D01*
X392609D02*
X393809D01*
X392609Y371152D02*
Y372352D01*
X392209Y370752D02*
X394209D01*
Y372752D01*
X392209D02*
X394209D01*
X392209Y370752D02*
Y372752D01*
X407372Y369971D02*
X408572D01*
Y371171D01*
X407372D02*
X408572D01*
X407372Y369971D02*
Y371171D01*
X406972Y369571D02*
X408972D01*
Y371571D01*
X406972D02*
X408972D01*
X406972Y369571D02*
Y371571D01*
X395955Y353731D02*
X397155D01*
Y354931D01*
X395955D02*
X397155D01*
X395955Y353731D02*
Y354931D01*
X395555Y353331D02*
X397555D01*
Y355331D01*
X395555D02*
X397555D01*
X395555Y353331D02*
Y355331D01*
X435817Y342806D02*
X437017D01*
Y344005D01*
X435817D02*
X437017D01*
X435817Y342806D02*
Y344005D01*
X435417Y342406D02*
X437417D01*
Y344406D01*
X435417D02*
X437417D01*
X435417Y342406D02*
Y344406D01*
X235620Y186408D02*
X236821D01*
Y187608D01*
X235620D02*
X236821D01*
X235620Y186408D02*
Y187608D01*
X235221Y186008D02*
X237221D01*
Y188008D01*
X235221D02*
X237221D01*
X235221Y186008D02*
Y188008D01*
X240542Y196250D02*
X241742D01*
Y197450D01*
X240542D02*
X241742D01*
X240542Y196250D02*
Y197450D01*
X240142Y195850D02*
X242142D01*
Y197850D01*
X240142D02*
X242142D01*
X240142Y195850D02*
Y197850D01*
X245463Y166723D02*
X246663D01*
Y167923D01*
X245463D02*
X246663D01*
X245463Y166723D02*
Y167923D01*
X245063Y166323D02*
X247063D01*
Y168323D01*
X245063D02*
X247063D01*
X245063Y166323D02*
Y168323D01*
X245463Y186408D02*
X246663D01*
Y187608D01*
X245463D02*
X246663D01*
X245463Y186408D02*
Y187608D01*
X245063Y186008D02*
X247063D01*
Y188008D01*
X245063D02*
X247063D01*
X245063Y186008D02*
Y188008D01*
X255306Y166723D02*
X256505D01*
Y167923D01*
X255306D02*
X256505D01*
X255306Y166723D02*
Y167923D01*
X254906Y166323D02*
X256906D01*
Y168323D01*
X254906D02*
X256906D01*
X254906Y166323D02*
Y168323D01*
X265148Y166723D02*
X266348D01*
Y167923D01*
X265148D02*
X266348D01*
X265148Y166723D02*
Y167923D01*
X264748Y166323D02*
X266748D01*
Y168323D01*
X264748D02*
X266748D01*
X264748Y166323D02*
Y168323D01*
X270069Y176565D02*
X271269D01*
Y177765D01*
X270069D02*
X271269D01*
X270069Y176565D02*
Y177765D01*
X269669Y176165D02*
X271669D01*
Y178165D01*
X269669D02*
X271669D01*
X269669Y176165D02*
Y178165D01*
X274991Y166723D02*
X276191D01*
Y167923D01*
X274991D02*
X276191D01*
X274991Y166723D02*
Y167923D01*
X274591Y166323D02*
X276591D01*
Y168323D01*
X274591D02*
X276591D01*
X274591Y166323D02*
Y168323D01*
X284833Y166723D02*
X286033D01*
Y167923D01*
X284833D02*
X286033D01*
X284833Y166723D02*
Y167923D01*
X284433Y166323D02*
X286433D01*
Y168323D01*
X284433D02*
X286433D01*
X284433Y166323D02*
Y168323D01*
X284833Y186408D02*
X286033D01*
Y187608D01*
X284833D02*
X286033D01*
X284833Y186408D02*
Y187608D01*
X284433Y186008D02*
X286433D01*
Y188008D01*
X284433D02*
X286433D01*
X284433Y186008D02*
Y188008D01*
X284833Y206093D02*
X286033D01*
Y207293D01*
X284833D02*
X286033D01*
X284833Y206093D02*
Y207293D01*
X284433Y205693D02*
X286433D01*
Y207693D01*
X284433D02*
X286433D01*
X284433Y205693D02*
Y207693D01*
X289754Y215935D02*
X290954D01*
Y217135D01*
X289754D02*
X290954D01*
X289754Y215935D02*
Y217135D01*
X289354Y215535D02*
X291354D01*
Y217535D01*
X289354D02*
X291354D01*
X289354Y215535D02*
Y217535D01*
X294676Y166723D02*
X295876D01*
Y167923D01*
X294676D02*
X295876D01*
X294676Y166723D02*
Y167923D01*
X294276Y166323D02*
X296276D01*
Y168323D01*
X294276D02*
X296276D01*
X294276Y166323D02*
Y168323D01*
X294676Y186408D02*
X295876D01*
Y187608D01*
X294676D02*
X295876D01*
X294676Y186408D02*
Y187608D01*
X294276Y186008D02*
X296276D01*
Y188008D01*
X294276D02*
X296276D01*
X294276Y186008D02*
Y188008D01*
X299597Y196250D02*
X300797D01*
Y197450D01*
X299597D02*
X300797D01*
X299597Y196250D02*
Y197450D01*
X299197Y195850D02*
X301197D01*
Y197850D01*
X299197D02*
X301197D01*
X299197Y195850D02*
Y197850D01*
X294676Y206093D02*
X295876D01*
Y207293D01*
X294676D02*
X295876D01*
X294676Y206093D02*
Y207293D01*
X294276Y205693D02*
X296276D01*
Y207693D01*
X294276D02*
X296276D01*
X294276Y205693D02*
Y207693D01*
X299597Y215935D02*
X300797D01*
Y217135D01*
X299597D02*
X300797D01*
X299597Y215935D02*
Y217135D01*
X299197Y215535D02*
X301197D01*
Y217535D01*
X299197D02*
X301197D01*
X299197Y215535D02*
Y217535D01*
X304518Y166723D02*
X305718D01*
Y167923D01*
X304518D02*
X305718D01*
X304518Y166723D02*
Y167923D01*
X304118Y166323D02*
X306118D01*
Y168323D01*
X304118D02*
X306118D01*
X304118Y166323D02*
Y168323D01*
X309439Y176565D02*
X310639D01*
Y177765D01*
X309439D02*
X310639D01*
X309439Y176565D02*
Y177765D01*
X309039Y176165D02*
X311039D01*
Y178165D01*
X309039D02*
X311039D01*
X309039Y176165D02*
Y178165D01*
X304518Y186408D02*
X305718D01*
Y187608D01*
X304518D02*
X305718D01*
X304518Y186408D02*
Y187608D01*
X304118Y186008D02*
X306118D01*
Y188008D01*
X304118D02*
X306118D01*
X304118Y186008D02*
Y188008D01*
X309439Y196250D02*
X310639D01*
Y197450D01*
X309439D02*
X310639D01*
X309439Y196250D02*
Y197450D01*
X309039Y195850D02*
X311039D01*
Y197850D01*
X309039D02*
X311039D01*
X309039Y195850D02*
Y197850D01*
X304518Y206093D02*
X305718D01*
Y207293D01*
X304518D02*
X305718D01*
X304518Y206093D02*
Y207293D01*
X304118Y205693D02*
X306118D01*
Y207693D01*
X304118D02*
X306118D01*
X304118Y205693D02*
Y207693D01*
X309439Y215935D02*
X310639D01*
Y217135D01*
X309439D02*
X310639D01*
X309439Y215935D02*
Y217135D01*
X309039Y215535D02*
X311039D01*
Y217535D01*
X309039D02*
X311039D01*
X309039Y215535D02*
Y217535D01*
X314361Y166723D02*
X315561D01*
Y167923D01*
X314361D02*
X315561D01*
X314361Y166723D02*
Y167923D01*
X313961Y166323D02*
X315961D01*
Y168323D01*
X313961D02*
X315961D01*
X313961Y166323D02*
Y168323D01*
X324203Y166723D02*
X325403D01*
Y167923D01*
X324203D02*
X325403D01*
X324203Y166723D02*
Y167923D01*
X323803Y166323D02*
X325803D01*
Y168323D01*
X323803D02*
X325803D01*
X323803Y166323D02*
Y168323D01*
X324203Y186408D02*
X325403D01*
Y187608D01*
X324203D02*
X325403D01*
X324203Y186408D02*
Y187608D01*
X323803Y186008D02*
X325803D01*
Y188008D01*
X323803D02*
X325803D01*
X323803Y186008D02*
Y188008D01*
X334046Y166723D02*
X335246D01*
Y167923D01*
X334046D02*
X335246D01*
X334046Y166723D02*
Y167923D01*
X333646Y166323D02*
X335646D01*
Y168323D01*
X333646D02*
X335646D01*
X333646Y166323D02*
Y168323D01*
X343888Y166723D02*
X345088D01*
Y167923D01*
X343888D02*
X345088D01*
X343888Y166723D02*
Y167923D01*
X343488Y166323D02*
X345488D01*
Y168323D01*
X343488D02*
X345488D01*
X343488Y166323D02*
Y168323D01*
X348810Y176565D02*
X350009D01*
Y177765D01*
X348810D02*
X350009D01*
X348810Y176565D02*
Y177765D01*
X348410Y176165D02*
X350410D01*
Y178165D01*
X348410D02*
X350410D01*
X348410Y176165D02*
Y178165D01*
X353731Y166723D02*
X354931D01*
Y167923D01*
X353731D02*
X354931D01*
X353731Y166723D02*
Y167923D01*
X353331Y166323D02*
X355331D01*
Y168323D01*
X353331D02*
X355331D01*
X353331Y166323D02*
Y168323D01*
X358652Y176565D02*
X359852D01*
Y177765D01*
X358652D02*
X359852D01*
X358652Y176565D02*
Y177765D01*
X358252Y176165D02*
X360252D01*
Y178165D01*
X358252D02*
X360252D01*
X358252Y176165D02*
Y178165D01*
X353731Y186408D02*
X354931D01*
Y187608D01*
X353731D02*
X354931D01*
X353731Y186408D02*
Y187608D01*
X353331Y186008D02*
X355331D01*
Y188008D01*
X353331D02*
X355331D01*
X353331Y186008D02*
Y188008D01*
X363573Y166723D02*
X364773D01*
Y167923D01*
X363573D02*
X364773D01*
X363573Y166723D02*
Y167923D01*
X363173Y166323D02*
X365173D01*
Y168323D01*
X363173D02*
X365173D01*
X363173Y166323D02*
Y168323D01*
X363573Y186408D02*
X364773D01*
Y187608D01*
X363573D02*
X364773D01*
X363573Y186408D02*
Y187608D01*
X363173Y186008D02*
X365173D01*
Y188008D01*
X363173D02*
X365173D01*
X363173Y186008D02*
Y188008D01*
X363573Y206093D02*
X364773D01*
Y207293D01*
X363573D02*
X364773D01*
X363573Y206093D02*
Y207293D01*
X363173Y205693D02*
X365173D01*
Y207693D01*
X363173D02*
X365173D01*
X363173Y205693D02*
Y207693D01*
X368495Y215935D02*
X369694D01*
Y217135D01*
X368495D02*
X369694D01*
X368495Y215935D02*
Y217135D01*
X368094Y215535D02*
X370094D01*
Y217535D01*
X368094D02*
X370094D01*
X368094Y215535D02*
Y217535D01*
X373416Y166723D02*
X374616D01*
Y167923D01*
X373416D02*
X374616D01*
X373416Y166723D02*
Y167923D01*
X373016Y166323D02*
X375016D01*
Y168323D01*
X373016D02*
X375016D01*
X373016Y166323D02*
Y168323D01*
X373416Y186408D02*
X374616D01*
Y187608D01*
X373416D02*
X374616D01*
X373416Y186408D02*
Y187608D01*
X373016Y186008D02*
X375016D01*
Y188008D01*
X373016D02*
X375016D01*
X373016Y186008D02*
Y188008D01*
X378337Y196250D02*
X379537D01*
Y197450D01*
X378337D02*
X379537D01*
X378337Y196250D02*
Y197450D01*
X377937Y195850D02*
X379937D01*
Y197850D01*
X377937D02*
X379937D01*
X377937Y195850D02*
Y197850D01*
X373416Y206093D02*
X374616D01*
Y207293D01*
X373416D02*
X374616D01*
X373416Y206093D02*
Y207293D01*
X373016Y205693D02*
X375016D01*
Y207693D01*
X373016D02*
X375016D01*
X373016Y205693D02*
Y207693D01*
X378337Y215935D02*
X379537D01*
Y217135D01*
X378337D02*
X379537D01*
X378337Y215935D02*
Y217135D01*
X377937Y215535D02*
X379937D01*
Y217535D01*
X377937D02*
X379937D01*
X377937Y215535D02*
Y217535D01*
X383258Y166723D02*
X384458D01*
Y167923D01*
X383258D02*
X384458D01*
X383258Y166723D02*
Y167923D01*
X382858Y166323D02*
X384858D01*
Y168323D01*
X382858D02*
X384858D01*
X382858Y166323D02*
Y168323D01*
X388179Y176565D02*
X389380D01*
Y177765D01*
X388179D02*
X389380D01*
X388179Y176565D02*
Y177765D01*
X387779Y176165D02*
X389779D01*
Y178165D01*
X387779D02*
X389779D01*
X387779Y176165D02*
Y178165D01*
X383258Y186408D02*
X384458D01*
Y187608D01*
X383258D02*
X384458D01*
X383258Y186408D02*
Y187608D01*
X382858Y186008D02*
X384858D01*
Y188008D01*
X382858D02*
X384858D01*
X382858Y186008D02*
Y188008D01*
X388179Y196250D02*
X389380D01*
Y197450D01*
X388179D02*
X389380D01*
X388179Y196250D02*
Y197450D01*
X387779Y195850D02*
X389779D01*
Y197850D01*
X387779D02*
X389779D01*
X387779Y195850D02*
Y197850D01*
X383258Y206093D02*
X384458D01*
Y207293D01*
X383258D02*
X384458D01*
X383258Y206093D02*
Y207293D01*
X382858Y205693D02*
X384858D01*
Y207693D01*
X382858D02*
X384858D01*
X382858Y205693D02*
Y207693D01*
X388179Y215935D02*
X389380D01*
Y217135D01*
X388179D02*
X389380D01*
X388179Y215935D02*
Y217135D01*
X387779Y215535D02*
X389779D01*
Y217535D01*
X387779D02*
X389779D01*
X387779Y215535D02*
Y217535D01*
X393101Y166723D02*
X394301D01*
Y167923D01*
X393101D02*
X394301D01*
X393101Y166723D02*
Y167923D01*
X392701Y166323D02*
X394701D01*
Y168323D01*
X392701D02*
X394701D01*
X392701Y166323D02*
Y168323D01*
X398022Y176565D02*
X399222D01*
Y177765D01*
X398022D02*
X399222D01*
X398022Y176565D02*
Y177765D01*
X397622Y176165D02*
X399622D01*
Y178165D01*
X397622D02*
X399622D01*
X397622Y176165D02*
Y178165D01*
X402943Y166723D02*
X404143D01*
Y167923D01*
X402943D02*
X404143D01*
X402943Y166723D02*
Y167923D01*
X402543Y166323D02*
X404543D01*
Y168323D01*
X402543D02*
X404543D01*
X402543Y166323D02*
Y168323D01*
X402943Y186408D02*
X404143D01*
Y187608D01*
X402943D02*
X404143D01*
X402943Y186408D02*
Y187608D01*
X402543Y186008D02*
X404543D01*
Y188008D01*
X402543D02*
X404543D01*
X402543Y186008D02*
Y188008D01*
X412786Y166723D02*
X413986D01*
Y167923D01*
X412786D02*
X413986D01*
X412786Y166723D02*
Y167923D01*
X412386Y166323D02*
X414386D01*
Y168323D01*
X412386D02*
X414386D01*
X412386Y166323D02*
Y168323D01*
X422628Y166723D02*
X423828D01*
Y167923D01*
X422628D02*
X423828D01*
X422628Y166723D02*
Y167923D01*
X422228Y166323D02*
X424228D01*
Y168323D01*
X422228D02*
X424228D01*
X422228Y166323D02*
Y168323D01*
X432471Y166723D02*
X433671D01*
Y167923D01*
X432471D02*
X433671D01*
X432471Y166723D02*
Y167923D01*
X432071Y166323D02*
X434071D01*
Y168323D01*
X432071D02*
X434071D01*
X432071Y166323D02*
Y168323D01*
X437392Y176565D02*
X438592D01*
Y177765D01*
X437392D02*
X438592D01*
X437392Y176565D02*
Y177765D01*
X436992Y176165D02*
X438992D01*
Y178165D01*
X436992D02*
X438992D01*
X436992Y176165D02*
Y178165D01*
X442313Y166723D02*
X443513D01*
Y167923D01*
X442313D02*
X443513D01*
X442313Y166723D02*
Y167923D01*
X441913Y166323D02*
X443913D01*
Y168323D01*
X441913D02*
X443913D01*
X441913Y166323D02*
Y168323D01*
X442313Y186408D02*
X443513D01*
Y187608D01*
X442313D02*
X443513D01*
X442313Y186408D02*
Y187608D01*
X441913Y186008D02*
X443913D01*
Y188008D01*
X441913D02*
X443913D01*
X441913Y186008D02*
Y188008D01*
X447235Y196250D02*
X448435D01*
Y197450D01*
X447235D02*
X448435D01*
X447235Y196250D02*
Y197450D01*
X446835Y195850D02*
X448835D01*
Y197850D01*
X446835D02*
X448835D01*
X446835Y195850D02*
Y197850D01*
X442313Y206093D02*
X443513D01*
Y207293D01*
X442313D02*
X443513D01*
X442313Y206093D02*
Y207293D01*
X441913Y205693D02*
X443913D01*
Y207693D01*
X441913D02*
X443913D01*
X441913Y205693D02*
Y207693D01*
X447235Y215935D02*
X448435D01*
Y217135D01*
X447235D02*
X448435D01*
X447235Y215935D02*
Y217135D01*
X446835Y215535D02*
X448835D01*
Y217535D01*
X446835D02*
X448835D01*
X446835Y215535D02*
Y217535D01*
X452156Y166723D02*
X453356D01*
Y167923D01*
X452156D02*
X453356D01*
X452156Y166723D02*
Y167923D01*
X451756Y166323D02*
X453756D01*
Y168323D01*
X451756D02*
X453756D01*
X451756Y166323D02*
Y168323D01*
X457077Y196250D02*
X458277D01*
Y197450D01*
X457077D02*
X458277D01*
X457077Y196250D02*
Y197450D01*
X456677Y195850D02*
X458677D01*
Y197850D01*
X456677D02*
X458677D01*
X456677Y195850D02*
Y197850D01*
X452156Y206093D02*
X453356D01*
Y207293D01*
X452156D02*
X453356D01*
X452156Y206093D02*
Y207293D01*
X451756Y205693D02*
X453756D01*
Y207693D01*
X451756D02*
X453756D01*
X451756Y205693D02*
Y207693D01*
X457077Y215935D02*
X458277D01*
Y217135D01*
X457077D02*
X458277D01*
X457077Y215935D02*
Y217135D01*
X456677Y215535D02*
X458677D01*
Y217535D01*
X456677D02*
X458677D01*
X456677Y215535D02*
Y217535D01*
X461998Y186408D02*
X463198D01*
Y187608D01*
X461998D02*
X463198D01*
X461998Y186408D02*
Y187608D01*
X461598Y186008D02*
X463598D01*
Y188008D01*
X461598D02*
X463598D01*
X461598Y186008D02*
Y188008D01*
X466920Y196250D02*
X468120D01*
Y197450D01*
X466920D02*
X468120D01*
X466920Y196250D02*
Y197450D01*
X466520Y195850D02*
X468520D01*
Y197850D01*
X466520D02*
X468520D01*
X466520Y195850D02*
Y197850D01*
X461998Y206093D02*
X463198D01*
Y207293D01*
X461998D02*
X463198D01*
X461998Y206093D02*
Y207293D01*
X461598Y205693D02*
X463598D01*
Y207693D01*
X461598D02*
X463598D01*
X461598Y205693D02*
Y207693D01*
X466920Y215935D02*
X468120D01*
Y217135D01*
X466920D02*
X468120D01*
X466920Y215935D02*
Y217135D01*
X466520Y215535D02*
X468520D01*
Y217535D01*
X466520D02*
X468520D01*
X466520Y215535D02*
Y217535D01*
X491526Y166723D02*
X492726D01*
Y167923D01*
X491526D02*
X492726D01*
X491526Y166723D02*
Y167923D01*
X491126Y166323D02*
X493126D01*
Y168323D01*
X491126D02*
X493126D01*
X491126Y166323D02*
Y168323D01*
X501369Y166723D02*
X502568D01*
Y167923D01*
X501369D02*
X502568D01*
X501369Y166723D02*
Y167923D01*
X500969Y166323D02*
X502969D01*
Y168323D01*
X500969D02*
X502969D01*
X500969Y166323D02*
Y168323D01*
X501369Y186408D02*
X502568D01*
Y187608D01*
X501369D02*
X502568D01*
X501369Y186408D02*
Y187608D01*
X500969Y186008D02*
X502969D01*
Y188008D01*
X500969D02*
X502969D01*
X500969Y186008D02*
Y188008D01*
X511211Y166723D02*
X512411D01*
Y167923D01*
X511211D02*
X512411D01*
X511211Y166723D02*
Y167923D01*
X510811Y166323D02*
X512811D01*
Y168323D01*
X510811D02*
X512811D01*
X510811Y166323D02*
Y168323D01*
X516132Y176565D02*
X517332D01*
Y177765D01*
X516132D02*
X517332D01*
X516132Y176565D02*
Y177765D01*
X515732Y176165D02*
X517732D01*
Y178165D01*
X515732D02*
X517732D01*
X515732Y176165D02*
Y178165D01*
X516132Y196250D02*
X517332D01*
Y197450D01*
X516132D02*
X517332D01*
X516132Y196250D02*
Y197450D01*
X515732Y195850D02*
X517732D01*
Y197850D01*
X515732D02*
X517732D01*
X515732Y195850D02*
Y197850D01*
X516132Y215935D02*
X517332D01*
Y217135D01*
X516132D02*
X517332D01*
X516132Y215935D02*
Y217135D01*
X515732Y215535D02*
X517732D01*
Y217535D01*
X515732D02*
X517732D01*
X515732Y215535D02*
Y217535D01*
X521054Y166723D02*
X522254D01*
Y167923D01*
X521054D02*
X522254D01*
X521054Y166723D02*
Y167923D01*
X520654Y166323D02*
X522654D01*
Y168323D01*
X520654D02*
X522654D01*
X520654Y166323D02*
Y168323D01*
X521054Y186408D02*
X522254D01*
Y187608D01*
X521054D02*
X522254D01*
X521054Y186408D02*
Y187608D01*
X520654Y186008D02*
X522654D01*
Y188008D01*
X520654D02*
X522654D01*
X520654Y186008D02*
Y188008D01*
X521054Y206093D02*
X522254D01*
Y207293D01*
X521054D02*
X522254D01*
X521054Y206093D02*
Y207293D01*
X520654Y205693D02*
X522654D01*
Y207693D01*
X520654D02*
X522654D01*
X520654Y205693D02*
Y207693D01*
X510817Y426762D02*
X512017D01*
Y427962D01*
X510817D02*
X512017D01*
X510817Y426762D02*
Y427962D01*
X510417Y426362D02*
X512417D01*
Y428362D01*
X510417D02*
X512417D01*
X510417Y426362D02*
Y428362D01*
X499302Y426861D02*
X500502D01*
Y428061D01*
X499302D02*
X500502D01*
X499302Y426861D02*
Y428061D01*
X498902Y426461D02*
X500902D01*
Y428461D01*
X498902D02*
X500902D01*
X498902Y426461D02*
Y428461D01*
X508061Y432372D02*
X509261D01*
Y433572D01*
X508061D02*
X509261D01*
X508061Y432372D02*
Y433572D01*
X507661Y431972D02*
X509661D01*
Y433972D01*
X507661D02*
X509661D01*
X507661Y431972D02*
Y433972D01*
X455693Y427012D02*
X457693D01*
Y429012D01*
X455693D02*
X457693D01*
X455693Y427012D02*
Y429012D01*
Y407799D02*
X457693D01*
Y409799D01*
X455693D02*
X457693D01*
X455693Y407799D02*
Y409799D01*
X534547Y424597D02*
X535147Y425797D01*
X533947D02*
X535147D01*
X533947D02*
X534547Y424597D01*
Y424197D02*
X535547Y426197D01*
X533547D02*
X535547D01*
X533547D02*
X534547Y424197D01*
X279453Y416331D02*
X279953D01*
X279453D02*
Y417331D01*
X279953D01*
Y417831D01*
X280953D01*
Y417331D02*
Y417831D01*
Y417331D02*
X281453D01*
Y416331D02*
Y417331D01*
X280953Y416331D02*
X281453D01*
X280953Y415831D02*
Y416331D01*
X279953Y415831D02*
X280953D01*
X279953D02*
Y416331D01*
X279453Y428142D02*
X279953D01*
X279453D02*
Y429142D01*
X279953D01*
Y429642D01*
X280953D01*
Y429142D02*
Y429642D01*
Y429142D02*
X281453D01*
Y428142D02*
Y429142D01*
X280953Y428142D02*
X281453D01*
X280953Y427642D02*
Y428142D01*
X279953Y427642D02*
X280953D01*
X279953D02*
Y428142D01*
X279453Y439953D02*
X279953D01*
X279453D02*
Y440953D01*
X279953D01*
Y441453D01*
X280953D01*
Y440953D02*
Y441453D01*
Y440953D02*
X281453D01*
Y439953D02*
Y440953D01*
X280953Y439953D02*
X281453D01*
X280953Y439453D02*
Y439953D01*
X279953Y439453D02*
X280953D01*
X279953D02*
Y439953D01*
X267642D02*
X268142D01*
X267642D02*
Y440953D01*
X268142D01*
Y441453D01*
X269142D01*
Y440953D02*
Y441453D01*
Y440953D02*
X269642D01*
Y439953D02*
Y440953D01*
X269142Y439953D02*
X269642D01*
X269142Y439453D02*
Y439953D01*
X268142Y439453D02*
X269142D01*
X268142D02*
Y439953D01*
X267642Y416331D02*
X268142D01*
X267642D02*
Y417331D01*
X268142D01*
Y417831D01*
X269142D01*
Y417331D02*
Y417831D01*
Y417331D02*
X269642D01*
Y416331D02*
Y417331D01*
X269142Y416331D02*
X269642D01*
X269142Y415831D02*
Y416331D01*
X268142Y415831D02*
X269142D01*
X268142D02*
Y416331D01*
X267642Y428142D02*
X268142D01*
X267642D02*
Y429142D01*
X268142D01*
Y429642D01*
X269142D01*
Y429142D02*
Y429642D01*
Y429142D02*
X269642D01*
Y428142D02*
Y429142D01*
X269142Y428142D02*
X269642D01*
X269142Y427642D02*
Y428142D01*
X268142Y427642D02*
X269142D01*
X268142D02*
Y428142D01*
X250634Y427642D02*
Y428142D01*
X251134Y428642D01*
X250634Y429142D02*
X251134Y428642D01*
X250634Y429142D02*
Y429642D01*
X251134D01*
X251634Y429142D01*
X252134Y429642D01*
X252634D01*
Y429142D02*
Y429642D01*
X252134Y428642D02*
X252634Y429142D01*
X252134Y428642D02*
X252634Y428142D01*
Y427642D02*
Y428142D01*
X252134Y427642D02*
X252634D01*
X251634Y428142D02*
X252134Y427642D01*
X251134D02*
X251634Y428142D01*
X250634Y427642D02*
X251134D01*
X284941Y330989D02*
X285941Y332989D01*
X283941D02*
X285941D01*
X283941D02*
X284941Y330989D01*
Y317210D02*
X285941Y319210D01*
X283941D02*
X285941D01*
X283941D02*
X284941Y317210D01*
Y303430D02*
X285941Y305430D01*
X283941D02*
X285941D01*
X283941D02*
X284941Y303430D01*
X252799Y317210D02*
X253799Y317710D01*
X254799Y317210D01*
X254299Y318210D02*
X254799Y317210D01*
X254299Y318210D02*
X254799Y319210D01*
X253799Y318710D02*
X254799Y319210D01*
X252799D02*
X253799Y318710D01*
X252799Y319210D02*
X253299Y318210D01*
X252799Y317210D02*
X253299Y318210D01*
X393980Y494783D02*
X394980Y493784D01*
X395980Y494783D01*
X394980Y495784D02*
X395980Y494783D01*
X393980D02*
X394980Y495784D01*
X383980Y494783D02*
X384980Y493784D01*
X385980Y494783D01*
X384980Y495784D02*
X385980Y494783D01*
X383980D02*
X384980Y495784D01*
X403980Y494783D02*
X404980Y493784D01*
X405980Y494783D01*
X404980Y495784D02*
X405980Y494783D01*
X403980D02*
X404980Y495784D01*
X413980Y494783D02*
X414980Y493784D01*
X415980Y494783D01*
X414980Y495784D02*
X415980Y494783D01*
X413980D02*
X414980Y495784D01*
X279413Y362394D02*
X279913D01*
X279413D02*
Y363394D01*
X279913D01*
Y363894D01*
X280913D01*
Y363394D02*
Y363894D01*
Y363394D02*
X281413D01*
Y362394D02*
Y363394D01*
X280913Y362394D02*
X281413D01*
X280913Y361894D02*
Y362394D01*
X279913Y361894D02*
X280913D01*
X279913D02*
Y362394D01*
X279413Y374205D02*
X279913D01*
X279413D02*
Y375205D01*
X279913D01*
Y375705D01*
X280913D01*
Y375205D02*
Y375705D01*
Y375205D02*
X281413D01*
Y374205D02*
Y375205D01*
X280913Y374205D02*
X281413D01*
X280913Y373705D02*
Y374205D01*
X279913Y373705D02*
X280913D01*
X279913D02*
Y374205D01*
X279413Y386016D02*
X279913D01*
X279413D02*
Y387016D01*
X279913D01*
Y387516D01*
X280913D01*
Y387016D02*
Y387516D01*
Y387016D02*
X281413D01*
Y386016D02*
Y387016D01*
X280913Y386016D02*
X281413D01*
X280913Y385516D02*
Y386016D01*
X279913Y385516D02*
X280913D01*
X279913D02*
Y386016D01*
X267602D02*
X268102D01*
X267602D02*
Y387016D01*
X268102D01*
Y387516D01*
X269102D01*
Y387016D02*
Y387516D01*
Y387016D02*
X269602D01*
Y386016D02*
Y387016D01*
X269102Y386016D02*
X269602D01*
X269102Y385516D02*
Y386016D01*
X268102Y385516D02*
X269102D01*
X268102D02*
Y386016D01*
X267602Y362394D02*
X268102D01*
X267602D02*
Y363394D01*
X268102D01*
Y363894D01*
X269102D01*
Y363394D02*
Y363894D01*
Y363394D02*
X269602D01*
Y362394D02*
Y363394D01*
X269102Y362394D02*
X269602D01*
X269102Y361894D02*
Y362394D01*
X268102Y361894D02*
X269102D01*
X268102D02*
Y362394D01*
X267602Y374205D02*
X268102D01*
X267602D02*
Y375205D01*
X268102D01*
Y375705D01*
X269102D01*
Y375205D02*
Y375705D01*
Y375205D02*
X269602D01*
Y374205D02*
Y375205D01*
X269102Y374205D02*
X269602D01*
X269102Y373705D02*
Y374205D01*
X268102Y373705D02*
X269102D01*
X268102D02*
Y374205D01*
X250594Y373705D02*
Y374205D01*
X251095Y374705D01*
X250594Y375205D02*
X251095Y374705D01*
X250594Y375205D02*
Y375705D01*
X251095D01*
X251594Y375205D01*
X252095Y375705D01*
X252594D01*
Y375205D02*
Y375705D01*
X252095Y374705D02*
X252594Y375205D01*
X252095Y374705D02*
X252594Y374205D01*
Y373705D02*
Y374205D01*
X252095Y373705D02*
X252594D01*
X251594Y374205D02*
X252095Y373705D01*
X251095D02*
X251594Y374205D01*
X250594Y373705D02*
X251095D01*
X284882Y124591D02*
X285882Y126591D01*
X283882D02*
X285882D01*
X283882D02*
X284882Y124591D01*
Y110811D02*
X285882Y112811D01*
X283882D02*
X285882D01*
X283882D02*
X284882Y110811D01*
Y97031D02*
X285882Y99031D01*
X283882D02*
X285882D01*
X283882D02*
X284882Y97031D01*
X252740Y110811D02*
X253740Y111311D01*
X254740Y110811D01*
X254240Y111811D02*
X254740Y110811D01*
X254240Y111811D02*
X254740Y112811D01*
X253740Y112311D02*
X254740Y112811D01*
X252740D02*
X253740Y112311D01*
X252740Y112811D02*
X253240Y111811D01*
X252740Y110811D02*
X253240Y111811D01*
X502224Y97031D02*
X503224Y99032D01*
X501224D02*
X503224D01*
X501224D02*
X502224Y97031D01*
Y110811D02*
X503224Y112811D01*
X501224D02*
X503224D01*
X501224D02*
X502224Y110811D01*
Y124591D02*
X503224Y126591D01*
X501224D02*
X503224D01*
X501224D02*
X502224Y124591D01*
X532366Y110811D02*
X533366Y111311D01*
X534366Y110811D01*
X533866Y111811D02*
X534366Y110811D01*
X533866Y111811D02*
X534366Y112811D01*
X533366Y112311D02*
X534366Y112811D01*
X532366D02*
X533366Y112311D01*
X532366Y112811D02*
X532866Y111811D01*
X532366Y110811D02*
X532866Y111811D01*
X493603Y191342D02*
X494602Y193342D01*
X492602D02*
X494602D01*
X492602D02*
X493603Y191342D01*
X507382D02*
X508382Y193342D01*
X506382D02*
X508382D01*
X506382D02*
X507382Y191342D01*
X521162D02*
X522161Y193342D01*
X520161D02*
X522161D01*
X520161D02*
X521162Y191342D01*
X493603Y173232D02*
X494602Y175232D01*
X492602D02*
X494602D01*
X492602D02*
X493603Y173232D01*
X507382D02*
X508382Y175232D01*
X506382D02*
X508382D01*
X506382D02*
X507382Y173232D01*
X521162D02*
X522161Y175232D01*
X520161D02*
X522161D01*
X520161D02*
X521162Y173232D01*
X483260Y179323D02*
X483760Y178823D01*
X482760Y179323D02*
X483260D01*
X482760D02*
X483260Y179823D01*
X482760Y180323D02*
X483260Y179823D01*
X482760Y180323D02*
X483260D01*
X483760Y180823D01*
X484260Y180323D01*
X484760D01*
X484260Y179823D02*
X484760Y180323D01*
X484260Y179823D02*
X484760Y179323D01*
X484260D02*
X484760D01*
X483760Y178823D02*
X484260Y179323D01*
X530504D02*
X531004Y178823D01*
X530004Y179323D02*
X530504D01*
X530004D02*
X530504Y179823D01*
X530004Y180323D02*
X530504Y179823D01*
X530004Y180323D02*
X530504D01*
X531004Y180823D01*
X531504Y180323D01*
X532004D01*
X531504Y179823D02*
X532004Y180323D01*
X531504Y179823D02*
X532004Y179323D01*
X531504D02*
X532004D01*
X531004Y178823D02*
X531504Y179323D01*
X416929Y191342D02*
X417929Y193342D01*
X415929D02*
X417929D01*
X415929D02*
X416929Y191342D01*
X430709D02*
X431709Y193342D01*
X429709D02*
X431709D01*
X429709D02*
X430709Y191342D01*
X444488D02*
X445488Y193342D01*
X443488D02*
X445488D01*
X443488D02*
X444488Y191342D01*
X416929Y173232D02*
X417929Y175232D01*
X415929D02*
X417929D01*
X415929D02*
X416929Y173232D01*
X430709D02*
X431709Y175232D01*
X429709D02*
X431709D01*
X429709D02*
X430709Y173232D01*
X444488D02*
X445488Y175232D01*
X443488D02*
X445488D01*
X443488D02*
X444488Y173232D01*
X406587Y179323D02*
X407087Y178823D01*
X406087Y179323D02*
X406587D01*
X406087D02*
X406587Y179823D01*
X406087Y180323D02*
X406587Y179823D01*
X406087Y180323D02*
X406587D01*
X407087Y180823D01*
X407587Y180323D01*
X408087D01*
X407587Y179823D02*
X408087Y180323D01*
X407587Y179823D02*
X408087Y179323D01*
X407587D02*
X408087D01*
X407087Y178823D02*
X407587Y179323D01*
X453831D02*
X454331Y178823D01*
X453331Y179323D02*
X453831D01*
X453331D02*
X453831Y179823D01*
X453331Y180323D02*
X453831Y179823D01*
X453331Y180323D02*
X453831D01*
X454331Y180823D01*
X454831Y180323D01*
X455331D01*
X454831Y179823D02*
X455331Y180323D01*
X454831Y179823D02*
X455331Y179323D01*
X454831D02*
X455331D01*
X454331Y178823D02*
X454831Y179323D01*
X263583Y191342D02*
X264583Y193342D01*
X262583D02*
X264583D01*
X262583D02*
X263583Y191342D01*
X277362D02*
X278362Y193342D01*
X276362D02*
X278362D01*
X276362D02*
X277362Y191342D01*
X291142D02*
X292142Y193342D01*
X290142D02*
X292142D01*
X290142D02*
X291142Y191342D01*
X263583Y173232D02*
X264583Y175232D01*
X262583D02*
X264583D01*
X262583D02*
X263583Y173232D01*
X277362D02*
X278362Y175232D01*
X276362D02*
X278362D01*
X276362D02*
X277362Y173232D01*
X291142D02*
X292142Y175232D01*
X290142D02*
X292142D01*
X290142D02*
X291142Y173232D01*
X253240Y179323D02*
X253740Y178823D01*
X252740Y179323D02*
X253240D01*
X252740D02*
X253240Y179823D01*
X252740Y180323D02*
X253240Y179823D01*
X252740Y180323D02*
X253240D01*
X253740Y180823D01*
X254240Y180323D01*
X254740D01*
X254240Y179823D02*
X254740Y180323D01*
X254240Y179823D02*
X254740Y179323D01*
X254240D02*
X254740D01*
X253740Y178823D02*
X254240Y179323D01*
X300484D02*
X300984Y178823D01*
X299984Y179323D02*
X300484D01*
X299984D02*
X300484Y179823D01*
X299984Y180323D02*
X300484Y179823D01*
X299984Y180323D02*
X300484D01*
X300984Y180823D01*
X301484Y180323D01*
X301984D01*
X301484Y179823D02*
X301984Y180323D01*
X301484Y179823D02*
X301984Y179323D01*
X301484D02*
X301984D01*
X300984Y178823D02*
X301484Y179323D01*
X340256Y191342D02*
X341256Y193342D01*
X339256D02*
X341256D01*
X339256D02*
X340256Y191342D01*
X354035D02*
X355035Y193342D01*
X353035D02*
X355035D01*
X353035D02*
X354035Y191342D01*
X367815D02*
X368815Y193342D01*
X366815D02*
X368815D01*
X366815D02*
X367815Y191342D01*
X340256Y173232D02*
X341256Y175232D01*
X339256D02*
X341256D01*
X339256D02*
X340256Y173232D01*
X354035D02*
X355035Y175232D01*
X353035D02*
X355035D01*
X353035D02*
X354035Y173232D01*
X367815D02*
X368815Y175232D01*
X366815D02*
X368815D01*
X366815D02*
X367815Y173232D01*
X329913Y179323D02*
X330413Y178823D01*
X329413Y179323D02*
X329913D01*
X329413D02*
X329913Y179823D01*
X329413Y180323D02*
X329913Y179823D01*
X329413Y180323D02*
X329913D01*
X330413Y180823D01*
X330913Y180323D01*
X331413D01*
X330913Y179823D02*
X331413Y180323D01*
X330913Y179823D02*
X331413Y179323D01*
X330913D02*
X331413D01*
X330413Y178823D02*
X330913Y179323D01*
X377157D02*
X377658Y178823D01*
X376658Y179323D02*
X377157D01*
X376658D02*
X377157Y179823D01*
X376658Y180323D02*
X377157Y179823D01*
X376658Y180323D02*
X377157D01*
X377658Y180823D01*
X378157Y180323D01*
X378658D01*
X378157Y179823D02*
X378658Y180323D01*
X378157Y179823D02*
X378658Y179323D01*
X378157D02*
X378658D01*
X377658Y178823D02*
X378157Y179323D01*
X472460Y137119D02*
Y135119D01*
X473460D01*
X473793Y135452D01*
Y136785D01*
X473460Y137119D01*
X472460D01*
X326238D02*
Y135119D01*
X327238D01*
X327571Y135452D01*
Y136785D01*
X327238Y137119D01*
X326238D01*
X528366Y480135D02*
Y478135D01*
X529365D01*
X529699Y478469D01*
Y479801D01*
X529365Y480135D01*
X528366D01*
X257008D02*
Y478135D01*
X258007D01*
X258341Y478469D01*
Y479801D01*
X258007Y480135D01*
X257008D01*
M02*
