G04 Layer_Color=32896*
%FSLAX25Y25*%
%MOIN*%
G70*
G01*
G75*
%ADD76C,0.00787*%
%ADD143C,0.00787*%
D76*
X278131Y185531D02*
G03*
X278131Y185531I-769J0D01*
G01*
X278131Y181201D02*
G03*
X278131Y181201I-769J0D01*
G01*
X431477Y185531D02*
G03*
X431477Y185531I-769J0D01*
G01*
X431477Y181201D02*
G03*
X431477Y181201I-769J0D01*
G01*
X508151Y185531D02*
G03*
X508151Y185531I-769J0D01*
G01*
X508151Y181201D02*
G03*
X508151Y181201I-769J0D01*
G01*
X493603Y169390D02*
G03*
X498425Y174213I0J4823D01*
G01*
X490242Y170782D02*
G03*
X493603Y169390I3360J3360D01*
G01*
X498425Y192323D02*
G03*
X493603Y197146I-4823J0D01*
G01*
X493603D02*
G03*
X488780Y192323I0J-4823D01*
G01*
X507382Y197146D02*
G03*
X502559Y192323I0J-4823D01*
G01*
X512205D02*
G03*
X507382Y197146I-4823J0D01*
G01*
Y169390D02*
G03*
X512205Y174213I0J4823D01*
G01*
X502559D02*
G03*
X507382Y169390I4823J0D01*
G01*
X416929D02*
G03*
X421752Y174213I0J4823D01*
G01*
X413569Y170782D02*
G03*
X416929Y169390I3360J3360D01*
G01*
X421752Y192323D02*
G03*
X416929Y197146I-4823J0D01*
G01*
X416929D02*
G03*
X412106Y192323I0J-4823D01*
G01*
X430709Y197146D02*
G03*
X425886Y192323I0J-4823D01*
G01*
X435532D02*
G03*
X430709Y197146I-4823J0D01*
G01*
Y169390D02*
G03*
X435532Y174213I0J4823D01*
G01*
X425886D02*
G03*
X430709Y169390I4823J0D01*
G01*
X354804Y181201D02*
G03*
X354804Y181201I-769J0D01*
G01*
X354804Y185531D02*
G03*
X354804Y185531I-769J0D01*
G01*
X340256Y169390D02*
G03*
X345079Y174213I0J4823D01*
G01*
X336895Y170782D02*
G03*
X340256Y169390I3360J3360D01*
G01*
X345079Y192323D02*
G03*
X340256Y197146I-4823J0D01*
G01*
X340256D02*
G03*
X335433Y192323I0J-4823D01*
G01*
X354035Y197146D02*
G03*
X349213Y192323I0J-4823D01*
G01*
X358858D02*
G03*
X354035Y197146I-4823J0D01*
G01*
Y169390D02*
G03*
X358858Y174213I0J4823D01*
G01*
X349213D02*
G03*
X354035Y169390I4823J0D01*
G01*
X272539Y174213D02*
G03*
X277362Y169390I4823J0D01*
G01*
X277362D02*
G03*
X282185Y174213I0J4823D01*
G01*
Y192323D02*
G03*
X277362Y197146I-4823J0D01*
G01*
X277362D02*
G03*
X272539Y192323I0J-4823D01*
G01*
X263583Y197146D02*
G03*
X258760Y192323I0J-4823D01*
G01*
X268406D02*
G03*
X263583Y197146I-4823J0D01*
G01*
X260222Y170782D02*
G03*
X263583Y169390I3360J3360D01*
G01*
D02*
G03*
X268406Y174213I0J4823D01*
G01*
X286713Y460532D02*
G03*
X285236Y462008I-1476J0D01*
G01*
X279429D02*
G03*
X277953Y460532I0J-1476D01*
G01*
X511614Y462795D02*
G03*
X510138Y464272I-1476J0D01*
G01*
X504331D02*
G03*
X502854Y462795I0J-1476D01*
G01*
X360569Y120079D02*
G03*
X359093Y121555I-1476J0D01*
G01*
X353286D02*
G03*
X351810Y120079I0J-1476D01*
G01*
X446161Y122146D02*
G03*
X444685Y120669I0J-1476D01*
G01*
X453445Y120669D02*
G03*
X451968Y122146I-1476J0D01*
G01*
X279370Y111713D02*
G03*
X279370Y111713I-3445J0D01*
G01*
X279468Y97834D02*
G03*
X279468Y97834I-3445J0D01*
G01*
Y125886D02*
G03*
X279468Y125886I-3445J0D01*
G01*
X514567Y97638D02*
G03*
X514567Y97638I-3445J0D01*
G01*
Y125689D02*
G03*
X514567Y125689I-3445J0D01*
G01*
X514665Y111811D02*
G03*
X514665Y111811I-3445J0D01*
G01*
X509135Y406595D02*
G03*
X509135Y406595I-769J0D01*
G01*
X516025D02*
G03*
X516025Y406595I-769J0D01*
G01*
X261319Y416831D02*
X263386D01*
X261319Y428642D02*
X263386D01*
X300738Y187697D02*
X301033D01*
X299459Y189272D02*
X302411D01*
X297293Y190748D02*
X304281D01*
X300787D02*
Y192323D01*
X296555D02*
X300787D01*
X377411Y187697D02*
X377707D01*
X376132Y189272D02*
X379085D01*
X373967Y190748D02*
X380955D01*
X377461D02*
Y192323D01*
X373228D02*
X377461D01*
X454085Y187697D02*
X454380D01*
X452805Y189272D02*
X455758D01*
X450640Y190748D02*
X457628D01*
X454134D02*
Y192323D01*
X449902D02*
X454134D01*
X277362Y179527D02*
Y181201D01*
X280020Y185039D01*
X277362Y185531D02*
Y187106D01*
X430709Y179527D02*
Y181201D01*
X433366Y185039D01*
X430709Y185531D02*
Y187106D01*
X507382Y179527D02*
Y181201D01*
X510039Y185039D01*
X507382Y185531D02*
Y187106D01*
X354035Y185531D02*
Y187106D01*
X483612Y167323D02*
X490600D01*
X485778Y165847D02*
X488730D01*
X487057Y164272D02*
X487352D01*
X493603Y169390D02*
X493603D01*
X493603D02*
X493603D01*
X493603Y197146D02*
X493603D01*
X498425Y174213D02*
Y192323D01*
X488780Y185433D02*
Y192323D01*
X512205Y174213D02*
Y192323D01*
X507382Y169390D02*
X507382D01*
X502559Y174213D02*
Y192323D01*
X487402Y167323D02*
Y169980D01*
X489173Y171752D01*
X406939Y167323D02*
X413927D01*
X409104Y165847D02*
X412057D01*
X410384Y164272D02*
X410679D01*
X416929Y169390D02*
X416929D01*
X416929D02*
X416929D01*
X416929Y197146D02*
X416929D01*
X421752Y174213D02*
Y192323D01*
X412106Y185433D02*
Y192323D01*
X435532Y174213D02*
Y192323D01*
X430709Y169390D02*
X430709D01*
X425886Y174213D02*
Y192323D01*
X410728Y167323D02*
Y169980D01*
X412500Y171752D01*
X354036Y181201D02*
X356693Y185039D01*
X354036Y179527D02*
Y181201D01*
X330266Y167323D02*
X337254D01*
X332431Y165847D02*
X335384D01*
X333711Y164272D02*
X334006D01*
X340256Y169390D02*
X340256D01*
X340256D02*
X340256D01*
X340256Y197146D02*
X340256D01*
X345079Y174213D02*
Y192323D01*
X335433Y185433D02*
Y192323D01*
X358858Y174213D02*
Y192323D01*
X354035Y169390D02*
X354035D01*
X349213Y174213D02*
Y192323D01*
X334055Y167323D02*
Y169980D01*
X335827Y171752D01*
X257382Y169980D02*
X259154Y171752D01*
X257382Y167323D02*
Y169980D01*
X272539Y174213D02*
Y192323D01*
X277362Y169390D02*
X277362D01*
X282185Y174213D02*
Y192323D01*
X258760Y185433D02*
Y192323D01*
X268406Y174213D02*
Y192323D01*
X263583Y197146D02*
X263583D01*
X263583Y169390D02*
X263583D01*
X263583D02*
X263583D01*
X276378Y304429D02*
X279429D01*
X276378Y331988D02*
X279429D01*
X279429Y451673D02*
X282333Y450689D01*
X504331Y453937D02*
X507234Y452953D01*
X353286Y111221D02*
X356189Y110236D01*
X446161Y111811D02*
X449065Y110827D01*
X279429Y462008D02*
X285236D01*
X286713Y459547D02*
Y460532D01*
X277953Y459547D02*
Y460532D01*
Y459547D02*
X286713D01*
X285236Y450689D02*
Y459547D01*
X279429Y450689D02*
Y459547D01*
Y450689D02*
X285236D01*
X279429Y459547D02*
X285236Y457579D01*
X279429D02*
X285236Y455610D01*
X279429D02*
X285236Y453642D01*
X279429D02*
X285236Y451673D01*
X504331Y464272D02*
X510138D01*
X511614Y461811D02*
Y462795D01*
X502854Y461811D02*
Y462795D01*
Y461811D02*
X511614D01*
X510138Y452953D02*
Y461811D01*
X504331Y452953D02*
Y461811D01*
Y452953D02*
X510138D01*
X504331Y461811D02*
X510138Y459842D01*
X504331D02*
X510138Y457874D01*
X504331D02*
X510138Y455905D01*
X504331D02*
X510138Y453937D01*
X353286Y121555D02*
X359093D01*
X360569Y119095D02*
Y120079D01*
X351810Y119095D02*
Y120079D01*
Y119095D02*
X360569D01*
X359093Y110236D02*
Y119095D01*
X353286Y110236D02*
Y119095D01*
Y110236D02*
X359093D01*
X353286Y119095D02*
X359093Y117126D01*
X353286D02*
X359093Y115157D01*
X353286D02*
X359093Y113189D01*
X353286D02*
X359093Y111221D01*
X446161Y113779D02*
X451968Y111811D01*
X446161Y115748D02*
X451968Y113779D01*
X446161Y117717D02*
X451968Y115748D01*
X446161Y119685D02*
X451968Y117717D01*
X446161Y110827D02*
X451968D01*
X446161D02*
Y119685D01*
X451968Y110827D02*
Y119685D01*
X444685D02*
X453445D01*
X444685D02*
Y120669D01*
X453445Y119685D02*
Y120669D01*
X446161Y122146D02*
X451968D01*
X257037Y164272D02*
X257333D01*
X255758Y165847D02*
X258711D01*
X253592Y167323D02*
X260581D01*
X297982Y164272D02*
X298277D01*
X296703Y165847D02*
X299655D01*
X294537Y167323D02*
X301525D01*
X298031D02*
Y168602D01*
X295079Y171555D02*
X298031Y168602D01*
X374656Y164272D02*
X374951D01*
X373376Y165847D02*
X376329D01*
X371211Y167323D02*
X378199D01*
X374705D02*
Y168602D01*
X371752Y171555D02*
X374705Y168602D01*
X451329Y164272D02*
X451624D01*
X450049Y165847D02*
X453002D01*
X447884Y167323D02*
X454872D01*
X451378D02*
Y168602D01*
X448425Y171555D02*
X451378Y168602D01*
X526575Y192323D02*
X530807D01*
Y190748D02*
Y192323D01*
X527313Y190748D02*
X534301D01*
X529478Y189272D02*
X532431D01*
X530758Y187697D02*
X531053D01*
X525098Y171555D02*
X528051Y168602D01*
Y167323D02*
Y168602D01*
X524557Y167323D02*
X531545D01*
X526722Y165847D02*
X529675D01*
X528002Y164272D02*
X528297D01*
X273661Y111713D02*
X278189D01*
X275925Y109449D02*
Y113976D01*
X273760Y97834D02*
X278287D01*
X273760Y125886D02*
X278287D01*
X508858Y97638D02*
X513386D01*
X508858Y125689D02*
X513386D01*
X511221Y109547D02*
Y114075D01*
X508957Y111811D02*
X513484D01*
X276378Y299705D02*
Y331988D01*
X276279Y296555D02*
X276575D01*
X275000Y298130D02*
X277953D01*
X272835Y299606D02*
X279823D01*
X509646Y409842D02*
X515256Y406595D01*
X505709D02*
X508366D01*
X515256D02*
X517913D01*
X505709D02*
Y418209D01*
X517913Y406595D02*
Y418209D01*
X268701Y391437D02*
Y392815D01*
X280512Y391437D02*
Y392815D01*
X274606D02*
X280512D01*
X261024Y380217D02*
Y392815D01*
X274606D01*
Y381791D02*
Y392815D01*
X271358Y378543D02*
X274606Y381791D01*
X257382Y380217D02*
X264370D01*
X259547Y378740D02*
X262500D01*
X260827Y377165D02*
X261122D01*
X261221Y408366D02*
X261516D01*
X259941Y409941D02*
X262894D01*
X257776Y411417D02*
X264764D01*
X261319D02*
Y440453D01*
X263386D01*
X445112Y161369D02*
X445768Y162025D01*
X447080D01*
X447736Y161369D01*
Y158745D01*
X447080Y158089D01*
X445768D01*
X445112Y158745D01*
X441833Y162025D02*
X443145D01*
X443800Y161369D01*
Y158745D01*
X443145Y158089D01*
X441833D01*
X441177Y158745D01*
Y161369D01*
X441833Y162025D01*
X439865Y158089D02*
Y162025D01*
X437241Y158089D01*
Y162025D01*
X435929D02*
X433305D01*
X434617D01*
Y158089D01*
X431993D02*
Y160713D01*
X430681Y162025D01*
X429369Y160713D01*
Y158089D01*
Y160057D01*
X431993D01*
X425434Y161369D02*
X426090Y162025D01*
X427402D01*
X428057Y161369D01*
Y158745D01*
X427402Y158089D01*
X426090D01*
X425434Y158745D01*
X424122Y162025D02*
X421498D01*
X422810D01*
Y158089D01*
X418218Y162025D02*
X419530D01*
X420186Y161369D01*
Y158745D01*
X419530Y158089D01*
X418218D01*
X417562Y158745D01*
Y161369D01*
X418218Y162025D01*
X416250Y158089D02*
Y162025D01*
X414282D01*
X413626Y161369D01*
Y160057D01*
X414282Y159401D01*
X416250D01*
X414938D02*
X413626Y158089D01*
X431993Y155412D02*
Y151476D01*
X430025D01*
X429369Y152132D01*
Y152788D01*
X430025Y153444D01*
X431993D01*
X430025D01*
X429369Y154100D01*
Y154756D01*
X430025Y155412D01*
X431993D01*
X292356Y161369D02*
X293012Y162025D01*
X294324D01*
X294980Y161369D01*
Y158745D01*
X294324Y158089D01*
X293012D01*
X292356Y158745D01*
X289077Y162025D02*
X290389D01*
X291045Y161369D01*
Y158745D01*
X290389Y158089D01*
X289077D01*
X288421Y158745D01*
Y161369D01*
X289077Y162025D01*
X287109Y158089D02*
Y162025D01*
X284485Y158089D01*
Y162025D01*
X283173D02*
X280549D01*
X281861D01*
Y158089D01*
X279237D02*
Y160713D01*
X277925Y162025D01*
X276613Y160713D01*
Y158089D01*
Y160057D01*
X279237D01*
X272678Y161369D02*
X273334Y162025D01*
X274646D01*
X275302Y161369D01*
Y158745D01*
X274646Y158089D01*
X273334D01*
X272678Y158745D01*
X271366Y162025D02*
X268742D01*
X270054D01*
Y158089D01*
X265462Y162025D02*
X266774D01*
X267430Y161369D01*
Y158745D01*
X266774Y158089D01*
X265462D01*
X264806Y158745D01*
Y161369D01*
X265462Y162025D01*
X263494Y158089D02*
Y162025D01*
X261526D01*
X260871Y161369D01*
Y160057D01*
X261526Y159401D01*
X263494D01*
X262182D02*
X260871Y158089D01*
X279237Y155412D02*
Y151476D01*
X277270D01*
X276613Y152132D01*
Y154756D01*
X277270Y155412D01*
X279237D01*
X523360Y161369D02*
X524016Y162025D01*
X525328D01*
X525984Y161369D01*
Y158745D01*
X525328Y158089D01*
X524016D01*
X523360Y158745D01*
X520081Y162025D02*
X521393D01*
X522049Y161369D01*
Y158745D01*
X521393Y158089D01*
X520081D01*
X519425Y158745D01*
Y161369D01*
X520081Y162025D01*
X518113Y158089D02*
Y162025D01*
X515489Y158089D01*
Y162025D01*
X514177D02*
X511553D01*
X512865D01*
Y158089D01*
X510241D02*
Y160713D01*
X508929Y162025D01*
X507618Y160713D01*
Y158089D01*
Y160057D01*
X510241D01*
X503682Y161369D02*
X504338Y162025D01*
X505650D01*
X506306Y161369D01*
Y158745D01*
X505650Y158089D01*
X504338D01*
X503682Y158745D01*
X502370Y162025D02*
X499746D01*
X501058D01*
Y158089D01*
X496466Y162025D02*
X497778D01*
X498434Y161369D01*
Y158745D01*
X497778Y158089D01*
X496466D01*
X495810Y158745D01*
Y161369D01*
X496466Y162025D01*
X494498Y158089D02*
Y162025D01*
X492530D01*
X491875Y161369D01*
Y160057D01*
X492530Y159401D01*
X494498D01*
X493186D02*
X491875Y158089D01*
X510241Y151476D02*
Y154100D01*
X508929Y155412D01*
X507618Y154100D01*
Y151476D01*
Y153444D01*
X510241D01*
X514308Y402591D02*
X514964Y403247D01*
X516276D01*
X516932Y402591D01*
Y401935D01*
X516276Y401279D01*
X514964D01*
X514308Y400623D01*
Y399967D01*
X514964Y399311D01*
X516276D01*
X516932Y399967D01*
X510372Y402591D02*
X511028Y403247D01*
X512340D01*
X512996Y402591D01*
Y401935D01*
X512340Y401279D01*
X511028D01*
X510372Y400623D01*
Y399967D01*
X511028Y399311D01*
X512340D01*
X512996Y399967D01*
X509060Y399311D02*
Y403247D01*
X507092D01*
X506436Y402591D01*
Y401279D01*
X507092Y400623D01*
X509060D01*
X507748D02*
X506436Y399311D01*
X369030Y161369D02*
X369686Y162025D01*
X370998D01*
X371654Y161369D01*
Y158745D01*
X370998Y158089D01*
X369686D01*
X369030Y158745D01*
X365750Y162025D02*
X367062D01*
X367718Y161369D01*
Y158745D01*
X367062Y158089D01*
X365750D01*
X365094Y158745D01*
Y161369D01*
X365750Y162025D01*
X363782Y158089D02*
Y162025D01*
X361158Y158089D01*
Y162025D01*
X359846D02*
X357223D01*
X358534D01*
Y158089D01*
X355911D02*
Y160713D01*
X354599Y162025D01*
X353287Y160713D01*
Y158089D01*
Y160057D01*
X355911D01*
X349351Y161369D02*
X350007Y162025D01*
X351319D01*
X351975Y161369D01*
Y158745D01*
X351319Y158089D01*
X350007D01*
X349351Y158745D01*
X348039Y162025D02*
X345415D01*
X346727D01*
Y158089D01*
X342136Y162025D02*
X343447D01*
X344103Y161369D01*
Y158745D01*
X343447Y158089D01*
X342136D01*
X341480Y158745D01*
Y161369D01*
X342136Y162025D01*
X340168Y158089D02*
Y162025D01*
X338200D01*
X337544Y161369D01*
Y160057D01*
X338200Y159401D01*
X340168D01*
X338856D02*
X337544Y158089D01*
X353287Y154756D02*
X353943Y155412D01*
X355255D01*
X355911Y154756D01*
Y152132D01*
X355255Y151476D01*
X353943D01*
X353287Y152132D01*
X269817Y338239D02*
X270473Y338895D01*
X271785D01*
X272441Y338239D01*
Y335615D01*
X271785Y334959D01*
X270473D01*
X269817Y335615D01*
X266537Y338895D02*
X267849D01*
X268505Y338239D01*
Y335615D01*
X267849Y334959D01*
X266537D01*
X265881Y335615D01*
Y338239D01*
X266537Y338895D01*
X264569Y334959D02*
Y338895D01*
X261946Y334959D01*
Y338895D01*
X260634D02*
X258010D01*
X259322D01*
Y334959D01*
X256698D02*
Y337583D01*
X255386Y338895D01*
X254074Y337583D01*
Y334959D01*
Y336927D01*
X256698D01*
X250138Y338239D02*
X250794Y338895D01*
X252106D01*
X252762Y338239D01*
Y335615D01*
X252106Y334959D01*
X250794D01*
X250138Y335615D01*
X248827Y338895D02*
X246203D01*
X247515D01*
Y334959D01*
X242923Y338895D02*
X244235D01*
X244891Y338239D01*
Y335615D01*
X244235Y334959D01*
X242923D01*
X242267Y335615D01*
Y338239D01*
X242923Y338895D01*
X240955Y334959D02*
Y338895D01*
X238987D01*
X238331Y338239D01*
Y336927D01*
X238987Y336271D01*
X240955D01*
X239643D02*
X238331Y334959D01*
X264569Y328346D02*
Y332282D01*
X262602D01*
X261946Y331626D01*
Y330314D01*
X262602Y329658D01*
X264569D01*
X258666Y332282D02*
X259978D01*
X260634Y331626D01*
Y329002D01*
X259978Y328346D01*
X258666D01*
X258010Y329002D01*
Y331626D01*
X258666Y332282D01*
X256698D02*
Y328346D01*
X255386Y329658D01*
X254074Y328346D01*
Y332282D01*
X250138D02*
X252762D01*
Y328346D01*
X250138D01*
X252762Y330314D02*
X251450D01*
X248827Y328346D02*
Y332282D01*
X246859D01*
X246203Y331626D01*
Y330314D01*
X246859Y329658D01*
X248827D01*
X247515D02*
X246203Y328346D01*
X278673Y201836D02*
X279329Y201181D01*
Y199869D01*
X278673Y199213D01*
X278017D01*
X277361Y199869D01*
Y201181D01*
X276706Y201836D01*
X276050D01*
X275394Y201181D01*
Y199869D01*
X276050Y199213D01*
X279329Y205772D02*
Y203148D01*
X275394D01*
Y205772D01*
X277361Y203148D02*
Y204460D01*
X275394Y207084D02*
X279329D01*
X275394Y209708D01*
X279329D01*
X278673Y213644D02*
X279329Y212988D01*
Y211676D01*
X278673Y211020D01*
X278017D01*
X277361Y211676D01*
Y212988D01*
X276706Y213644D01*
X276050D01*
X275394Y212988D01*
Y211676D01*
X276050Y211020D01*
X279329Y217579D02*
Y214955D01*
X275394D01*
Y217579D01*
X277361Y214955D02*
Y216267D01*
X355347Y201836D02*
X356003Y201181D01*
Y199869D01*
X355347Y199213D01*
X354691D01*
X354035Y199869D01*
Y201181D01*
X353379Y201836D01*
X352723D01*
X352067Y201181D01*
Y199869D01*
X352723Y199213D01*
X356003Y205772D02*
Y203148D01*
X352067D01*
Y205772D01*
X354035Y203148D02*
Y204460D01*
X352067Y207084D02*
X356003D01*
X352067Y209708D01*
X356003D01*
X355347Y213644D02*
X356003Y212988D01*
Y211676D01*
X355347Y211020D01*
X354691D01*
X354035Y211676D01*
Y212988D01*
X353379Y213644D01*
X352723D01*
X352067Y212988D01*
Y211676D01*
X352723Y211020D01*
X356003Y217579D02*
Y214955D01*
X352067D01*
Y217579D01*
X354035Y214955D02*
Y216267D01*
X432020Y201836D02*
X432676Y201181D01*
Y199869D01*
X432020Y199213D01*
X431364D01*
X430708Y199869D01*
Y201181D01*
X430052Y201836D01*
X429396D01*
X428740Y201181D01*
Y199869D01*
X429396Y199213D01*
X432676Y205772D02*
Y203148D01*
X428740D01*
Y205772D01*
X430708Y203148D02*
Y204460D01*
X428740Y207084D02*
X432676D01*
X428740Y209708D01*
X432676D01*
X432020Y213644D02*
X432676Y212988D01*
Y211676D01*
X432020Y211020D01*
X431364D01*
X430708Y211676D01*
Y212988D01*
X430052Y213644D01*
X429396D01*
X428740Y212988D01*
Y211676D01*
X429396Y211020D01*
X432676Y217579D02*
Y214955D01*
X428740D01*
Y217579D01*
X430708Y214955D02*
Y216267D01*
X277264Y453346D02*
Y457282D01*
X275952Y455970D01*
X274640Y457282D01*
Y453346D01*
X270704Y457282D02*
X273328D01*
Y455314D01*
X272016Y455970D01*
X271360D01*
X270704Y455314D01*
Y454002D01*
X271360Y453346D01*
X272672D01*
X273328Y454002D01*
X502165Y455610D02*
Y459546D01*
X500853Y458234D01*
X499542Y459546D01*
Y455610D01*
X495606Y459546D02*
X498230D01*
Y457578D01*
X496918Y458234D01*
X496262D01*
X495606Y457578D01*
Y456266D01*
X496262Y455610D01*
X497574D01*
X498230Y456266D01*
X351121Y112894D02*
Y116829D01*
X349809Y115517D01*
X348497Y116829D01*
Y112894D01*
X344561Y116829D02*
X347185D01*
Y114862D01*
X345873Y115517D01*
X345217D01*
X344561Y114862D01*
Y113550D01*
X345217Y112894D01*
X346529D01*
X347185Y113550D01*
X443996Y113484D02*
Y117420D01*
X442684Y116108D01*
X441372Y117420D01*
Y113484D01*
X437436Y117420D02*
X440060D01*
Y115452D01*
X438748Y116108D01*
X438093D01*
X437436Y115452D01*
Y114140D01*
X438093Y113484D01*
X439404D01*
X440060Y114140D01*
X268701Y198917D02*
Y202853D01*
X266733D01*
X266077Y202197D01*
Y200885D01*
X266733Y200229D01*
X268701D01*
X264765Y202853D02*
Y198917D01*
X263453Y200229D01*
X262141Y198917D01*
Y202853D01*
X260829Y198917D02*
Y202853D01*
X258861D01*
X258205Y202197D01*
Y200885D01*
X258861Y200229D01*
X260829D01*
X259517D02*
X258205Y198917D01*
X345374D02*
Y202853D01*
X343406D01*
X342750Y202197D01*
Y200885D01*
X343406Y200229D01*
X345374D01*
X341438Y202853D02*
Y198917D01*
X340126Y200229D01*
X338814Y198917D01*
Y202853D01*
X337503Y198917D02*
Y202853D01*
X335535D01*
X334879Y202197D01*
Y200885D01*
X335535Y200229D01*
X337503D01*
X336191D02*
X334879Y198917D01*
X422047D02*
Y202853D01*
X420079D01*
X419423Y202197D01*
Y200885D01*
X420079Y200229D01*
X422047D01*
X418112Y202853D02*
Y198917D01*
X416800Y200229D01*
X415488Y198917D01*
Y202853D01*
X414176Y198917D02*
Y202853D01*
X412208D01*
X411552Y202197D01*
Y200885D01*
X412208Y200229D01*
X414176D01*
X412864D02*
X411552Y198917D01*
X498721D02*
Y202853D01*
X496753D01*
X496097Y202197D01*
Y200885D01*
X496753Y200229D01*
X498721D01*
X494785Y202853D02*
Y198917D01*
X493473Y200229D01*
X492161Y198917D01*
Y202853D01*
X490849Y198917D02*
Y202853D01*
X488881D01*
X488225Y202197D01*
Y200885D01*
X488881Y200229D01*
X490849D01*
X489537D02*
X488225Y198917D01*
X508693Y201836D02*
X509349Y201181D01*
Y199869D01*
X508693Y199213D01*
X508037D01*
X507381Y199869D01*
Y201181D01*
X506725Y201836D01*
X506069D01*
X505413Y201181D01*
Y199869D01*
X506069Y199213D01*
X509349Y205772D02*
Y203148D01*
X505413D01*
Y205772D01*
X507381Y203148D02*
Y204460D01*
X505413Y207084D02*
X509349D01*
X505413Y209708D01*
X509349D01*
X508693Y213644D02*
X509349Y212988D01*
Y211676D01*
X508693Y211020D01*
X508037D01*
X507381Y211676D01*
Y212988D01*
X506725Y213644D01*
X506069D01*
X505413Y212988D01*
Y211676D01*
X506069Y211020D01*
X509349Y217579D02*
Y214955D01*
X505413D01*
Y217579D01*
X507381Y214955D02*
Y216267D01*
X549606Y143898D02*
Y146521D01*
X548294Y147833D01*
X546982Y146521D01*
Y143898D01*
Y145865D01*
X549606D01*
X545671Y147833D02*
Y144554D01*
X545015Y143898D01*
X543703D01*
X543047Y144554D01*
Y147833D01*
X541735D02*
X539111Y143898D01*
Y147833D02*
X541735Y143898D01*
X537799Y145865D02*
X535175D01*
X533863Y147833D02*
Y143898D01*
X531895D01*
X531240Y144554D01*
Y145210D01*
X531895Y145865D01*
X533863D01*
X531895D01*
X531240Y146521D01*
Y147177D01*
X531895Y147833D01*
X533863D01*
X529928Y143898D02*
Y146521D01*
X528616Y147833D01*
X527304Y146521D01*
Y143898D01*
Y145865D01*
X529928D01*
X525992Y147833D02*
X523368D01*
X524680D01*
Y143898D01*
X522056Y145865D02*
X519432D01*
X516152Y147833D02*
X517464D01*
X518120Y147177D01*
Y144554D01*
X517464Y143898D01*
X516152D01*
X515497Y144554D01*
Y147177D01*
X516152Y147833D01*
X514185D02*
Y144554D01*
X513529Y143898D01*
X512217D01*
X511561Y144554D01*
Y147833D01*
X510249D02*
X507625D01*
X508937D01*
Y143898D01*
X275394D02*
Y146521D01*
X274082Y147833D01*
X272770Y146521D01*
Y143898D01*
Y145865D01*
X275394D01*
X271458Y147833D02*
Y144554D01*
X270802Y143898D01*
X269490D01*
X268834Y144554D01*
Y147833D01*
X267522D02*
X264898Y143898D01*
Y147833D02*
X267522Y143898D01*
X263586Y145865D02*
X260963D01*
X259651Y147833D02*
Y143898D01*
X257683D01*
X257027Y144554D01*
Y145210D01*
X257683Y145865D01*
X259651D01*
X257683D01*
X257027Y146521D01*
Y147177D01*
X257683Y147833D01*
X259651D01*
X255715Y143898D02*
Y146521D01*
X254403Y147833D01*
X253091Y146521D01*
Y143898D01*
Y145865D01*
X255715D01*
X251779Y147833D02*
X249155D01*
X250467D01*
Y143898D01*
X247844Y145865D02*
X245220D01*
X243908Y147833D02*
X242596D01*
X243252D01*
Y143898D01*
X243908D01*
X242596D01*
X240628D02*
Y147833D01*
X238004Y143898D01*
Y147833D01*
X386711Y483529D02*
Y480905D01*
X384743D01*
X385399Y482217D01*
Y482873D01*
X384743Y483529D01*
X383432D01*
X382776Y482873D01*
Y481562D01*
X383432Y480905D01*
X386711Y484841D02*
X384087D01*
X382776Y486153D01*
X384087Y487465D01*
X386711D01*
X416370Y479395D02*
X417026Y478740D01*
Y477428D01*
X416370Y476772D01*
X413747D01*
X413091Y477428D01*
Y478740D01*
X413747Y479395D01*
X415058D01*
Y478084D01*
X413091Y480707D02*
X417026D01*
X413091Y483331D01*
X417026D01*
Y484643D02*
X413091D01*
Y486611D01*
X413747Y487267D01*
X416370D01*
X417026Y486611D01*
Y484643D01*
X392717Y470865D02*
X394684Y468898D01*
X396652Y470865D01*
X392717Y474801D02*
X394684Y472833D01*
X396652Y474801D01*
X392717Y478737D02*
X394684Y476769D01*
X396652Y478737D01*
X392717Y480705D02*
X396652D01*
Y482673D01*
X395996Y483329D01*
X394684D01*
X394028Y482673D01*
Y480705D01*
Y482017D02*
X392717Y483329D01*
X396652Y484641D02*
X392717Y487264D01*
X396652D02*
X392717Y484641D01*
X403051Y470669D02*
X405019Y472637D01*
X406987Y470669D01*
X403051Y473949D02*
X405019Y475917D01*
X406987Y473949D01*
X403051Y477229D02*
X405019Y479197D01*
X406987Y477229D01*
Y480509D02*
Y483132D01*
Y481820D01*
X403051D01*
X406987Y484444D02*
X403051Y487068D01*
X406987D02*
X403051Y484444D01*
X312106Y316240D02*
X310794D01*
X311450D01*
Y320176D01*
X312106Y319520D01*
X306203Y316240D02*
X308826D01*
X306203Y318864D01*
Y319520D01*
X306859Y320176D01*
X308171D01*
X308826Y319520D01*
X304891Y320176D02*
Y317552D01*
X303579Y316240D01*
X302267Y317552D01*
Y320176D01*
X300955Y318208D02*
X298331D01*
X297019Y320176D02*
X295707D01*
X296363D01*
Y316240D01*
X297019D01*
X295707D01*
X293740D02*
Y320176D01*
X291116Y316240D01*
Y320176D01*
X539567Y438581D02*
Y434646D01*
Y436614D01*
X536943D01*
Y438581D01*
Y434646D01*
X535631Y438581D02*
Y435958D01*
X534319Y434646D01*
X533007Y435958D01*
Y438581D01*
X531695Y436614D02*
X529072D01*
X525136Y437925D02*
X525792Y438581D01*
X527104D01*
X527760Y437925D01*
Y435302D01*
X527104Y434646D01*
X525792D01*
X525136Y435302D01*
X521856Y438581D02*
X523168D01*
X523824Y437925D01*
Y435302D01*
X523168Y434646D01*
X521856D01*
X521200Y435302D01*
Y437925D01*
X521856Y438581D01*
X519888Y434646D02*
Y438581D01*
X517264Y434646D01*
Y438581D01*
X515952D02*
X513329D01*
X514641D01*
Y434646D01*
X512017D02*
Y438581D01*
X510049D01*
X509393Y437925D01*
Y436614D01*
X510049Y435958D01*
X512017D01*
X510705D02*
X509393Y434646D01*
X506113Y438581D02*
X507425D01*
X508081Y437925D01*
Y435302D01*
X507425Y434646D01*
X506113D01*
X505457Y435302D01*
Y437925D01*
X506113Y438581D01*
X504145D02*
Y434646D01*
X501521D01*
X500210Y436614D02*
X497586D01*
X494306Y438581D02*
X495618D01*
X496274Y437925D01*
Y435302D01*
X495618Y434646D01*
X494306D01*
X493650Y435302D01*
Y437925D01*
X494306Y438581D01*
X492338D02*
Y435302D01*
X491682Y434646D01*
X490370D01*
X489714Y435302D01*
Y438581D01*
X488402D02*
X485779D01*
X487090D01*
Y434646D01*
X305742Y418142D02*
X306398Y418798D01*
X307710D01*
X308366Y418142D01*
Y417486D01*
X307710Y416830D01*
X306398D01*
X305742Y416174D01*
Y415518D01*
X306398Y414862D01*
X307710D01*
X308366Y415518D01*
X304430Y414862D02*
Y417486D01*
X303118Y418798D01*
X301807Y417486D01*
Y414862D01*
Y416830D01*
X304430D01*
X297871Y418798D02*
X300495D01*
Y416830D01*
X299183D01*
X300495D01*
Y414862D01*
X293935Y418798D02*
X296559D01*
Y414862D01*
X293935D01*
X296559Y416830D02*
X295247D01*
X292623Y418798D02*
X289999D01*
X291311D01*
Y414862D01*
X288687Y418798D02*
Y418142D01*
X287375Y416830D01*
X286064Y418142D01*
Y418798D01*
X287375Y416830D02*
Y414862D01*
X320177Y431495D02*
Y427559D01*
X318209D01*
X317553Y428215D01*
Y430839D01*
X318209Y431495D01*
X320177D01*
X316241D02*
X314930D01*
X315585D01*
Y427559D01*
X316241D01*
X314930D01*
X310338Y430839D02*
X310994Y431495D01*
X312306D01*
X312962Y430839D01*
Y430183D01*
X312306Y429527D01*
X310994D01*
X310338Y428871D01*
Y428215D01*
X310994Y427559D01*
X312306D01*
X312962Y428215D01*
X306402Y430839D02*
X307058Y431495D01*
X308370D01*
X309026Y430839D01*
Y428215D01*
X308370Y427559D01*
X307058D01*
X306402Y428215D01*
X305090Y431495D02*
Y427559D01*
Y429527D01*
X302466D01*
Y431495D01*
Y427559D01*
X301154D02*
Y430183D01*
X299843Y431495D01*
X298531Y430183D01*
Y427559D01*
Y429527D01*
X301154D01*
X297219Y427559D02*
Y431495D01*
X295251D01*
X294595Y430839D01*
Y429527D01*
X295251Y428871D01*
X297219D01*
X295907D02*
X294595Y427559D01*
X290659Y430839D02*
X291315Y431495D01*
X292627D01*
X293283Y430839D01*
Y428215D01*
X292627Y427559D01*
X291315D01*
X290659Y428215D01*
Y429527D01*
X291971D01*
X286723Y431495D02*
X289347D01*
Y427559D01*
X286723D01*
X289347Y429527D02*
X288035D01*
X305349Y442453D02*
X306005Y443109D01*
X307316D01*
X307972Y442453D01*
Y439829D01*
X307316Y439173D01*
X306005D01*
X305349Y439829D01*
X304037Y443109D02*
Y439173D01*
Y441141D01*
X301413D01*
Y443109D01*
Y439173D01*
X300101D02*
Y441797D01*
X298789Y443109D01*
X297477Y441797D01*
Y439173D01*
Y441141D01*
X300101D01*
X296165Y439173D02*
Y443109D01*
X294197D01*
X293541Y442453D01*
Y441141D01*
X294197Y440485D01*
X296165D01*
X294853D02*
X293541Y439173D01*
X289606Y442453D02*
X290262Y443109D01*
X291574D01*
X292230Y442453D01*
Y439829D01*
X291574Y439173D01*
X290262D01*
X289606Y439829D01*
Y441141D01*
X290918D01*
X285670Y443109D02*
X288294D01*
Y439173D01*
X285670D01*
X288294Y441141D02*
X286982D01*
X263779Y451180D02*
Y447244D01*
X261812D01*
X261156Y447900D01*
Y448556D01*
X261812Y449212D01*
X263779D01*
X261812D01*
X261156Y449868D01*
Y450524D01*
X261812Y451180D01*
X263779D01*
X259844Y447244D02*
Y451180D01*
X258532Y449868D01*
X257220Y451180D01*
Y447244D01*
X253284Y450524D02*
X253940Y451180D01*
X255252D01*
X255908Y450524D01*
Y449868D01*
X255252Y449212D01*
X253940D01*
X253284Y448556D01*
Y447900D01*
X253940Y447244D01*
X255252D01*
X255908Y447900D01*
X251972Y449212D02*
X249348D01*
X248037Y451180D02*
X246725D01*
X247381D01*
Y447244D01*
X248037D01*
X246725D01*
X244757D02*
Y451180D01*
X242133Y447244D01*
Y451180D01*
X257809Y398851D02*
X258465Y399507D01*
X259777D01*
X260433Y398851D01*
Y396227D01*
X259777Y395571D01*
X258465D01*
X257809Y396227D01*
X256497Y395571D02*
Y398195D01*
X255185Y399507D01*
X253873Y398195D01*
Y395571D01*
Y397539D01*
X256497D01*
X252562Y395571D02*
Y399507D01*
X249938Y395571D01*
Y399507D01*
X248626D02*
Y395571D01*
X246658D01*
X246002Y396227D01*
Y396883D01*
X246658Y397539D01*
X248626D01*
X246658D01*
X246002Y398195D01*
Y398851D01*
X246658Y399507D01*
X248626D01*
X244690D02*
Y396227D01*
X244034Y395571D01*
X242722D01*
X242066Y396227D01*
Y399507D01*
X238130Y398851D02*
X238787Y399507D01*
X240098D01*
X240754Y398851D01*
Y398195D01*
X240098Y397539D01*
X238787D01*
X238130Y396883D01*
Y396227D01*
X238787Y395571D01*
X240098D01*
X240754Y396227D01*
X292618Y377361D02*
Y373425D01*
X290650D01*
X289994Y374081D01*
Y376705D01*
X290650Y377361D01*
X292618D01*
X288682Y375393D02*
X286059D01*
X292717Y365156D02*
Y361221D01*
X290749D01*
X290093Y361876D01*
Y364500D01*
X290749Y365156D01*
X292717D01*
X288781Y363188D02*
X286157D01*
X287469Y364500D02*
Y361876D01*
X262303Y361024D02*
X260991D01*
X261647D01*
Y364959D01*
X262303Y364303D01*
X256399Y361024D02*
X259023D01*
X256399Y363647D01*
Y364303D01*
X257055Y364959D01*
X258367D01*
X259023Y364303D01*
X255088Y364959D02*
Y362335D01*
X253776Y361024D01*
X252464Y362335D01*
Y364959D01*
X251152Y362991D02*
X248528D01*
X247216Y364959D02*
X245904D01*
X246560D01*
Y361024D01*
X247216D01*
X245904D01*
X243936D02*
Y364959D01*
X241313Y361024D01*
Y364959D01*
D143*
X502559Y192323D02*
D03*
X425886D02*
D03*
X349213D02*
D03*
X272539D02*
D03*
M02*
