G04 Layer_Color=8421504*
%FSLAX25Y25*%
%MOIN*%
G70*
G01*
G75*
%ADD14R,0.07874X0.06299*%
%ADD15R,0.07874X0.07874*%
%ADD16R,0.04134X0.02559*%
%ADD17R,0.03000X0.05000*%
%ADD18R,0.10512X0.10000*%
%ADD19R,0.03543X0.02756*%
%ADD20R,0.02756X0.03543*%
%ADD21R,0.04134X0.02362*%
%ADD22O,0.03150X0.01181*%
%ADD23O,0.05709X0.02362*%
%ADD24R,0.06102X0.05512*%
%ADD25R,0.02362X0.02362*%
%ADD26O,0.06496X0.02559*%
%ADD27O,0.05315X0.01181*%
%ADD28O,0.07087X0.01181*%
%ADD29O,0.01181X0.07087*%
%ADD31R,0.03150X0.01181*%
%ADD32O,0.05905X0.02362*%
%ADD33R,0.05512X0.06102*%
%ADD34R,0.13583X0.12402*%
%ADD35R,0.02559X0.04921*%
%ADD36R,0.04921X0.02559*%
%ADD37R,0.02992X0.09449*%
%ADD38R,0.04016X0.03032*%
%ADD39R,0.03032X0.04016*%
%ADD40R,0.04724X0.04921*%
%ADD41R,0.04921X0.04724*%
%ADD42R,0.02362X0.02362*%
%ADD43R,0.04921X0.07283*%
%ADD44R,0.02362X0.04134*%
%ADD45R,0.03937X0.02362*%
%ADD46O,0.06102X0.02756*%
%ADD47R,0.02362X0.03740*%
%ADD48R,0.02559X0.04724*%
%ADD49R,0.02768X0.01968*%
%ADD50R,0.04724X0.02559*%
%ADD51R,0.01968X0.02768*%
%ADD52R,0.03150X0.03150*%
%ADD53R,0.03150X0.03150*%
%ADD78R,0.04331X0.02756*%
%ADD79R,0.02756X0.04331*%
G04:AMPARAMS|DCode=80|XSize=43.31mil|YSize=27.56mil|CornerRadius=0mil|HoleSize=0mil|Usage=FLASHONLY|Rotation=315.000|XOffset=0mil|YOffset=0mil|HoleType=Round|Shape=Rectangle|*
%AMROTATEDRECTD80*
4,1,4,-0.02506,0.00557,-0.00557,0.02506,0.02506,-0.00557,0.00557,-0.02506,-0.02506,0.00557,0.0*
%
%ADD80ROTATEDRECTD80*%

%ADD81R,0.02756X0.01575*%
%ADD82R,0.02362X0.02362*%
%ADD83R,0.02362X0.02362*%
D14*
X407678Y355906D02*
D03*
Y365158D02*
D03*
D15*
X391929Y360532D02*
D03*
D16*
X439450Y472836D02*
D03*
Y468308D02*
D03*
X446340Y472836D02*
D03*
Y468308D02*
D03*
D17*
X356297Y489568D02*
D03*
X325001Y489567D02*
D03*
D18*
X347047Y489568D02*
D03*
X334251Y489567D02*
D03*
D19*
X409450Y337990D02*
D03*
Y332478D02*
D03*
X469784Y441729D02*
D03*
Y436218D02*
D03*
X488878Y350394D02*
D03*
Y344882D02*
D03*
X290616Y230020D02*
D03*
Y235531D02*
D03*
X367289Y230020D02*
D03*
Y235531D02*
D03*
X443963Y230020D02*
D03*
Y235531D02*
D03*
X520636Y230020D02*
D03*
Y235531D02*
D03*
X258169Y249726D02*
D03*
Y255238D02*
D03*
X334843Y249726D02*
D03*
Y255238D02*
D03*
X411516Y249726D02*
D03*
Y255238D02*
D03*
X488189Y249726D02*
D03*
Y255238D02*
D03*
X294488Y267520D02*
D03*
Y273031D02*
D03*
X371162Y267520D02*
D03*
Y273031D02*
D03*
X447835Y267520D02*
D03*
Y273031D02*
D03*
X524508Y267520D02*
D03*
Y273031D02*
D03*
X249311Y273031D02*
D03*
Y267520D02*
D03*
X325984Y273031D02*
D03*
Y267520D02*
D03*
X402658Y273031D02*
D03*
Y267520D02*
D03*
X479331Y273031D02*
D03*
Y267520D02*
D03*
X449214Y463091D02*
D03*
Y457579D02*
D03*
X442913Y463091D02*
D03*
Y457579D02*
D03*
X437204Y463091D02*
D03*
Y457579D02*
D03*
X414566Y460532D02*
D03*
Y466043D02*
D03*
X387049Y114370D02*
D03*
Y108858D02*
D03*
X387049Y121064D02*
D03*
Y126576D02*
D03*
X369884Y146555D02*
D03*
Y141043D02*
D03*
X377365Y146457D02*
D03*
Y140945D02*
D03*
X354921Y146573D02*
D03*
Y141061D02*
D03*
X295553Y356098D02*
D03*
Y361610D02*
D03*
Y366532D02*
D03*
Y372044D02*
D03*
X431501Y445766D02*
D03*
Y440254D02*
D03*
X346361Y396260D02*
D03*
Y401772D02*
D03*
X416580Y376670D02*
D03*
Y382182D02*
D03*
X335884Y467027D02*
D03*
Y472538D02*
D03*
X387049Y133270D02*
D03*
Y138781D02*
D03*
X362403Y146653D02*
D03*
Y141142D02*
D03*
X444291Y380906D02*
D03*
Y375394D02*
D03*
X438189Y380906D02*
D03*
Y375394D02*
D03*
X432087Y380906D02*
D03*
Y375394D02*
D03*
X425984Y380906D02*
D03*
Y375394D02*
D03*
D20*
X460039Y381595D02*
D03*
X454528D02*
D03*
X245374Y240059D02*
D03*
X250886D02*
D03*
X322047D02*
D03*
X327559D02*
D03*
X398721D02*
D03*
X404232D02*
D03*
X475394D02*
D03*
X480906D02*
D03*
X287205Y255217D02*
D03*
X292717D02*
D03*
X363878D02*
D03*
X369390D02*
D03*
X440551D02*
D03*
X446063D02*
D03*
X517224D02*
D03*
X522736D02*
D03*
X243110Y260237D02*
D03*
X248622D02*
D03*
X319783D02*
D03*
X325295D02*
D03*
X396457D02*
D03*
X401969D02*
D03*
X473130D02*
D03*
X478642D02*
D03*
X344649Y327617D02*
D03*
X339137D02*
D03*
X306972Y404722D02*
D03*
X312483D02*
D03*
X306972Y415748D02*
D03*
X312483D02*
D03*
X306972Y421652D02*
D03*
X312483D02*
D03*
X306988Y432677D02*
D03*
X312500D02*
D03*
X355020Y151870D02*
D03*
X349508D02*
D03*
X306972Y438581D02*
D03*
X312483D02*
D03*
X306972Y449606D02*
D03*
X312483D02*
D03*
X470138Y447045D02*
D03*
X464626D02*
D03*
X326575Y348964D02*
D03*
X332087D02*
D03*
X376976Y462508D02*
D03*
X371465D02*
D03*
X319291Y387403D02*
D03*
X313779D02*
D03*
X400197Y110925D02*
D03*
X394685D02*
D03*
X377852Y153660D02*
D03*
X383364D02*
D03*
X395669Y156102D02*
D03*
X390158D02*
D03*
X324098Y444095D02*
D03*
X318587D02*
D03*
X324098Y427165D02*
D03*
X318587D02*
D03*
X324098Y410236D02*
D03*
X318587D02*
D03*
X352658Y342620D02*
D03*
X358169D02*
D03*
D21*
X402461Y339270D02*
D03*
Y331789D02*
D03*
X391634D02*
D03*
Y335529D02*
D03*
Y339270D02*
D03*
D22*
X420660Y341846D02*
D03*
Y339877D02*
D03*
Y337909D02*
D03*
Y335940D02*
D03*
X433258Y341846D02*
D03*
Y339877D02*
D03*
Y337909D02*
D03*
Y335940D02*
D03*
X433268Y346768D02*
D03*
Y348737D02*
D03*
Y350705D02*
D03*
Y352674D02*
D03*
X420669Y346768D02*
D03*
Y348737D02*
D03*
Y350705D02*
D03*
Y352674D02*
D03*
D23*
X444390Y362047D02*
D03*
Y357047D02*
D03*
Y352047D02*
D03*
Y347047D02*
D03*
Y342047D02*
D03*
Y337047D02*
D03*
Y332047D02*
D03*
X465846Y362047D02*
D03*
Y357047D02*
D03*
Y352047D02*
D03*
Y347047D02*
D03*
Y342047D02*
D03*
Y337047D02*
D03*
Y332047D02*
D03*
D24*
X498524Y348819D02*
D03*
X529823D02*
D03*
X498524Y366929D02*
D03*
X529823D02*
D03*
X340748Y109744D02*
D03*
X309449D02*
D03*
X340748Y91634D02*
D03*
X309449D02*
D03*
D25*
X403929Y344979D02*
D03*
X407866D02*
D03*
X420768Y331412D02*
D03*
X424705D02*
D03*
X433563Y357202D02*
D03*
X429626D02*
D03*
X466142Y368840D02*
D03*
X462205D02*
D03*
X332087Y343845D02*
D03*
X328150D02*
D03*
X410772Y383265D02*
D03*
X406835D02*
D03*
X344488Y389021D02*
D03*
X340551D02*
D03*
X359350Y459646D02*
D03*
X363287D02*
D03*
X403291Y456889D02*
D03*
X407228D02*
D03*
X429134Y427752D02*
D03*
X425197D02*
D03*
X313622Y382284D02*
D03*
X317559D02*
D03*
X302362D02*
D03*
X306299D02*
D03*
X395276Y116930D02*
D03*
X399213D02*
D03*
D26*
X355552Y130552D02*
D03*
Y125552D02*
D03*
Y120552D02*
D03*
Y115552D02*
D03*
X377796Y130552D02*
D03*
Y125552D02*
D03*
Y120552D02*
D03*
Y115552D02*
D03*
D27*
X331852Y330458D02*
D03*
Y332426D02*
D03*
Y334395D02*
D03*
Y336363D02*
D03*
Y338332D02*
D03*
X314333Y330458D02*
D03*
Y332426D02*
D03*
Y334395D02*
D03*
Y336363D02*
D03*
Y338332D02*
D03*
D28*
X414468Y396455D02*
D03*
Y398423D02*
D03*
Y400392D02*
D03*
Y402360D02*
D03*
Y404329D02*
D03*
Y406297D02*
D03*
Y408266D02*
D03*
Y410234D02*
D03*
Y412203D02*
D03*
Y414171D02*
D03*
Y416140D02*
D03*
Y418108D02*
D03*
Y420077D02*
D03*
Y422045D02*
D03*
Y424014D02*
D03*
Y425982D02*
D03*
Y427951D02*
D03*
Y429919D02*
D03*
Y431888D02*
D03*
Y433856D02*
D03*
Y435825D02*
D03*
Y437793D02*
D03*
Y439762D02*
D03*
Y441730D02*
D03*
Y443699D02*
D03*
X355020D02*
D03*
Y441730D02*
D03*
Y439762D02*
D03*
Y437793D02*
D03*
Y435825D02*
D03*
Y433856D02*
D03*
Y431888D02*
D03*
Y429919D02*
D03*
Y427951D02*
D03*
Y425982D02*
D03*
Y424014D02*
D03*
Y422045D02*
D03*
Y420077D02*
D03*
Y418108D02*
D03*
Y416140D02*
D03*
Y414171D02*
D03*
Y412203D02*
D03*
Y410234D02*
D03*
Y408266D02*
D03*
Y406297D02*
D03*
Y404329D02*
D03*
Y402360D02*
D03*
Y400392D02*
D03*
Y398423D02*
D03*
Y396455D02*
D03*
D29*
X408366Y449801D02*
D03*
X406398D02*
D03*
X404429D02*
D03*
X402461D02*
D03*
X400492D02*
D03*
X398524D02*
D03*
X396555D02*
D03*
X394587D02*
D03*
X392618D02*
D03*
X390650D02*
D03*
X388681D02*
D03*
X386713D02*
D03*
X384744D02*
D03*
X382776D02*
D03*
X380807D02*
D03*
X378839D02*
D03*
X376870D02*
D03*
X374902D02*
D03*
X372933D02*
D03*
X370965D02*
D03*
X368996D02*
D03*
X367028D02*
D03*
X365059D02*
D03*
X363090D02*
D03*
X361122D02*
D03*
Y390352D02*
D03*
X363090D02*
D03*
X365059D02*
D03*
X367028D02*
D03*
X368996D02*
D03*
X370965D02*
D03*
X372933D02*
D03*
X374902D02*
D03*
X376870D02*
D03*
X378839D02*
D03*
X380807D02*
D03*
X382776D02*
D03*
X384744D02*
D03*
X386713D02*
D03*
X388681D02*
D03*
X390650D02*
D03*
X392618D02*
D03*
X394587D02*
D03*
X396555D02*
D03*
X398524D02*
D03*
X400492D02*
D03*
X402461D02*
D03*
X404429D02*
D03*
X406398D02*
D03*
X408366D02*
D03*
D31*
X346949Y478346D02*
D03*
Y475787D02*
D03*
Y473228D02*
D03*
X355177Y478346D02*
D03*
Y475787D02*
D03*
Y473228D02*
D03*
D32*
X302362Y376791D02*
D03*
Y371791D02*
D03*
Y366791D02*
D03*
Y361791D02*
D03*
X323622Y376791D02*
D03*
Y371791D02*
D03*
Y366791D02*
D03*
Y361791D02*
D03*
X440945Y117244D02*
D03*
Y122244D02*
D03*
Y127244D02*
D03*
Y132244D02*
D03*
Y137244D02*
D03*
Y142244D02*
D03*
Y147244D02*
D03*
Y152244D02*
D03*
X419685Y117244D02*
D03*
Y122244D02*
D03*
Y127244D02*
D03*
Y132244D02*
D03*
Y137244D02*
D03*
Y142244D02*
D03*
Y147244D02*
D03*
Y152244D02*
D03*
D33*
X470276Y485827D02*
D03*
Y454528D02*
D03*
X488386Y485827D02*
D03*
Y454528D02*
D03*
D34*
X299666Y318209D02*
D03*
Y301083D02*
D03*
D35*
X287008Y248030D02*
D03*
X290748Y242716D02*
D03*
X283268D02*
D03*
X363681Y248030D02*
D03*
X367421Y242716D02*
D03*
X359941D02*
D03*
X440354Y248030D02*
D03*
X444095Y242716D02*
D03*
X436614D02*
D03*
X517028Y248030D02*
D03*
X520768Y242716D02*
D03*
X513287D02*
D03*
X245965Y247736D02*
D03*
X242224Y253051D02*
D03*
X249705D02*
D03*
X322638Y247736D02*
D03*
X318898Y253051D02*
D03*
X326378D02*
D03*
X399311Y247736D02*
D03*
X395571Y253051D02*
D03*
X403051D02*
D03*
X475984Y247736D02*
D03*
X472244Y253051D02*
D03*
X479724D02*
D03*
D36*
X301262Y413091D02*
D03*
X295947Y409350D02*
D03*
Y416831D02*
D03*
X301262Y427068D02*
D03*
X295947Y423328D02*
D03*
Y430808D02*
D03*
X301262Y441045D02*
D03*
X295947Y437305D02*
D03*
Y444785D02*
D03*
D37*
X367933Y378937D02*
D03*
Y363583D02*
D03*
X362933Y378937D02*
D03*
Y363583D02*
D03*
X357933Y378937D02*
D03*
Y363583D02*
D03*
X352933Y378937D02*
D03*
Y363583D02*
D03*
X347933Y378937D02*
D03*
Y363583D02*
D03*
D38*
X283430Y235728D02*
D03*
Y230098D02*
D03*
X360103Y235728D02*
D03*
Y230098D02*
D03*
X436777Y235728D02*
D03*
Y230098D02*
D03*
X513450Y235728D02*
D03*
Y230098D02*
D03*
X440551Y437146D02*
D03*
Y442776D02*
D03*
D39*
X426024Y433462D02*
D03*
X431653D02*
D03*
D40*
X240944Y174213D02*
D03*
Y186221D02*
D03*
X317617Y174213D02*
D03*
Y186221D02*
D03*
X394290Y174213D02*
D03*
Y186221D02*
D03*
X470964Y174213D02*
D03*
Y186221D02*
D03*
X490945Y91339D02*
D03*
Y103347D02*
D03*
X296064Y133366D02*
D03*
Y121358D02*
D03*
X296063Y91043D02*
D03*
Y103051D02*
D03*
X296123Y341044D02*
D03*
Y329036D02*
D03*
D41*
X293603Y221674D02*
D03*
X281595D02*
D03*
X370340D02*
D03*
X358332D02*
D03*
X447013D02*
D03*
X435005D02*
D03*
X523686D02*
D03*
X511678D02*
D03*
X306851Y349018D02*
D03*
X294844D02*
D03*
D42*
X441777Y424802D02*
D03*
Y420865D02*
D03*
X441777Y412793D02*
D03*
Y416730D02*
D03*
X425496Y440118D02*
D03*
Y444055D02*
D03*
X421457Y415453D02*
D03*
Y411516D02*
D03*
X425990Y408642D02*
D03*
Y412579D02*
D03*
X341003Y472736D02*
D03*
Y468799D02*
D03*
X474904Y440059D02*
D03*
Y436122D02*
D03*
X338054Y337362D02*
D03*
Y333425D02*
D03*
X361123Y476083D02*
D03*
Y480020D02*
D03*
X447343Y117815D02*
D03*
Y121752D02*
D03*
X413286Y117913D02*
D03*
Y121850D02*
D03*
X390355Y149902D02*
D03*
Y145965D02*
D03*
D43*
X368211Y481004D02*
D03*
Y470965D02*
D03*
D44*
X395669Y133760D02*
D03*
X403150D02*
D03*
Y123327D02*
D03*
X399410D02*
D03*
X395669D02*
D03*
D45*
X395573Y149802D02*
D03*
Y146062D02*
D03*
Y142322D02*
D03*
X406400D02*
D03*
Y146062D02*
D03*
Y149802D02*
D03*
D46*
X472048Y428225D02*
D03*
Y418224D02*
D03*
X494883Y428225D02*
D03*
Y418224D02*
D03*
D47*
X520374Y384548D02*
D03*
X524114Y373722D02*
D03*
X516634D02*
D03*
D48*
X258642Y242836D02*
D03*
X263642D02*
D03*
X268642D02*
D03*
X273642D02*
D03*
X350315D02*
D03*
X345315D02*
D03*
X340315D02*
D03*
X335315D02*
D03*
X412051D02*
D03*
X417051D02*
D03*
X422051D02*
D03*
X427051D02*
D03*
X503563D02*
D03*
X498563D02*
D03*
X493563D02*
D03*
X488563D02*
D03*
D49*
X258272Y219214D02*
D03*
X263520D02*
D03*
X268764D02*
D03*
X274012D02*
D03*
X350685D02*
D03*
X345437D02*
D03*
X340193D02*
D03*
X334945D02*
D03*
X411681D02*
D03*
X416929D02*
D03*
X422173D02*
D03*
X427421D02*
D03*
X503933D02*
D03*
X498685D02*
D03*
X493441D02*
D03*
X488193D02*
D03*
D50*
X355118Y91319D02*
D03*
Y96319D02*
D03*
Y101319D02*
D03*
Y106319D02*
D03*
D51*
X378740Y90949D02*
D03*
Y96197D02*
D03*
Y101441D02*
D03*
Y106689D02*
D03*
D52*
X454331Y376083D02*
D03*
X460630D02*
D03*
X313468Y410235D02*
D03*
X307168D02*
D03*
Y427164D02*
D03*
X313468D02*
D03*
Y444095D02*
D03*
X307168D02*
D03*
X475000Y493643D02*
D03*
X483661D02*
D03*
D53*
X287204Y267126D02*
D03*
Y273425D02*
D03*
X363877D02*
D03*
Y267126D02*
D03*
X440550D02*
D03*
Y273425D02*
D03*
X517223D02*
D03*
Y267126D02*
D03*
X242016D02*
D03*
Y273425D02*
D03*
X318689D02*
D03*
Y267126D02*
D03*
X395362D02*
D03*
Y273425D02*
D03*
X472035D02*
D03*
Y267126D02*
D03*
X420079Y459941D02*
D03*
Y466240D02*
D03*
X537639Y353937D02*
D03*
Y362598D02*
D03*
X289017Y436715D02*
D03*
Y445376D02*
D03*
Y431399D02*
D03*
Y422737D02*
D03*
Y357874D02*
D03*
Y366535D02*
D03*
Y417421D02*
D03*
Y408760D02*
D03*
Y380709D02*
D03*
Y372047D02*
D03*
D78*
X320374Y449606D02*
D03*
Y432579D02*
D03*
Y415748D02*
D03*
X484719Y267323D02*
D03*
X408045D02*
D03*
X331372D02*
D03*
X254699D02*
D03*
D79*
X437205Y452952D02*
D03*
X442914D02*
D03*
X449212Y452952D02*
D03*
X522932Y260605D02*
D03*
X446259D02*
D03*
X369586D02*
D03*
X292913D02*
D03*
D80*
X348140Y334547D02*
D03*
D81*
X351063Y474213D02*
D03*
X351063Y477461D02*
D03*
D82*
X263845Y235552D02*
D03*
X263845Y231222D02*
D03*
X263845Y226891D02*
D03*
Y222560D02*
D03*
X259252Y235552D02*
D03*
X273031D02*
D03*
X268438D02*
D03*
X259252Y222560D02*
D03*
Y226891D02*
D03*
X259252Y231222D02*
D03*
X268438Y222560D02*
D03*
Y226891D02*
D03*
X268438Y231222D02*
D03*
X273031Y222560D02*
D03*
Y226891D02*
D03*
X273031Y231222D02*
D03*
X349705D02*
D03*
X349705Y226891D02*
D03*
Y222560D02*
D03*
X345111Y231222D02*
D03*
X345111Y226891D02*
D03*
Y222560D02*
D03*
X335925Y231222D02*
D03*
X335925Y226891D02*
D03*
Y222560D02*
D03*
X345111Y235552D02*
D03*
X349705D02*
D03*
X335925D02*
D03*
X340518Y222560D02*
D03*
Y226891D02*
D03*
X340518Y231222D02*
D03*
X340518Y235552D02*
D03*
X417255D02*
D03*
X417255Y231222D02*
D03*
X417255Y226891D02*
D03*
Y222560D02*
D03*
X412662Y235552D02*
D03*
X426441D02*
D03*
X421848D02*
D03*
X412662Y222560D02*
D03*
Y226891D02*
D03*
X412662Y231222D02*
D03*
X421848Y222560D02*
D03*
Y226891D02*
D03*
X421848Y231222D02*
D03*
X426441Y222560D02*
D03*
Y226891D02*
D03*
X426441Y231222D02*
D03*
X502953D02*
D03*
X502953Y226891D02*
D03*
Y222560D02*
D03*
X498360Y231222D02*
D03*
X498359Y226891D02*
D03*
Y222560D02*
D03*
X489173Y231222D02*
D03*
X489173Y226891D02*
D03*
Y222560D02*
D03*
X498359Y235552D02*
D03*
X502953D02*
D03*
X489173D02*
D03*
X493766Y222560D02*
D03*
Y226891D02*
D03*
X493766Y231222D02*
D03*
X493766Y235552D02*
D03*
D83*
X362402Y96522D02*
D03*
X366732D02*
D03*
X371063D02*
D03*
X375394D02*
D03*
X362402Y91929D02*
D03*
Y105709D02*
D03*
Y101115D02*
D03*
X375394Y91929D02*
D03*
X371063D02*
D03*
X366732D02*
D03*
X375394Y101115D02*
D03*
X371063D02*
D03*
X366732D02*
D03*
X375394Y105709D02*
D03*
X371063D02*
D03*
X366732D02*
D03*
M02*
