G04 Layer_Color=65535*
%FSLAX25Y25*%
%MOIN*%
G70*
G01*
G75*
%ADD76C,0.00787*%
%ADD77C,0.00800*%
D76*
X284941Y313386D02*
G03*
X283268Y311713I0J-1673D01*
G01*
X284941Y313386D02*
G03*
X289764Y318209I0J4823D01*
G01*
Y318209D02*
G03*
X284941Y323031I-4823J0D01*
G01*
X284941D02*
G03*
X280118Y318209I0J-4823D01*
G01*
X503199Y496260D02*
G03*
X501722Y497736I-1476J0D01*
G01*
X495915D02*
G03*
X494439Y496260I0J-1476D01*
G01*
X449902Y111368D02*
G03*
X448425Y109892I0J-1476D01*
G01*
Y104085D02*
G03*
X449902Y102608I1476J0D01*
G01*
X291142Y157529D02*
G03*
X289665Y156053I0J-1476D01*
G01*
Y150246D02*
G03*
X291142Y148770I1476J0D01*
G01*
X510335Y132776D02*
G03*
X510335Y132776I-3445J0D01*
G01*
X512205Y92618D02*
G03*
X512205Y92618I-3445J0D01*
G01*
X281890Y92520D02*
G03*
X281890Y92520I-3445J0D01*
G01*
X283563Y132382D02*
G03*
X283563Y132382I-3445J0D01*
G01*
X283268Y311417D02*
G03*
X283268Y311417I-3445J0D01*
G01*
X495965Y111713D02*
G03*
X495965Y111713I-3445J0D01*
G01*
X297441Y111614D02*
G03*
X297441Y111614I-3445J0D01*
G01*
X380098Y359547D02*
G03*
X375098Y354547I0J-5000D01*
G01*
X293792Y290650D02*
G03*
X318336Y300816I0J34711D01*
G01*
X318336Y300816D02*
G03*
X318406Y300984I-168J168D01*
G01*
X273039Y294185D02*
G03*
X281575Y290650I8535J8535D01*
G01*
X289764Y318209D02*
Y318209D01*
X280118Y314862D02*
Y318209D01*
X284941Y323031D02*
X284941D01*
X495915Y487402D02*
X498819Y486417D01*
X495915Y497736D02*
X501722D01*
X503199Y495276D02*
Y496260D01*
X494439Y495276D02*
Y496260D01*
Y495276D02*
X503199D01*
X501722Y486417D02*
Y495276D01*
X495915Y486417D02*
Y495276D01*
Y486417D02*
X501722D01*
X495915Y495276D02*
X501722Y493307D01*
X495915D02*
X501722Y491339D01*
X495915D02*
X501722Y489370D01*
X495915D02*
X501722Y487402D01*
X495915Y486959D02*
Y487402D01*
Y486959D02*
X496063Y486811D01*
X458760Y104085D02*
X459744Y106988D01*
X448425Y104085D02*
Y109892D01*
X449902Y111368D02*
X450886D01*
X449902Y102608D02*
X450886D01*
Y111368D01*
Y109892D02*
X459744D01*
X450886Y104085D02*
X459744D01*
Y109892D01*
X450886Y104085D02*
X452854Y109892D01*
Y104085D02*
X454823Y109892D01*
Y104085D02*
X456791Y109892D01*
Y104085D02*
X458760Y109892D01*
X458760Y104085D02*
X459203D01*
X459350Y104232D01*
X300000Y150246D02*
X300984Y153150D01*
X289665Y150246D02*
Y156053D01*
X291142Y157529D02*
X292126D01*
X291142Y148770D02*
X292126D01*
Y157529D01*
Y156053D02*
X300984D01*
X292126Y150246D02*
X300984D01*
Y156053D01*
X292126Y150246D02*
X294094Y156053D01*
Y150246D02*
X296063Y156053D01*
Y150246D02*
X298031Y156053D01*
Y150246D02*
X300000Y156053D01*
X300000Y150246D02*
X300443D01*
X300591Y150394D01*
X504626Y132776D02*
X509154D01*
X506496Y92618D02*
X511024D01*
X276181Y92520D02*
X280709D01*
X277854Y132382D02*
X282382D01*
X285039Y298130D02*
Y299705D01*
X284990Y298130D02*
X285039D01*
X284941Y337205D02*
Y347047D01*
X276181D02*
X284941D01*
X276181Y344783D02*
Y347047D01*
X276132Y344783D02*
X276181D01*
X276083Y341732D02*
X276378D01*
X274803Y343307D02*
X277756D01*
X272638Y344783D02*
X279626D01*
X284941Y295079D02*
X285236D01*
X283661Y296654D02*
X286614D01*
X281496Y298130D02*
X288484D01*
X273039Y294185D02*
X275492D01*
X273031Y291732D02*
Y294185D01*
X273039D01*
X279823Y309154D02*
Y313681D01*
X277559Y311417D02*
X282087D01*
X492520Y109449D02*
Y113976D01*
X490256Y111713D02*
X494783D01*
X291732Y111614D02*
X296260D01*
X293996Y109350D02*
Y113878D01*
X235827Y281594D02*
Y287402D01*
X236319Y287894D01*
X304823D01*
X305512Y287205D01*
Y281594D02*
Y287205D01*
X304921Y281004D02*
X305512Y281594D01*
X236417Y281004D02*
X304921D01*
X235827Y281594D02*
X236417Y281004D01*
X313090Y281496D02*
X313681Y280906D01*
X382185D01*
X382776Y281496D01*
Y287106D01*
X381988Y287894D02*
X382776Y287106D01*
X313681Y287894D02*
X381988D01*
X313090Y287303D02*
X313681Y287894D01*
X313090Y281496D02*
Y287303D01*
X389961Y281594D02*
X390551Y281004D01*
X459055D01*
X459646Y281594D01*
Y287205D01*
X458957Y287894D02*
X459646Y287205D01*
X391043Y287894D02*
X458957D01*
X389961Y286811D02*
X391043Y287894D01*
X389961Y281594D02*
Y286811D01*
X466142Y281496D02*
X466732Y280906D01*
X534449D01*
X535827Y281791D02*
Y287106D01*
X535039Y287894D02*
X535827Y287106D01*
X466732Y287894D02*
X535039D01*
X466142Y287303D02*
X466732Y287894D01*
X466142Y281496D02*
Y287303D01*
X385138Y361024D02*
X386614Y359547D01*
X385138Y358071D02*
X386614Y359547D01*
X380098D02*
X386614D01*
X375098Y342224D02*
Y354547D01*
X437008Y317618D02*
X506890D01*
X437008Y302854D02*
Y317618D01*
Y302854D02*
X506890D01*
Y317618D01*
X281575Y290650D02*
X293792D01*
X318336Y300816D02*
X318336Y300816D01*
X493504Y466750D02*
Y470686D01*
X494816Y469374D01*
X496128Y470686D01*
Y466750D01*
X500064Y470030D02*
X499407Y470686D01*
X498096D01*
X497440Y470030D01*
Y467406D01*
X498096Y466750D01*
X499407D01*
X500064Y467406D01*
X501375Y470686D02*
Y467406D01*
X502031Y466750D01*
X503343D01*
X503999Y467406D01*
Y470686D01*
X493504Y460138D02*
Y464074D01*
X495472D01*
X496128Y463418D01*
Y462106D01*
X495472Y461450D01*
X493504D01*
X494816D02*
X496128Y460138D01*
X500064Y464074D02*
X497440D01*
Y460138D01*
X500064D01*
X497440Y462106D02*
X498752D01*
X503999Y463418D02*
X503343Y464074D01*
X502031D01*
X501375Y463418D01*
Y462762D01*
X502031Y462106D01*
X503343D01*
X503999Y461450D01*
Y460794D01*
X503343Y460138D01*
X502031D01*
X501375Y460794D01*
X507935Y464074D02*
X505311D01*
Y460138D01*
X507935D01*
X505311Y462106D02*
X506623D01*
X509247Y464074D02*
X511871D01*
X510559D01*
Y460138D01*
X373266Y300444D02*
X372610Y301100D01*
X371298D01*
X370642Y300444D01*
Y297820D01*
X371298Y297164D01*
X372610D01*
X373266Y297820D01*
X376546Y301100D02*
X375234D01*
X374578Y300444D01*
Y297820D01*
X375234Y297164D01*
X376546D01*
X377202Y297820D01*
Y300444D01*
X376546Y301100D01*
X378514Y297164D02*
Y301100D01*
X381137Y297164D01*
Y301100D01*
X382449D02*
X385073D01*
X383761D01*
Y297164D01*
X386385D02*
Y299788D01*
X387697Y301100D01*
X389009Y299788D01*
Y297164D01*
Y299132D01*
X386385D01*
X392945Y300444D02*
X392288Y301100D01*
X390977D01*
X390321Y300444D01*
Y297820D01*
X390977Y297164D01*
X392288D01*
X392945Y297820D01*
X394256Y301100D02*
X396880D01*
X395568D01*
Y297164D01*
X400160Y301100D02*
X398848D01*
X398192Y300444D01*
Y297820D01*
X398848Y297164D01*
X400160D01*
X400816Y297820D01*
Y300444D01*
X400160Y301100D01*
X402128Y297164D02*
Y301100D01*
X404096D01*
X404752Y300444D01*
Y299132D01*
X404096Y298476D01*
X402128D01*
X403440D02*
X404752Y297164D01*
X367362Y293831D02*
X366706Y294487D01*
X365394D01*
X364738Y293831D01*
Y291207D01*
X365394Y290551D01*
X366706D01*
X367362Y291207D01*
X370642Y294487D02*
X369330D01*
X368674Y293831D01*
Y291207D01*
X369330Y290551D01*
X370642D01*
X371298Y291207D01*
Y293831D01*
X370642Y294487D01*
X372610Y290551D02*
Y294487D01*
X375234Y290551D01*
Y294487D01*
X376546D02*
X379169D01*
X377857D01*
Y290551D01*
X380481D02*
Y294487D01*
X382449D01*
X383105Y293831D01*
Y292519D01*
X382449Y291863D01*
X380481D01*
X381793D02*
X383105Y290551D01*
X386385Y294487D02*
X385073D01*
X384417Y293831D01*
Y291207D01*
X385073Y290551D01*
X386385D01*
X387041Y291207D01*
Y293831D01*
X386385Y294487D01*
X388353D02*
Y290551D01*
X390977D01*
X396224Y294487D02*
Y290551D01*
X398192D01*
X398848Y291207D01*
Y291863D01*
X398192Y292519D01*
X396224D01*
X398192D01*
X398848Y293175D01*
Y293831D01*
X398192Y294487D01*
X396224D01*
X400160Y290551D02*
Y293175D01*
X401472Y294487D01*
X402784Y293175D01*
Y290551D01*
Y292519D01*
X400160D01*
X404096Y290551D02*
Y294487D01*
X406720Y290551D01*
Y294487D01*
X408032D02*
Y290551D01*
Y291863D01*
X410655Y294487D01*
X408687Y292519D01*
X410655Y290551D01*
X494980Y343619D02*
X493668D01*
X493012Y342963D01*
Y340339D01*
X493668Y339684D01*
X494980D01*
X495636Y340339D01*
Y342963D01*
X494980Y343619D01*
X496947D02*
Y340995D01*
X498259Y339684D01*
X499571Y340995D01*
Y343619D01*
X503507D02*
X500883D01*
Y339684D01*
X503507D01*
X500883Y341651D02*
X502195D01*
X504819Y339684D02*
Y343619D01*
X506787D01*
X507443Y342963D01*
Y341651D01*
X506787Y340995D01*
X504819D01*
X506131D02*
X507443Y339684D01*
X508755Y341651D02*
X511379D01*
X515314Y342963D02*
X514658Y343619D01*
X513346D01*
X512690Y342963D01*
Y340339D01*
X513346Y339684D01*
X514658D01*
X515314Y340339D01*
X516626Y343619D02*
Y340339D01*
X517282Y339684D01*
X518594D01*
X519250Y340339D01*
Y343619D01*
X520562Y339684D02*
Y343619D01*
X522530D01*
X523186Y342963D01*
Y341651D01*
X522530Y340995D01*
X520562D01*
X521874D02*
X523186Y339684D01*
X524498D02*
Y343619D01*
X526466D01*
X527122Y342963D01*
Y341651D01*
X526466Y340995D01*
X524498D01*
X525810D02*
X527122Y339684D01*
X531057Y343619D02*
X528434D01*
Y339684D01*
X531057D01*
X528434Y341651D02*
X529745D01*
X532369Y339684D02*
Y343619D01*
X534993Y339684D01*
Y343619D01*
X536305D02*
X538929D01*
X537617D01*
Y339684D01*
X506787Y333071D02*
Y337007D01*
X508755D01*
X509411Y336351D01*
Y335039D01*
X508755Y334383D01*
X506787D01*
X508099D02*
X509411Y333071D01*
X513346Y337007D02*
X510723D01*
Y333071D01*
X513346D01*
X510723Y335039D02*
X512035D01*
X517282Y336351D02*
X516626Y337007D01*
X515314D01*
X514658Y336351D01*
Y335695D01*
X515314Y335039D01*
X516626D01*
X517282Y334383D01*
Y333727D01*
X516626Y333071D01*
X515314D01*
X514658Y333727D01*
X521218Y337007D02*
X518594D01*
Y333071D01*
X521218D01*
X518594Y335039D02*
X519906D01*
X522530Y337007D02*
X525154D01*
X523842D01*
Y333071D01*
X322675Y312747D02*
X322019Y313403D01*
X320707D01*
X320051Y312747D01*
Y310123D01*
X320707Y309467D01*
X322019D01*
X322675Y310123D01*
X325955Y313403D02*
X324643D01*
X323987Y312747D01*
Y310123D01*
X324643Y309467D01*
X325955D01*
X326611Y310123D01*
Y312747D01*
X325955Y313403D01*
X327923Y309467D02*
Y313403D01*
X330547Y309467D01*
Y313403D01*
X331859D02*
X334483D01*
X333171D01*
Y309467D01*
X335794D02*
Y312091D01*
X337106Y313403D01*
X338418Y312091D01*
Y309467D01*
Y311435D01*
X335794D01*
X342354Y312747D02*
X341698Y313403D01*
X340386D01*
X339730Y312747D01*
Y310123D01*
X340386Y309467D01*
X341698D01*
X342354Y310123D01*
X343666Y313403D02*
X346290D01*
X344978D01*
Y309467D01*
X349570Y313403D02*
X348258D01*
X347602Y312747D01*
Y310123D01*
X348258Y309467D01*
X349570D01*
X350225Y310123D01*
Y312747D01*
X349570Y313403D01*
X351537Y309467D02*
Y313403D01*
X353505D01*
X354161Y312747D01*
Y311435D01*
X353505Y310779D01*
X351537D01*
X352849D02*
X354161Y309467D01*
X317428Y302854D02*
Y306790D01*
X319395D01*
X320051Y306134D01*
Y304822D01*
X319395Y304166D01*
X317428D01*
X323331Y306790D02*
X322019D01*
X321363Y306134D01*
Y303510D01*
X322019Y302854D01*
X323331D01*
X323987Y303510D01*
Y306134D01*
X323331Y306790D01*
X325299D02*
Y302854D01*
X326611Y304166D01*
X327923Y302854D01*
Y306790D01*
X331859D02*
X329235D01*
Y302854D01*
X331859D01*
X329235Y304822D02*
X330547D01*
X333171Y302854D02*
Y306790D01*
X335138D01*
X335794Y306134D01*
Y304822D01*
X335138Y304166D01*
X333171D01*
X334483D02*
X335794Y302854D01*
X342354D02*
X341042Y304166D01*
Y305478D01*
X342354Y306790D01*
X344322Y302854D02*
X345634D01*
X344978D01*
Y306790D01*
X344322Y306134D01*
X350225Y302854D02*
X347602D01*
X350225Y305478D01*
Y306134D01*
X349570Y306790D01*
X348258D01*
X347602Y306134D01*
X351537Y306790D02*
Y304166D01*
X352849Y302854D01*
X354161Y304166D01*
Y306790D01*
X355473Y302854D02*
X356785Y304166D01*
Y305478D01*
X355473Y306790D01*
X451909Y311632D02*
Y314256D01*
X453221Y315568D01*
X454533Y314256D01*
Y311632D01*
Y313600D01*
X451909D01*
X455845Y315568D02*
Y312288D01*
X456501Y311632D01*
X457813D01*
X458469Y312288D01*
Y315568D01*
X459781D02*
X462405Y311632D01*
Y315568D02*
X459781Y311632D01*
X463717Y313600D02*
X466340D01*
X467652Y315568D02*
Y311632D01*
X469620D01*
X470276Y312288D01*
Y312944D01*
X469620Y313600D01*
X467652D01*
X469620D01*
X470276Y314256D01*
Y314912D01*
X469620Y315568D01*
X467652D01*
X471588Y311632D02*
Y315568D01*
X472900Y314256D01*
X474212Y315568D01*
Y311632D01*
X478148Y314912D02*
X477492Y315568D01*
X476180D01*
X475524Y314912D01*
Y314256D01*
X476180Y313600D01*
X477492D01*
X478148Y312944D01*
Y312288D01*
X477492Y311632D01*
X476180D01*
X475524Y312288D01*
X483395Y315568D02*
Y312944D01*
X484707Y311632D01*
X486019Y312944D01*
Y315568D01*
X487331Y314912D02*
X487987Y315568D01*
X489299D01*
X489955Y314912D01*
Y312288D01*
X489299Y311632D01*
X487987D01*
X487331Y312288D01*
Y314912D01*
X491267Y311632D02*
X492579D01*
X491923D01*
Y315568D01*
X491267Y314912D01*
X440102Y308955D02*
Y305020D01*
X442070D01*
X442726Y305676D01*
Y308299D01*
X442070Y308955D01*
X440102D01*
X444038Y305020D02*
Y307644D01*
X445350Y308955D01*
X446662Y307644D01*
Y305020D01*
Y306988D01*
X444038D01*
X447974Y305020D02*
Y308955D01*
X450597Y305020D01*
Y308955D01*
X451909D02*
X453221D01*
X452565D01*
Y305020D01*
X451909D01*
X453221D01*
X457813Y308955D02*
X455189D01*
Y305020D01*
X457813D01*
X455189Y306988D02*
X456501D01*
X459125Y308955D02*
Y305020D01*
X461749D01*
X469620Y308299D02*
X468964Y308955D01*
X467652D01*
X466996Y308299D01*
Y305676D01*
X467652Y305020D01*
X468964D01*
X469620Y305676D01*
Y306988D01*
X468308D01*
X470932Y308955D02*
X472244D01*
X471588D01*
Y305020D01*
X470932D01*
X472244D01*
X476836Y308955D02*
X474212D01*
Y305020D01*
X476836D01*
X474212Y306988D02*
X475524D01*
X480771Y308299D02*
X480116Y308955D01*
X478804D01*
X478148Y308299D01*
Y307644D01*
X478804Y306988D01*
X480116D01*
X480771Y306332D01*
Y305676D01*
X480116Y305020D01*
X478804D01*
X478148Y305676D01*
X482083Y308955D02*
Y305020D01*
X484051D01*
X484707Y305676D01*
Y306332D01*
X484051Y306988D01*
X482083D01*
X484051D01*
X484707Y307644D01*
Y308299D01*
X484051Y308955D01*
X482083D01*
X486019Y305020D02*
Y308955D01*
X487987D01*
X488643Y308299D01*
Y306988D01*
X487987Y306332D01*
X486019D01*
X487331D02*
X488643Y305020D01*
X492579Y308955D02*
X489955D01*
Y305020D01*
X492579D01*
X489955Y306988D02*
X491267D01*
X496515Y308299D02*
X495858Y308955D01*
X494547D01*
X493891Y308299D01*
Y305676D01*
X494547Y305020D01*
X495858D01*
X496515Y305676D01*
X497826Y308955D02*
Y305020D01*
Y306988D01*
X500450D01*
Y308955D01*
Y305020D01*
X501762Y308955D02*
X504386D01*
X503074D01*
Y305020D01*
X364238Y340109D02*
X363582Y340765D01*
X362270D01*
X361614Y340109D01*
Y337485D01*
X362270Y336829D01*
X363582D01*
X364238Y337485D01*
X365550Y340765D02*
Y337485D01*
X366206Y336829D01*
X367518D01*
X368174Y337485D01*
Y340765D01*
X369486Y336829D02*
Y340765D01*
X371453D01*
X372110Y340109D01*
Y338797D01*
X371453Y338141D01*
X369486D01*
X370798D02*
X372110Y336829D01*
X373421D02*
Y340765D01*
X375389D01*
X376045Y340109D01*
Y338797D01*
X375389Y338141D01*
X373421D01*
X374733D02*
X376045Y336829D01*
X379981Y340765D02*
X377357D01*
Y336829D01*
X379981D01*
X377357Y338797D02*
X378669D01*
X381293Y336829D02*
Y340765D01*
X383917Y336829D01*
Y340765D01*
X385229D02*
X387852D01*
X386541D01*
Y336829D01*
X361614Y330217D02*
Y332840D01*
X362926Y334152D01*
X364238Y332840D01*
Y330217D01*
Y332184D01*
X361614D01*
X365550Y334152D02*
Y330217D01*
X367518D01*
X368174Y330873D01*
Y333496D01*
X367518Y334152D01*
X365550D01*
X372110D02*
X370798D01*
X371453D01*
Y330873D01*
X370798Y330217D01*
X370142D01*
X369486Y330873D01*
X373421Y334152D02*
Y330873D01*
X374077Y330217D01*
X375389D01*
X376045Y330873D01*
Y334152D01*
X379981Y333496D02*
X379325Y334152D01*
X378013D01*
X377357Y333496D01*
Y332840D01*
X378013Y332184D01*
X379325D01*
X379981Y331528D01*
Y330873D01*
X379325Y330217D01*
X378013D01*
X377357Y330873D01*
X381293Y334152D02*
X383917D01*
X382605D01*
Y330217D01*
X343962Y352394D02*
X343306Y353050D01*
X341995D01*
X341339Y352394D01*
Y351738D01*
X341995Y351082D01*
X343306D01*
X343962Y350426D01*
Y349770D01*
X343306Y349114D01*
X341995D01*
X341339Y349770D01*
X345274Y353050D02*
Y349114D01*
X346586Y350426D01*
X347898Y349114D01*
Y353050D01*
X349210D02*
Y349114D01*
X351178D01*
X351834Y349770D01*
Y352394D01*
X351178Y353050D01*
X349210D01*
X353146Y349114D02*
X355770Y351738D01*
X359705Y353050D02*
X358393D01*
X359049D01*
Y349770D01*
X358393Y349114D01*
X357737D01*
X357082Y349770D01*
X361017Y353050D02*
X363641D01*
X362329D01*
Y349114D01*
X364953D02*
Y351738D01*
X366265Y353050D01*
X367577Y351738D01*
Y349114D01*
Y351082D01*
X364953D01*
X371513Y352394D02*
X370857Y353050D01*
X369545D01*
X368889Y352394D01*
Y349770D01*
X369545Y349114D01*
X370857D01*
X371513Y349770D01*
Y351082D01*
X370201D01*
X468661Y384820D02*
X467349D01*
X466693Y384164D01*
Y381540D01*
X467349Y380884D01*
X468661D01*
X469317Y381540D01*
Y384164D01*
X468661Y384820D01*
X470629D02*
Y382196D01*
X471941Y380884D01*
X473252Y382196D01*
Y384820D01*
X477188D02*
X474564D01*
Y380884D01*
X477188D01*
X474564Y382852D02*
X475876D01*
X478500Y380884D02*
Y384820D01*
X480468D01*
X481124Y384164D01*
Y382852D01*
X480468Y382196D01*
X478500D01*
X479812D02*
X481124Y380884D01*
X482436Y382852D02*
X485060D01*
X488995Y384164D02*
X488340Y384820D01*
X487028D01*
X486372Y384164D01*
Y381540D01*
X487028Y380884D01*
X488340D01*
X488995Y381540D01*
X490307Y384820D02*
Y381540D01*
X490963Y380884D01*
X492275D01*
X492931Y381540D01*
Y384820D01*
X494243Y380884D02*
Y384820D01*
X496211D01*
X496867Y384164D01*
Y382852D01*
X496211Y382196D01*
X494243D01*
X495555D02*
X496867Y380884D01*
X498179D02*
Y384820D01*
X500147D01*
X500803Y384164D01*
Y382852D01*
X500147Y382196D01*
X498179D01*
X499491D02*
X500803Y380884D01*
X504738Y384820D02*
X502115D01*
Y380884D01*
X504738D01*
X502115Y382852D02*
X503427D01*
X506050Y380884D02*
Y384820D01*
X508674Y380884D01*
Y384820D01*
X509986D02*
X512610D01*
X511298D01*
Y380884D01*
X469317Y378207D02*
X466693D01*
Y374272D01*
X469317D01*
X466693Y376239D02*
X468005D01*
X470629Y374272D02*
Y378207D01*
X472597D01*
X473252Y377551D01*
Y376239D01*
X472597Y375584D01*
X470629D01*
X471941D02*
X473252Y374272D01*
X474564D02*
Y378207D01*
X476532D01*
X477188Y377551D01*
Y376239D01*
X476532Y375584D01*
X474564D01*
X475876D02*
X477188Y374272D01*
X480468Y378207D02*
X479156D01*
X478500Y377551D01*
Y374928D01*
X479156Y374272D01*
X480468D01*
X481124Y374928D01*
Y377551D01*
X480468Y378207D01*
X482436Y374272D02*
Y378207D01*
X484404D01*
X485060Y377551D01*
Y376239D01*
X484404Y375584D01*
X482436D01*
X483748D02*
X485060Y374272D01*
X495472Y480118D02*
Y484054D01*
X496784Y482742D01*
X498096Y484054D01*
Y480118D01*
X502032Y484054D02*
X499408D01*
Y482086D01*
X500720Y482742D01*
X501376D01*
X502032Y482086D01*
Y480774D01*
X501376Y480118D01*
X500064D01*
X499408Y480774D01*
X462205Y105217D02*
Y109152D01*
X463517Y107840D01*
X464828Y109152D01*
Y105217D01*
X468764Y109152D02*
X466140D01*
Y107184D01*
X467452Y107840D01*
X468108D01*
X468764Y107184D01*
Y105872D01*
X468108Y105217D01*
X466796D01*
X466140Y105872D01*
X281201Y151378D02*
Y155314D01*
X282513Y154002D01*
X283825Y155314D01*
Y151378D01*
X287760Y155314D02*
X285137D01*
Y153346D01*
X286448Y154002D01*
X287104D01*
X287760Y153346D01*
Y152034D01*
X287104Y151378D01*
X285792D01*
X285137Y152034D01*
X274902Y459154D02*
Y463089D01*
X276214Y461777D01*
X277525Y463089D01*
Y459154D01*
X281461Y463089D02*
X278837D01*
Y461121D01*
X280149Y461777D01*
X280805D01*
X281461Y461121D01*
Y459809D01*
X280805Y459154D01*
X279493D01*
X278837Y459809D01*
X494587Y408857D02*
Y404921D01*
Y406889D01*
X497210D01*
Y408857D01*
Y404921D01*
X498522Y408857D02*
Y406233D01*
X499834Y404921D01*
X501146Y406233D01*
Y408857D01*
X502458Y406889D02*
X505082D01*
X509018Y408201D02*
X508362Y408857D01*
X507050D01*
X506394Y408201D01*
Y405577D01*
X507050Y404921D01*
X508362D01*
X509018Y405577D01*
X512297Y408857D02*
X510986D01*
X510330Y408201D01*
Y405577D01*
X510986Y404921D01*
X512297D01*
X512953Y405577D01*
Y408201D01*
X512297Y408857D01*
X514265Y404921D02*
Y408857D01*
X516889Y404921D01*
Y408857D01*
X518201D02*
X520825D01*
X519513D01*
Y404921D01*
X522137D02*
Y408857D01*
X524105D01*
X524761Y408201D01*
Y406889D01*
X524105Y406233D01*
X522137D01*
X523449D02*
X524761Y404921D01*
X528040Y408857D02*
X526728D01*
X526073Y408201D01*
Y405577D01*
X526728Y404921D01*
X528040D01*
X528696Y405577D01*
Y408201D01*
X528040Y408857D01*
X530008D02*
Y404921D01*
X532632D01*
X533944Y406889D02*
X536568D01*
X539848Y408857D02*
X538536D01*
X537880Y408201D01*
Y405577D01*
X538536Y404921D01*
X539848D01*
X540504Y405577D01*
Y408201D01*
X539848Y408857D01*
X541816D02*
Y405577D01*
X542472Y404921D01*
X543783D01*
X544439Y405577D01*
Y408857D01*
X545751D02*
X548375D01*
X547063D01*
Y404921D01*
X237894Y144193D02*
Y146817D01*
X239206Y148129D01*
X240517Y146817D01*
Y144193D01*
Y146161D01*
X237894D01*
X241829Y148129D02*
Y144849D01*
X242485Y144193D01*
X243797D01*
X244453Y144849D01*
Y148129D01*
X245765D02*
X248389Y144193D01*
Y148129D02*
X245765Y144193D01*
X249701Y146161D02*
X252325D01*
X253637Y148129D02*
Y144193D01*
X255605D01*
X256260Y144849D01*
Y145505D01*
X255605Y146161D01*
X253637D01*
X255605D01*
X256260Y146817D01*
Y147473D01*
X255605Y148129D01*
X253637D01*
X257572Y144193D02*
Y146817D01*
X258884Y148129D01*
X260196Y146817D01*
Y144193D01*
Y146161D01*
X257572D01*
X261508Y148129D02*
X264132D01*
X262820D01*
Y144193D01*
X265444Y146161D02*
X268068D01*
X269380Y148129D02*
X270691D01*
X270036D01*
Y144193D01*
X269380D01*
X270691D01*
X272659D02*
Y148129D01*
X275283Y144193D01*
Y148129D01*
X507776Y144193D02*
Y146817D01*
X509088Y148129D01*
X510399Y146817D01*
Y144193D01*
Y146161D01*
X507776D01*
X511711Y148129D02*
Y144849D01*
X512367Y144193D01*
X513679D01*
X514335Y144849D01*
Y148129D01*
X515647D02*
X518271Y144193D01*
Y148129D02*
X515647Y144193D01*
X519583Y146161D02*
X522207D01*
X523519Y148129D02*
Y144193D01*
X525486D01*
X526142Y144849D01*
Y145505D01*
X525486Y146161D01*
X523519D01*
X525486D01*
X526142Y146817D01*
Y147473D01*
X525486Y148129D01*
X523519D01*
X527454Y144193D02*
Y146817D01*
X528766Y148129D01*
X530078Y146817D01*
Y144193D01*
Y146161D01*
X527454D01*
X531390Y148129D02*
X534014D01*
X532702D01*
Y144193D01*
X535326Y146161D02*
X537950D01*
X541229Y148129D02*
X539918D01*
X539261Y147473D01*
Y144849D01*
X539918Y144193D01*
X541229D01*
X541885Y144849D01*
Y147473D01*
X541229Y148129D01*
X543197D02*
Y144849D01*
X543853Y144193D01*
X545165D01*
X545821Y144849D01*
Y148129D01*
X547133D02*
X549757D01*
X548445D01*
Y144193D01*
X383171Y483529D02*
Y480905D01*
X385138D01*
X384483Y482217D01*
Y482873D01*
X385138Y483529D01*
X386450D01*
X387106Y482873D01*
Y481562D01*
X386450Y480905D01*
X383171Y484841D02*
X385794D01*
X387106Y486153D01*
X385794Y487465D01*
X383171D01*
X413748Y479297D02*
X413092Y478641D01*
Y477329D01*
X413748Y476673D01*
X416372D01*
X417028Y477329D01*
Y478641D01*
X416372Y479297D01*
X415060D01*
Y477985D01*
X417028Y480609D02*
X413092D01*
X417028Y483233D01*
X413092D01*
Y484545D02*
X417028D01*
Y486513D01*
X416372Y487169D01*
X413748D01*
X413092Y486513D01*
Y484545D01*
X396654Y470865D02*
X394686Y468898D01*
X392718Y470865D01*
X396654Y474801D02*
X394686Y472833D01*
X392718Y474801D01*
X396654Y478737D02*
X394686Y476769D01*
X392718Y478737D01*
X396654Y480705D02*
X392718D01*
Y482673D01*
X393374Y483329D01*
X394686D01*
X395342Y482673D01*
Y480705D01*
Y482017D02*
X396654Y483329D01*
X392718Y484641D02*
X396654Y487264D01*
X392718D02*
X396654Y484641D01*
X406988Y470669D02*
X405020Y472637D01*
X403052Y470669D01*
X406988Y473949D02*
X405020Y475917D01*
X403052Y473949D01*
X406988Y477229D02*
X405020Y479197D01*
X403052Y477229D01*
Y480509D02*
Y483132D01*
Y481820D01*
X406988D01*
X403052Y484444D02*
X406988Y487068D01*
X403052D02*
X406988Y484444D01*
X427559Y457874D02*
X423623D01*
Y459842D01*
X424279Y460498D01*
X425591D01*
X426247Y459842D01*
Y457874D01*
X423623Y461810D02*
X427559D01*
X426247Y463122D01*
X427559Y464434D01*
X423623D01*
X427559Y465745D02*
X423623D01*
Y467713D01*
X424279Y468369D01*
X425591D01*
X426247Y467713D01*
Y465745D01*
Y467057D02*
X427559Y468369D01*
X238189Y286416D02*
Y282480D01*
X240157D01*
X240813Y283136D01*
Y285760D01*
X240157Y286416D01*
X238189D01*
X242125Y284448D02*
X244748D01*
X248684Y286416D02*
X246060D01*
Y282480D01*
X248684D01*
X246060Y284448D02*
X247372D01*
X249996Y282480D02*
Y286416D01*
X252620Y282480D01*
Y286416D01*
X317388Y285760D02*
X316732Y286416D01*
X315420D01*
X314764Y285760D01*
Y283136D01*
X315420Y282480D01*
X316732D01*
X317388Y283136D01*
X318700Y284448D02*
X321323D01*
X325259Y286416D02*
X322635D01*
Y282480D01*
X325259D01*
X322635Y284448D02*
X323947D01*
X326571Y282480D02*
Y286416D01*
X329195Y282480D01*
Y286416D01*
X391732D02*
Y282480D01*
X393700D01*
X394356Y283136D01*
Y283792D01*
X393700Y284448D01*
X391732D01*
X393700D01*
X394356Y285104D01*
Y285760D01*
X393700Y286416D01*
X391732D01*
X395668Y284448D02*
X398292D01*
X402228Y286416D02*
X399604D01*
Y282480D01*
X402228D01*
X399604Y284448D02*
X400916D01*
X403540Y282480D02*
Y286416D01*
X406163Y282480D01*
Y286416D01*
X468012Y282480D02*
Y285104D01*
X469324Y286416D01*
X470636Y285104D01*
Y282480D01*
Y284448D01*
X468012D01*
X471947D02*
X474571D01*
X478507Y286416D02*
X475883D01*
Y282480D01*
X478507D01*
X475883Y284448D02*
X477195D01*
X479819Y282480D02*
Y286416D01*
X482443Y282480D01*
Y286416D01*
X507382Y282480D02*
Y285104D01*
X508694Y286416D01*
X510006Y285104D01*
Y282480D01*
Y284448D01*
X507382D01*
X511318D02*
X513941D01*
X517877Y285760D02*
X517221Y286416D01*
X515909D01*
X515253Y285760D01*
Y285104D01*
X515909Y284448D01*
X517221D01*
X517877Y283792D01*
Y283136D01*
X517221Y282480D01*
X515909D01*
X515253Y283136D01*
X521813Y286416D02*
X519189D01*
Y282480D01*
X521813D01*
X519189Y284448D02*
X520501D01*
X523125Y282480D02*
Y286416D01*
X525749Y282480D01*
Y286416D01*
X529684Y285760D02*
X529029Y286416D01*
X527717D01*
X527061Y285760D01*
Y285104D01*
X527717Y284448D01*
X529029D01*
X529684Y283792D01*
Y283136D01*
X529029Y282480D01*
X527717D01*
X527061Y283136D01*
X533620Y286416D02*
X530996D01*
Y282480D01*
X533620D01*
X530996Y284448D02*
X532308D01*
X431201Y286416D02*
Y282480D01*
X433169D01*
X433825Y283136D01*
Y283792D01*
X433169Y284448D01*
X431201D01*
X433169D01*
X433825Y285104D01*
Y285760D01*
X433169Y286416D01*
X431201D01*
X435137Y284448D02*
X437760D01*
X441696Y285760D02*
X441040Y286416D01*
X439728D01*
X439072Y285760D01*
Y285104D01*
X439728Y284448D01*
X441040D01*
X441696Y283792D01*
Y283136D01*
X441040Y282480D01*
X439728D01*
X439072Y283136D01*
X445632Y286416D02*
X443008D01*
Y282480D01*
X445632D01*
X443008Y284448D02*
X444320D01*
X446944Y282480D02*
Y286416D01*
X449568Y282480D01*
Y286416D01*
X453503Y285760D02*
X452847Y286416D01*
X451536D01*
X450879Y285760D01*
Y285104D01*
X451536Y284448D01*
X452847D01*
X453503Y283792D01*
Y283136D01*
X452847Y282480D01*
X451536D01*
X450879Y283136D01*
X457439Y286416D02*
X454815D01*
Y282480D01*
X457439D01*
X454815Y284448D02*
X456127D01*
X357250Y285760D02*
X356594Y286416D01*
X355282D01*
X354626Y285760D01*
Y283136D01*
X355282Y282480D01*
X356594D01*
X357250Y283136D01*
X358562Y284448D02*
X361186D01*
X365121Y285760D02*
X364465Y286416D01*
X363153D01*
X362497Y285760D01*
Y285104D01*
X363153Y284448D01*
X364465D01*
X365121Y283792D01*
Y283136D01*
X364465Y282480D01*
X363153D01*
X362497Y283136D01*
X369057Y286416D02*
X366433D01*
Y282480D01*
X369057D01*
X366433Y284448D02*
X367745D01*
X370369Y282480D02*
Y286416D01*
X372993Y282480D01*
Y286416D01*
X376928Y285760D02*
X376273Y286416D01*
X374961D01*
X374305Y285760D01*
Y285104D01*
X374961Y284448D01*
X376273D01*
X376928Y283792D01*
Y283136D01*
X376273Y282480D01*
X374961D01*
X374305Y283136D01*
X380864Y286416D02*
X378240D01*
Y282480D01*
X380864D01*
X378240Y284448D02*
X379552D01*
X276772Y286416D02*
Y282480D01*
X278740D01*
X279396Y283136D01*
Y285760D01*
X278740Y286416D01*
X276772D01*
X280707Y284448D02*
X283331D01*
X287267Y285760D02*
X286611Y286416D01*
X285299D01*
X284643Y285760D01*
Y285104D01*
X285299Y284448D01*
X286611D01*
X287267Y283792D01*
Y283136D01*
X286611Y282480D01*
X285299D01*
X284643Y283136D01*
X291203Y286416D02*
X288579D01*
Y282480D01*
X291203D01*
X288579Y284448D02*
X289891D01*
X292515Y282480D02*
Y286416D01*
X295138Y282480D01*
Y286416D01*
X299074Y285760D02*
X298418Y286416D01*
X297106D01*
X296450Y285760D01*
Y285104D01*
X297106Y284448D01*
X298418D01*
X299074Y283792D01*
Y283136D01*
X298418Y282480D01*
X297106D01*
X296450Y283136D01*
X303010Y286416D02*
X300386D01*
Y282480D01*
X303010D01*
X300386Y284448D02*
X301698D01*
X346163Y90551D02*
X350098D01*
Y92519D01*
X349443Y93175D01*
X348786D01*
X348131Y92519D01*
Y90551D01*
Y92519D01*
X347475Y93175D01*
X346819D01*
X346163Y92519D01*
Y90551D01*
X350098Y94487D02*
X347475D01*
X346163Y95799D01*
X347475Y97111D01*
X350098D01*
X348131D01*
Y94487D01*
X346163Y98423D02*
Y101047D01*
Y99735D01*
X350098D01*
X348131Y102358D02*
Y104982D01*
X350098Y106294D02*
X346163D01*
Y108262D01*
X346819Y108918D01*
X348131D01*
X348786Y108262D01*
Y106294D01*
Y107606D02*
X350098Y108918D01*
X346819Y112854D02*
X346163Y112198D01*
Y110886D01*
X346819Y110230D01*
X347475D01*
X348131Y110886D01*
Y112198D01*
X348786Y112854D01*
X349443D01*
X350098Y112198D01*
Y110886D01*
X349443Y110230D01*
X346163Y114166D02*
Y116789D01*
Y115478D01*
X350098D01*
X318765Y439795D02*
X318110Y440451D01*
X316798D01*
X316142Y439795D01*
Y437172D01*
X316798Y436516D01*
X318110D01*
X318765Y437172D01*
X320077Y440451D02*
Y436516D01*
Y438484D01*
X322701D01*
Y440451D01*
Y436516D01*
X324013D02*
Y439140D01*
X325325Y440451D01*
X326637Y439140D01*
Y436516D01*
Y438484D01*
X324013D01*
X327949Y436516D02*
Y440451D01*
X329917D01*
X330573Y439795D01*
Y438484D01*
X329917Y437828D01*
X327949D01*
X329261D02*
X330573Y436516D01*
X334508Y439795D02*
X333853Y440451D01*
X332541D01*
X331885Y439795D01*
Y437172D01*
X332541Y436516D01*
X333853D01*
X334508Y437172D01*
Y438484D01*
X333197D01*
X338444Y440451D02*
X335820D01*
Y436516D01*
X338444D01*
X335820Y438484D02*
X337132D01*
X315748Y423522D02*
Y419587D01*
X317716D01*
X318372Y420243D01*
Y422866D01*
X317716Y423522D01*
X315748D01*
X319684D02*
X320996D01*
X320340D01*
Y419587D01*
X319684D01*
X320996D01*
X325587Y422866D02*
X324931Y423522D01*
X323620D01*
X322964Y422866D01*
Y422210D01*
X323620Y421555D01*
X324931D01*
X325587Y420898D01*
Y420243D01*
X324931Y419587D01*
X323620D01*
X322964Y420243D01*
X329523Y422866D02*
X328867Y423522D01*
X327555D01*
X326899Y422866D01*
Y420243D01*
X327555Y419587D01*
X328867D01*
X329523Y420243D01*
X330835Y423522D02*
Y419587D01*
Y421555D01*
X333459D01*
Y423522D01*
Y419587D01*
X334771D02*
Y422210D01*
X336083Y423522D01*
X337395Y422210D01*
Y419587D01*
Y421555D01*
X334771D01*
X338706Y419587D02*
Y423522D01*
X340674D01*
X341330Y422866D01*
Y421555D01*
X340674Y420898D01*
X338706D01*
X340018D02*
X341330Y419587D01*
X345266Y422866D02*
X344610Y423522D01*
X343298D01*
X342642Y422866D01*
Y420243D01*
X343298Y419587D01*
X344610D01*
X345266Y420243D01*
Y421555D01*
X343954D01*
X349202Y423522D02*
X346578D01*
Y419587D01*
X349202D01*
X346578Y421555D02*
X347890D01*
X318273Y405839D02*
X317618Y406495D01*
X316306D01*
X315650Y405839D01*
Y405183D01*
X316306Y404527D01*
X317618D01*
X318273Y403871D01*
Y403215D01*
X317618Y402559D01*
X316306D01*
X315650Y403215D01*
X319585Y402559D02*
Y405183D01*
X320897Y406495D01*
X322209Y405183D01*
Y402559D01*
Y404527D01*
X319585D01*
X326145Y406495D02*
X323521D01*
Y404527D01*
X324833D01*
X323521D01*
Y402559D01*
X330081Y406495D02*
X327457D01*
Y402559D01*
X330081D01*
X327457Y404527D02*
X328769D01*
X331393Y406495D02*
X334016D01*
X332704D01*
Y402559D01*
X335328Y406495D02*
Y405839D01*
X336640Y404527D01*
X337952Y405839D01*
Y406495D01*
X336640Y404527D02*
Y402559D01*
X299376Y397276D02*
X298720Y397932D01*
X297408D01*
X296752Y397276D01*
Y394652D01*
X297408Y393996D01*
X298720D01*
X299376Y394652D01*
X300688Y393996D02*
Y396620D01*
X302000Y397932D01*
X303311Y396620D01*
Y393996D01*
Y395964D01*
X300688D01*
X304624Y393996D02*
Y397932D01*
X307247Y393996D01*
Y397932D01*
X308559D02*
Y393996D01*
X310527D01*
X311183Y394652D01*
Y395308D01*
X310527Y395964D01*
X308559D01*
X310527D01*
X311183Y396620D01*
Y397276D01*
X310527Y397932D01*
X308559D01*
X312495D02*
Y394652D01*
X313151Y393996D01*
X314463D01*
X315119Y394652D01*
Y397932D01*
X319055Y397276D02*
X318398Y397932D01*
X317087D01*
X316431Y397276D01*
Y396620D01*
X317087Y395964D01*
X318398D01*
X319055Y395308D01*
Y394652D01*
X318398Y393996D01*
X317087D01*
X316431Y394652D01*
D77*
X294468Y396161D02*
G03*
X285933Y392626I0J-12071D01*
G01*
X309350Y160039D02*
Y287894D01*
X313681D01*
X304823D02*
X309350D01*
X235827Y160039D02*
Y281594D01*
Y160039D02*
X309350D01*
X381988Y287894D02*
X391142D01*
X458957D02*
X466732D01*
X539468Y160039D02*
Y285138D01*
X309350Y160039D02*
X539468D01*
X534449Y280906D02*
X534941D01*
X535827Y281791D01*
X539468Y285138D02*
Y287992D01*
X534941D02*
X539468D01*
X386221Y160039D02*
Y287894D01*
X462992Y160039D02*
Y287894D01*
X285933Y392626D02*
Y393996D01*
Y392626D02*
X287500D01*
X309350Y160039D02*
Y164665D01*
M02*
