G04 Layer_Physical_Order=2*
G04 Layer_Color=16711680*
%FSLAX25Y25*%
%MOIN*%
G70*
G01*
G75*
%ADD13C,0.03150*%
%ADD54C,0.02000*%
%ADD55C,0.01000*%
%ADD56C,0.05000*%
%ADD57C,0.03000*%
%ADD60C,0.06000*%
%ADD62C,0.04000*%
%ADD63C,0.08000*%
%ADD67C,0.12000*%
%ADD68C,0.06693*%
%ADD69C,0.07874*%
%ADD70C,0.12205*%
%ADD71C,0.11811*%
%ADD72C,0.05400*%
%ADD73C,0.03937*%
%ADD74C,0.02362*%
%ADD75C,0.02756*%
G36*
X505613Y480116D02*
X505591Y479335D01*
X505628Y478009D01*
X505739Y476688D01*
X505925Y475375D01*
X506184Y474074D01*
X506515Y472790D01*
X506917Y471527D01*
X507390Y470288D01*
X507932Y469077D01*
X508541Y467899D01*
X509214Y466757D01*
X509951Y465654D01*
X510749Y464595D01*
X511604Y463582D01*
X512515Y462618D01*
X513479Y461707D01*
X514492Y460851D01*
X515552Y460054D01*
X516654Y459317D01*
X517797Y458643D01*
X518975Y458035D01*
X520185Y457493D01*
X521424Y457020D01*
X522687Y456617D01*
X523972Y456286D01*
X525272Y456028D01*
X526585Y455842D01*
X527907Y455731D01*
X529232Y455693D01*
X530013Y455715D01*
X554012Y431716D01*
X554012Y286689D01*
X544587Y277264D01*
X529292Y277264D01*
X528427Y278241D01*
X528441Y278465D01*
X528750Y278630D01*
X529021Y278853D01*
X529244Y279124D01*
X529409Y279433D01*
X529511Y279769D01*
X529546Y280118D01*
X529511Y280467D01*
X529409Y280803D01*
X529244Y281113D01*
X529021Y281384D01*
X528750Y281606D01*
X528441Y281772D01*
X528105Y281873D01*
X527756Y281908D01*
X527407Y281873D01*
X527071Y281772D01*
X526762Y281606D01*
X526490Y281384D01*
X526268Y281113D01*
X526102Y280803D01*
X526074Y280710D01*
X524309Y278945D01*
X454530D01*
X452764Y280710D01*
X452736Y280803D01*
X452571Y281113D01*
X452348Y281384D01*
X452077Y281606D01*
X451768Y281772D01*
X451432Y281873D01*
X451083Y281908D01*
X450734Y281873D01*
X450398Y281772D01*
X450088Y281606D01*
X449817Y281384D01*
X449595Y281113D01*
X449429Y280803D01*
X449401Y280710D01*
X447636Y278945D01*
X443822D01*
X442553Y280214D01*
Y280790D01*
X442522Y281104D01*
X442430Y281405D01*
X442282Y281683D01*
X442082Y281927D01*
X439979Y284030D01*
X439735Y284229D01*
X439458Y284378D01*
X439156Y284470D01*
X438842Y284500D01*
X415954D01*
X414290Y286164D01*
Y321859D01*
X418361Y325930D01*
X418561Y326174D01*
X418710Y326452D01*
X418801Y326753D01*
X418832Y327067D01*
Y329253D01*
X419069Y329455D01*
X420053Y330439D01*
X420319Y330750D01*
X420532Y331099D01*
X420689Y331477D01*
X420785Y331875D01*
X420817Y332283D01*
Y348723D01*
X423399Y351305D01*
X423665Y351617D01*
X423879Y351966D01*
X424036Y352344D01*
X424131Y352742D01*
X424163Y353150D01*
Y357890D01*
X444488D01*
X445090Y357930D01*
X445681Y358047D01*
X446252Y358241D01*
X446793Y358508D01*
X447295Y358843D01*
X447748Y359240D01*
X461398Y372890D01*
X463354Y370933D01*
X473724Y360564D01*
X473779Y360287D01*
X473931Y359840D01*
X474139Y359417D01*
X474402Y359024D01*
X474713Y358669D01*
X475068Y358358D01*
X475460Y358096D01*
X475883Y357887D01*
X476330Y357736D01*
X476793Y357644D01*
X477264Y357613D01*
X477735Y357644D01*
X478197Y357736D01*
X478644Y357887D01*
X479068Y358096D01*
X479460Y358358D01*
X479815Y358669D01*
X480126Y359024D01*
X480388Y359417D01*
X480597Y359840D01*
X480749Y360287D01*
X480841Y360750D01*
X480871Y361221D01*
Y362126D01*
X480841Y362597D01*
X480749Y363060D01*
X480597Y363507D01*
X480388Y363930D01*
X480126Y364322D01*
X479815Y364677D01*
X468457Y376035D01*
X466500Y377992D01*
X474421Y385913D01*
X474819Y386367D01*
X475154Y386868D01*
X475420Y387409D01*
X475614Y387980D01*
X475732Y388572D01*
X475771Y389173D01*
Y393799D01*
X475732Y394401D01*
X475614Y394992D01*
X475420Y395563D01*
X475154Y396104D01*
X474819Y396605D01*
X474421Y397059D01*
X473968Y397457D01*
X473466Y397792D01*
X472926Y398058D01*
X472355Y398252D01*
X471763Y398370D01*
X471161Y398409D01*
X470560Y398370D01*
X469968Y398252D01*
X469397Y398058D01*
X468856Y397792D01*
X468355Y397457D01*
X467902Y397059D01*
X467504Y396605D01*
X467169Y396104D01*
X466902Y395563D01*
X466709Y394992D01*
X466591Y394401D01*
X466552Y393799D01*
Y391083D01*
X457469Y382000D01*
X442579Y367110D01*
X424163D01*
Y381102D01*
X424131Y381510D01*
X424036Y381908D01*
X423879Y382286D01*
X423665Y382635D01*
X423399Y382946D01*
X422120Y384226D01*
X421809Y384492D01*
X421460Y384706D01*
X421081Y384862D01*
X420684Y384958D01*
X420276Y384990D01*
X419868Y384958D01*
X419470Y384862D01*
X419092Y384706D01*
X418743Y384492D01*
X418431Y384226D01*
X418166Y383915D01*
X417952Y383566D01*
X417795Y383188D01*
X417700Y382790D01*
X417668Y382382D01*
X417700Y381974D01*
X417795Y381576D01*
X417952Y381198D01*
X418166Y380849D01*
X418431Y380538D01*
X418947Y380022D01*
Y354230D01*
X416364Y351647D01*
X416099Y351336D01*
X415885Y350987D01*
X415728Y350609D01*
X415633Y350211D01*
X415601Y349803D01*
Y346340D01*
X414859Y345699D01*
X413916Y345862D01*
X413661Y346453D01*
X413496Y346762D01*
X413273Y347033D01*
X413002Y347256D01*
X412693Y347421D01*
X412357Y347523D01*
X412008Y347557D01*
X411659Y347523D01*
X411323Y347421D01*
X411014Y347256D01*
X410742Y347033D01*
X410520Y346762D01*
X410354Y346453D01*
X410253Y346117D01*
X410218Y345768D01*
X410253Y345419D01*
X410354Y345083D01*
X410520Y344773D01*
X410742Y344502D01*
X410411Y343668D01*
X410234Y343439D01*
X410124Y343171D01*
X410086Y342884D01*
Y335178D01*
X403135Y328228D01*
X402959Y327998D01*
X402848Y327730D01*
X402810Y327443D01*
Y325532D01*
X402848Y325244D01*
X402959Y324977D01*
X403135Y324747D01*
X404672Y323210D01*
Y283347D01*
X398589Y277264D01*
X365434D01*
X362787Y279911D01*
X362807Y280112D01*
X362772Y280461D01*
X362704Y280685D01*
X362840Y281054D01*
X363219Y281629D01*
X363295Y281685D01*
X370569D01*
X372728Y279526D01*
X372756Y279433D01*
X372921Y279124D01*
X373144Y278853D01*
X373415Y278630D01*
X373725Y278465D01*
X374060Y278363D01*
X374409Y278328D01*
X374759Y278363D01*
X375094Y278465D01*
X375404Y278630D01*
X375675Y278853D01*
X375898Y279124D01*
X376063Y279433D01*
X376165Y279769D01*
X376199Y280118D01*
X376165Y280467D01*
X376063Y280803D01*
X375898Y281113D01*
X375675Y281384D01*
X375404Y281606D01*
X375094Y281772D01*
X375002Y281800D01*
X372372Y284430D01*
X372128Y284630D01*
X371850Y284778D01*
X371548Y284870D01*
X371235Y284901D01*
X360163D01*
X359849Y284870D01*
X359548Y284778D01*
X359270Y284630D01*
X359026Y284430D01*
X352484Y277887D01*
X307940D01*
X305413Y280413D01*
Y285522D01*
X307096Y287205D01*
X307244Y287216D01*
X307566Y287294D01*
X307871Y287420D01*
X308153Y287593D01*
X308404Y287807D01*
X308619Y288059D01*
X308792Y288341D01*
X308918Y288646D01*
X308996Y288967D01*
X309021Y289297D01*
Y335767D01*
X316253Y342999D01*
X316468Y343250D01*
X316641Y343532D01*
X316767Y343837D01*
X316844Y344159D01*
X316870Y344488D01*
Y347835D01*
X316844Y348164D01*
X316767Y348486D01*
X316641Y348791D01*
X316468Y349073D01*
X316253Y349324D01*
X316002Y349539D01*
X315720Y349711D01*
X315415Y349838D01*
X315093Y349915D01*
X314764Y349941D01*
X314434Y349915D01*
X314113Y349838D01*
X313808Y349711D01*
X313526Y349539D01*
X313274Y349324D01*
X313060Y349073D01*
X312887Y348791D01*
X312760Y348486D01*
X312683Y348164D01*
X312657Y347835D01*
Y345361D01*
X306413Y339117D01*
X305413Y339531D01*
Y339764D01*
X305243Y339934D01*
Y341126D01*
X305399Y341254D01*
X305622Y341525D01*
X305787Y341835D01*
X305889Y342171D01*
X305924Y342520D01*
X305889Y342869D01*
X305787Y343205D01*
X305622Y343514D01*
X305399Y343785D01*
X305128Y344008D01*
X304819Y344173D01*
X304483Y344275D01*
X304134Y344309D01*
X303785Y344275D01*
X303449Y344173D01*
X303139Y344008D01*
X302868Y343785D01*
X302646Y343514D01*
X302480Y343205D01*
X302379Y342869D01*
X302344Y342520D01*
X301670Y341697D01*
X301575Y341634D01*
X299307Y339366D01*
D01*
X299306Y286660D01*
X291524Y278877D01*
X287164D01*
X286122Y279920D01*
X286160Y280112D01*
X286022Y280807D01*
X285628Y281396D01*
X285039Y281789D01*
X284344Y281928D01*
X283649Y281789D01*
X283060Y281396D01*
X282666Y280807D01*
X282528Y280112D01*
X282666Y279417D01*
X283060Y278828D01*
X283649Y278434D01*
X284344Y278296D01*
X284536Y278334D01*
X285906Y276963D01*
X285906Y276963D01*
X286270Y276720D01*
X286700Y276634D01*
X286700Y276634D01*
X291989D01*
X291989Y276634D01*
X292418Y276720D01*
X292782Y276963D01*
X295548Y279729D01*
X296026Y279584D01*
X296058Y279423D01*
X296452Y278834D01*
X297041Y278440D01*
X297123Y278424D01*
X299306Y276241D01*
Y274316D01*
X305906Y267717D01*
X333438D01*
X333661Y267672D01*
X333884Y267717D01*
X410112Y267717D01*
X410335Y267672D01*
X410558Y267717D01*
X486785Y267717D01*
X487008Y267672D01*
X487231Y267717D01*
X515354D01*
X524307Y258764D01*
Y168602D01*
X520177Y164665D01*
X233094D01*
X233094Y342323D01*
X233094Y428370D01*
X260574Y455850D01*
X261834Y456028D01*
X263135Y456286D01*
X264419Y456617D01*
X265682Y457020D01*
X266921Y457493D01*
X268132Y458035D01*
X269310Y458643D01*
X270452Y459317D01*
X271555Y460054D01*
X272614Y460851D01*
X273627Y461707D01*
X274591Y462618D01*
X275502Y463582D01*
X276358Y464595D01*
X277155Y465654D01*
X277892Y466757D01*
X278566Y467899D01*
X279174Y469077D01*
X279716Y470288D01*
X280189Y471527D01*
X280592Y472790D01*
X280923Y474074D01*
X281181Y475375D01*
X281359Y476635D01*
X288000Y483275D01*
X288419Y483261D01*
X288866Y482869D01*
X289360Y482539D01*
X289894Y482276D01*
X290457Y482085D01*
X291040Y481968D01*
Y480984D01*
X290457Y480868D01*
X289894Y480677D01*
X289360Y480414D01*
X288866Y480084D01*
X288419Y479691D01*
X288027Y479244D01*
X287696Y478750D01*
X287433Y478216D01*
X287242Y477653D01*
X287126Y477070D01*
X287120Y476976D01*
X291634D01*
X296148D01*
X296142Y477070D01*
X296026Y477653D01*
X295834Y478216D01*
X295571Y478750D01*
X295241Y479244D01*
X294849Y479691D01*
X294402Y480084D01*
X293907Y480414D01*
X293374Y480677D01*
X292811Y480868D01*
X292227Y480984D01*
Y481968D01*
X292811Y482085D01*
X293374Y482276D01*
X293907Y482539D01*
X294402Y482869D01*
X294849Y483261D01*
X295241Y483708D01*
X295571Y484203D01*
X295834Y484736D01*
X296026Y485300D01*
X296142Y485883D01*
X296181Y486476D01*
X296142Y487070D01*
X296026Y487653D01*
X295834Y488216D01*
X295571Y488750D01*
X295241Y489244D01*
X294849Y489691D01*
X294835Y490111D01*
X307260Y502536D01*
X483193Y502536D01*
X505613Y480116D01*
D02*
G37*
G36*
X413198Y279327D02*
X413428Y279151D01*
X413696Y279040D01*
X413983Y279002D01*
X435690D01*
X436371Y278033D01*
X435030Y274804D01*
X434088Y274470D01*
X428937Y277264D01*
X410091D01*
Y281128D01*
X411015Y281510D01*
X413198Y279327D01*
D02*
G37*
G36*
X432301Y159333D02*
X432301Y135335D01*
X436820Y130816D01*
X450319D01*
X450986Y128501D01*
X452001Y126049D01*
X453285Y123726D01*
X454821Y121561D01*
X456590Y119582D01*
X458569Y117813D01*
X460734Y116277D01*
X463057Y114994D01*
X465509Y113978D01*
X468060Y113243D01*
X470677Y112798D01*
X473327Y112650D01*
X475977Y112798D01*
X478594Y113243D01*
X481144Y113978D01*
X483597Y114994D01*
X485920Y116277D01*
X488084Y117813D01*
X490064Y119582D01*
X491832Y121561D01*
X493368Y123726D01*
X494652Y126049D01*
X495668Y128501D01*
X496335Y130816D01*
X510925D01*
Y88606D01*
X276280Y88606D01*
X276279Y162894D01*
X428740D01*
X432301Y159333D01*
D02*
G37*
%LPC*%
G36*
X284941Y322190D02*
X283911Y322055D01*
X282951Y321657D01*
X282126Y321024D01*
X281494Y320200D01*
X281096Y319240D01*
X280960Y318210D01*
X281096Y317179D01*
X281494Y316219D01*
X282126Y315395D01*
X282951Y314762D01*
X283911Y314365D01*
X284941Y314229D01*
X285971Y314365D01*
X286931Y314762D01*
X287756Y315395D01*
X288388Y316219D01*
X288786Y317179D01*
X288921Y318210D01*
X288786Y319240D01*
X288388Y320200D01*
X287756Y321024D01*
X286931Y321657D01*
X285971Y322055D01*
X284941Y322190D01*
D02*
G37*
G36*
X253799Y324944D02*
X252485Y324815D01*
X251222Y324432D01*
X250058Y323809D01*
X249037Y322972D01*
X248199Y321951D01*
X247577Y320787D01*
X247194Y319524D01*
X247064Y318210D01*
X247194Y316896D01*
X247577Y315632D01*
X248199Y314468D01*
X249037Y313447D01*
X250058Y312610D01*
X251222Y311987D01*
X252485Y311604D01*
X253799Y311475D01*
X255113Y311604D01*
X256377Y311987D01*
X257541Y312610D01*
X258561Y313447D01*
X259399Y314468D01*
X260021Y315632D01*
X260405Y316896D01*
X260534Y318210D01*
X260405Y319524D01*
X260021Y320787D01*
X259399Y321951D01*
X258561Y322972D01*
X257541Y323809D01*
X256377Y324432D01*
X255113Y324815D01*
X253799Y324944D01*
D02*
G37*
G36*
X432579Y350311D02*
X432237Y350285D01*
X431905Y350205D01*
X431588Y350074D01*
X431296Y349895D01*
X431036Y349673D01*
X430814Y349412D01*
X430635Y349120D01*
X430504Y348804D01*
X430424Y348471D01*
X430397Y348130D01*
X430424Y347789D01*
X430504Y347456D01*
X430635Y347140D01*
X430814Y346848D01*
X431036Y346587D01*
X431069Y346559D01*
X431181Y345791D01*
X431107Y345426D01*
X430992Y345286D01*
X430827Y344976D01*
X430725Y344640D01*
X430691Y344291D01*
X430725Y343942D01*
X430827Y343606D01*
X430992Y343297D01*
X431215Y343026D01*
X431486Y342803D01*
X431795Y342638D01*
X432131Y342536D01*
X432480Y342502D01*
X432830Y342536D01*
X433165Y342638D01*
X433475Y342803D01*
X433746Y343026D01*
X433968Y343297D01*
X434134Y343606D01*
X434236Y343942D01*
X434270Y344291D01*
X434236Y344640D01*
X434134Y344976D01*
X433968Y345286D01*
X433941Y345319D01*
X433887Y346023D01*
X434036Y346515D01*
X434121Y346587D01*
X434344Y346848D01*
X434522Y347140D01*
X434654Y347456D01*
X434733Y347789D01*
X434760Y348130D01*
X434733Y348471D01*
X434654Y348804D01*
X434522Y349120D01*
X434344Y349412D01*
X434121Y349673D01*
X433861Y349895D01*
X433569Y350074D01*
X433253Y350205D01*
X432920Y350285D01*
X432579Y350311D01*
D02*
G37*
G36*
X444046Y345071D02*
X442429D01*
Y343454D01*
X442603Y343496D01*
X442919Y343627D01*
X443211Y343806D01*
X443472Y344028D01*
X443694Y344289D01*
X443873Y344581D01*
X444004Y344897D01*
X444046Y345071D01*
D02*
G37*
G36*
X441429D02*
X439813D01*
X439854Y344897D01*
X439985Y344581D01*
X440164Y344289D01*
X440387Y344028D01*
X440647Y343806D01*
X440939Y343627D01*
X441255Y343496D01*
X441429Y343454D01*
Y345071D01*
D02*
G37*
G36*
X394980Y245827D02*
X394521Y245636D01*
X392553Y243668D01*
X392362Y243209D01*
Y201476D01*
X392553Y201017D01*
X394521Y199049D01*
X394980Y198858D01*
X429724Y198858D01*
X430184Y199049D01*
X432546Y201411D01*
X432736Y201870D01*
X432736Y241437D01*
X432546Y241896D01*
X428806Y245636D01*
X428346Y245827D01*
X394980Y245827D01*
D02*
G37*
G36*
X318307D02*
X317848Y245636D01*
X315879Y243668D01*
X315689Y243209D01*
Y201476D01*
X315879Y201017D01*
X317848Y199049D01*
X318307Y198858D01*
X353051Y198858D01*
X353510Y199049D01*
X355873Y201411D01*
X356063Y201870D01*
X356063Y241437D01*
X355873Y241896D01*
X352133Y245636D01*
X351673Y245827D01*
X318307Y245827D01*
D02*
G37*
G36*
X471654D02*
X471194Y245636D01*
X469226Y243668D01*
X469036Y243209D01*
Y201476D01*
X469226Y201017D01*
X471194Y199049D01*
X471654Y198858D01*
X506398Y198858D01*
X506857Y199049D01*
X509219Y201411D01*
X509409Y201870D01*
X509409Y241437D01*
X509219Y241896D01*
X505479Y245636D01*
X505020Y245827D01*
X471654Y245827D01*
D02*
G37*
G36*
X241634D02*
X241175Y245636D01*
X239206Y243668D01*
X239016Y243209D01*
Y201476D01*
X239206Y201017D01*
X241175Y199049D01*
X241634Y198858D01*
X276378Y198858D01*
X276837Y199049D01*
X279199Y201411D01*
X279390Y201870D01*
X279390Y241437D01*
X279199Y241896D01*
X275459Y245636D01*
X275000Y245827D01*
X241634Y245827D01*
D02*
G37*
G36*
X507382Y196323D02*
X506352Y196187D01*
X505392Y195790D01*
X504567Y195157D01*
X503935Y194333D01*
X503537Y193373D01*
X503402Y192342D01*
X503537Y191312D01*
X503935Y190352D01*
X504567Y189528D01*
X505392Y188895D01*
X506352Y188498D01*
X507382Y188362D01*
X508412Y188498D01*
X509372Y188895D01*
X510197Y189528D01*
X510829Y190352D01*
X511227Y191312D01*
X511363Y192342D01*
X511227Y193373D01*
X510829Y194333D01*
X510197Y195157D01*
X509372Y195790D01*
X508412Y196187D01*
X507382Y196323D01*
D02*
G37*
G36*
X372047Y377479D02*
X371698Y377444D01*
X371362Y377343D01*
X371053Y377177D01*
X370782Y376955D01*
X370559Y376683D01*
X370394Y376374D01*
X370292Y376038D01*
X370257Y375689D01*
X370292Y375340D01*
X370394Y375004D01*
X370559Y374695D01*
X370782Y374424D01*
X370839Y374376D01*
Y369996D01*
X370683Y369868D01*
X370461Y369597D01*
X370295Y369287D01*
X370194Y368952D01*
X370159Y368602D01*
X370194Y368253D01*
X370295Y367917D01*
X370461Y367608D01*
X370683Y367337D01*
X370954Y367114D01*
X371264Y366949D01*
X371600Y366847D01*
X371949Y366813D01*
X372298Y366847D01*
X372634Y366949D01*
X372943Y367114D01*
X373214Y367337D01*
X373437Y367608D01*
X373602Y367917D01*
X373704Y368253D01*
X373739Y368602D01*
X373704Y368952D01*
X373602Y369287D01*
X373437Y369597D01*
X373214Y369868D01*
X373058Y369996D01*
Y374215D01*
X373313Y374424D01*
X373535Y374695D01*
X373701Y375004D01*
X373803Y375340D01*
X373837Y375689D01*
X373803Y376038D01*
X373701Y376374D01*
X373535Y376683D01*
X373313Y376955D01*
X373042Y377177D01*
X372732Y377343D01*
X372396Y377444D01*
X372047Y377479D01*
D02*
G37*
G36*
X316732Y451396D02*
X316383Y451362D01*
X316047Y451260D01*
X315738Y451094D01*
X315467Y450872D01*
X315244Y450601D01*
X315079Y450291D01*
X314977Y449956D01*
X314943Y449606D01*
X314977Y449257D01*
X315079Y448921D01*
X315125Y448836D01*
Y433787D01*
X314949Y433573D01*
X314784Y433264D01*
X314682Y432928D01*
X314647Y432579D01*
X314682Y432230D01*
X314784Y431894D01*
X314829Y431808D01*
Y418278D01*
X314806Y418264D01*
X314435Y417947D01*
X314118Y417576D01*
X313863Y417160D01*
X313677Y416709D01*
X313563Y416234D01*
X313524Y415748D01*
X313563Y415262D01*
X313623Y415011D01*
X301422Y402810D01*
X301222Y402566D01*
X301074Y402288D01*
X300982Y401987D01*
X300951Y401673D01*
Y388369D01*
X300906Y388283D01*
X300804Y387948D01*
X300769Y387598D01*
X300804Y387249D01*
X300906Y386913D01*
X301071Y386604D01*
X301293Y386333D01*
X301565Y386110D01*
X301874Y385945D01*
X302210Y385843D01*
X302559Y385809D01*
X302908Y385843D01*
X303244Y385945D01*
X303553Y386110D01*
X303825Y386333D01*
X304047Y386604D01*
X304212Y386913D01*
X304314Y387249D01*
X304349Y387598D01*
X304314Y387948D01*
X304212Y388283D01*
X304167Y388369D01*
Y401007D01*
X315897Y412737D01*
X316147Y412677D01*
X316634Y412638D01*
X338402D01*
Y387205D01*
X338441Y386603D01*
X338559Y386012D01*
X338753Y385441D01*
X339019Y384900D01*
X339355Y384398D01*
X339752Y383945D01*
X340206Y383547D01*
X340707Y383212D01*
X341248Y382946D01*
X341819Y382752D01*
X342410Y382634D01*
X342497Y382629D01*
X364887Y360523D01*
X365243Y360214D01*
X365637Y359955D01*
X366062Y359749D01*
X366510Y359600D01*
X366768Y359550D01*
X366797Y359532D01*
X366984Y359455D01*
X367248Y359346D01*
X367722Y359232D01*
X368209Y359194D01*
X372539D01*
X373026Y359232D01*
X373500Y359346D01*
X373951Y359532D01*
X374367Y359787D01*
X374738Y360104D01*
X375055Y360475D01*
X375310Y360891D01*
X375497Y361342D01*
X375611Y361817D01*
X375649Y362303D01*
X375611Y362790D01*
X375497Y363264D01*
X375310Y363715D01*
X375055Y364131D01*
X374738Y364502D01*
X374367Y364819D01*
X373951Y365074D01*
X373500Y365261D01*
X373026Y365374D01*
X372539Y365413D01*
X370174D01*
X369956Y365658D01*
X347622Y387708D01*
Y413749D01*
X347661Y413866D01*
X347779Y414457D01*
X347818Y415059D01*
Y415748D01*
Y427658D01*
X347779Y428259D01*
X347661Y428851D01*
X347468Y429422D01*
X347201Y429962D01*
X346866Y430464D01*
X346468Y430917D01*
X346015Y431315D01*
X345514Y431650D01*
X344973Y431916D01*
X344402Y432110D01*
X343810Y432228D01*
X343209Y432267D01*
X342607Y432228D01*
X342016Y432110D01*
X341444Y431916D01*
X340904Y431650D01*
X340402Y431315D01*
X339949Y430917D01*
X339551Y430464D01*
X339216Y429962D01*
X338950Y429422D01*
X338756Y428851D01*
X338638Y428259D01*
X338599Y427658D01*
Y418858D01*
X318045D01*
Y431808D01*
X318091Y431894D01*
X318180Y432188D01*
X318218Y432259D01*
X318309Y432560D01*
X318340Y432874D01*
Y448836D01*
X318386Y448921D01*
X318488Y449257D01*
X318522Y449606D01*
X318488Y449956D01*
X318386Y450291D01*
X318220Y450601D01*
X317998Y450872D01*
X317727Y451094D01*
X317417Y451260D01*
X317081Y451362D01*
X316732Y451396D01*
D02*
G37*
G36*
X251594Y381218D02*
X250956Y381187D01*
X250324Y381093D01*
X249704Y380938D01*
X249102Y380722D01*
X248524Y380449D01*
X247976Y380120D01*
X247463Y379740D01*
X246989Y379310D01*
X246560Y378837D01*
X246179Y378323D01*
X245850Y377775D01*
X245577Y377197D01*
X245362Y376595D01*
X245206Y375975D01*
X245112Y375343D01*
X245081Y374705D01*
X245112Y374066D01*
X245206Y373434D01*
X245362Y372814D01*
X245577Y372212D01*
X245850Y371634D01*
X246179Y371086D01*
X246560Y370573D01*
X246989Y370099D01*
X247463Y369670D01*
X247976Y369289D01*
X248524Y368960D01*
X249102Y368687D01*
X249704Y368472D01*
X250324Y368317D01*
X250956Y368223D01*
X251594Y368191D01*
X252233Y368223D01*
X252865Y368317D01*
X253485Y368472D01*
X254087Y368687D01*
X254665Y368960D01*
X255213Y369289D01*
X255727Y369670D01*
X256200Y370099D01*
X256629Y370573D01*
X257010Y371086D01*
X257339Y371634D01*
X257612Y372212D01*
X257827Y372814D01*
X257983Y373434D01*
X258077Y374066D01*
X258108Y374705D01*
X258077Y375343D01*
X257983Y375975D01*
X257827Y376595D01*
X257612Y377197D01*
X257339Y377775D01*
X257010Y378323D01*
X256629Y378837D01*
X256200Y379310D01*
X255727Y379740D01*
X255213Y380120D01*
X254665Y380449D01*
X254087Y380722D01*
X253485Y380938D01*
X252865Y381093D01*
X252233Y381187D01*
X251594Y381218D01*
D02*
G37*
G36*
X272524Y374205D02*
X269102D01*
Y370783D01*
X269119Y370784D01*
X269626Y370885D01*
X270116Y371051D01*
X270580Y371280D01*
X271010Y371567D01*
X271399Y371908D01*
X271740Y372297D01*
X272027Y372727D01*
X272256Y373191D01*
X272423Y373681D01*
X272523Y374188D01*
X272524Y374205D01*
D02*
G37*
G36*
X280413Y378660D02*
X279897Y378626D01*
X279390Y378525D01*
X278900Y378359D01*
X278436Y378130D01*
X278006Y377842D01*
X277617Y377501D01*
X277276Y377112D01*
X276988Y376682D01*
X276760Y376218D01*
X276593Y375728D01*
X276492Y375221D01*
X276459Y374705D01*
X276492Y374188D01*
X276593Y373681D01*
X276760Y373191D01*
X276988Y372727D01*
X277276Y372297D01*
X277617Y371908D01*
X278006Y371567D01*
X278436Y371280D01*
X278900Y371051D01*
X279390Y370885D01*
X279897Y370784D01*
X280413Y370750D01*
X280930Y370784D01*
X281437Y370885D01*
X281927Y371051D01*
X282391Y371280D01*
X282821Y371567D01*
X283210Y371908D01*
X283551Y372297D01*
X283839Y372727D01*
X284067Y373191D01*
X284234Y373681D01*
X284334Y374188D01*
X284368Y374705D01*
X284334Y375221D01*
X284234Y375728D01*
X284067Y376218D01*
X283839Y376682D01*
X283551Y377112D01*
X283210Y377501D01*
X282821Y377842D01*
X282391Y378130D01*
X281927Y378359D01*
X281437Y378525D01*
X280930Y378626D01*
X280413Y378660D01*
D02*
G37*
G36*
Y366849D02*
X279897Y366815D01*
X279390Y366714D01*
X278900Y366548D01*
X278436Y366319D01*
X278006Y366031D01*
X277617Y365690D01*
X277276Y365301D01*
X276988Y364871D01*
X276760Y364407D01*
X276593Y363917D01*
X276492Y363410D01*
X276459Y362894D01*
X276492Y362378D01*
X276593Y361870D01*
X276760Y361380D01*
X276988Y360916D01*
X277276Y360486D01*
X277617Y360097D01*
X278006Y359756D01*
X278436Y359469D01*
X278900Y359240D01*
X279390Y359073D01*
X279897Y358973D01*
X280413Y358939D01*
X280930Y358973D01*
X281437Y359073D01*
X281927Y359240D01*
X282391Y359469D01*
X282821Y359756D01*
X283210Y360097D01*
X283551Y360486D01*
X283839Y360916D01*
X284067Y361380D01*
X284234Y361870D01*
X284334Y362378D01*
X284368Y362894D01*
X284334Y363410D01*
X284234Y363917D01*
X284067Y364407D01*
X283839Y364871D01*
X283551Y365301D01*
X283210Y365690D01*
X282821Y366031D01*
X282391Y366319D01*
X281927Y366548D01*
X281437Y366714D01*
X280930Y366815D01*
X280413Y366849D01*
D02*
G37*
G36*
X441429Y347687D02*
X441255Y347646D01*
X440939Y347515D01*
X440647Y347336D01*
X440387Y347113D01*
X440164Y346853D01*
X439985Y346561D01*
X439854Y346245D01*
X439813Y346071D01*
X441429D01*
Y347687D01*
D02*
G37*
G36*
X492323Y349920D02*
X491974Y349885D01*
X491638Y349783D01*
X491328Y349618D01*
X491057Y349395D01*
X490835Y349124D01*
X490669Y348815D01*
X490567Y348479D01*
X490533Y348130D01*
X490553Y347929D01*
X488025Y345401D01*
X463561D01*
X463209Y345415D01*
X462776Y345764D01*
X462610Y346073D01*
X462388Y346344D01*
X462116Y346567D01*
X461807Y346732D01*
X461471Y346834D01*
X461122Y346868D01*
X460773Y346834D01*
X460437Y346732D01*
X460128Y346567D01*
X459857Y346344D01*
X459728Y346188D01*
X457224D01*
X457178Y346263D01*
X456956Y346523D01*
X456696Y346745D01*
X456404Y346924D01*
X456087Y347055D01*
X455755Y347135D01*
X455413Y347162D01*
X455072Y347135D01*
X454739Y347055D01*
X454423Y346924D01*
X454131Y346745D01*
X453871Y346523D01*
X453649Y346263D01*
X453470Y345971D01*
X453356Y345696D01*
X450167D01*
X450039Y345852D01*
X449768Y346075D01*
X449459Y346240D01*
X449123Y346342D01*
X448774Y346376D01*
X448425Y346342D01*
X448089Y346240D01*
X447780Y346075D01*
X447508Y345852D01*
X447286Y345581D01*
X447120Y345271D01*
X447018Y344936D01*
X446984Y344587D01*
X447018Y344237D01*
X447120Y343902D01*
X447286Y343592D01*
X447508Y343321D01*
X447780Y343098D01*
X448089Y342933D01*
X448425Y342831D01*
X448774Y342797D01*
X449123Y342831D01*
X449459Y342933D01*
X449541Y342977D01*
X450143Y342165D01*
X449020Y341042D01*
X448819Y341061D01*
X448470Y341027D01*
X448134Y340925D01*
X447825Y340760D01*
X447553Y340537D01*
X447331Y340266D01*
X447165Y339957D01*
X447064Y339621D01*
X447029Y339272D01*
X447064Y338923D01*
X447165Y338587D01*
X447331Y338277D01*
X447553Y338006D01*
X447825Y337784D01*
X448134Y337618D01*
X448470Y337516D01*
X448819Y337482D01*
X449168Y337516D01*
X449504Y337618D01*
X449813Y337784D01*
X450084Y338006D01*
X450307Y338277D01*
X450472Y338587D01*
X450574Y338923D01*
X450609Y339272D01*
X450589Y339473D01*
X452312Y341196D01*
X461575D01*
X461862Y341234D01*
X462129Y341345D01*
X462359Y341521D01*
X464020Y343182D01*
X488484D01*
X488771Y343220D01*
X489039Y343331D01*
X489269Y343507D01*
X492122Y346360D01*
X492323Y346340D01*
X492672Y346375D01*
X493008Y346476D01*
X493317Y346642D01*
X493588Y346864D01*
X493811Y347136D01*
X493976Y347445D01*
X494078Y347781D01*
X494113Y348130D01*
X494078Y348479D01*
X493976Y348815D01*
X493811Y349124D01*
X493588Y349395D01*
X493317Y349618D01*
X493008Y349783D01*
X492672Y349885D01*
X492323Y349920D01*
D02*
G37*
G36*
X442429Y347687D02*
Y346071D01*
X444046D01*
X444004Y346245D01*
X443873Y346561D01*
X443694Y346853D01*
X443472Y347113D01*
X443211Y347336D01*
X442919Y347515D01*
X442603Y347646D01*
X442429Y347687D01*
D02*
G37*
G36*
X268602Y366849D02*
X268086Y366815D01*
X267579Y366714D01*
X267089Y366548D01*
X266625Y366319D01*
X266195Y366031D01*
X265806Y365690D01*
X265465Y365301D01*
X265177Y364871D01*
X264949Y364407D01*
X264782Y363917D01*
X264681Y363410D01*
X264647Y362894D01*
X264681Y362378D01*
X264782Y361870D01*
X264949Y361380D01*
X265177Y360916D01*
X265465Y360486D01*
X265806Y360097D01*
X266195Y359756D01*
X266625Y359469D01*
X267089Y359240D01*
X267579Y359073D01*
X268086Y358973D01*
X268602Y358939D01*
X269119Y358973D01*
X269626Y359073D01*
X270116Y359240D01*
X270580Y359469D01*
X271010Y359756D01*
X271399Y360097D01*
X271740Y360486D01*
X272027Y360916D01*
X272256Y361380D01*
X272423Y361870D01*
X272523Y362378D01*
X272557Y362894D01*
X272523Y363410D01*
X272423Y363917D01*
X272256Y364407D01*
X272027Y364871D01*
X271740Y365301D01*
X271399Y365690D01*
X271010Y366031D01*
X270580Y366319D01*
X270116Y366548D01*
X269626Y366714D01*
X269119Y366815D01*
X268602Y366849D01*
D02*
G37*
G36*
X390645Y407209D02*
X390296Y407175D01*
X389960Y407073D01*
X389651Y406908D01*
X389380Y406685D01*
X389157Y406414D01*
X388992Y406104D01*
X388890Y405768D01*
X388855Y405419D01*
X388890Y405070D01*
X388992Y404735D01*
X389157Y404425D01*
X389380Y404154D01*
X389536Y404026D01*
Y397638D01*
X389573Y397351D01*
X389684Y397083D01*
X389861Y396853D01*
X396250Y390463D01*
Y384357D01*
X395771Y383877D01*
X395594Y383648D01*
X395483Y383380D01*
X395446Y383093D01*
Y355724D01*
X395290Y355596D01*
X395067Y355325D01*
X394902Y355016D01*
X394800Y354680D01*
X394765Y354331D01*
X394800Y353981D01*
X394902Y353646D01*
X395067Y353336D01*
X395290Y353065D01*
X395561Y352843D01*
X395870Y352677D01*
X396206Y352575D01*
X396555Y352541D01*
X396904Y352575D01*
X397240Y352677D01*
X397549Y352843D01*
X397821Y353065D01*
X398043Y353336D01*
X398209Y353646D01*
X398310Y353981D01*
X398345Y354331D01*
X398310Y354680D01*
X398209Y355016D01*
X398043Y355325D01*
X397821Y355596D01*
X397665Y355724D01*
Y382633D01*
X398144Y383113D01*
X398321Y383343D01*
X398431Y383611D01*
X398469Y383898D01*
X398469Y383898D01*
Y390923D01*
X398431Y391210D01*
X398321Y391478D01*
X398144Y391708D01*
X391755Y398097D01*
Y404026D01*
X391911Y404154D01*
X392133Y404425D01*
X392299Y404735D01*
X392400Y405070D01*
X392435Y405419D01*
X392400Y405768D01*
X392299Y406104D01*
X392133Y406414D01*
X391911Y406685D01*
X391639Y406908D01*
X391330Y407073D01*
X390994Y407175D01*
X390645Y407209D01*
D02*
G37*
G36*
X507382Y178213D02*
X506352Y178077D01*
X505392Y177680D01*
X504567Y177047D01*
X503935Y176223D01*
X503537Y175262D01*
X503402Y174232D01*
X503537Y173202D01*
X503935Y172242D01*
X504567Y171418D01*
X505392Y170785D01*
X506352Y170387D01*
X507382Y170252D01*
X508412Y170387D01*
X509372Y170785D01*
X510197Y171418D01*
X510829Y172242D01*
X511227Y173202D01*
X511363Y174232D01*
X511227Y175262D01*
X510829Y176223D01*
X510197Y177047D01*
X509372Y177680D01*
X508412Y178077D01*
X507382Y178213D01*
D02*
G37*
G36*
X430709D02*
X429678Y178077D01*
X428719Y177680D01*
X427894Y177047D01*
X427261Y176223D01*
X426864Y175262D01*
X426728Y174232D01*
X426864Y173202D01*
X427261Y172242D01*
X427894Y171418D01*
X428719Y170785D01*
X429678Y170387D01*
X430709Y170252D01*
X431739Y170387D01*
X432699Y170785D01*
X433523Y171418D01*
X434156Y172242D01*
X434554Y173202D01*
X434689Y174232D01*
X434554Y175262D01*
X434156Y176223D01*
X433523Y177047D01*
X432699Y177680D01*
X431739Y178077D01*
X430709Y178213D01*
D02*
G37*
G36*
X253740Y186455D02*
X252446Y186327D01*
X251202Y185950D01*
X250056Y185337D01*
X249051Y184512D01*
X248226Y183507D01*
X247613Y182361D01*
X247236Y181117D01*
X247108Y179823D01*
X247236Y178529D01*
X247613Y177285D01*
X248226Y176138D01*
X249051Y175133D01*
X250056Y174309D01*
X251202Y173696D01*
X252446Y173318D01*
X253740Y173191D01*
X255034Y173318D01*
X256278Y173696D01*
X257425Y174309D01*
X258430Y175133D01*
X259254Y176138D01*
X259867Y177285D01*
X260245Y178529D01*
X260372Y179823D01*
X260245Y181117D01*
X259867Y182361D01*
X259254Y183507D01*
X258430Y184512D01*
X257425Y185337D01*
X256278Y185950D01*
X255034Y186327D01*
X253740Y186455D01*
D02*
G37*
G36*
X330413D02*
X329120Y186327D01*
X327875Y185950D01*
X326729Y185337D01*
X325724Y184512D01*
X324899Y183507D01*
X324286Y182361D01*
X323909Y181117D01*
X323781Y179823D01*
X323909Y178529D01*
X324286Y177285D01*
X324899Y176138D01*
X325724Y175133D01*
X326729Y174309D01*
X327875Y173696D01*
X329120Y173318D01*
X330413Y173191D01*
X331707Y173318D01*
X332951Y173696D01*
X334098Y174309D01*
X335103Y175133D01*
X335928Y176138D01*
X336541Y177285D01*
X336918Y178529D01*
X337045Y179823D01*
X336918Y181117D01*
X336541Y182361D01*
X335928Y183507D01*
X335103Y184512D01*
X334098Y185337D01*
X332951Y185950D01*
X331707Y186327D01*
X330413Y186455D01*
D02*
G37*
G36*
X300984D02*
X299690Y186327D01*
X298446Y185950D01*
X297300Y185337D01*
X296295Y184512D01*
X295470Y183507D01*
X294857Y182361D01*
X294480Y181117D01*
X294352Y179823D01*
X294480Y178529D01*
X294857Y177285D01*
X295470Y176138D01*
X296295Y175133D01*
X297300Y174309D01*
X298446Y173696D01*
X299690Y173318D01*
X300984Y173191D01*
X302278Y173318D01*
X303522Y173696D01*
X304669Y174309D01*
X305674Y175133D01*
X306499Y176138D01*
X307111Y177285D01*
X307489Y178529D01*
X307616Y179823D01*
X307489Y181117D01*
X307111Y182361D01*
X306499Y183507D01*
X305674Y184512D01*
X304669Y185337D01*
X303522Y185950D01*
X302278Y186327D01*
X300984Y186455D01*
D02*
G37*
G36*
X354035Y178213D02*
X353005Y178077D01*
X352045Y177680D01*
X351221Y177047D01*
X350588Y176223D01*
X350191Y175262D01*
X350055Y174232D01*
X350191Y173202D01*
X350588Y172242D01*
X351221Y171418D01*
X352045Y170785D01*
X353005Y170387D01*
X354035Y170252D01*
X355066Y170387D01*
X356026Y170785D01*
X356850Y171418D01*
X357483Y172242D01*
X357880Y173202D01*
X358016Y174232D01*
X357880Y175262D01*
X357483Y176223D01*
X356850Y177047D01*
X356026Y177680D01*
X355066Y178077D01*
X354035Y178213D01*
D02*
G37*
G36*
X277362D02*
X276332Y178077D01*
X275372Y177680D01*
X274548Y177047D01*
X273915Y176223D01*
X273517Y175262D01*
X273382Y174232D01*
X273517Y173202D01*
X273915Y172242D01*
X274548Y171418D01*
X275372Y170785D01*
X276332Y170387D01*
X277362Y170252D01*
X278393Y170387D01*
X279352Y170785D01*
X280177Y171418D01*
X280809Y172242D01*
X281207Y173202D01*
X281343Y174232D01*
X281207Y175262D01*
X280809Y176223D01*
X280177Y177047D01*
X279352Y177680D01*
X278393Y178077D01*
X277362Y178213D01*
D02*
G37*
G36*
X354035Y196323D02*
X353005Y196187D01*
X352045Y195790D01*
X351221Y195157D01*
X350588Y194333D01*
X350191Y193373D01*
X350055Y192342D01*
X350191Y191312D01*
X350588Y190352D01*
X351221Y189528D01*
X352045Y188895D01*
X353005Y188498D01*
X354035Y188362D01*
X355066Y188498D01*
X356026Y188895D01*
X356850Y189528D01*
X357483Y190352D01*
X357880Y191312D01*
X358016Y192342D01*
X357880Y193373D01*
X357483Y194333D01*
X356850Y195157D01*
X356026Y195790D01*
X355066Y196187D01*
X354035Y196323D01*
D02*
G37*
G36*
X340256D02*
X339226Y196187D01*
X338266Y195790D01*
X337441Y195157D01*
X336809Y194333D01*
X336411Y193373D01*
X336276Y192342D01*
X336411Y191312D01*
X336809Y190352D01*
X337441Y189528D01*
X338266Y188895D01*
X339226Y188498D01*
X340256Y188362D01*
X341286Y188498D01*
X342246Y188895D01*
X343071Y189528D01*
X343703Y190352D01*
X344101Y191312D01*
X344236Y192342D01*
X344101Y193373D01*
X343703Y194333D01*
X343071Y195157D01*
X342246Y195790D01*
X341286Y196187D01*
X340256Y196323D01*
D02*
G37*
G36*
X416929D02*
X415899Y196187D01*
X414939Y195790D01*
X414115Y195157D01*
X413482Y194333D01*
X413084Y193373D01*
X412949Y192342D01*
X413084Y191312D01*
X413482Y190352D01*
X414115Y189528D01*
X414939Y188895D01*
X415899Y188498D01*
X416929Y188362D01*
X417959Y188498D01*
X418920Y188895D01*
X419744Y189528D01*
X420376Y190352D01*
X420774Y191312D01*
X420910Y192342D01*
X420774Y193373D01*
X420376Y194333D01*
X419744Y195157D01*
X418920Y195790D01*
X417959Y196187D01*
X416929Y196323D01*
D02*
G37*
G36*
X493603D02*
X492572Y196187D01*
X491612Y195790D01*
X490788Y195157D01*
X490155Y194333D01*
X489758Y193373D01*
X489622Y192342D01*
X489758Y191312D01*
X490155Y190352D01*
X490788Y189528D01*
X491612Y188895D01*
X492572Y188498D01*
X493603Y188362D01*
X494633Y188498D01*
X495593Y188895D01*
X496417Y189528D01*
X497050Y190352D01*
X497447Y191312D01*
X497583Y192342D01*
X497447Y193373D01*
X497050Y194333D01*
X496417Y195157D01*
X495593Y195790D01*
X494633Y196187D01*
X493603Y196323D01*
D02*
G37*
G36*
X430709D02*
X429678Y196187D01*
X428719Y195790D01*
X427894Y195157D01*
X427261Y194333D01*
X426864Y193373D01*
X426728Y192342D01*
X426864Y191312D01*
X427261Y190352D01*
X427894Y189528D01*
X428719Y188895D01*
X429678Y188498D01*
X430709Y188362D01*
X431739Y188498D01*
X432699Y188895D01*
X433523Y189528D01*
X434156Y190352D01*
X434554Y191312D01*
X434689Y192342D01*
X434554Y193373D01*
X434156Y194333D01*
X433523Y195157D01*
X432699Y195790D01*
X431739Y196187D01*
X430709Y196323D01*
D02*
G37*
G36*
X277362D02*
X276332Y196187D01*
X275372Y195790D01*
X274548Y195157D01*
X273915Y194333D01*
X273517Y193373D01*
X273382Y192342D01*
X273517Y191312D01*
X273915Y190352D01*
X274548Y189528D01*
X275372Y188895D01*
X276332Y188498D01*
X277362Y188362D01*
X278393Y188498D01*
X279352Y188895D01*
X280177Y189528D01*
X280809Y190352D01*
X281207Y191312D01*
X281343Y192342D01*
X281207Y193373D01*
X280809Y194333D01*
X280177Y195157D01*
X279352Y195790D01*
X278393Y196187D01*
X277362Y196323D01*
D02*
G37*
G36*
X407087Y186455D02*
X405793Y186327D01*
X404549Y185950D01*
X403402Y185337D01*
X402397Y184512D01*
X401572Y183507D01*
X400960Y182361D01*
X400582Y181117D01*
X400455Y179823D01*
X400582Y178529D01*
X400960Y177285D01*
X401572Y176138D01*
X402397Y175133D01*
X403402Y174309D01*
X404549Y173696D01*
X405793Y173318D01*
X407087Y173191D01*
X408381Y173318D01*
X409625Y173696D01*
X410771Y174309D01*
X411776Y175133D01*
X412601Y176138D01*
X413214Y177285D01*
X413591Y178529D01*
X413719Y179823D01*
X413591Y181117D01*
X413214Y182361D01*
X412601Y183507D01*
X411776Y184512D01*
X410771Y185337D01*
X409625Y185950D01*
X408381Y186327D01*
X407087Y186455D01*
D02*
G37*
G36*
X377658D02*
X376364Y186327D01*
X375120Y185950D01*
X373973Y185337D01*
X372968Y184512D01*
X372143Y183507D01*
X371530Y182361D01*
X371153Y181117D01*
X371026Y179823D01*
X371153Y178529D01*
X371530Y177285D01*
X372143Y176138D01*
X372968Y175133D01*
X373973Y174309D01*
X375120Y173696D01*
X376364Y173318D01*
X377658Y173191D01*
X378951Y173318D01*
X380195Y173696D01*
X381342Y174309D01*
X382347Y175133D01*
X383172Y176138D01*
X383785Y177285D01*
X384162Y178529D01*
X384290Y179823D01*
X384162Y181117D01*
X383785Y182361D01*
X383172Y183507D01*
X382347Y184512D01*
X381342Y185337D01*
X380195Y185950D01*
X378951Y186327D01*
X377658Y186455D01*
D02*
G37*
G36*
X454331D02*
X453037Y186327D01*
X451793Y185950D01*
X450646Y185337D01*
X449641Y184512D01*
X448816Y183507D01*
X448204Y182361D01*
X447826Y181117D01*
X447699Y179823D01*
X447826Y178529D01*
X448204Y177285D01*
X448816Y176138D01*
X449641Y175133D01*
X450646Y174309D01*
X451793Y173696D01*
X453037Y173318D01*
X454331Y173191D01*
X455625Y173318D01*
X456869Y173696D01*
X458015Y174309D01*
X459020Y175133D01*
X459845Y176138D01*
X460458Y177285D01*
X460835Y178529D01*
X460963Y179823D01*
X460835Y181117D01*
X460458Y182361D01*
X459845Y183507D01*
X459020Y184512D01*
X458015Y185337D01*
X456869Y185950D01*
X455625Y186327D01*
X454331Y186455D01*
D02*
G37*
G36*
X263583Y196323D02*
X262552Y196187D01*
X261592Y195790D01*
X260768Y195157D01*
X260136Y194333D01*
X259738Y193373D01*
X259602Y192342D01*
X259738Y191312D01*
X260136Y190352D01*
X260768Y189528D01*
X261592Y188895D01*
X262552Y188498D01*
X263583Y188362D01*
X264613Y188498D01*
X265573Y188895D01*
X266397Y189528D01*
X267030Y190352D01*
X267428Y191312D01*
X267563Y192342D01*
X267428Y193373D01*
X267030Y194333D01*
X266397Y195157D01*
X265573Y195790D01*
X264613Y196187D01*
X263583Y196323D01*
D02*
G37*
G36*
X483760Y186455D02*
X482466Y186327D01*
X481222Y185950D01*
X480076Y185337D01*
X479071Y184512D01*
X478246Y183507D01*
X477633Y182361D01*
X477255Y181117D01*
X477128Y179823D01*
X477255Y178529D01*
X477633Y177285D01*
X478246Y176138D01*
X479071Y175133D01*
X480076Y174309D01*
X481222Y173696D01*
X482466Y173318D01*
X483760Y173191D01*
X485054Y173318D01*
X486298Y173696D01*
X487444Y174309D01*
X488449Y175133D01*
X489274Y176138D01*
X489887Y177285D01*
X490265Y178529D01*
X490392Y179823D01*
X490265Y181117D01*
X489887Y182361D01*
X489274Y183507D01*
X488449Y184512D01*
X487444Y185337D01*
X486298Y185950D01*
X485054Y186327D01*
X483760Y186455D01*
D02*
G37*
G36*
X268102Y374205D02*
X264680D01*
X264681Y374188D01*
X264782Y373681D01*
X264949Y373191D01*
X265177Y372727D01*
X265465Y372297D01*
X265806Y371908D01*
X266195Y371567D01*
X266625Y371280D01*
X267089Y371051D01*
X267579Y370885D01*
X268086Y370784D01*
X268102Y370783D01*
Y374205D01*
D02*
G37*
G36*
X456693Y430588D02*
X456290Y430556D01*
X455897Y430462D01*
X455523Y430307D01*
X455178Y430096D01*
X454871Y429834D01*
X454608Y429526D01*
X454397Y429181D01*
X454243Y428808D01*
X454148Y428415D01*
X454116Y428012D01*
X454148Y427609D01*
X454243Y427216D01*
X454397Y426842D01*
X454608Y426497D01*
X454871Y426190D01*
X455178Y425927D01*
X455523Y425716D01*
X455897Y425562D01*
X456290Y425467D01*
X456693Y425435D01*
X457096Y425467D01*
X457489Y425562D01*
X457863Y425716D01*
X458207Y425927D01*
X458515Y426190D01*
X458777Y426497D01*
X458989Y426842D01*
X459143Y427216D01*
X459238Y427609D01*
X459269Y428012D01*
X459238Y428415D01*
X459143Y428808D01*
X458989Y429181D01*
X458777Y429526D01*
X458515Y429834D01*
X458207Y430096D01*
X457863Y430307D01*
X457489Y430462D01*
X457096Y430556D01*
X456693Y430588D01*
D02*
G37*
G36*
X272564Y428142D02*
X269142D01*
Y424720D01*
X269158Y424721D01*
X269665Y424822D01*
X270155Y424988D01*
X270619Y425217D01*
X271049Y425504D01*
X271438Y425845D01*
X271779Y426234D01*
X272067Y426664D01*
X272296Y427128D01*
X272462Y427618D01*
X272563Y428125D01*
X272564Y428142D01*
D02*
G37*
G36*
X268142D02*
X264720D01*
X264721Y428125D01*
X264822Y427618D01*
X264988Y427128D01*
X265217Y426664D01*
X265504Y426234D01*
X265845Y425845D01*
X266234Y425504D01*
X266664Y425217D01*
X267128Y424988D01*
X267618Y424822D01*
X268126Y424721D01*
X268142Y424720D01*
Y428142D01*
D02*
G37*
G36*
X280453Y444408D02*
X279937Y444374D01*
X279429Y444273D01*
X278939Y444107D01*
X278475Y443878D01*
X278045Y443590D01*
X277656Y443249D01*
X277315Y442860D01*
X277028Y442430D01*
X276799Y441966D01*
X276633Y441476D01*
X276532Y440969D01*
X276498Y440453D01*
X276532Y439936D01*
X276633Y439429D01*
X276799Y438939D01*
X277028Y438475D01*
X277315Y438045D01*
X277656Y437656D01*
X278045Y437315D01*
X278475Y437028D01*
X278939Y436799D01*
X279429Y436633D01*
X279937Y436532D01*
X280453Y436498D01*
X280969Y436532D01*
X281476Y436633D01*
X281966Y436799D01*
X282430Y437028D01*
X282860Y437315D01*
X283249Y437656D01*
X283590Y438045D01*
X283878Y438475D01*
X284107Y438939D01*
X284273Y439429D01*
X284374Y439936D01*
X284408Y440453D01*
X284374Y440969D01*
X284273Y441476D01*
X284107Y441966D01*
X283878Y442430D01*
X283590Y442860D01*
X283249Y443249D01*
X282860Y443590D01*
X282430Y443878D01*
X281966Y444107D01*
X281476Y444273D01*
X280969Y444374D01*
X280453Y444408D01*
D02*
G37*
G36*
X269142Y432564D02*
Y429142D01*
X272564D01*
X272563Y429158D01*
X272462Y429665D01*
X272296Y430155D01*
X272067Y430619D01*
X271779Y431049D01*
X271438Y431438D01*
X271049Y431779D01*
X270619Y432067D01*
X270155Y432296D01*
X269665Y432462D01*
X269158Y432563D01*
X269142Y432564D01*
D02*
G37*
G36*
X268142D02*
X268126Y432563D01*
X267618Y432462D01*
X267128Y432296D01*
X266664Y432067D01*
X266234Y431779D01*
X265845Y431438D01*
X265504Y431049D01*
X265217Y430619D01*
X264988Y430155D01*
X264822Y429665D01*
X264721Y429158D01*
X264720Y429142D01*
X268142D01*
Y432564D01*
D02*
G37*
G36*
X505747Y429744D02*
X505154Y429705D01*
X504570Y429589D01*
X504007Y429397D01*
X503474Y429134D01*
X502979Y428804D01*
X502532Y428412D01*
X502140Y427965D01*
X501810Y427470D01*
X501547Y426937D01*
X501355Y426374D01*
X501239Y425790D01*
X501200Y425197D01*
X501239Y424603D01*
X501355Y424020D01*
X501547Y423457D01*
X501810Y422924D01*
X502140Y422429D01*
X502532Y421982D01*
X502979Y421590D01*
X503474Y421259D01*
X504007Y420996D01*
X504570Y420805D01*
X505154Y420689D01*
X505747Y420650D01*
X506341Y420689D01*
X506924Y420805D01*
X507487Y420996D01*
X508021Y421259D01*
X508515Y421590D01*
X508962Y421982D01*
X509354Y422429D01*
X509685Y422924D01*
X509948Y423457D01*
X510139Y424020D01*
X510255Y424603D01*
X510294Y425197D01*
X510255Y425790D01*
X510139Y426374D01*
X509948Y426937D01*
X509685Y427470D01*
X509354Y427965D01*
X508962Y428412D01*
X508515Y428804D01*
X508021Y429134D01*
X507487Y429397D01*
X506924Y429589D01*
X506341Y429705D01*
X505747Y429744D01*
D02*
G37*
G36*
X534547Y431805D02*
X533899Y431773D01*
X533258Y431678D01*
X532629Y431520D01*
X532019Y431302D01*
X531432Y431025D01*
X530876Y430691D01*
X530355Y430305D01*
X529875Y429869D01*
X529439Y429389D01*
X529053Y428868D01*
X528720Y428312D01*
X528442Y427726D01*
X528224Y427115D01*
X528066Y426486D01*
X527971Y425844D01*
X527939Y425197D01*
X527971Y424549D01*
X528066Y423908D01*
X528224Y423279D01*
X528442Y422668D01*
X528720Y422082D01*
X529053Y421526D01*
X529439Y421005D01*
X529875Y420524D01*
X530355Y420089D01*
X530876Y419702D01*
X531432Y419369D01*
X532019Y419092D01*
X532629Y418873D01*
X533258Y418716D01*
X533899Y418621D01*
X534547Y418589D01*
X535195Y418621D01*
X535836Y418716D01*
X536465Y418873D01*
X537076Y419092D01*
X537662Y419369D01*
X538218Y419702D01*
X538739Y420089D01*
X539220Y420524D01*
X539655Y421005D01*
X540042Y421526D01*
X540375Y422082D01*
X540652Y422668D01*
X540871Y423279D01*
X541028Y423908D01*
X541123Y424549D01*
X541155Y425197D01*
X541123Y425844D01*
X541028Y426486D01*
X540871Y427115D01*
X540652Y427726D01*
X540375Y428312D01*
X540042Y428868D01*
X539655Y429389D01*
X539220Y429869D01*
X538739Y430305D01*
X538218Y430691D01*
X537662Y431025D01*
X537076Y431302D01*
X536465Y431520D01*
X535836Y431678D01*
X535195Y431773D01*
X534547Y431805D01*
D02*
G37*
G36*
X269142Y420753D02*
Y417331D01*
X272564D01*
X272563Y417347D01*
X272462Y417854D01*
X272296Y418344D01*
X272067Y418808D01*
X271779Y419238D01*
X271438Y419627D01*
X271049Y419968D01*
X270619Y420256D01*
X270155Y420485D01*
X269665Y420651D01*
X269158Y420752D01*
X269142Y420753D01*
D02*
G37*
G36*
X280453Y432597D02*
X279937Y432563D01*
X279429Y432462D01*
X278939Y432296D01*
X278475Y432067D01*
X278045Y431779D01*
X277656Y431438D01*
X277315Y431049D01*
X277028Y430619D01*
X276799Y430155D01*
X276633Y429665D01*
X276532Y429158D01*
X276498Y428642D01*
X276532Y428125D01*
X276633Y427618D01*
X276799Y427128D01*
X277028Y426664D01*
X277315Y426234D01*
X277656Y425845D01*
X278045Y425504D01*
X278475Y425217D01*
X278939Y424988D01*
X279429Y424822D01*
X279937Y424721D01*
X280453Y424687D01*
X280969Y424721D01*
X281476Y424822D01*
X281966Y424988D01*
X282430Y425217D01*
X282860Y425504D01*
X283249Y425845D01*
X283590Y426234D01*
X283878Y426664D01*
X284107Y427128D01*
X284273Y427618D01*
X284374Y428125D01*
X284408Y428642D01*
X284374Y429158D01*
X284273Y429665D01*
X284107Y430155D01*
X283878Y430619D01*
X283590Y431049D01*
X283249Y431438D01*
X282860Y431779D01*
X282430Y432067D01*
X281966Y432296D01*
X281476Y432462D01*
X280969Y432563D01*
X280453Y432597D01*
D02*
G37*
G36*
X251634Y435155D02*
X250995Y435124D01*
X250363Y435030D01*
X249743Y434875D01*
X249141Y434659D01*
X248564Y434386D01*
X248015Y434057D01*
X247502Y433677D01*
X247028Y433247D01*
X246599Y432774D01*
X246218Y432260D01*
X245890Y431712D01*
X245616Y431134D01*
X245401Y430533D01*
X245246Y429912D01*
X245152Y429280D01*
X245121Y428642D01*
X245152Y428003D01*
X245246Y427371D01*
X245401Y426751D01*
X245616Y426149D01*
X245890Y425571D01*
X246218Y425023D01*
X246599Y424510D01*
X247028Y424036D01*
X247502Y423607D01*
X248015Y423226D01*
X248564Y422897D01*
X249141Y422624D01*
X249743Y422409D01*
X250363Y422254D01*
X250995Y422160D01*
X251634Y422128D01*
X252272Y422160D01*
X252905Y422254D01*
X253525Y422409D01*
X254126Y422624D01*
X254704Y422897D01*
X255253Y423226D01*
X255766Y423607D01*
X256240Y424036D01*
X256669Y424510D01*
X257049Y425023D01*
X257378Y425571D01*
X257651Y426149D01*
X257867Y426751D01*
X258022Y427371D01*
X258116Y428003D01*
X258147Y428642D01*
X258116Y429280D01*
X258022Y429912D01*
X257867Y430533D01*
X257651Y431134D01*
X257378Y431712D01*
X257049Y432260D01*
X256669Y432774D01*
X256240Y433247D01*
X255766Y433677D01*
X255253Y434057D01*
X254704Y434386D01*
X254126Y434659D01*
X253525Y434875D01*
X252905Y435030D01*
X252272Y435124D01*
X251634Y435155D01*
D02*
G37*
G36*
X517547Y429744D02*
X516954Y429705D01*
X516370Y429589D01*
X515807Y429397D01*
X515274Y429134D01*
X514779Y428804D01*
X514332Y428412D01*
X513940Y427965D01*
X513610Y427470D01*
X513347Y426937D01*
X513155Y426374D01*
X513039Y425790D01*
X513000Y425197D01*
X513039Y424603D01*
X513155Y424020D01*
X513347Y423457D01*
X513610Y422924D01*
X513940Y422429D01*
X514332Y421982D01*
X514779Y421590D01*
X515274Y421259D01*
X515807Y420996D01*
X516370Y420805D01*
X516954Y420689D01*
X517547Y420650D01*
X518141Y420689D01*
X518724Y420805D01*
X519287Y420996D01*
X519821Y421259D01*
X520315Y421590D01*
X520762Y421982D01*
X521154Y422429D01*
X521485Y422924D01*
X521748Y423457D01*
X521939Y424020D01*
X522055Y424603D01*
X522094Y425197D01*
X522055Y425790D01*
X521939Y426374D01*
X521748Y426937D01*
X521485Y427470D01*
X521154Y427965D01*
X520762Y428412D01*
X520315Y428804D01*
X519821Y429134D01*
X519287Y429397D01*
X518724Y429589D01*
X518141Y429705D01*
X517547Y429744D01*
D02*
G37*
G36*
X418246Y494283D02*
X415480D01*
Y491518D01*
X415836Y491589D01*
X416246Y491728D01*
X416634Y491919D01*
X416994Y492160D01*
X417319Y492445D01*
X417604Y492770D01*
X417844Y493130D01*
X418036Y493518D01*
X418175Y493927D01*
X418246Y494283D01*
D02*
G37*
G36*
X414480D02*
X411715D01*
X411786Y493927D01*
X411925Y493518D01*
X412116Y493130D01*
X412357Y492770D01*
X412642Y492445D01*
X412967Y492160D01*
X413327Y491919D01*
X413715Y491728D01*
X414124Y491589D01*
X414480Y491518D01*
Y494283D01*
D02*
G37*
G36*
X384980Y498091D02*
X384549Y498062D01*
X384124Y497978D01*
X383715Y497839D01*
X383327Y497647D01*
X382967Y497407D01*
X382642Y497122D01*
X382357Y496797D01*
X382116Y496437D01*
X381925Y496049D01*
X381786Y495639D01*
X381701Y495215D01*
X381673Y494783D01*
X381701Y494352D01*
X381786Y493927D01*
X381925Y493518D01*
X382116Y493130D01*
X382357Y492770D01*
X382642Y492445D01*
X382967Y492160D01*
X383327Y491919D01*
X383715Y491728D01*
X384124Y491589D01*
X384549Y491505D01*
X384980Y491476D01*
X385412Y491505D01*
X385836Y491589D01*
X386246Y491728D01*
X386634Y491919D01*
X386994Y492160D01*
X387319Y492445D01*
X387604Y492770D01*
X387844Y493130D01*
X388036Y493518D01*
X388175Y493927D01*
X388259Y494352D01*
X388287Y494783D01*
X388259Y495215D01*
X388175Y495639D01*
X388036Y496049D01*
X387844Y496437D01*
X387604Y496797D01*
X387319Y497122D01*
X386994Y497407D01*
X386634Y497647D01*
X386246Y497839D01*
X385836Y497978D01*
X385412Y498062D01*
X384980Y498091D01*
D02*
G37*
G36*
X415480Y498049D02*
Y495284D01*
X418246D01*
X418175Y495639D01*
X418036Y496049D01*
X417844Y496437D01*
X417604Y496797D01*
X417319Y497122D01*
X416994Y497407D01*
X416634Y497647D01*
X416246Y497839D01*
X415836Y497978D01*
X415480Y498049D01*
D02*
G37*
G36*
X414480D02*
X414124Y497978D01*
X413715Y497839D01*
X413327Y497647D01*
X412967Y497407D01*
X412642Y497122D01*
X412357Y496797D01*
X412116Y496437D01*
X411925Y496049D01*
X411786Y495639D01*
X411715Y495284D01*
X414480D01*
Y498049D01*
D02*
G37*
G36*
X404980Y498091D02*
X404549Y498062D01*
X404124Y497978D01*
X403715Y497839D01*
X403327Y497647D01*
X402967Y497407D01*
X402642Y497122D01*
X402357Y496797D01*
X402116Y496437D01*
X401925Y496049D01*
X401786Y495639D01*
X401701Y495215D01*
X401673Y494783D01*
X401701Y494352D01*
X401786Y493927D01*
X401925Y493518D01*
X401998Y493370D01*
X400721Y492093D01*
X398340D01*
X398196Y492226D01*
X397820Y493093D01*
X397844Y493130D01*
X398036Y493518D01*
X398175Y493927D01*
X398259Y494352D01*
X398287Y494783D01*
X398259Y495215D01*
X398175Y495639D01*
X398036Y496049D01*
X397844Y496437D01*
X397604Y496797D01*
X397319Y497122D01*
X396993Y497407D01*
X396634Y497647D01*
X396246Y497839D01*
X395836Y497978D01*
X395412Y498062D01*
X394980Y498091D01*
X394549Y498062D01*
X394124Y497978D01*
X393715Y497839D01*
X393327Y497647D01*
X392967Y497407D01*
X392642Y497122D01*
X392357Y496797D01*
X392116Y496437D01*
X391925Y496049D01*
X391786Y495639D01*
X391702Y495215D01*
X391673Y494783D01*
X391702Y494352D01*
X391786Y493927D01*
X391925Y493518D01*
X391998Y493370D01*
X385903Y487275D01*
X385726Y487045D01*
X385616Y486778D01*
X385578Y486490D01*
Y464312D01*
X385176Y463911D01*
X384906Y463884D01*
X384570Y463782D01*
X384261Y463617D01*
X383990Y463394D01*
X383767Y463123D01*
X383601Y462814D01*
X383500Y462478D01*
X383465Y462129D01*
X383500Y461780D01*
X383601Y461444D01*
X383767Y461134D01*
X383990Y460863D01*
X384261Y460641D01*
X384570Y460475D01*
X384906Y460373D01*
X385255Y460339D01*
X385604Y460373D01*
X385940Y460475D01*
X386249Y460641D01*
X386521Y460863D01*
X387022Y460841D01*
X387293Y460618D01*
X387293Y460618D01*
X387602Y460453D01*
X387938Y460351D01*
X388287Y460317D01*
X388637Y460351D01*
X388972Y460453D01*
X389282Y460618D01*
X389553Y460841D01*
X389775Y461112D01*
X389941Y461421D01*
X390043Y461757D01*
X390077Y462106D01*
X390043Y462456D01*
X389941Y462791D01*
X389775Y463101D01*
X389553Y463372D01*
X389397Y463500D01*
Y485368D01*
X393903Y489874D01*
X401180D01*
X401468Y489912D01*
X401735Y490023D01*
X401965Y490199D01*
X403567Y491801D01*
X403715Y491728D01*
X404124Y491589D01*
X404549Y491505D01*
X404980Y491476D01*
X405412Y491505D01*
X405836Y491589D01*
X406246Y491728D01*
X406634Y491919D01*
X406993Y492160D01*
X407319Y492445D01*
X407604Y492770D01*
X407844Y493130D01*
X408036Y493518D01*
X408175Y493927D01*
X408259Y494352D01*
X408287Y494783D01*
X408259Y495215D01*
X408175Y495639D01*
X408036Y496049D01*
X407844Y496437D01*
X407604Y496797D01*
X407319Y497122D01*
X406993Y497407D01*
X406634Y497647D01*
X406246Y497839D01*
X405836Y497978D01*
X405412Y498062D01*
X404980Y498091D01*
D02*
G37*
G36*
X268142Y444375D02*
X268126Y444374D01*
X267618Y444273D01*
X267128Y444107D01*
X266664Y443878D01*
X266234Y443590D01*
X265845Y443249D01*
X265504Y442860D01*
X265217Y442430D01*
X264988Y441966D01*
X264822Y441476D01*
X264721Y440969D01*
X264720Y440953D01*
X268142D01*
Y444375D01*
D02*
G37*
G36*
Y439953D02*
X264720D01*
X264721Y439936D01*
X264822Y439429D01*
X264988Y438939D01*
X265217Y438475D01*
X265504Y438045D01*
X265845Y437656D01*
X266234Y437315D01*
X266664Y437028D01*
X267128Y436799D01*
X267618Y436633D01*
X268126Y436532D01*
X268142Y436531D01*
Y439953D01*
D02*
G37*
G36*
X272564D02*
X269142D01*
Y436531D01*
X269158Y436532D01*
X269665Y436633D01*
X270155Y436799D01*
X270619Y437028D01*
X271049Y437315D01*
X271438Y437656D01*
X271779Y438045D01*
X272067Y438475D01*
X272296Y438939D01*
X272462Y439429D01*
X272563Y439936D01*
X272564Y439953D01*
D02*
G37*
G36*
X296148Y475976D02*
X291634D01*
X287120D01*
X287126Y475883D01*
X287242Y475300D01*
X287433Y474736D01*
X287696Y474203D01*
X288027Y473708D01*
X288419Y473261D01*
X288866Y472869D01*
X289360Y472539D01*
X289894Y472276D01*
X290457Y472085D01*
X291040Y471969D01*
Y470984D01*
X290457Y470868D01*
X289894Y470677D01*
X289360Y470414D01*
X288866Y470084D01*
X288419Y469691D01*
X288027Y469244D01*
X287696Y468750D01*
X287433Y468216D01*
X287242Y467653D01*
X287126Y467070D01*
X287087Y466476D01*
X287126Y465883D01*
X287242Y465300D01*
X287433Y464736D01*
X287696Y464203D01*
X288027Y463708D01*
X288419Y463261D01*
X288866Y462869D01*
X289360Y462539D01*
X289894Y462276D01*
X290457Y462085D01*
X291040Y461969D01*
X291634Y461930D01*
X292227Y461969D01*
X292811Y462085D01*
X293374Y462276D01*
X293907Y462539D01*
X294402Y462869D01*
X294849Y463261D01*
X295241Y463708D01*
X295571Y464203D01*
X295834Y464736D01*
X296026Y465300D01*
X296142Y465883D01*
X296181Y466476D01*
X296142Y467070D01*
X296026Y467653D01*
X295834Y468216D01*
X295571Y468750D01*
X295241Y469244D01*
X294849Y469691D01*
X294402Y470084D01*
X293907Y470414D01*
X293374Y470677D01*
X292811Y470868D01*
X292227Y470984D01*
Y471969D01*
X292811Y472085D01*
X293374Y472276D01*
X293907Y472539D01*
X294402Y472869D01*
X294849Y473261D01*
X295241Y473708D01*
X295571Y474203D01*
X295834Y474736D01*
X296026Y475300D01*
X296142Y475883D01*
X296148Y475976D01*
D02*
G37*
G36*
X470177Y481416D02*
X469828Y481381D01*
X469492Y481280D01*
X469183Y481114D01*
X468912Y480892D01*
X468689Y480620D01*
X468524Y480311D01*
X468422Y479975D01*
X468387Y479626D01*
X468407Y479425D01*
X467916Y478934D01*
X467740Y478704D01*
X467629Y478437D01*
X467591Y478150D01*
Y462012D01*
X467435Y461884D01*
X467213Y461613D01*
X467047Y461303D01*
X466946Y460967D01*
X466911Y460618D01*
X466946Y460269D01*
X467047Y459933D01*
X467213Y459624D01*
X467435Y459353D01*
X467706Y459130D01*
X468016Y458965D01*
X468352Y458863D01*
X468701Y458828D01*
X469050Y458863D01*
X469386Y458965D01*
X469695Y459130D01*
X469966Y459353D01*
X470189Y459624D01*
X470354Y459933D01*
X470456Y460269D01*
X470491Y460618D01*
X470456Y460967D01*
X470354Y461303D01*
X470189Y461613D01*
X469966Y461884D01*
X469810Y462012D01*
Y476897D01*
X470177Y477836D01*
X470526Y477871D01*
X470862Y477973D01*
X471172Y478138D01*
X471443Y478361D01*
X471665Y478632D01*
X471831Y478941D01*
X471933Y479277D01*
X471967Y479626D01*
X471933Y479975D01*
X471831Y480311D01*
X471665Y480620D01*
X471443Y480892D01*
X471172Y481114D01*
X470862Y481280D01*
X470526Y481381D01*
X470177Y481416D01*
D02*
G37*
G36*
X269142Y444375D02*
Y440953D01*
X272564D01*
X272563Y440969D01*
X272462Y441476D01*
X272296Y441966D01*
X272067Y442430D01*
X271779Y442860D01*
X271438Y443249D01*
X271049Y443590D01*
X270619Y443878D01*
X270155Y444107D01*
X269665Y444273D01*
X269158Y444374D01*
X269142Y444375D01*
D02*
G37*
G36*
X268142Y420753D02*
X268126Y420752D01*
X267618Y420651D01*
X267128Y420485D01*
X266664Y420256D01*
X266234Y419968D01*
X265845Y419627D01*
X265504Y419238D01*
X265217Y418808D01*
X264988Y418344D01*
X264822Y417854D01*
X264721Y417347D01*
X264720Y417331D01*
X268142D01*
Y420753D01*
D02*
G37*
G36*
X269102Y390438D02*
Y387016D01*
X272524D01*
X272523Y387032D01*
X272423Y387539D01*
X272256Y388029D01*
X272027Y388493D01*
X271740Y388923D01*
X271399Y389312D01*
X271010Y389653D01*
X270580Y389941D01*
X270116Y390170D01*
X269626Y390336D01*
X269119Y390437D01*
X269102Y390438D01*
D02*
G37*
G36*
X268102D02*
X268086Y390437D01*
X267579Y390336D01*
X267089Y390170D01*
X266625Y389941D01*
X266195Y389653D01*
X265806Y389312D01*
X265465Y388923D01*
X265177Y388493D01*
X264949Y388029D01*
X264782Y387539D01*
X264681Y387032D01*
X264680Y387016D01*
X268102D01*
Y390438D01*
D02*
G37*
G36*
X333661Y399822D02*
X333274Y399784D01*
X332901Y399671D01*
X332557Y399487D01*
X332256Y399240D01*
X332009Y398939D01*
X331825Y398595D01*
X331712Y398222D01*
X331674Y397835D01*
X331712Y397447D01*
X331825Y397074D01*
X332009Y396730D01*
X332256Y396429D01*
X332557Y396182D01*
X332749Y396080D01*
Y390329D01*
X332453Y390087D01*
X332206Y389785D01*
X332022Y389442D01*
X331909Y389069D01*
X331871Y388681D01*
X331909Y388293D01*
X332022Y387920D01*
X332206Y387577D01*
X332453Y387276D01*
X332754Y387029D01*
X333098Y386845D01*
X333471Y386732D01*
X333858Y386694D01*
X334246Y386732D01*
X334619Y386845D01*
X334963Y387029D01*
X335264Y387276D01*
X335511Y387577D01*
X335695Y387920D01*
X335808Y388293D01*
X335846Y388681D01*
X335808Y389069D01*
X335695Y389442D01*
X335511Y389785D01*
X335264Y390087D01*
X334968Y390329D01*
Y396348D01*
X335067Y396429D01*
X335314Y396730D01*
X335498Y397074D01*
X335611Y397447D01*
X335649Y397835D01*
X335611Y398222D01*
X335498Y398595D01*
X335314Y398939D01*
X335067Y399240D01*
X334766Y399487D01*
X334422Y399671D01*
X334049Y399784D01*
X333661Y399822D01*
D02*
G37*
G36*
X416035Y393398D02*
X414419D01*
X414461Y393224D01*
X414592Y392907D01*
X414771Y392615D01*
X414993Y392355D01*
X415253Y392133D01*
X415545Y391954D01*
X415861Y391823D01*
X416035Y391781D01*
Y393398D01*
D02*
G37*
G36*
X280913Y390438D02*
Y387016D01*
X284336D01*
X284334Y387032D01*
X284234Y387539D01*
X284067Y388029D01*
X283839Y388493D01*
X283551Y388923D01*
X283210Y389312D01*
X282821Y389653D01*
X282391Y389941D01*
X281927Y390170D01*
X281437Y390336D01*
X280930Y390437D01*
X280913Y390438D01*
D02*
G37*
G36*
X279913D02*
X279897Y390437D01*
X279390Y390336D01*
X278900Y390170D01*
X278436Y389941D01*
X278006Y389653D01*
X277617Y389312D01*
X277276Y388923D01*
X276988Y388493D01*
X276760Y388029D01*
X276593Y387539D01*
X276492Y387032D01*
X276491Y387016D01*
X279913D01*
Y390438D01*
D02*
G37*
G36*
X272524Y386016D02*
X269102D01*
Y382594D01*
X269119Y382595D01*
X269626Y382696D01*
X270116Y382862D01*
X270580Y383091D01*
X271010Y383378D01*
X271399Y383719D01*
X271740Y384108D01*
X272027Y384538D01*
X272256Y385002D01*
X272423Y385492D01*
X272523Y385999D01*
X272524Y386016D01*
D02*
G37*
G36*
X269102Y378627D02*
Y375205D01*
X272524D01*
X272523Y375221D01*
X272423Y375728D01*
X272256Y376218D01*
X272027Y376682D01*
X271740Y377112D01*
X271399Y377501D01*
X271010Y377842D01*
X270580Y378130D01*
X270116Y378359D01*
X269626Y378525D01*
X269119Y378626D01*
X269102Y378627D01*
D02*
G37*
G36*
X268102D02*
X268086Y378626D01*
X267579Y378525D01*
X267089Y378359D01*
X266625Y378130D01*
X266195Y377842D01*
X265806Y377501D01*
X265465Y377112D01*
X265177Y376682D01*
X264949Y376218D01*
X264782Y375728D01*
X264681Y375221D01*
X264680Y375205D01*
X268102D01*
Y378627D01*
D02*
G37*
G36*
X268102Y386016D02*
X264680D01*
X264681Y385999D01*
X264782Y385492D01*
X264949Y385002D01*
X265177Y384538D01*
X265465Y384108D01*
X265806Y383719D01*
X266195Y383378D01*
X266625Y383091D01*
X267089Y382862D01*
X267579Y382696D01*
X268086Y382595D01*
X268102Y382594D01*
Y386016D01*
D02*
G37*
G36*
X279913Y386016D02*
X276491D01*
X276492Y385999D01*
X276593Y385492D01*
X276760Y385002D01*
X276988Y384538D01*
X277276Y384108D01*
X277617Y383719D01*
X278006Y383378D01*
X278436Y383091D01*
X278900Y382862D01*
X279390Y382696D01*
X279897Y382595D01*
X279913Y382594D01*
Y386016D01*
D02*
G37*
G36*
X284336D02*
X280913D01*
Y382594D01*
X280930Y382595D01*
X281437Y382696D01*
X281927Y382862D01*
X282391Y383091D01*
X282821Y383378D01*
X283210Y383719D01*
X283551Y384108D01*
X283839Y384538D01*
X284067Y385002D01*
X284234Y385492D01*
X284334Y385999D01*
X284336Y386016D01*
D02*
G37*
G36*
X268142Y416331D02*
X264720D01*
X264721Y416315D01*
X264822Y415807D01*
X264988Y415317D01*
X265217Y414853D01*
X265504Y414423D01*
X265845Y414034D01*
X266234Y413693D01*
X266664Y413406D01*
X267128Y413177D01*
X267618Y413011D01*
X268126Y412910D01*
X268142Y412909D01*
Y416331D01*
D02*
G37*
G36*
X436656Y435285D02*
X436247Y435253D01*
X435850Y435158D01*
X435471Y435001D01*
X435122Y434787D01*
X434811Y434521D01*
X427880Y427590D01*
X427614Y427279D01*
X427401Y426930D01*
X427244Y426552D01*
X427148Y426154D01*
X427116Y425746D01*
Y415453D01*
X427148Y415045D01*
X427244Y414647D01*
X427401Y414269D01*
X427614Y413920D01*
X427880Y413609D01*
X428191Y413343D01*
X428540Y413129D01*
X428919Y412972D01*
X429316Y412877D01*
X429724Y412845D01*
X430132Y412877D01*
X430530Y412972D01*
X430908Y413129D01*
X431257Y413343D01*
X431569Y413609D01*
X431834Y413920D01*
X432048Y414269D01*
X432205Y414647D01*
X432300Y415045D01*
X432332Y415453D01*
Y424666D01*
X438500Y430833D01*
X438765Y431144D01*
X438979Y431493D01*
X439136Y431871D01*
X439231Y432269D01*
X439263Y432677D01*
X439231Y433085D01*
X439136Y433483D01*
X438979Y433861D01*
X438765Y434210D01*
X438500Y434521D01*
X438189Y434787D01*
X437840Y435001D01*
X437461Y435158D01*
X437064Y435253D01*
X436656Y435285D01*
D02*
G37*
G36*
X280453Y420786D02*
X279937Y420752D01*
X279429Y420651D01*
X278939Y420485D01*
X278475Y420256D01*
X278045Y419968D01*
X277656Y419627D01*
X277315Y419238D01*
X277028Y418808D01*
X276799Y418344D01*
X276633Y417854D01*
X276532Y417347D01*
X276498Y416831D01*
X276532Y416315D01*
X276633Y415807D01*
X276799Y415317D01*
X277028Y414853D01*
X277315Y414423D01*
X277656Y414034D01*
X278045Y413693D01*
X278475Y413406D01*
X278939Y413177D01*
X279429Y413011D01*
X279937Y412910D01*
X280453Y412876D01*
X280969Y412910D01*
X281476Y413011D01*
X281966Y413177D01*
X282430Y413406D01*
X282860Y413693D01*
X283249Y414034D01*
X283590Y414423D01*
X283878Y414853D01*
X284107Y415317D01*
X284273Y415807D01*
X284374Y416315D01*
X284408Y416831D01*
X284374Y417347D01*
X284273Y417854D01*
X284107Y418344D01*
X283878Y418808D01*
X283590Y419238D01*
X283249Y419627D01*
X282860Y419968D01*
X282430Y420256D01*
X281966Y420485D01*
X281476Y420651D01*
X280969Y420752D01*
X280453Y420786D01*
D02*
G37*
G36*
X272564Y416331D02*
X269142D01*
Y412909D01*
X269158Y412910D01*
X269665Y413011D01*
X270155Y413177D01*
X270619Y413406D01*
X271049Y413693D01*
X271438Y414034D01*
X271779Y414423D01*
X272067Y414853D01*
X272296Y415317D01*
X272462Y415807D01*
X272563Y416315D01*
X272564Y416331D01*
D02*
G37*
G36*
X413583Y407497D02*
X413241Y407470D01*
X412909Y407390D01*
X412592Y407259D01*
X412300Y407080D01*
X412040Y406857D01*
X411818Y406597D01*
X411639Y406305D01*
X411508Y405989D01*
X411428Y405656D01*
X411401Y405315D01*
X410620Y404751D01*
X408480D01*
X408352Y404907D01*
X408081Y405130D01*
X407771Y405295D01*
X407436Y405397D01*
X407087Y405431D01*
X406737Y405397D01*
X406402Y405295D01*
X406092Y405130D01*
X405821Y404907D01*
X405598Y404636D01*
X405433Y404327D01*
X405331Y403991D01*
X405320Y403878D01*
X404987Y403440D01*
X404429Y403076D01*
X404380Y403064D01*
X404331Y403069D01*
X403982Y403035D01*
X403646Y402933D01*
X403336Y402768D01*
X403065Y402545D01*
X402928Y402378D01*
X402860Y402338D01*
X402428Y402250D01*
X401845Y402222D01*
X401724Y402259D01*
X401585Y402374D01*
X401275Y402539D01*
X400940Y402641D01*
X400591Y402676D01*
X400241Y402641D01*
X399906Y402539D01*
X399596Y402374D01*
X399325Y402151D01*
X399102Y401880D01*
X398937Y401571D01*
X398835Y401235D01*
X398801Y400886D01*
X398835Y400537D01*
X398937Y400201D01*
X399102Y399891D01*
X399325Y399620D01*
X399596Y399398D01*
X399906Y399232D01*
X400241Y399131D01*
X400591Y399096D01*
X400791Y399116D01*
X401693Y398214D01*
X401923Y398038D01*
X402191Y397927D01*
X402478Y397889D01*
X402478Y397889D01*
X404056D01*
X404263Y397780D01*
X404923Y397067D01*
X404957Y396718D01*
X405059Y396382D01*
X405225Y396072D01*
X405447Y395801D01*
X405718Y395579D01*
X406028Y395413D01*
X406364Y395311D01*
X406713Y395277D01*
X407062Y395311D01*
X407398Y395413D01*
X407707Y395579D01*
X407978Y395801D01*
X408106Y395957D01*
X414119D01*
X414384Y395641D01*
X414634Y394957D01*
X414592Y394888D01*
X414461Y394572D01*
X414419Y394398D01*
X416535D01*
X418652D01*
X418610Y394572D01*
X418479Y394888D01*
X418437Y394957D01*
X418687Y395641D01*
X418952Y395957D01*
X425330D01*
X426108Y395180D01*
X426337Y395004D01*
X426605Y394893D01*
X426892Y394855D01*
X428921D01*
X429049Y394699D01*
X429321Y394477D01*
X429630Y394311D01*
X429966Y394209D01*
X430315Y394175D01*
X430664Y394209D01*
X431000Y394311D01*
X431309Y394477D01*
X431580Y394699D01*
X431803Y394970D01*
X431968Y395280D01*
X432070Y395615D01*
X432105Y395965D01*
X432070Y396314D01*
X431968Y396650D01*
X431803Y396959D01*
X431580Y397230D01*
X431309Y397453D01*
X431000Y397618D01*
X430664Y397720D01*
X430315Y397754D01*
X429630Y398533D01*
X429594Y398619D01*
X429565Y399133D01*
X429843Y399412D01*
X430032Y399501D01*
X430270Y399524D01*
X430606Y399626D01*
X430916Y399791D01*
X431187Y400014D01*
X431409Y400285D01*
X431575Y400595D01*
X431677Y400930D01*
X431711Y401279D01*
X431677Y401629D01*
X431575Y401964D01*
X431409Y402274D01*
X431187Y402545D01*
X430916Y402768D01*
X430606Y402933D01*
X430270Y403035D01*
X429921Y403069D01*
X429572Y403035D01*
X429236Y402933D01*
X428927Y402768D01*
X428656Y402545D01*
X428528Y402389D01*
X425122D01*
X424929Y402521D01*
X424432Y403236D01*
X424403Y403389D01*
X424428Y403642D01*
X424393Y403991D01*
X424291Y404327D01*
X424126Y404636D01*
X423903Y404907D01*
X423632Y405130D01*
X423323Y405295D01*
X422987Y405397D01*
X422638Y405431D01*
X422347Y405403D01*
X421633Y406117D01*
X421404Y406293D01*
X421136Y406404D01*
X420849Y406442D01*
X415443D01*
X415348Y406597D01*
X415125Y406857D01*
X414865Y407080D01*
X414573Y407259D01*
X414257Y407390D01*
X413924Y407470D01*
X413583Y407497D01*
D02*
G37*
G36*
X418652Y393398D02*
X417035D01*
Y391781D01*
X417210Y391823D01*
X417526Y391954D01*
X417818Y392133D01*
X418078Y392355D01*
X418300Y392615D01*
X418479Y392907D01*
X418610Y393224D01*
X418652Y393398D01*
D02*
G37*
G36*
X396260Y411928D02*
X395911Y411893D01*
X395575Y411791D01*
X395266Y411626D01*
X394994Y411403D01*
X394866Y411247D01*
X388113D01*
X388113Y411247D01*
X387825Y411209D01*
X387558Y411099D01*
X387328Y410922D01*
X387328Y410922D01*
X367048Y390643D01*
X366872Y390413D01*
X366761Y390145D01*
X366723Y389858D01*
Y386353D01*
X366567Y386225D01*
X366345Y385954D01*
X366179Y385645D01*
X366078Y385309D01*
X366043Y384960D01*
X366078Y384611D01*
X366179Y384275D01*
X366345Y383965D01*
X366567Y383694D01*
X366839Y383472D01*
X367148Y383306D01*
X367484Y383204D01*
X367833Y383170D01*
X368182Y383204D01*
X368518Y383306D01*
X368827Y383472D01*
X369098Y383694D01*
X369321Y383965D01*
X369486Y384275D01*
X369588Y384611D01*
X369623Y384960D01*
X369588Y385309D01*
X369486Y385645D01*
X369321Y385954D01*
X369098Y386225D01*
X368942Y386353D01*
Y389399D01*
X388572Y409028D01*
X394866D01*
X394994Y408872D01*
X395266Y408650D01*
X395575Y408484D01*
X395911Y408383D01*
X396260Y408348D01*
X396609Y408383D01*
X396945Y408484D01*
X397254Y408650D01*
X397525Y408872D01*
X397748Y409143D01*
X397913Y409453D01*
X398015Y409789D01*
X398050Y410138D01*
X398015Y410487D01*
X397913Y410823D01*
X397748Y411132D01*
X397525Y411403D01*
X397254Y411626D01*
X396945Y411791D01*
X396609Y411893D01*
X396260Y411928D01*
D02*
G37*
G36*
X456693Y411376D02*
X456290Y411344D01*
X455897Y411249D01*
X455523Y411095D01*
X455178Y410884D01*
X454871Y410621D01*
X454608Y410314D01*
X454397Y409969D01*
X454243Y409595D01*
X454148Y409202D01*
X454116Y408799D01*
X454148Y408396D01*
X454243Y408003D01*
X454397Y407629D01*
X454608Y407285D01*
X454871Y406977D01*
X455178Y406715D01*
X455523Y406504D01*
X455897Y406349D01*
X456290Y406254D01*
X456693Y406223D01*
X457096Y406254D01*
X457489Y406349D01*
X457863Y406504D01*
X458207Y406715D01*
X458515Y406977D01*
X458777Y407285D01*
X458989Y407629D01*
X459143Y408003D01*
X459238Y408396D01*
X459269Y408799D01*
X459238Y409202D01*
X459143Y409595D01*
X458989Y409969D01*
X458777Y410314D01*
X458515Y410621D01*
X458207Y410884D01*
X457863Y411095D01*
X457489Y411249D01*
X457096Y411344D01*
X456693Y411376D01*
D02*
G37*
%LPD*%
G36*
X428346Y245177D02*
X432087Y241437D01*
X432087Y201870D01*
X429724Y199508D01*
X394980Y199508D01*
X393012Y201476D01*
Y243209D01*
X394980Y245177D01*
X428346Y245177D01*
D02*
G37*
G36*
X351673D02*
X355413Y241437D01*
X355413Y201870D01*
X353051Y199508D01*
X318307Y199508D01*
X316339Y201476D01*
Y243209D01*
X318307Y245177D01*
X351673Y245177D01*
D02*
G37*
G36*
X505020D02*
X508760Y241437D01*
X508760Y201870D01*
X506398Y199508D01*
X471654Y199508D01*
X469685Y201476D01*
Y243209D01*
X471654Y245177D01*
X505020Y245177D01*
D02*
G37*
G36*
X275000D02*
X278740Y241437D01*
X278740Y201870D01*
X276378Y199508D01*
X241634Y199508D01*
X239665Y201476D01*
Y243209D01*
X241634Y245177D01*
X275000Y245177D01*
D02*
G37*
%LPC*%
G36*
X502224Y115791D02*
X501194Y115656D01*
X500234Y115258D01*
X499410Y114626D01*
X498777Y113801D01*
X498380Y112841D01*
X498244Y111811D01*
X498380Y110781D01*
X498777Y109821D01*
X499410Y108996D01*
X500234Y108364D01*
X501194Y107966D01*
X502224Y107831D01*
X503255Y107966D01*
X504215Y108364D01*
X505039Y108996D01*
X505672Y109821D01*
X506069Y110781D01*
X506205Y111811D01*
X506069Y112841D01*
X505672Y113801D01*
X505039Y114626D01*
X504215Y115258D01*
X503255Y115656D01*
X502224Y115791D01*
D02*
G37*
G36*
X284882Y115791D02*
X283852Y115656D01*
X282892Y115258D01*
X282067Y114626D01*
X281435Y113801D01*
X281037Y112841D01*
X280901Y111811D01*
X281037Y110781D01*
X281435Y109821D01*
X282067Y108996D01*
X282892Y108364D01*
X283852Y107966D01*
X284882Y107830D01*
X285912Y107966D01*
X286872Y108364D01*
X287697Y108996D01*
X288329Y109821D01*
X288727Y110781D01*
X288862Y111811D01*
X288727Y112841D01*
X288329Y113801D01*
X287697Y114626D01*
X286872Y115258D01*
X285912Y115656D01*
X284882Y115791D01*
D02*
G37*
G36*
X327105Y159988D02*
X324455Y159839D01*
X321838Y159395D01*
X319287Y158660D01*
X316835Y157644D01*
X314512Y156360D01*
X312347Y154824D01*
X310368Y153056D01*
X308599Y151076D01*
X307063Y148912D01*
X305779Y146589D01*
X304764Y144136D01*
X304029Y141586D01*
X303584Y138969D01*
X303435Y136319D01*
X303584Y133669D01*
X304029Y131052D01*
X304764Y128501D01*
X305779Y126049D01*
X307063Y123726D01*
X308599Y121561D01*
X310368Y119582D01*
X312347Y117813D01*
X314512Y116277D01*
X316835Y114994D01*
X319287Y113978D01*
X321838Y113243D01*
X324455Y112798D01*
X327105Y112650D01*
X329755Y112798D01*
X332372Y113243D01*
X334922Y113978D01*
X337375Y114994D01*
X339698Y116277D01*
X341862Y117813D01*
X343842Y119582D01*
X345610Y121561D01*
X347146Y123726D01*
X348430Y126049D01*
X349446Y128501D01*
X350181Y131052D01*
X350625Y133669D01*
X350774Y136319D01*
X350625Y138969D01*
X350181Y141586D01*
X349446Y144136D01*
X348430Y146589D01*
X347146Y148912D01*
X345610Y151076D01*
X343842Y153056D01*
X341862Y154824D01*
X339698Y156360D01*
X337375Y157644D01*
X334922Y158660D01*
X332372Y159395D01*
X329755Y159839D01*
X327105Y159988D01*
D02*
G37*
G36*
X370532Y127368D02*
X369838Y127230D01*
X369248Y126836D01*
X369140Y126674D01*
X362983D01*
X362914Y126776D01*
X362325Y127170D01*
X361630Y127308D01*
X360935Y127170D01*
X360346Y126776D01*
X359953Y126187D01*
X359814Y125492D01*
X359953Y124797D01*
X360346Y124208D01*
X360935Y123814D01*
X361630Y123676D01*
X362325Y123814D01*
X362914Y124208D01*
X363063Y124431D01*
X369140D01*
X369248Y124268D01*
X369838Y123874D01*
X370532Y123736D01*
X371227Y123874D01*
X371817Y124268D01*
X372210Y124857D01*
X372348Y125552D01*
X372210Y126247D01*
X371817Y126836D01*
X371227Y127230D01*
X370532Y127368D01*
D02*
G37*
%LPD*%
D13*
X432579Y348130D02*
D03*
X455413Y344980D02*
D03*
X416535Y393898D02*
D03*
X413583Y405315D02*
D03*
X418899Y402658D02*
D03*
X413583Y399803D02*
D03*
X441929Y345571D02*
D03*
D54*
X417224Y327067D02*
Y331299D01*
X412682Y322524D02*
X417224Y327067D01*
X412682Y285498D02*
Y322524D01*
X297736Y280118D02*
X301575Y276279D01*
X297736Y280118D02*
X306915Y289297D01*
X301575Y276279D02*
X353150D01*
X360163Y283293D01*
X371235D01*
X374409Y280118D01*
X412682Y285498D02*
X415288Y282893D01*
X438842D01*
X440945Y279549D02*
X443156Y277337D01*
X438842Y282893D02*
X440945Y280790D01*
Y279549D02*
Y280790D01*
X443156Y277337D02*
X448302D01*
X451083Y280118D01*
X453864Y277337D02*
X524975D01*
X451083Y280118D02*
X453864Y277337D01*
X524975D02*
X527756Y280118D01*
X302559Y387598D02*
Y401673D01*
X316437Y415945D02*
Y432579D01*
X316732Y432874D01*
X302559Y401673D02*
X316634Y415748D01*
X316437Y415945D02*
X316634Y415748D01*
X316732Y432874D02*
Y449606D01*
D55*
X361379Y125552D02*
X370532D01*
X432480Y348031D02*
X432480Y348031D01*
X455217Y344587D02*
X455709Y345079D01*
X413583Y405332D02*
X420849D01*
X333858Y388189D02*
Y397835D01*
Y388189D02*
X334154Y388484D01*
X408982Y327383D02*
X410453Y328855D01*
X461575Y342305D02*
X463561Y344291D01*
X451853Y342305D02*
X461575D01*
X448819Y339272D02*
X451853Y342305D01*
X463561Y344291D02*
X488484D01*
X492323Y348130D01*
X412795Y327559D02*
Y342221D01*
X410582Y325346D02*
X412795Y327559D01*
X390645Y397638D02*
X397360Y390923D01*
X396555Y383093D02*
X397360Y383898D01*
Y390923D01*
X396555Y354331D02*
Y383093D01*
X390645Y397638D02*
Y405419D01*
X430315Y395965D02*
X430566D01*
X426892D02*
X430315D01*
X403920Y325532D02*
Y327443D01*
X333661Y397835D02*
X333858D01*
X399074Y273917D02*
X407382Y282225D01*
X338090Y273917D02*
X399074D01*
X333661Y269488D02*
X338090Y273917D01*
X398977Y276083D02*
X405782Y282888D01*
X365046Y276083D02*
X398977D01*
X361017Y280112D02*
X365046Y276083D01*
X401180Y490983D02*
X404980Y494783D01*
X393443Y490983D02*
X401180D01*
X430566Y395965D02*
X430861Y395669D01*
X361439Y125492D02*
X361630D01*
X361379Y125552D02*
X361439Y125492D01*
X503150Y269488D02*
X507972Y274311D01*
X487008Y269488D02*
X503150D01*
X403920Y325532D02*
X405782Y323669D01*
Y282888D02*
Y323669D01*
X408982Y270841D02*
X410335Y269488D01*
X286700Y277756D02*
X291989D01*
X284344Y280112D02*
X286700Y277756D01*
X407382Y282225D02*
Y325295D01*
X408982Y270841D02*
Y327383D01*
X406201Y326476D02*
X407382Y325295D01*
X367833Y384960D02*
Y389858D01*
X388113Y410138D02*
X396260D01*
X367833Y389858D02*
X388113Y410138D01*
X371949Y375591D02*
X372047Y375689D01*
X371949Y368602D02*
Y375591D01*
X385255Y462129D02*
Y462420D01*
X291989Y277756D02*
X304134Y289901D01*
Y342520D01*
X410582Y283513D02*
X413983Y280112D01*
X437690D01*
X400591Y400886D02*
X402478Y398998D01*
X405276D01*
X333957Y388681D02*
X334154Y388484D01*
X333858Y388681D02*
X333957D01*
X448774Y344587D02*
X455217D01*
X455709Y345079D02*
X461122D01*
X407087Y403642D02*
Y404035D01*
X404331Y401279D02*
Y401673D01*
X405276Y398998D02*
X405957Y399679D01*
X406713Y397067D02*
X425790D01*
X426892Y395965D01*
X405957Y399679D02*
X413459D01*
X413583Y399803D01*
X404331Y401279D02*
X411276D01*
X412475Y402478D01*
X418719D01*
X418702Y402461D02*
X418719Y402478D01*
X418899Y402658D01*
X413583Y405315D02*
Y405332D01*
X413049Y405315D02*
X413583D01*
X407087Y403642D02*
X411376D01*
X413049Y405315D01*
X432480Y348031D02*
X432579Y348130D01*
X410355Y328855D02*
X410453D01*
X388287Y485828D02*
X393443Y490983D01*
X388287Y462106D02*
Y485828D01*
X386687Y486490D02*
X394980Y494783D01*
X385255Y462420D02*
X386687Y463853D01*
Y486490D01*
X420849Y405332D02*
X422539Y403642D01*
X422638D01*
X432480Y344291D02*
Y348031D01*
X413583Y399803D02*
X419980D01*
X421063Y398721D01*
X427362D01*
X420767Y401279D02*
X429921D01*
X418899Y402658D02*
X419389D01*
X420767Y401279D01*
X412795Y342221D02*
X414390Y343816D01*
X403920Y327443D02*
X411195Y334719D01*
Y342884D01*
X412008Y343696D01*
Y345768D01*
X410582Y283513D02*
Y325346D01*
X468701Y460618D02*
Y478150D01*
X470177Y479626D01*
D56*
X412582Y275394D02*
X432677D01*
X367421Y363090D02*
X368209Y362303D01*
X372539D01*
X343209Y415059D02*
X343898Y415748D01*
X316634D02*
X343012D01*
X343209D01*
X343898D01*
D57*
X435236Y150394D02*
X446457Y161614D01*
X314764Y344488D02*
Y347835D01*
X306915Y336639D02*
X314764Y344488D01*
X306915Y289297D02*
Y336639D01*
X446457Y161614D02*
X528937D01*
X543405Y176083D01*
X435236Y142421D02*
Y150394D01*
X411614Y276361D02*
X412582Y275394D01*
X411614Y276361D02*
Y277165D01*
X543405Y176083D02*
Y282382D01*
D60*
X477264Y361221D02*
Y362126D01*
X465906Y373484D02*
X477264Y362126D01*
X460728Y378661D02*
X465906Y373484D01*
X460728Y378661D02*
Y378740D01*
X344193Y386024D02*
X367421Y363090D01*
D62*
X417224Y331299D02*
X418209Y332283D01*
X291634Y476476D02*
X298917D01*
X285039D02*
X291634D01*
X418209Y332283D02*
Y349803D01*
X421555Y353150D01*
X420276Y382382D02*
X421555Y381102D01*
Y353150D02*
Y381102D01*
X429724Y415453D02*
Y425746D01*
X436656Y432677D01*
D63*
X343209Y415748D02*
Y427658D01*
X471161Y389173D02*
Y393799D01*
X460728Y378740D02*
X471161Y389173D01*
X444488Y362500D02*
X460728Y378740D01*
X423622Y362500D02*
X444488D01*
X343209Y415059D02*
Y415748D01*
X343012Y387205D02*
Y415748D01*
D67*
X377658Y179823D02*
D03*
X330413D02*
D03*
X300984D02*
D03*
X253740D02*
D03*
X454331D02*
D03*
X407087D02*
D03*
X531004D02*
D03*
X483760D02*
D03*
X534547Y425197D02*
D03*
D68*
X367815Y174232D02*
D03*
X354035D02*
D03*
X340256D02*
D03*
X367815Y192342D02*
D03*
X354035D02*
D03*
X340256D02*
D03*
X291142Y174232D02*
D03*
X277362D02*
D03*
X263583D02*
D03*
X291142Y192342D02*
D03*
X277362D02*
D03*
X263583D02*
D03*
X444488Y174232D02*
D03*
X430709D02*
D03*
X416929D02*
D03*
X444488Y192342D02*
D03*
X430709D02*
D03*
X416929D02*
D03*
X521162Y174232D02*
D03*
X507382D02*
D03*
X493603D02*
D03*
X521162Y192342D02*
D03*
X507382D02*
D03*
X493603D02*
D03*
X502224Y125591D02*
D03*
Y111811D02*
D03*
Y98032D02*
D03*
X284882Y98031D02*
D03*
Y111811D02*
D03*
Y125591D02*
D03*
X268602Y374705D02*
D03*
Y362894D02*
D03*
Y386516D02*
D03*
X280413D02*
D03*
Y374705D02*
D03*
Y362894D02*
D03*
X284941Y304430D02*
D03*
Y318210D02*
D03*
Y331989D02*
D03*
X268642Y428642D02*
D03*
Y416831D02*
D03*
Y440453D02*
D03*
X280453D02*
D03*
Y428642D02*
D03*
Y416831D02*
D03*
D69*
X291634Y466476D02*
D03*
Y476476D02*
D03*
Y486476D02*
D03*
X505747Y425197D02*
D03*
X517547D02*
D03*
D70*
X533366Y111811D02*
D03*
X253740Y111811D02*
D03*
X253799Y318210D02*
D03*
D71*
X251594Y374705D02*
D03*
X251634Y428642D02*
D03*
D72*
X414980Y494783D02*
D03*
X404980D02*
D03*
X384980D02*
D03*
X394980D02*
D03*
D73*
X456693Y408799D02*
D03*
Y428012D02*
D03*
D74*
X508661Y432972D02*
D03*
X499902Y427461D02*
D03*
X511417Y427362D02*
D03*
X436417Y343406D02*
D03*
X396555Y354331D02*
D03*
X407972Y370571D02*
D03*
X393209Y371752D02*
D03*
X530020Y342618D02*
D03*
X487894Y448622D02*
D03*
X438484Y356496D02*
D03*
X425689Y356201D02*
D03*
X425394Y368307D02*
D03*
X297047Y489961D02*
D03*
X310039Y483858D02*
D03*
X329626Y471850D02*
D03*
X362205Y485040D02*
D03*
X355906D02*
D03*
Y481890D02*
D03*
X352756D02*
D03*
X349607D02*
D03*
Y469292D02*
D03*
X346457Y481890D02*
D03*
Y469292D02*
D03*
X385925Y146063D02*
D03*
X320276Y439272D02*
D03*
X336319Y401870D02*
D03*
X337106Y424606D02*
D03*
X317126Y327362D02*
D03*
X311417Y399114D02*
D03*
X302067Y448130D02*
D03*
X301772Y435925D02*
D03*
X280413Y406791D02*
D03*
X301772Y421555D02*
D03*
X297736Y280118D02*
D03*
X374409D02*
D03*
X451083D02*
D03*
X527756D02*
D03*
X429626Y415256D02*
D03*
X461122Y345079D02*
D03*
X470669Y341831D02*
D03*
X424430Y347064D02*
D03*
X427854Y446850D02*
D03*
X395079Y384842D02*
D03*
X382283Y407874D02*
D03*
X482972Y327067D02*
D03*
X453346Y326673D02*
D03*
X432677Y393602D02*
D03*
X430315Y395965D02*
D03*
X427362Y398721D02*
D03*
X437008Y418799D02*
D03*
X429134Y411516D02*
D03*
X412008Y345768D02*
D03*
X522342Y292224D02*
D03*
X512992Y301673D02*
D03*
X336713Y391339D02*
D03*
X235728Y217520D02*
D03*
X235925Y204823D02*
D03*
X236024Y179626D02*
D03*
X236221Y167224D02*
D03*
X406988Y464272D02*
D03*
X400591Y400886D02*
D03*
X404331Y401279D02*
D03*
X440945Y156201D02*
D03*
X435236Y142421D02*
D03*
X353839Y133858D02*
D03*
X371260Y152067D02*
D03*
X413484Y152264D02*
D03*
X413287Y125098D02*
D03*
X387008Y129937D02*
D03*
X403445Y114469D02*
D03*
X361630Y125492D02*
D03*
X370532Y125552D02*
D03*
X507972Y274311D02*
D03*
X410335Y269488D02*
D03*
X436614Y437008D02*
D03*
X487008Y269488D02*
D03*
X361017Y280112D02*
D03*
X333661Y269488D02*
D03*
X284344Y280112D02*
D03*
X436417Y443110D02*
D03*
X451181Y381988D02*
D03*
X407972Y406988D02*
D03*
X407087Y403642D02*
D03*
X429921Y401279D02*
D03*
X420571Y428839D02*
D03*
X406201Y326476D02*
D03*
X367833Y384960D02*
D03*
X396260Y410138D02*
D03*
X390645Y405419D02*
D03*
X371949Y368602D02*
D03*
X372047Y375689D02*
D03*
X388287Y462106D02*
D03*
X385255Y462129D02*
D03*
X421063Y452658D02*
D03*
X396555Y396260D02*
D03*
X396260Y404921D02*
D03*
X406713Y397067D02*
D03*
X456496Y365158D02*
D03*
X448774Y344587D02*
D03*
X381791Y362402D02*
D03*
X334941Y352953D02*
D03*
X344488Y363287D02*
D03*
X326772Y338386D02*
D03*
X335531Y343209D02*
D03*
X310728Y345177D02*
D03*
X334646Y368307D02*
D03*
X330807Y399902D02*
D03*
X380512Y371161D02*
D03*
X288976Y362205D02*
D03*
X269685Y350590D02*
D03*
X258071Y368799D02*
D03*
X256398Y357677D02*
D03*
X243504Y377165D02*
D03*
X235630Y368307D02*
D03*
X407972Y418405D02*
D03*
X408169Y428740D02*
D03*
X399311Y419291D02*
D03*
X395472Y329232D02*
D03*
X410335Y378839D02*
D03*
X288779Y449803D02*
D03*
X289567Y344488D02*
D03*
X278642Y422539D02*
D03*
X295965Y413189D02*
D03*
X285236Y397539D02*
D03*
X505512Y345472D02*
D03*
X504921Y352854D02*
D03*
X532677Y300098D02*
D03*
X424902Y338878D02*
D03*
X417028Y356398D02*
D03*
X380709Y398917D02*
D03*
X336910Y442126D02*
D03*
X550098Y285827D02*
D03*
X550984Y305534D02*
D03*
Y325241D02*
D03*
Y344948D02*
D03*
Y364654D02*
D03*
Y384361D02*
D03*
Y404068D02*
D03*
Y423775D02*
D03*
X539173Y443504D02*
D03*
X494587Y487795D02*
D03*
X475164Y498425D02*
D03*
X454675D02*
D03*
X434186D02*
D03*
X372720D02*
D03*
X352559Y498327D02*
D03*
X331742Y498425D02*
D03*
X311253D02*
D03*
X235630Y349163D02*
D03*
Y330020D02*
D03*
Y310876D02*
D03*
Y291732D02*
D03*
Y266207D02*
D03*
Y253445D02*
D03*
X518504Y314272D02*
D03*
X504232Y328248D02*
D03*
X492028Y341043D02*
D03*
X258661Y293012D02*
D03*
X262894Y306398D02*
D03*
X273228Y316142D02*
D03*
X282972Y326181D02*
D03*
X290846Y334350D02*
D03*
X417421Y372835D02*
D03*
X257677Y278543D02*
D03*
X278543Y434252D02*
D03*
X381102Y462402D02*
D03*
X361713Y443405D02*
D03*
X385236D02*
D03*
X361221Y422146D02*
D03*
X363090Y396555D02*
D03*
X408169Y443405D02*
D03*
X304134Y342520D02*
D03*
X480709Y380413D02*
D03*
X365158Y462697D02*
D03*
X437690Y280112D02*
D03*
X432677Y275394D02*
D03*
X411614Y277165D02*
D03*
X243799Y390846D02*
D03*
Y405709D02*
D03*
Y420571D02*
D03*
X379724Y477067D02*
D03*
X399016Y379429D02*
D03*
X313976Y374803D02*
D03*
X302559Y387598D02*
D03*
X320965Y382185D02*
D03*
X313681Y364370D02*
D03*
X313779Y359252D02*
D03*
X280118Y354134D02*
D03*
X298228Y396161D02*
D03*
X309646Y387303D02*
D03*
X477264Y361221D02*
D03*
X492323Y348130D02*
D03*
X504134Y366831D02*
D03*
X523524Y367421D02*
D03*
X356890Y455512D02*
D03*
X414390Y343816D02*
D03*
X448819Y339272D02*
D03*
X348622Y342323D02*
D03*
X375230Y329232D02*
D03*
X364042D02*
D03*
X352854D02*
D03*
X386417D02*
D03*
Y334350D02*
D03*
X375230D02*
D03*
X364042D02*
D03*
X392717Y342717D02*
D03*
X400295Y342323D02*
D03*
X400886Y335138D02*
D03*
X393996Y350590D02*
D03*
X411122Y393307D02*
D03*
X344587Y331890D02*
D03*
X477067Y334547D02*
D03*
X439075Y332087D02*
D03*
X417224Y331299D02*
D03*
X410355Y328855D02*
D03*
X462402Y365354D02*
D03*
X302854Y356201D02*
D03*
X295571Y376476D02*
D03*
X301279Y405315D02*
D03*
X422638Y403642D02*
D03*
X432480Y344291D02*
D03*
X420276Y382382D02*
D03*
X422933Y386221D02*
D03*
X427461Y388189D02*
D03*
X438189Y368307D02*
D03*
X452362Y356988D02*
D03*
X454823Y335138D02*
D03*
X437205Y385531D02*
D03*
X481201Y405905D02*
D03*
X314764Y347835D02*
D03*
X372539Y362303D02*
D03*
X316437Y432579D02*
D03*
X316634Y415748D02*
D03*
X343307Y429724D02*
D03*
X346457Y466142D02*
D03*
X436656Y432677D02*
D03*
X339862Y458563D02*
D03*
X471161Y389173D02*
D03*
Y393799D02*
D03*
X465906Y373484D02*
D03*
X316732Y449606D02*
D03*
X470177Y479626D02*
D03*
X468701Y460618D02*
D03*
X472047Y459941D02*
D03*
X481102Y469783D02*
D03*
X468504Y411713D02*
D03*
X465650Y465354D02*
D03*
X464567Y485827D02*
D03*
X431201Y486417D02*
D03*
X431791Y473228D02*
D03*
X395965Y477362D02*
D03*
X395079Y458366D02*
D03*
X475098Y431988D02*
D03*
X488779Y432185D02*
D03*
X504232Y388090D02*
D03*
X504331Y379921D02*
D03*
X480512Y388779D02*
D03*
X344193Y386024D02*
D03*
X343307Y425886D02*
D03*
X349016Y409252D02*
D03*
X349114Y422933D02*
D03*
X349213Y442028D02*
D03*
X311516Y462106D02*
D03*
X325197Y482579D02*
D03*
X489567Y355217D02*
D03*
X351870Y353248D02*
D03*
X361221Y353051D02*
D03*
X371654Y350492D02*
D03*
D75*
X521654Y206693D02*
D03*
Y187008D02*
D03*
Y167323D02*
D03*
X516732Y216535D02*
D03*
Y196850D02*
D03*
Y177165D02*
D03*
X511811Y167323D02*
D03*
X501968Y187008D02*
D03*
Y167323D02*
D03*
X492126D02*
D03*
X467520Y216535D02*
D03*
X462598Y206693D02*
D03*
X467520Y196850D02*
D03*
X462598Y187008D02*
D03*
X457677Y216535D02*
D03*
X452756Y206693D02*
D03*
X457677Y196850D02*
D03*
X452756Y167323D02*
D03*
X447835Y216535D02*
D03*
X442913Y206693D02*
D03*
X447835Y196850D02*
D03*
X442913Y187008D02*
D03*
Y167323D02*
D03*
X437992Y177165D02*
D03*
X433071Y167323D02*
D03*
X423228D02*
D03*
X413386D02*
D03*
X403543Y187008D02*
D03*
Y167323D02*
D03*
X398622Y177165D02*
D03*
X393701Y167323D02*
D03*
X388779Y216535D02*
D03*
X383858Y206693D02*
D03*
X388779Y196850D02*
D03*
X383858Y187008D02*
D03*
X388779Y177165D02*
D03*
X383858Y167323D02*
D03*
X378937Y216535D02*
D03*
X374016Y206693D02*
D03*
X378937Y196850D02*
D03*
X374016Y187008D02*
D03*
Y167323D02*
D03*
X369094Y216535D02*
D03*
X364173Y206693D02*
D03*
Y187008D02*
D03*
Y167323D02*
D03*
X354331Y187008D02*
D03*
X359252Y177165D02*
D03*
X354331Y167323D02*
D03*
X349410Y177165D02*
D03*
X344488Y167323D02*
D03*
X334646D02*
D03*
X324803Y187008D02*
D03*
Y167323D02*
D03*
X314961D02*
D03*
X310039Y216535D02*
D03*
X305118Y206693D02*
D03*
X310039Y196850D02*
D03*
X305118Y187008D02*
D03*
X310039Y177165D02*
D03*
X305118Y167323D02*
D03*
X300197Y216535D02*
D03*
X295276Y206693D02*
D03*
X300197Y196850D02*
D03*
X295276Y187008D02*
D03*
Y167323D02*
D03*
X290354Y216535D02*
D03*
X285433Y206693D02*
D03*
Y187008D02*
D03*
Y167323D02*
D03*
X275591D02*
D03*
X270669Y177165D02*
D03*
X265748Y167323D02*
D03*
X255906D02*
D03*
X246063Y187008D02*
D03*
Y167323D02*
D03*
X241142Y196850D02*
D03*
X236221Y187008D02*
D03*
X333661Y397835D02*
D03*
X400000Y280610D02*
D03*
X384252D02*
D03*
X537598D02*
D03*
X476673D02*
D03*
X469193D02*
D03*
X460925D02*
D03*
X392520D02*
D03*
X307579D02*
D03*
X323327D02*
D03*
X315846D02*
D03*
X521063Y280315D02*
D03*
X444390D02*
D03*
X367717D02*
D03*
X291043D02*
D03*
X247638Y207480D02*
D03*
Y214173D02*
D03*
Y220866D02*
D03*
Y227559D02*
D03*
Y234252D02*
D03*
X254331Y207480D02*
D03*
Y214173D02*
D03*
Y220866D02*
D03*
Y227559D02*
D03*
Y234252D02*
D03*
X261023Y207480D02*
D03*
Y214173D02*
D03*
X267716Y207480D02*
D03*
Y214173D02*
D03*
X274409Y207480D02*
D03*
Y214173D02*
D03*
X321260Y207480D02*
D03*
Y214173D02*
D03*
Y220866D02*
D03*
Y227559D02*
D03*
Y234252D02*
D03*
X327953Y207480D02*
D03*
Y214173D02*
D03*
Y220866D02*
D03*
Y227559D02*
D03*
Y234252D02*
D03*
X334646Y207480D02*
D03*
Y214173D02*
D03*
X341338Y207480D02*
D03*
Y214173D02*
D03*
X348031Y207480D02*
D03*
Y214173D02*
D03*
X394882Y207480D02*
D03*
Y214173D02*
D03*
Y220866D02*
D03*
Y227559D02*
D03*
Y234252D02*
D03*
X401575Y207480D02*
D03*
Y214173D02*
D03*
Y220866D02*
D03*
Y227559D02*
D03*
Y234252D02*
D03*
X408267Y207480D02*
D03*
Y214173D02*
D03*
Y220866D02*
D03*
Y227559D02*
D03*
Y234252D02*
D03*
X414960Y207480D02*
D03*
Y214173D02*
D03*
X421653Y207480D02*
D03*
Y214173D02*
D03*
X428346Y207480D02*
D03*
Y214173D02*
D03*
X333858Y388681D02*
D03*
X475197Y207480D02*
D03*
Y214173D02*
D03*
Y220866D02*
D03*
Y227559D02*
D03*
Y234252D02*
D03*
X481889Y207480D02*
D03*
Y214173D02*
D03*
Y220866D02*
D03*
Y227559D02*
D03*
Y234252D02*
D03*
X488582Y207480D02*
D03*
Y214173D02*
D03*
Y227559D02*
D03*
Y234252D02*
D03*
X495275Y207480D02*
D03*
Y214173D02*
D03*
Y227559D02*
D03*
Y234252D02*
D03*
X501968Y207480D02*
D03*
Y214173D02*
D03*
Y227559D02*
D03*
Y234252D02*
D03*
M02*
