M48
;Layer_Color=9474304
;FILE_FORMAT=2:5
INCH,LZ
;TYPE=PLATED
T1F00S00C0.01181
T2F00S00C0.01968
T3F00S00C0.04000
T4F00S00C0.04016
T5F00S00C0.04173
T6F00S00C0.04528
T7F00S00C0.05000
T8F00S00C0.09055
;TYPE=NON_PLATED
T9F00S00C0.11811
T10F00S00C0.12000
T11F00S00C0.12205
T12F00S00C0.21654
%
T01
X036163Y0125492
X0370532Y0125552
X0387008Y0129937
X0385925Y0146063
X037126Y0152067
X0353839Y0133858
X0413287Y0125098
X0403445Y0114469
X0413484Y0152264
X0440945Y0156201
X0435236Y0142421
X0492126Y0167323
X0501968
X0511811
X0521654
X0516732Y0177165
X0521654Y0187008
X0516732Y019685
X0521654Y0206693
X0516732Y0216535
X0501968Y0214173
X0495275
X0488582
X0481889
X0475197
Y020748
X0481889
X0488582
X0495275
X0501968
Y0227559
X0495275
X0488582
X0481889
X0475197
Y0220866
X0481889
Y0234252
X0475197
X0488582
X0495275
X0501968
X0507972Y0274311
X0521063Y0280315
X0527756Y0280118
X0537598Y028061
X0550098Y0285827
X0550984Y0305534
X0532677Y0300098
X0522342Y0292224
X0512992Y0301673
X0476673Y028061
X0469193
X0487008Y0269488
X0501968Y0187008
X0462598
X046752Y019685
X0457677
X0447835
X0452756Y0206693
X0462598
X046752Y0216535
X0457677
X0447835
X0442913Y0206693
X0428346Y020748
X0421653
X041496
X0408267
X0401575
X0394882
Y0214173
Y0220866
Y0227559
Y0234252
X0401575
Y0227559
Y0220866
Y0214173
X0408267
Y0220866
Y0227559
Y0234252
X041496Y0214173
X0421653
X0428346
X0442913Y0187008
X0437992Y0177165
X0442913Y0167323
X0452756
X0433071
X0423228
X0413386
X0403543
X0393701
X0383858
X0374016
X0364173
X0354331
X0344488
X0334646
X0324803
X0314961
X0324803Y0187008
X0327953Y020748
X032126
Y0214173
Y0220866
Y0227559
Y0234252
X0327953
Y0227559
Y0220866
Y0214173
X0334646
Y020748
X0341338
Y0214173
X0348031
Y020748
X0364173Y0206693
X0374016
X0383858
X0388779Y0216535
X0378937
X0369094
X0378937Y019685
X0388779
X0383858Y0187008
X0374016
X0364173
X0354331
X0359252Y0177165
X034941
X0388779
X0398622
X0403543Y0187008
X0410335Y0269488
X0411614Y0277165
X04Y028061
X039252
X0384252
X0374409Y0280118
X0367717Y0280315
X0361017Y0280112
X0333661Y0269488
X0323327Y028061
X0315846
X0432677Y0275394
X043769Y0280112
X044439Y0280315
X0451083Y0280118
X0460925Y028061
X0307579
X0297736Y0280118
X0291043Y0280315
X0284344Y0280112
X0257677Y0278543
X0258661Y0293012
X0262894Y0306398
X023563Y0310876
Y0291732
Y0266207
Y0253445
X0247638Y0234252
Y0227559
Y0220866
Y0214173
Y020748
X0254331
Y0214173
Y0220866
Y0227559
Y0234252
X0261023Y0214173
Y020748
X0267716
Y0214173
X0274409
Y020748
X0285433Y0206693
X0295276
X0305118
X0310039Y0216535
X0300197
X0290354
X0300197Y019685
X0310039
X0305118Y0187008
X0295276
X0285433
Y0167323
X0295276
X0305118
X0310039Y0177165
X0270669
X0275591Y0167323
X0265748
X0255906
X0246063
X0236221Y0167224
X0236024Y0179626
X0236221Y0187008
X0246063
X0241142Y019685
X0235925Y0204823
X0235728Y021752
X023563Y033002
Y0349163
Y0368307
X0243504Y0377165
X0243799Y0390846
Y0405709
Y0420571
X0278642Y0422539
X0278543Y0434252
X0301772Y0435925
X0302067Y044813
X0288779Y0449803
X0311516Y0462106
X0301772Y0421555
X0295965Y0413189
X0301279Y0405315
X0298228Y0396161
X0302559Y0387598
X0309646Y0387303
X0311417Y0399114
X0285236Y0397539
X0280413Y0406791
X0295571Y0376476
X0288976Y0362205
X0280118Y0354134
X0269685Y035059
X0256398Y0357677
X0258071Y0368799
X0289567Y0344488
X0290846Y033435
X0282972Y0326181
X0273228Y0316142
X0304134Y034252
X0310728Y0345177
X0302854Y0356201
X0313779Y0359252
X0313681Y036437
X0313976Y0374803
X0320965Y0382185
X0333858Y0388681
X0336713Y0391339
X0333661Y0397835
X0330807Y0399902
X0336319Y040187
X0349016Y0409252
X0349114Y0422933
X0343307Y0425886
Y0429724
X0337106Y0424606
X033691Y0442126
X0349213Y0442028
X0361713Y0443405
X035689Y0455512
X0365158Y0462697
X0381102Y0462402
X0385255Y0462129
X0388287Y0462106
X0395079Y0458366
X0406988Y0464272
X0408169Y0443405
Y042874
X0407972Y0418405
X0399311Y0419291
X039626Y0410138
Y0404921
X0390645Y0405419
X0382283Y0407874
X0380709Y0398917
X0396555Y039626
X0400591Y0400886
X0404331Y0401279
X0407087Y0403642
X0407972Y0406988
X0406713Y0397067
X0411122Y0393307
X0410335Y0378839
X0407972Y0370571
X0417421Y0372835
X0420276Y0382382
X0422933Y0386221
X0427461Y0388189
X0432677Y0393602
X0430315Y0395965
X0427362Y0398721
X0429921Y0401279
X0422638Y0403642
X0429134Y0411516
X0429626Y0415256
X0437008Y0418799
X0436656Y0432677
X0436614Y0437008
X0436417Y044311
X0427854Y044685
X0421063Y0452658
X0420571Y0428839
X0385236Y0443405
X0361221Y0422146
X036309Y0396555
X0367833Y038496
X0372047Y0375689
X0371949Y0368602
X0372539Y0362303
X0381791Y0362402
X0380512Y0371161
X0393209Y0371752
X0399016Y0379429
X0395079Y0384842
X0396555Y0354331
X0393996Y035059
X0392717Y0342717
X0400295Y0342323
X0400886Y0335138
X0395472Y0329232
X0386417
Y033435
X037523
Y0329232
X0364042
Y033435
X0352854Y0329232
X0344587Y033189
X0348622Y0342323
X0335531Y0343209
X0334941Y0352953
X0334646Y0368307
X0344488Y0363287
X035187Y0353248
X0361221Y0353051
X0371654Y0350492
X0412008Y0345768
X041439Y0343816
X042443Y0347064
X0424902Y0338878
X043248Y0344291
X0436417Y0343406
X0448774Y0344587
X0448819Y0339272
X0454823Y0335138
X0453346Y0326673
X0439075Y0332087
X0417224Y0331299
X0410355Y0328855
X0406201Y0326476
X0417028Y0356398
X0425689Y0356201
X0425394Y0368307
X0438189
X0438484Y0356496
X0452362Y0356988
X0456496Y0365158
X0462402Y0365354
X0465906Y0373484
X0451181Y0381988
X0437205Y0385531
X0468504Y0411713
X0468701Y0460618
X046565Y0465354
X0346457Y0466142
X0339862Y0458563
X0316732Y0449606
X0320276Y0439272
X0316437Y0432579
X0316634Y0415748
X0344193Y0386024
X0326772Y0338386
X0317126Y0327362
X0314764Y0347835
X0461122Y0345079
X0470669Y0341831
X0477067Y0334547
X0482972Y0327067
X0504232Y0328248
X0505512Y0345472
X0504921Y0352854
X0504134Y0366831
X0504331Y0379921
X0504232Y038809
X0480512Y0388779
X0480709Y0380413
X0471161Y0389173
Y0393799
X0481201Y0405905
X0475098Y0431988
X0488779Y0432185
X0499902Y0427461
X0511417Y0427362
X0508661Y0432972
X0487894Y0448622
X0472047Y0459941
X0539173Y0443504
X0550984Y0423775
Y0404068
Y0384361
Y0364654
Y0344948
Y0325241
X053002Y0342618
X0523524Y0367421
X0489567Y0355217
X0492323Y034813
X0492028Y0341043
X0477264Y0361221
X0518504Y0314272
X0481102Y0469783
X0470177Y0479626
X0475164Y0498425
X0494587Y0487795
X0464567Y0485827
X0454675Y0498425
X0434186
X0431201Y0486417
X0431791Y0473228
X0395965Y0477362
X0379724Y0477067
X0362205Y048504
X0355906
Y048189
X0352756
X0349607
X0346457
Y0469292
X0349607
X0329626Y047185
X0325197Y0482579
X0331742Y0498425
X0352559Y0498327
X037272Y0498425
X0311253
X0310039Y0483858
X0297047Y0489961
T02
X0456693Y0408799
Y0428012
T03
X038498Y0494783
X039498
X040498
X041498
T04
X0268602Y0362894
Y0374705
Y0386516
X0280413
Y0374705
Y0362894
X0280453Y0416831
Y0428642
Y0440453
X0268642
Y0428642
Y0416831
T05
X0284882Y0098031
Y0111811
Y0125591
X0502224Y0125591
Y0111811
Y0098032
X0507382Y0174232
X0521162
Y0192342
X0507382
X0493603
Y0174232
X0444488
X0430709
X0416929
Y0192342
X0430709
X0444488
X0367815
X0354035
X0340256
Y0174232
X0354035
X0367815
X0291142
X0277362
X0263583
Y0192342
X0277362
X0291142
X0284941Y030443
Y031821
Y0331989
T06
X0291634Y0466476
Y0476476
Y0486476
T07
X0505747Y0425197
X0517547
T08
X048376Y0179823
X0531004
X0454331
X0407087
X0377658
X0330413
X0300984
X025374
T09
X0251594Y0374705
X0251634Y0428642
T10
X0534547Y0425197
T11
X025374Y0111811
X0533366Y0111811
X0253799Y031821
T12
X0327105Y0136319
X0473327
X0529232Y0479335
X0257874
M30
